<?xml version="1.0" encoding="UTF-8"?>
<!DOCTYPE svg PUBLIC "-//W3C//DTD SVG 1.1//EN" "http://www.w3.org/Graphics/SVG/1.1/DTD/svg11.dtd">
<!-- Creator: CorelDRAW 2018 (64-Bit) -->
<svg xmlns="http://www.w3.org/2000/svg" xml:space="preserve" width="344.746mm" height="346.062mm" version="1.1" style="shape-rendering:geometricPrecision; text-rendering:geometricPrecision; image-rendering:optimizeQuality; fill-rule:evenodd; clip-rule:evenodd"
viewBox="0 0 8192.77 8224.03"
 xmlns:xlink="http://www.w3.org/1999/xlink">
 <defs>
  <style type="text/css">
   <![CDATA[
    .fil0 {fill:#EAB91D}
    .fil1 {fill:#8A4A31}
    .fil2 {fill:#838A8C;fill-rule:nonzero}
   ]]>
  </style>
    <clipPath id="id0">
     <path d="M6111.63 4579.12c-58.38,58.29 -152.84,58.29 -211.19,0 -58.35,-58.29 -58.35,-152.87 0,-211.16 58.35,-58.29 152.81,-58.29 211.19,0 58.35,58.29 58.35,152.87 0,211.16zm-1965.1 1048.96c-58.32,58.29 -152.81,58.29 -211.13,0 -58.35,-58.29 -58.35,-152.87 0,-211.16 58.32,-58.29 152.81,-58.29 211.13,0 58.35,58.29 58.35,152.87 0,211.16zm-1999.3 -1048.96c-58.35,58.29 -152.87,58.29 -211.19,0 -58.35,-58.29 -58.35,-152.87 0,-211.16 58.32,-58.29 152.84,-58.29 211.19,0 58.29,58.29 58.29,152.87 0,211.16zm4215.82 -462.61c-197.28,-197.16 -516.85,-197.16 -714.04,0 -37.63,37.72 -68.09,79.72 -91.38,124.87l-317.26 0c20.32,-18.57 40.26,-37.72 59.69,-57.15 322.29,-322.31 521.65,-767.5 521.65,-1259.26 0,-191.73 -42.35,-437.47 -118.73,-680.92 -69.15,-220.59 -167.41,-443.18 -288.88,-627.2 -22.72,-36 -55.66,-66.29 -97.1,-85.72 -115.78,-54.58 -253.94,-5.15 -308.51,110.58 -113.18,238.59 -260.23,369.18 -393.04,434.33 195.19,-422.9 334.26,-1061.82 -294.66,-1969.9 -30.69,-47.43 -78.61,-84.01 -137.67,-98.87 -124.24,-31.72 -250.59,43.43 -282.14,167.73 -104.26,408.61 -398.84,678.35 -697.84,952.09 -268.6,246.02 -540.28,494.9 -722.58,839.79l555.17 0c139.33,-187.16 310.14,-343.46 479.56,-498.62 237.79,-217.73 473.24,-433.47 643.35,-717.21 304.26,668.06 59.29,1103.82 -87.95,1365.56 -9.14,16.57 -15.89,28.29 -34.35,62.01 -63.81,116.01 -43.03,224.31 49.12,313.46 46.8,45.43 116.7,79.72 199.62,94.3 55.49,9.71 124.33,12.57 200.68,4.28 201.91,-21.72 476.22,-124.58 709.35,-391.18 24.06,59.72 45.86,121.15 65.06,182.3 62.38,199.16 97.01,395.18 97.01,543.19 0,363.46 -147.39,692.64 -385.58,930.95 -238.11,238.02 -567.22,385.46 -930.63,385.46 -363.46,0 -692.58,-147.44 -930.72,-385.46 -184.1,-184.3 -313.94,-422.61 -363.35,-689.21l-470.39 0c53.57,394.89 236.74,748.93 505.27,1017.52 19.46,19.43 39.38,38.57 59.75,57.15l-351.55 0c-23.29,-45.15 -53.72,-87.15 -91.41,-124.87 -197.19,-197.16 -516.76,-197.16 -713.98,0 -197.16,197.16 -197.16,516.9 0,714.07 197.22,197.16 516.79,197.16 713.98,0 37.69,-37.72 68.12,-79.72 91.41,-124.87l1318.67 0 0 368.32c-44.89,23.14 -87.04,53.72 -124.7,91.44 -197.16,197.16 -197.16,516.62 0,714.07 197.16,197.16 516.82,197.16 713.95,0 197.19,-197.45 197.19,-516.91 0,-714.07 -37.66,-37.72 -79.78,-68.29 -124.67,-91.44l0 -368.32 1284.38 0c23.23,45.15 53.63,87.15 91.38,124.87 197.19,197.16 516.76,197.16 714.04,0 197.19,-197.16 197.19,-516.9 0,-714.07z"/>
    </clipPath>
 </defs>
 <g id="Layer_x0020_1">
  <metadata id="CorelCorpID_0Corel-Layer"/>
  <path class="fil0" d="M2300.7 2916.39l629.69 0c40.23,0 73.12,-32.86 73.12,-73.15l0 -629.77c0,-40.29 -32.89,-73.15 -73.12,-73.15l-629.69 0c-40.23,0 -73.15,32.86 -73.15,73.15l0 629.77c0,40.29 32.92,73.15 73.15,73.15z"/>
  <path class="fil0" d="M3271.05 2561.22l263.08 0c16.8,0 30.54,-13.72 30.54,-30.58l0 -263.17c0,-16.86 -13.74,-30.58 -30.54,-30.58l-263.08 0c-16.8,0 -30.52,13.72 -30.52,30.58l0 263.17c0,16.86 13.72,30.58 30.52,30.58z"/>
  <g>
   <g style="clip-path:url(#id0)">
    <image x="1536.74" y="0" width="4974.2" height="6027.4" xlink:href="1.svg_Images\1.svg_ImgID1.png"/>
   </g>
  </g>
  <path class="fil0" d="M3189.27 2938.97l0 483.19c0,30.86 25.2,56 56.12,56l483.05 0c30.89,0 56.15,-25.15 56.15,-56l0 -483.19c0,-30.86 -25.26,-56 -56.15,-56l-483.05 0c-30.92,0 -56.12,25.14 -56.12,56z"/>
  <path class="fil1" d="M4273.26 4705.7c412.64,-29.14 863.42,-147.44 1193.4,-464.33l-226.28 0c-421.18,384.04 -698.58,398.89 -967.12,464.33z"/>
  <path class="fil2" d="M156.36 7288.8c-31.03,-13.14 -58.03,-30.58 -80.98,-53.15 -22.98,-22.29 -41.26,-48.29 -54.89,-78.01 -13.66,-29.72 -20.49,-62 -20.49,-96.86l0 -474.62c0,-24.86 8.69,-45.72 26.06,-63.15 17.37,-17.43 38.46,-26.29 63.29,-26.29 23.55,0 44.35,8.86 62.35,26.29 17.97,17.43 26.98,38.29 26.98,63.15l0 474.62c0,18.57 7.14,34.86 21.4,48.29 14.26,13.71 30.72,20.57 49.32,20.57l1116.7 0c24.83,0 45.92,8.86 63.29,26 17.37,17.43 26.06,38.57 26.06,63.43 0,24.86 -8.69,46.01 -26.06,63.15 -17.37,17.43 -38.46,26.29 -63.29,26.29l-1111.1 0c-34.75,0 -67.63,-6.57 -98.64,-19.72z"/>
  <path class="fil2" d="M2832.69 7106.5c27.29,-15.72 48.69,-34.58 64.2,-56.86 15.52,-22.29 26.06,-46.86 31.66,-73.44 5.57,-26.57 8.37,-51.15 8.37,-73.44 0,-22.57 -2.8,-46.86 -8.37,-73.72 -5.6,-26.57 -16.15,-51.15 -31.66,-73.44 -15.52,-22.29 -36.92,-41.15 -64.2,-56.86 -27.29,-15.43 -62.04,-23.14 -104.21,-23.14l-751.93 0c-43.43,0 -78.49,7.71 -105.15,23.14 -26.69,15.72 -47.78,34.58 -63.29,56.86 -15.52,22.29 -26.03,46.86 -31.63,73.44 -5.57,26.86 -8.37,51.15 -8.37,73.72 0,22.29 2.8,46.86 8.37,73.44 5.6,26.57 16.12,51.15 31.63,73.44 15.51,22.29 36.6,41.15 63.29,56.86 26.66,15.43 61.72,23.14 105.15,23.14l751.93 0c42.18,0 76.92,-7.71 104.21,-23.14zm277.31 -203.73c0,47.15 -7.74,94.58 -23.26,142.3 -15.52,47.72 -38.14,91.15 -67.92,130.3 -29.77,39.15 -65.78,70.86 -107.95,95.72 -42.2,24.86 -89.98,37.43 -143.33,37.43l-848.68 0c-50.89,-2.57 -96.15,-16.57 -135.87,-42 -39.72,-25.43 -73.52,-57.43 -101.41,-95.72 -27.94,-38.57 -49.35,-81.44 -64.23,-128.58 -14.89,-47.15 -22.32,-93.72 -22.32,-139.44 0,-47.15 7.72,-94.58 23.26,-142.59 15.49,-47.72 38.15,-91.15 67.92,-130.3 29.77,-38.86 65.75,-70.86 107.95,-95.72 42.18,-24.86 89.95,-37.43 143.3,-37.43l848.71 0c50.86,2.57 96.12,16.57 135.87,42 39.69,25.43 73.52,57.43 101.44,96.01 27.92,38.29 49.32,81.15 64.2,128.3 14.89,47.15 22.32,93.72 22.32,139.73z"/>
  <path class="fil2" d="M4595.18 7059.92c34.72,24.29 70.09,50.58 106.15,79.15 13.57,10 25.4,21.43 35.29,34.29 9.97,13.14 14.92,28.29 14.92,45.72 0,24.86 -8.72,46.01 -26.06,63.15 -17.34,17.43 -38.49,26.29 -63.29,26.29 -21.06,0 -42.18,-8.86 -63.23,-26.29 -50.89,-37.15 -103.04,-73.15 -156.36,-108.01 -53.38,-34.58 -108.87,-65.72 -166.59,-92.87 -57.69,-27.43 -117.55,-49.15 -179.59,-65.15 -62.06,-16.29 -126.55,-24.29 -193.56,-24.29l-370.38 0c-16.15,2.57 -29.77,10 -40.95,22.29 -11.17,12.57 -16.74,28 -16.74,46.58l0 158.3c0,24.86 -9,46.01 -27,63.15 -17.97,17.43 -38.77,26.29 -62.35,26.29 -24.83,0 -45.89,-8.86 -63.26,-26.29 -17.4,-17.14 -26.06,-38.29 -26.06,-63.15l0 -178.59c0,-31.15 5.89,-60.58 17.69,-88.58 11.77,-28 27.57,-52 47.46,-72.58 19.83,-20.58 43.4,-36.58 70.72,-48.29 27.26,-11.71 57.06,-17.71 89.32,-17.71l986.44 0c18.63,0 35.06,-6.57 49.32,-19.72 14.23,-12.86 21.37,-29.43 21.37,-49.15 0,-18.57 -7.14,-34.86 -21.37,-48.29 -14.26,-13.71 -30.69,-20.57 -49.32,-20.57l-1122.31 0c-24.83,0 -45.89,-8.86 -63.26,-26 -17.4,-17.43 -26.06,-38.57 -26.06,-63.43 0,-24.86 8.66,-45.72 26.06,-63.15 17.37,-17.43 38.43,-26.29 63.26,-26.29l1114.85 0c34.72,0 67.32,6.57 97.67,19.72 30.43,13.14 57.09,30.58 80.07,53.15 22.97,22.29 40.92,48.29 54,78.01 12.97,29.72 19.52,62 19.52,96.86 0,34.86 -6.54,66.86 -19.52,96.58 -13.08,30 -31.03,56 -54,78.29 -22.98,22.29 -49.63,40 -80.07,53.15 -30.35,12.86 -62.95,19.43 -97.67,19.43l-7.46 0c33.55,21.15 67.67,43.72 102.35,68.01z"/>
  <path class="fil2" d="M5164.69 7308.52c-27.32,0 -54.58,-6 -81.92,-17.72 -27.23,-12 -51.46,-28.29 -72.58,-49.43 -21.06,-21.15 -38.4,-46.58 -52.06,-76.29 -13.69,-29.72 -20.46,-63.43 -20.46,-100.58l0 -167.45c0,-33.43 9.54,-56 28.83,-67.15 19.2,-11.14 49.29,-16.57 90.29,-16.57l1248.83 0c24.8,0 45.86,8.57 63.21,26 17.43,17.43 26.09,38.57 26.09,63.43 0,24.58 -8.66,45.72 -26.09,63.15 -17.35,17.43 -38.4,26 -63.21,26l-1189.31 0 0 91.15c0,12.57 5.29,23.43 15.86,32.57 10.46,9.43 24.49,14 41.83,14l1172.54 0c24.8,0 45.95,8.86 63.29,26 17.34,17.43 26.06,38.57 26.06,63.43 0,24.86 -8.71,46.01 -26.06,63.15 -17.35,17.43 -38.49,26.29 -63.29,26.29l-1181.85 0zm-227.02 -722.35c0,-24.86 8.63,-45.72 26.06,-63.15 17.37,-17.43 38.4,-26.29 63.21,-26.29l1319.61 0c24.8,0 45.95,8.86 63.29,26.29 17.34,17.43 26.06,38.29 26.06,63.15 0,24.86 -8.71,46.01 -26.06,63.43 -17.35,17.15 -38.49,26 -63.29,26l-1319.61 0c-24.8,0 -45.83,-8.86 -63.21,-26 -17.43,-17.43 -26.06,-38.57 -26.06,-63.43z"/>
  <path class="fil2" d="M8192.77 7219.08c0,24.86 -8.63,46.01 -25.97,63.15 -17.46,17.43 -38.49,26.29 -63.29,26.29 -24.83,0 -45.95,-8.86 -63.32,-26.29 -17.34,-17.14 -26.06,-38.29 -26.06,-63.15l0 -405.75c0,-50.86 -3.12,-76.29 -9.32,-76.29 -4.94,0 -22.29,16.57 -52.06,50.29l-409.44 465.19c-16.2,18.57 -36.06,32.57 -59.61,42 -23.57,9.14 -49.06,14 -76.29,14 -27.34,0 -52.75,-4.86 -76.29,-14 -23.57,-9.43 -43.43,-23.43 -59.63,-42l-409.44 -465.19c-28.52,-33.72 -45.86,-50.29 -52.06,-50.29 -6.2,0 -9.32,25.43 -9.32,76.29l0 405.75c0,24.86 -8.71,46.01 -26.06,63.15 -17.37,17.43 -38.49,26.29 -63.32,26.29 -24.8,0 -45.83,-8.86 -63.26,-26.29 -17.37,-17.14 -26,-38.29 -26,-63.15l0 -543.48c0,-49.72 14.26,-91.72 42.75,-126.58 28.6,-34.86 67.66,-52.29 117.3,-52.29 29.74,0 56.43,7.71 79.98,22.57 23.55,14.86 45.35,32.86 65.12,54.01l428.1 487.47c6.2,6.29 14,12.86 23.29,19.72 9.32,6.86 18.86,10 28.86,10 9.89,0 19.52,-3.14 28.83,-10 9.29,-6.86 17,-13.43 23.29,-19.72l426.15 -487.47 1.94 0c17.35,-23.72 38.38,-42.29 63.21,-56.01 24.8,-13.71 52.15,-20.57 81.89,-20.57 49.63,0 88.69,17.43 117.3,52.29 28.49,34.86 42.75,76.86 42.75,126.58l0 543.48z"/>
  <polygon class="fil2" points="2277.61,7839.14 2077.57,7839.14 2077.57,8224.03 1962.75,8224.03 1962.75,7839.14 1762.02,7839.14 1762.02,7741.42 2277.61,7741.42 "/>
  <path class="fil2" d="M2741.63 8010.87l-90.89 -179.45 -6.23 0 -93.87 179.45 190.99 0zm240.59 213.16l-134.27 0 -58.04 -116.87 -288.37 0 -58.83 116.87 -133.47 0 246.08 -482.62 180.82 0 246.08 482.62z"/>
  <path class="fil2" d="M3741.21 8029.73c0,82.86 -18.34,137.16 -55,163.44 -29.32,20.57 -87.98,30.86 -175.99,30.86l-118.93 0c-81.58,0 -137.27,-11.71 -167.04,-35.15 -34.38,-26.86 -51.58,-79.72 -51.58,-158.01l0 -74.87c0,-86.58 15.34,-144.3 46.06,-173.16 29.32,-28.57 87.75,-42.57 175.3,-42.57l104.5 0c81.58,0 137.27,6 167.07,18.29 50.4,20.57 75.61,64.29 75.61,131.44l-118.24 0c0.46,-29.43 -27.43,-44 -83.69,-44 -5.97,0 -13.74,0 -23.34,0 -9.14,0 -15.32,0 -18.52,0l-89.86 0c-49.86,0 -82.35,7.14 -97.44,21.43 -15.09,14.29 -22.63,46.01 -22.63,95.72l0 50.86c0,45.15 7.97,74.29 23.97,87.72 14.14,12 44.49,17.71 91.04,17.71l93.12 0c44.29,0 70.06,-0.29 77.38,-1.43 19.14,-2.57 32.29,-10.29 39.38,-22.57 7.06,-12.57 10.6,-35.43 10.6,-68.58l-172.56 0 0 -93.44 290.8 0 0 96.3z"/>
  <polygon class="fil2" points="4355.75,8224.03 3947.46,8224.03 3947.46,7741.42 4062.24,7741.42 4062.24,8127.74 4355.75,8127.74 "/>
  <polygon class="fil2" points="4568.2,8224.03 4683.05,8224.03 4683.05,7741.47 4568.2,7741.47 "/>
  <polygon class="fil2" points="5492.15,8224.03 5356.24,8224.03 5041.87,7864 5041.87,8224.03 4927.09,8224.03 4927.09,7741.42 5097.54,7741.42 5377.39,8071.45 5377.39,7741.42 5492.15,7741.42 "/>
  <polygon class="fil2" points="6219.44,8224.03 5731.34,8224.03 5731.34,7741.42 6219.44,7741.42 6219.44,7837.71 5846.2,7837.71 5846.2,7926.58 6207.78,7926.58 6207.78,8022.59 5846.2,8022.59 5846.2,8127.74 6219.44,8127.74 "/>
 </g>
</svg>
