<?xml version="1.0" encoding="UTF-8"?>
<!DOCTYPE svg PUBLIC "-//W3C//DTD SVG 1.1//EN" "http://www.w3.org/Graphics/SVG/1.1/DTD/svg11.dtd">
<!-- Creator: CorelDRAW 2018 (64-Bit) -->
<svg xmlns="http://www.w3.org/2000/svg" xml:space="preserve" width="344.746mm" height="335.053mm" version="1.1" style="shape-rendering:geometricPrecision; text-rendering:geometricPrecision; image-rendering:optimizeQuality; fill-rule:evenodd; clip-rule:evenodd"
viewBox="0 0 8192.77 7962.41"
 xmlns:xlink="http://www.w3.org/1999/xlink">
 <defs>
  <style type="text/css">
   <![CDATA[
    .fil98 {fill:#DDE0DE;fill-rule:nonzero}
    .fil97 {fill:#C6D809;fill-rule:nonzero}
    .fil96 {fill:#C4D712;fill-rule:nonzero}
    .fil94 {fill:#C2D617;fill-rule:nonzero}
    .fil95 {fill:#C2D614;fill-rule:nonzero}
    .fil93 {fill:#BFD51B;fill-rule:nonzero}
    .fil92 {fill:#BDD522;fill-rule:nonzero}
    .fil91 {fill:#BAD427;fill-rule:nonzero}
    .fil89 {fill:#B8D32D;fill-rule:nonzero}
    .fil90 {fill:#B8D328;fill-rule:nonzero}
    .fil88 {fill:#B6D22E;fill-rule:nonzero}
    .fil87 {fill:#B4D132;fill-rule:nonzero}
    .fil85 {fill:#B1D037;fill-rule:nonzero}
    .fil86 {fill:#B1D033;fill-rule:nonzero}
    .fil83 {fill:#AFD03A;fill-rule:nonzero}
    .fil84 {fill:#AFCF38;fill-rule:nonzero}
    .fil81 {fill:#ACCF3E;fill-rule:nonzero}
    .fil82 {fill:#ACCE3B;fill-rule:nonzero}
    .fil80 {fill:#A9CD3F;fill-rule:nonzero}
    .fil78 {fill:#A6CD44;fill-rule:nonzero}
    .fil79 {fill:#A6CD41;fill-rule:nonzero}
    .fil76 {fill:#A3CC48;fill-rule:nonzero}
    .fil77 {fill:#A3CC45;fill-rule:nonzero}
    .fil74 {fill:#A1CB4D;fill-rule:nonzero}
    .fil75 {fill:#A1CB4A;fill-rule:nonzero}
    .fil72 {fill:#9ECA4F;fill-rule:nonzero}
    .fil73 {fill:#9ECA4D;fill-rule:nonzero}
    .fil70 {fill:#9BC952;fill-rule:nonzero}
    .fil71 {fill:#9BC94F;fill-rule:nonzero}
    .fil68 {fill:#98C854;fill-rule:nonzero}
    .fil69 {fill:#98C853;fill-rule:nonzero}
    .fil67 {fill:#96C857;fill-rule:nonzero}
    .fil64 {fill:#92C75C;fill-rule:nonzero}
    .fil65 {fill:#92C759;fill-rule:nonzero}
    .fil66 {fill:#92C758;fill-rule:nonzero}
    .fil63 {fill:#8FC65C;fill-rule:nonzero}
    .fil62 {fill:#8CC55F;fill-rule:nonzero}
    .fil61 {fill:#89C461;fill-rule:nonzero}
    .fil59 {fill:#86C365;fill-rule:nonzero}
    .fil60 {fill:#86C363;fill-rule:nonzero}
    .fil57 {fill:#82C269;fill-rule:nonzero}
    .fil58 {fill:#82C267;fill-rule:nonzero}
    .fil56 {fill:#80C26C;fill-rule:nonzero}
    .fil99 {fill:#838A8C;fill-rule:nonzero}
    .fil54 {fill:#7BC170;fill-rule:nonzero}
    .fil55 {fill:#7CC16D;fill-rule:nonzero}
    .fil52 {fill:#79C071;fill-rule:nonzero}
    .fil53 {fill:#79C070;fill-rule:nonzero}
    .fil49 {fill:#75BF78;fill-rule:nonzero}
    .fil50 {fill:#75BF76;fill-rule:nonzero}
    .fil51 {fill:#75BF74;fill-rule:nonzero}
    .fil46 {fill:#72BF7C;fill-rule:nonzero}
    .fil47 {fill:#72BF7A;fill-rule:nonzero}
    .fil48 {fill:#72BF78;fill-rule:nonzero}
    .fil44 {fill:#6DBE7E;fill-rule:nonzero}
    .fil45 {fill:#6EBE7C;fill-rule:nonzero}
    .fil42 {fill:#69BD82;fill-rule:nonzero}
    .fil43 {fill:#69BD80;fill-rule:nonzero}
    .fil37 {fill:#65BD8A;fill-rule:nonzero}
    .fil38 {fill:#65BD88;fill-rule:nonzero}
    .fil39 {fill:#65BC86;fill-rule:nonzero}
    .fil40 {fill:#66BC84;fill-rule:nonzero}
    .fil41 {fill:#66BC82;fill-rule:nonzero}
    .fil33 {fill:#5FBC90;fill-rule:nonzero}
    .fil34 {fill:#60BC8D;fill-rule:nonzero}
    .fil35 {fill:#60BC8C;fill-rule:nonzero}
    .fil36 {fill:#60BC8A;fill-rule:nonzero}
    .fil30 {fill:#5CBB93;fill-rule:nonzero}
    .fil31 {fill:#5CBB91;fill-rule:nonzero}
    .fil32 {fill:#5CBB90;fill-rule:nonzero}
    .fil25 {fill:#56BB9B;fill-rule:nonzero}
    .fil26 {fill:#56BB99;fill-rule:nonzero}
    .fil27 {fill:#57BB97;fill-rule:nonzero}
    .fil28 {fill:#57BA95;fill-rule:nonzero}
    .fil29 {fill:#57BA93;fill-rule:nonzero}
    .fil22 {fill:#52BA9E;fill-rule:nonzero}
    .fil23 {fill:#52BA9D;fill-rule:nonzero}
    .fil24 {fill:#53BA9B;fill-rule:nonzero}
    .fil16 {fill:#4ABAA8;fill-rule:nonzero}
    .fil17 {fill:#4ABAA6;fill-rule:nonzero}
    .fil18 {fill:#4AB9A4;fill-rule:nonzero}
    .fil19 {fill:#4BB9A2;fill-rule:nonzero}
    .fil20 {fill:#4CB9A1;fill-rule:nonzero}
    .fil21 {fill:#4CB99E;fill-rule:nonzero}
    .fil12 {fill:#44B9AE;fill-rule:nonzero}
    .fil13 {fill:#45B9AB;fill-rule:nonzero}
    .fil14 {fill:#45B9A9;fill-rule:nonzero}
    .fil15 {fill:#45B9A8;fill-rule:nonzero}
    .fil5 {fill:#39B9B8;fill-rule:nonzero}
    .fil6 {fill:#3AB9B6;fill-rule:nonzero}
    .fil7 {fill:#3BB9B5;fill-rule:nonzero}
    .fil8 {fill:#3BB8B2;fill-rule:nonzero}
    .fil9 {fill:#3CB8B1;fill-rule:nonzero}
    .fil10 {fill:#3CB8AF;fill-rule:nonzero}
    .fil11 {fill:#3DB8AD;fill-rule:nonzero}
    .fil1 {fill:#30B8BD;fill-rule:nonzero}
    .fil2 {fill:#30B8BB;fill-rule:nonzero}
    .fil3 {fill:#31B8B9;fill-rule:nonzero}
    .fil4 {fill:#31B8B8;fill-rule:nonzero}
    .fil0 {fill:#2BB7BB;fill-rule:nonzero}
   ]]>
  </style>
 </defs>
 <g id="Layer_x0020_1">
  <metadata id="CorelCorpID_0Corel-Layer"/>
  <path class="fil0" d="M2576.44 1466.59l104.58 0c13.92,0 25.35,-11.4 25.35,-25.32l0 -104.55c0,-13.97 -11.43,-25.4 -25.35,-25.4l-104.58 0c-13.91,0 -25.34,11.43 -25.34,25.4l0 104.55c0,13.92 11.43,25.32 25.34,25.32z"/>
  <path class="fil0" d="M2378.57 2276.61l0 124.35c0,16.57 13.54,30.09 30.12,30.09l124.35 0c16.57,0 30.09,-13.51 30.09,-30.09l0 -124.35c0,-16.57 -13.51,-30.17 -30.09,-30.17l-124.35 0c-16.57,0 -30.12,13.6 -30.12,30.17z"/>
  <path class="fil0" d="M1734.7 2490.58l0 -203.65c0,-27.14 -22.17,-49.29 -49.32,-49.29l-203.62 0c-27.15,0 -49.35,22.15 -49.35,49.29l0 203.65c0,27.17 22.2,49.29 49.35,49.29l203.62 0c27.15,0 49.32,-22.12 49.32,-49.29z"/>
  <path class="fil0" d="M1789.2 2114.14l490.47 0c65.35,0 118.84,-53.41 118.84,-118.78l0 -490.45c0,-65.38 -53.49,-118.87 -118.84,-118.87l-490.47 0c-65.35,0 -118.84,53.49 -118.84,118.87l0 490.45c0,65.38 53.49,118.78 118.84,118.78z"/>
  <path class="fil0" d="M2725.45 1175.77l548.77 0c73.18,0 133.04,-59.86 133.04,-133.04l0 -548.68c0,-73.44 -59.86,-133.15 -133.04,-133.15l-548.77 0c-73.2,0 -133.04,59.72 -133.04,133.15l0 548.68c0,73.18 59.83,133.04 133.04,133.04z"/>
  <path class="fil0" d="M3591.19 363.75l217.16 0c28.92,0 52.63,-23.72 52.63,-52.58l0 -217.16c0,-28.86 -23.72,-52.58 -52.63,-52.58l-217.16 0c-28.95,0 -52.66,23.72 -52.66,52.58l0 217.16c0,28.86 23.71,52.58 52.66,52.58z"/>
  <path class="fil0" d="M5443.94 1268.66l701.64 0c40.83,0 79.98,7.8 115.87,22.06 -113.18,-193.67 -250.6,-371.41 -408.21,-528.94 -470.64,-470.62 -1121.13,-761.78 -1839.4,-761.78l0 964.83c448.64,0 855.08,180.59 1150.68,472.93 52.89,-100.35 158.39,-169.1 279.42,-169.1z"/>
  <path class="fil0" d="M3626.54 918.14c-18.89,0 -34.32,15.43 -34.32,34.29l0 141.61c0,18.95 15.43,34.35 34.32,34.35l141.64 0c18.89,0 34.32,-15.4 34.32,-34.35l0 -141.61c0,-18.86 -15.43,-34.29 -34.32,-34.29l-141.64 0z"/>
  <path class="fil0" d="M2082.48 1209.4l218.65 0c29.14,0 52.89,-23.75 52.89,-52.92l0 -218.62c0,-29.17 -23.75,-52.92 -52.89,-52.92l-218.65 0c-29.17,0 -52.92,23.75 -52.92,52.92l0 218.62c0,29.17 23.75,52.92 52.92,52.92z"/>
  <path class="fil0" d="M3797.04 4376.9l-110.67 0c-14.75,0 -26.8,12 -26.8,26.83l0 110.67c0,14.75 12.06,26.75 26.8,26.75l110.67 0c14.77,0 26.83,-12 26.83,-26.75l0 -110.67c0,-14.83 -12.06,-26.83 -26.83,-26.83z"/>
  <path class="fil0" d="M3760.95 4934.01l-158.9 0c-21.23,0 -38.52,17.26 -38.52,38.46l0 158.96c0,21.23 17.29,38.49 38.52,38.49l158.9 0c21.17,0 38.52,-17.26 38.52,-38.49l0 -158.96c0,-21.2 -17.35,-38.46 -38.52,-38.46z"/>
  <path class="fil0" d="M6461.29 2286.02c0,173.96 -141.84,315.72 -315.72,315.72l-495.39 0c-0.26,903.51 -732.73,1635.84 -1636.35,1635.92l0 964.95c718.27,0 1368.76,-291.26 1839.4,-761.99 470.73,-470.67 761.99,-1121.05 761.99,-1839.37 0,-310.2 -54.32,-607.71 -153.93,-883.57l0 568.34z"/>
  <path class="fil0" d="M2372.11 3899.19l-278.77 0c-37.15,0 -67.52,30.29 -67.52,67.49l0 278.77c0,37.12 30.37,67.58 67.52,67.58l278.77 0c37.18,0 67.49,-30.46 67.49,-67.58l0 -278.77c0,-37.2 -30.32,-67.49 -67.49,-67.49z"/>
  <path class="fil0" d="M3796.87 3785.35l0 -203.73c0,-27.09 -22.17,-49.29 -49.32,-49.29l-203.65 0c-27.15,0 -49.32,22.2 -49.32,49.29l0 203.73c0,27.06 22.17,49.29 49.32,49.29l203.65 0c27.14,0 49.32,-22.23 49.32,-49.29z"/>
  <path class="fil0" d="M3360.51 4063.78l-548.59 0c-73.15,0 -132.96,59.83 -132.96,133.04l0 548.54c0,73.12 59.81,132.98 132.96,132.98l548.59 0c73.12,0 132.96,-59.86 132.96,-132.98l0 -548.54c0,-73.21 -59.83,-133.04 -132.96,-133.04z"/>
  <path class="fil0" d="M3555.28 3197.16l0 -407.29c0,-54.23 -44.4,-98.67 -98.73,-98.67l-407.15 0c-54.32,0 -98.72,44.43 -98.72,98.67l0 407.29c0,54.24 44.4,98.58 98.72,98.58l407.15 0c54.32,0 98.73,-44.35 98.73,-98.58z"/>
  <path class="fil1" d="M1620.28 3613.03l0 -855.07c-11.77,23.09 -18.42,49.19 -18.42,76.76l0 701.55c0,27.57 6.65,53.66 18.42,76.76z"/>
  <path class="fil2" d="M1638.67 3641.65l0 -912.31c-7.04,8.88 -13.22,18.48 -18.41,28.65l0 855c5.19,10.18 11.36,19.77 18.41,28.65z"/>
  <path class="fil2" d="M1657.08 3661.45l0 -951.9c-6.64,6.11 -12.81,12.73 -18.42,19.81l0 912.29c5.61,7.08 11.77,13.7 18.42,19.81z"/>
  <path class="fil2" d="M1675.52 3676.19l0 -981.37c-6.48,4.49 -12.63,9.41 -18.42,14.72l0 951.93c5.79,5.32 11.94,10.24 18.42,14.72z"/>
  <path class="fil3" d="M1693.91 3687.29l0 -1003.58c-6.38,3.32 -12.53,7.04 -18.41,11.11l0 981.35c5.88,4.07 12.02,7.79 18.41,11.11z"/>
  <path class="fil3" d="M1712.35 3695.53l0 -1020.05c-6.32,2.39 -12.47,5.13 -18.42,8.22l0 1003.6c5.95,3.09 12.09,5.84 18.42,8.22z"/>
  <path class="fil4" d="M1730.75 3701.29l0 -1031.58c-6.28,1.58 -12.43,3.51 -18.42,5.77l0 1020.04c5.99,2.26 12.13,4.19 18.42,5.77z"/>
  <path class="fil4" d="M1749.17 3704.84l0 -1038.67c-6.25,0.85 -12.39,2.03 -18.41,3.54l0 1031.58c6.02,1.51 12.16,2.7 18.41,3.54z"/>
  <path class="fil4" d="M1767.58 3706.32l0 -1041.65c-6.23,0.16 -12.37,0.67 -18.42,1.49l0 1038.67c6.05,0.82 12.19,1.33 18.42,1.49z"/>
  <path class="fil5" d="M1771.96 3706.38l14.02 0 0 -1041.76 -14.02 0c-1.47,0 -2.94,0.02 -4.4,0.05l0 1041.65c1.46,0.04 2.93,0.05 4.4,0.05z"/>
  <polygon class="fil6" points="1786,3706.38 1804.4,3706.38 1804.4,2664.62 1786,2664.62 "/>
  <polygon class="fil6" points="1804.4,3706.38 1822.81,3706.38 1822.81,2664.62 1804.4,2664.62 "/>
  <polygon class="fil7" points="1822.8,3706.38 1841.22,3706.38 1841.22,2664.62 1822.8,2664.62 "/>
  <polygon class="fil7" points="1841.23,3706.38 1859.64,3706.38 1859.64,2664.62 1841.23,2664.62 "/>
  <polygon class="fil7" points="1859.63,3706.38 1878.05,3706.38 1878.05,2664.62 1859.63,2664.62 "/>
  <polygon class="fil8" points="1878.06,3706.38 1896.48,3706.38 1896.48,2664.62 1878.06,2664.62 "/>
  <polygon class="fil8" points="1896.46,3706.38 1914.87,3706.38 1914.87,2664.62 1896.46,2664.62 "/>
  <polygon class="fil8" points="1914.86,3706.38 1933.28,3706.38 1933.28,2664.62 1914.86,2664.62 "/>
  <polygon class="fil8" points="1933.3,3706.38 1951.71,3706.38 1951.71,2664.62 1933.3,2664.62 "/>
  <polygon class="fil9" points="1951.7,3706.38 1970.1,3706.38 1970.1,2664.62 1951.7,2664.62 "/>
  <polygon class="fil9" points="1970.13,3706.38 1988.54,3706.38 1988.54,2664.62 1970.13,2664.62 "/>
  <polygon class="fil10" points="1988.53,3706.38 2006.95,3706.38 2006.95,2664.62 1988.53,2664.62 "/>
  <polygon class="fil10" points="2006.96,3706.38 2025.36,3706.38 2025.36,2664.62 2006.96,2664.62 "/>
  <polygon class="fil10" points="2025.36,3706.38 2043.78,3706.38 2043.78,2664.62 2025.36,2664.62 "/>
  <polygon class="fil11" points="2043.76,3706.38 2062.18,3706.38 2062.18,2664.62 2043.76,2664.62 "/>
  <polygon class="fil12" points="2062.19,3706.38 2080.6,3706.38 2080.6,2664.62 2062.19,2664.62 "/>
  <polygon class="fil13" points="2080.59,3706.38 2099.01,3706.38 2099.01,2664.62 2080.59,2664.62 "/>
  <polygon class="fil13" points="2099.03,3706.38 2117.44,3706.38 2117.44,2664.62 2099.03,2664.62 "/>
  <polygon class="fil13" points="2117.43,3706.38 2135.83,3706.38 2135.83,2664.62 2117.43,2664.62 "/>
  <polygon class="fil14" points="2135.83,3706.38 2154.25,3706.38 2154.25,2664.62 2135.83,2664.62 "/>
  <polygon class="fil14" points="2154.26,3706.38 2172.68,3706.38 2172.68,2664.62 2154.26,2664.62 "/>
  <polygon class="fil14" points="2172.66,3706.38 2191.07,3706.38 2191.07,2664.62 2172.66,2664.62 "/>
  <polygon class="fil15" points="2191.06,3706.38 2209.48,3706.38 2209.48,2664.62 2191.06,2664.62 "/>
  <polygon class="fil16" points="2209.49,3706.38 2227.91,3706.38 2227.91,2664.62 2209.49,2664.62 "/>
  <polygon class="fil16" points="2227.89,3706.38 2246.3,3706.38 2246.3,2664.62 2227.89,2664.62 "/>
  <polygon class="fil17" points="2246.32,3706.38 2264.74,3706.38 2264.74,2664.62 2246.32,2664.62 "/>
  <polygon class="fil17" points="2264.73,3706.38 2283.14,3706.38 2283.14,2664.62 2264.73,2664.62 "/>
  <polygon class="fil18" points="2283.16,3706.38 2301.56,3706.38 2301.56,2664.62 2283.16,2664.62 "/>
  <polygon class="fil18" points="2301.56,3706.38 2319.98,3706.38 2319.98,2664.62 2301.56,2664.62 "/>
  <polygon class="fil18" points="2319.96,3706.38 2338.38,3706.38 2338.38,2664.62 2319.96,2664.62 "/>
  <polygon class="fil18" points="2338.39,3706.38 2356.8,3706.38 2356.8,2664.62 2338.39,2664.62 "/>
  <polygon class="fil19" points="2356.79,3706.38 2375.21,3706.38 2375.21,2664.62 2356.79,2664.62 "/>
  <polygon class="fil19" points="2375.22,3706.38 2393.64,3706.38 2393.64,2664.62 2375.22,2664.62 "/>
  <polygon class="fil19" points="2393.62,3706.38 2412.03,3706.38 2412.03,2664.62 2393.62,2664.62 "/>
  <polygon class="fil20" points="2412.02,3706.38 2430.44,3706.38 2430.44,2664.62 2412.02,2664.62 "/>
  <polygon class="fil20" points="2430.46,3706.38 2448.87,3706.38 2448.87,2664.62 2430.46,2664.62 "/>
  <polygon class="fil21" points="2448.86,3706.38 2467.26,3706.38 2467.26,2664.62 2448.86,2664.62 "/>
  <path class="fil22" d="M2467.26 3706.38l6.29 0c4.08,0 8.12,-0.15 12.13,-0.44l0 -1040.88c-4.01,-0.29 -8.05,-0.44 -12.13,-0.44l-6.29 0 0 1041.76z"/>
  <path class="fil22" d="M2504.11 3703.6l0 -1036.18c-6.04,-1.11 -12.18,-1.91 -18.42,-2.36l0 1040.87c6.24,-0.45 12.38,-1.23 18.42,-2.33z"/>
  <path class="fil23" d="M2522.5 3699.14l0 -1030.04 -2.15 2.15c-5.33,-1.53 -10.75,-2.81 -16.26,-3.83l0 1036.18c6.26,-1.15 12.4,-2.65 18.41,-4.46z"/>
  <path class="fil23" d="M2540.94 3692.36l0 -1041.7 -18.42 18.42 0 1030.05c6.3,-1.91 12.45,-4.17 18.42,-6.77z"/>
  <path class="fil23" d="M2559.34 3682.98l0 -1050.72 -18.42 18.42 0 1041.69c6.35,-2.76 12.5,-5.9 18.42,-9.39z"/>
  <path class="fil24" d="M2577.76 3670.45l0 -1056.62 -18.41 18.41 0 1050.73c6.41,-3.78 12.56,-7.96 18.41,-12.52z"/>
  <path class="fil25" d="M2596.17 3653.82l0 -1058.41 -18.42 18.42 0 1056.62c6.53,-5.1 12.69,-10.65 18.42,-16.63z"/>
  <path class="fil25" d="M2614.58 3631.02l0 -1054.02 -18.42 18.42 0 1058.41c6.76,-7.06 12.93,-14.69 18.42,-22.82z"/>
  <path class="fil26" d="M2632.99 3595.23l0 -819.57c-1.92,-5.16 -4.09,-10.2 -6.49,-15.11l6.49 -6.49 0 -195.46 -18.41 18.41 0 1054.01c7.47,-11.08 13.68,-23.08 18.41,-35.78z"/>
  <path class="fil26" d="M2651.41 2735.64l0 -195.46 -18.42 18.42 0 195.46 18.42 -18.42zm-18.42 40.01l0 819.59c6.85,-18.39 10.6,-38.26 10.6,-58.96l0 -701.55c0,-20.77 -3.73,-40.66 -10.6,-59.08z"/>
  <polygon class="fil27" points="2669.84,2717.2 2669.84,2521.74 2651.42,2540.16 2651.42,2735.62 "/>
  <polygon class="fil27" points="2688.23,2698.8 2688.23,2503.34 2669.82,2521.75 2669.82,2717.22 "/>
  <polygon class="fil27" points="2706.64,2680.39 2706.64,2484.93 2688.22,2503.35 2688.22,2698.81 "/>
  <polygon class="fil28" points="2725.07,2661.95 2725.07,2466.49 2706.65,2484.91 2706.65,2680.37 "/>
  <polygon class="fil28" points="2743.46,2643.55 2743.46,2448.1 2725.06,2466.51 2725.06,2661.96 "/>
  <polygon class="fil28" points="2761.87,2625.14 2761.87,2429.68 2743.46,2448.1 2743.46,2643.56 "/>
  <polygon class="fil29" points="2780.31,2606.7 2780.31,2411.25 2761.89,2429.67 2761.89,2625.12 "/>
  <polygon class="fil29" points="2798.69,2588.31 2798.69,2392.86 2780.29,2411.26 2780.29,2606.72 "/>
  <polygon class="fil29" points="2817.14,2569.86 2817.14,2374.41 2798.72,2392.83 2798.72,2588.28 "/>
  <path class="fil30" d="M2835.54 2551.45l0 -195.45 -18.42 18.42 0 195.45 18.42 -18.42zm0 -209.07l0 -814.34c-6.25,17.67 -9.67,36.66 -9.67,56.42l0 701.55c0,19.77 3.4,38.75 9.67,56.36z"/>
  <path class="fil31" d="M2853.96 2533.03l0 -1041.94c-7.55,11.43 -13.76,23.81 -18.41,36.92l0 814.4c1.18,3.3 2.45,6.55 3.83,9.75l-3.83 3.83 0 195.45 18.41 -18.41z"/>
  <path class="fil31" d="M2872.37 2514.61l0 -1046.75c-6.78,7.19 -12.95,14.96 -18.42,23.23l0 1041.94 18.42 -18.42z"/>
  <path class="fil31" d="M2890.77 2496.2l0 -1045.2c-6.54,5.17 -12.7,10.82 -18.42,16.88l0 1046.75 18.42 -18.42z"/>
  <path class="fil31" d="M2909.19 2477.78l0 -1039.48c-6.42,3.83 -12.57,8.07 -18.41,12.69l0 1045.2 18.41 -18.41z"/>
  <path class="fil32" d="M2927.6 2459.36l0 -1030.58c-6.35,2.81 -12.5,5.99 -18.42,9.52l0 1039.48 18.42 -18.42z"/>
  <path class="fil33" d="M2946.04 2448.55l0 -1026.67c-6.3,1.95 -12.45,4.26 -18.42,6.9l0 1030.57 12.69 -12.69c1.9,0.66 3.81,1.29 5.73,1.89z"/>
  <path class="fil33" d="M2964.42 2453.14l0 -1035.82c-6.26,1.18 -12.4,2.71 -18.41,4.56l0 1026.66c6.01,1.87 12.15,3.41 18.41,4.6z"/>
  <path class="fil34" d="M2982.84 2455.61l0 -1040.74c-6.24,0.48 -12.38,1.31 -18.42,2.45l0 1035.82c6.04,1.15 12.18,1.98 18.42,2.46z"/>
  <path class="fil34" d="M3001.27 2456.12l0 -1041.75 -5.52 0c-4.34,0 -8.64,0.17 -12.9,0.5l0 1040.74c4.32,0.34 8.68,0.51 13.09,0.51l5.33 0z"/>
  <polygon class="fil34" points="3019.66,2456.12 3019.66,1414.36 3001.25,1414.36 3001.25,2456.12 "/>
  <polygon class="fil35" points="3038.07,2456.12 3038.07,1414.36 3019.65,1414.36 3019.65,2456.12 "/>
  <polygon class="fil35" points="3056.5,2456.12 3056.5,1414.36 3038.09,1414.36 3038.09,2456.12 "/>
  <polygon class="fil36" points="3074.89,2456.12 3074.89,1414.36 3056.49,1414.36 3056.49,2456.12 "/>
  <polygon class="fil36" points="3093.33,2456.12 3093.33,1414.36 3074.92,1414.36 3074.92,2456.12 "/>
  <polygon class="fil36" points="3111.74,2456.12 3111.74,1414.36 3093.32,1414.36 3093.32,2456.12 "/>
  <polygon class="fil37" points="3130.15,2456.12 3130.15,1414.36 3111.75,1414.36 3111.75,2456.12 "/>
  <polygon class="fil38" points="3148.57,2456.12 3148.57,1414.36 3130.15,1414.36 3130.15,2456.12 "/>
  <polygon class="fil38" points="3166.97,2456.12 3166.97,1414.36 3148.55,1414.36 3148.55,2456.12 "/>
  <polygon class="fil39" points="3185.39,2456.12 3185.39,1414.36 3166.98,1414.36 3166.98,2456.12 "/>
  <polygon class="fil39" points="3203.8,2456.12 3203.8,1414.36 3185.39,1414.36 3185.39,2456.12 "/>
  <polygon class="fil39" points="3222.23,2456.12 3222.23,1414.36 3203.82,1414.36 3203.82,2456.12 "/>
  <polygon class="fil39" points="3240.62,2456.12 3240.62,1414.36 3222.22,1414.36 3222.22,2456.12 "/>
  <polygon class="fil40" points="3259.03,2456.12 3259.03,1414.36 3240.62,1414.36 3240.62,2456.12 "/>
  <polygon class="fil40" points="3277.47,2456.12 3277.47,1414.36 3259.05,1414.36 3259.05,2456.12 "/>
  <polygon class="fil41" points="3295.86,2456.12 3295.86,1414.36 3277.45,1414.36 3277.45,2456.12 "/>
  <polygon class="fil42" points="3314.27,2456.12 3314.27,1414.36 3295.85,1414.36 3295.85,2456.12 "/>
  <polygon class="fil42" points="3332.7,2456.12 3332.7,1414.36 3314.28,1414.36 3314.28,2456.12 "/>
  <polygon class="fil43" points="3351.12,2456.12 3351.12,1414.36 3332.71,1414.36 3332.71,2456.12 "/>
  <polygon class="fil43" points="3369.53,2456.12 3369.53,1414.36 3351.12,1414.36 3351.12,2456.12 "/>
  <polygon class="fil43" points="3387.93,2456.12 3387.93,1414.36 3369.52,1414.36 3369.52,2456.12 "/>
  <polygon class="fil43" points="3406.35,2456.12 3406.35,1414.36 3387.95,1414.36 3387.95,2456.12 "/>
  <polygon class="fil44" points="3424.76,2456.12 3424.76,1414.36 3406.35,1414.36 3406.35,2456.12 "/>
  <polygon class="fil44" points="3443.17,2456.12 3443.17,1414.36 3424.75,1414.36 3424.75,2456.12 "/>
  <polygon class="fil44" points="3461.59,2456.12 3461.59,1414.36 3443.18,1414.36 3443.18,2456.12 "/>
  <polygon class="fil45" points="3480,2456.12 3480,1414.36 3461.58,1414.36 3461.58,2456.12 "/>
  <polygon class="fil45" points="3498.43,2456.12 3498.43,1414.36 3480.01,1414.36 3480.01,2456.12 "/>
  <polygon class="fil45" points="3516.82,2456.12 3516.82,1414.36 3498.41,1414.36 3498.41,2456.12 "/>
  <polygon class="fil46" points="3535.23,2456.12 3535.23,1414.36 3516.82,1414.36 3516.82,2456.12 "/>
  <polygon class="fil47" points="3553.66,2456.12 3553.66,1414.36 3535.25,1414.36 3535.25,2456.12 "/>
  <polygon class="fil47" points="3572.05,2456.12 3572.05,1414.36 3553.65,1414.36 3553.65,2456.12 "/>
  <polygon class="fil47" points="3590.47,2456.12 3590.47,1414.36 3572.05,1414.36 3572.05,2456.12 "/>
  <polygon class="fil48" points="3608.9,2456.12 3608.9,1414.36 3590.48,1414.36 3590.48,2456.12 "/>
  <polygon class="fil48" points="3627.33,2456.12 3627.33,1414.36 3608.91,1414.36 3608.91,2456.12 "/>
  <polygon class="fil49" points="3645.72,2456.12 3645.72,1414.36 3627.31,1414.36 3627.31,2456.12 "/>
  <polygon class="fil49" points="3664.13,2456.12 3664.13,1414.36 3645.71,1414.36 3645.71,2456.12 "/>
  <polygon class="fil50" points="3682.56,2456.12 3682.56,1414.36 3664.14,1414.36 3664.14,2456.12 "/>
  <path class="fil50" d="M3700.95 2456.08l0 -1041.68c-1.08,-0.02 -2.16,-0.04 -3.24,-0.04l-15.16 0 0 1041.75 14.97 0c1.15,0 2.29,-0.01 3.43,-0.03z"/>
  <path class="fil51" d="M3719.37 2454.7l0 -1038.93c-6.05,-0.78 -12.19,-1.24 -18.42,-1.36l0 1041.68c6.23,-0.12 12.37,-0.59 18.42,-1.38z"/>
  <path class="fil51" d="M3737.79 2451.24l0 -1032.02c-6.02,-1.47 -12.17,-2.63 -18.42,-3.44l0 1038.93c6.25,-0.82 12.39,-1.97 18.42,-3.46z"/>
  <path class="fil51" d="M3756.19 2449.63l0 -1024.8c-5.99,-2.21 -12.13,-4.09 -18.41,-5.63l0 1032.03c5.23,-1.29 10.38,-2.82 15.43,-4.58l2.98 2.98z"/>
  <path class="fil51" d="M3774.63 2468.08l0 -1035.14c-5.95,-3.05 -12.1,-5.75 -18.42,-8.09l0 1024.81 18.42 18.42z"/>
  <path class="fil52" d="M3793.03 2486.49l0 -1042.61c-5.89,-4.02 -12.04,-7.68 -18.42,-10.95l0 1035.14 18.42 18.42z"/>
  <path class="fil52" d="M3811.45 2504.91l0 -1046.53c-5.79,-5.24 -11.94,-10.09 -18.41,-14.5l0 1042.62 18.41 18.41z"/>
  <path class="fil52" d="M3829.86 2523.33l0 -1045.46c-5.63,-6.97 -11.78,-13.48 -18.42,-19.49l0 1046.53 18.42 18.42z"/>
  <path class="fil53" d="M3848.26 2541.74l0 -1035.88c-5.22,-9.96 -11.4,-19.33 -18.42,-28.01l0 1045.47 18.42 18.42z"/>
  <path class="fil54" d="M3866.68 2560.16l0 -195.45 -12.55 -12.55c6.45,-15.07 10.76,-31.29 12.55,-48.26l0 -737.28c-2.28,-21.7 -8.69,-42.21 -18.41,-60.74l0 1035.86 18.41 18.41z"/>
  <path class="fil54" d="M3885.09 2578.58l0 -195.45 -18.42 -18.42 0 195.45 18.42 18.42zm-18.42 -1012l0 737.37c0.63,-5.89 0.94,-11.88 0.94,-17.94l0 -701.55c0,-6.04 -0.32,-12 -0.94,-17.88z"/>
  <polygon class="fil54" points="3903.52,2597.01 3903.52,2401.57 3885.11,2383.15 3885.11,2578.59 "/>
  <polygon class="fil54" points="3921.92,2615.41 3921.92,2419.96 3903.51,2401.55 3903.51,2597 "/>
  <polygon class="fil55" points="3940.33,2633.83 3940.33,2438.38 3921.91,2419.96 3921.91,2615.41 "/>
  <polygon class="fil55" points="3958.76,2652.26 3958.76,2456.82 3940.34,2438.39 3940.34,2633.84 "/>
  <polygon class="fil55" points="3977.15,2670.66 3977.15,2475.21 3958.74,2456.8 3958.74,2652.25 "/>
  <polygon class="fil55" points="3995.56,2689.08 3995.56,2493.63 3977.14,2475.21 3977.14,2670.66 "/>
  <polygon class="fil55" points="4013.99,2707.51 4013.99,2512.07 3995.57,2493.64 3995.57,2689.09 "/>
  <polygon class="fil56" points="4032.38,2725.91 4032.38,2530.46 4013.98,2512.05 4013.98,2707.5 "/>
  <path class="fil56" d="M4050.82 3554.28l0 -737.61c-0.63,5.93 -0.96,11.95 -0.96,18.05l0 701.55c0,6.08 0.33,12.09 0.96,18.01zm0 -809.93l0 -195.45 -18.42 -18.42 0 195.45 18.42 18.42z"/>
  <path class="fil56" d="M4069.23 3614.83l0 -1047.52 -18.42 -18.42 0 195.45 16.2 16.21c-8.48,17.35 -14.09,36.31 -16.2,56.28l0 737.31c2.29,21.68 8.7,42.18 18.42,60.7z"/>
  <path class="fil56" d="M4087.65 3642.85l0 -1057.11 -18.41 -18.41 0 1047.53c5.22,9.94 11.4,19.32 18.41,27.99z"/>
  <path class="fil57" d="M4106.06 3662.34l0 -1058.18 -18.42 -18.42 0 1057.11c5.63,6.97 11.78,13.49 18.42,19.49z"/>
  <path class="fil57" d="M4124.46 3676.84l0 -1054.28 -18.42 -18.42 0 1058.18c5.79,5.24 11.95,10.1 18.42,14.52z"/>
  <path class="fil57" d="M4142.88 3687.8l0 -1046.81 -18.41 -18.41 0 1054.27c5.89,4.02 12.03,7.68 18.41,10.95z"/>
  <path class="fil57" d="M4161.29 3695.89l0 -1036.48 -18.42 -18.42 0 1046.81c5.95,3.05 12.1,5.75 18.42,8.09z"/>
  <path class="fil58" d="M4179.72 3701.53l0 -1032.03c-2.21,0.54 -4.41,1.13 -6.59,1.75l-11.83 -11.83 0 1036.48c5.99,2.22 12.14,4.1 18.42,5.64z"/>
  <path class="fil58" d="M4198.11 3704.97l0 -1038.93c-6.24,0.82 -12.38,1.98 -18.41,3.46l0 1032.02c6.02,1.48 12.16,2.64 18.41,3.45z"/>
  <path class="fil59" d="M4216.53 3706.33l0 -1041.68c-6.23,0.13 -12.37,0.6 -18.42,1.39l0 1038.92c6.05,0.78 12.19,1.24 18.42,1.37z"/>
  <path class="fil59" d="M4219.94 3706.38l15.02 0 0 -1041.76 -15.02 0c-1.14,0 -2.27,0.01 -3.4,0.04l0 1041.68c1.13,0.02 2.26,0.04 3.4,0.04z"/>
  <polygon class="fil59" points="4234.94,3706.38 4253.35,3706.38 4253.35,2664.62 4234.94,2664.62 "/>
  <polygon class="fil59" points="4253.34,3706.38 4271.76,3706.38 4271.76,2664.62 4253.34,2664.62 "/>
  <polygon class="fil60" points="4271.77,3706.38 4290.19,3706.38 4290.19,2664.62 4271.77,2664.62 "/>
  <polygon class="fil60" points="4290.17,3706.38 4308.58,3706.38 4308.58,2664.62 4290.17,2664.62 "/>
  <polygon class="fil60" points="4308.6,3706.38 4327.02,3706.38 4327.02,2664.62 4308.6,2664.62 "/>
  <polygon class="fil60" points="4327.01,3706.38 4345.42,3706.38 4345.42,2664.62 4327.01,2664.62 "/>
  <polygon class="fil61" points="4345.44,3706.38 4363.84,3706.38 4363.84,2664.62 4345.44,2664.62 "/>
  <polygon class="fil61" points="4363.84,3706.38 4382.26,3706.38 4382.26,2664.62 4363.84,2664.62 "/>
  <polygon class="fil61" points="4382.24,3706.38 4400.66,3706.38 4400.66,2664.62 4382.24,2664.62 "/>
  <polygon class="fil61" points="4400.67,3706.38 4419.08,3706.38 4419.08,2664.62 4400.67,2664.62 "/>
  <polygon class="fil62" points="4419.07,3706.38 4437.49,3706.38 4437.49,2664.62 4419.07,2664.62 "/>
  <polygon class="fil62" points="4437.5,3706.38 4455.92,3706.38 4455.92,2664.62 4437.5,2664.62 "/>
  <polygon class="fil62" points="4455.9,3706.38 4474.31,3706.38 4474.31,2664.62 4455.9,2664.62 "/>
  <polygon class="fil62" points="4474.31,3706.38 4492.72,3706.38 4492.72,2664.62 4474.31,2664.62 "/>
  <polygon class="fil62" points="4492.74,3706.38 4511.15,3706.38 4511.15,2664.62 4492.74,2664.62 "/>
  <polygon class="fil62" points="4511.14,3706.38 4529.54,3706.38 4529.54,2664.62 4511.14,2664.62 "/>
  <polygon class="fil63" points="4529.54,3706.38 4547.96,3706.38 4547.96,2664.62 4529.54,2664.62 "/>
  <polygon class="fil63" points="4547.97,3706.38 4566.39,3706.38 4566.39,2664.62 4547.97,2664.62 "/>
  <polygon class="fil63" points="4566.4,3706.38 4584.81,3706.38 4584.81,2664.62 4566.4,2664.62 "/>
  <polygon class="fil64" points="4584.8,3706.38 4603.22,3706.38 4603.22,2664.62 4584.8,2664.62 "/>
  <polygon class="fil65" points="4603.2,3706.38 4621.62,3706.38 4621.62,2664.62 4603.2,2664.62 "/>
  <polygon class="fil65" points="4621.63,3706.38 4640.04,3706.38 4640.04,2664.62 4621.63,2664.62 "/>
  <polygon class="fil65" points="4640.04,3706.38 4658.45,3706.38 4658.45,2664.62 4640.04,2664.62 "/>
  <polygon class="fil66" points="4658.44,3706.38 4676.85,3706.38 4676.85,2664.62 4658.44,2664.62 "/>
  <polygon class="fil67" points="4676.87,3706.38 4695.27,3706.38 4695.27,2664.62 4676.87,2664.62 "/>
  <polygon class="fil67" points="4695.27,3706.38 4713.69,3706.38 4713.69,2664.62 4695.27,2664.62 "/>
  <polygon class="fil67" points="4713.7,3706.38 4732.12,3706.38 4732.12,2664.62 4713.7,2664.62 "/>
  <polygon class="fil67" points="4732.1,3706.38 4750.51,3706.38 4750.51,2664.62 4732.1,2664.62 "/>
  <polygon class="fil68" points="4750.5,3706.38 4768.92,3706.38 4768.92,2664.62 4750.5,2664.62 "/>
  <polygon class="fil68" points="4768.93,3706.38 4787.35,3706.38 4787.35,2664.62 4768.93,2664.62 "/>
  <polygon class="fil68" points="4787.34,3706.38 4805.74,3706.38 4805.74,2664.62 4787.34,2664.62 "/>
  <polygon class="fil69" points="4805.74,3706.38 4824.15,3706.38 4824.15,2664.62 4805.74,2664.62 "/>
  <polygon class="fil69" points="4824.17,3706.38 4842.58,3706.38 4842.58,2664.62 4824.17,2664.62 "/>
  <polygon class="fil69" points="4842.6,3706.38 4861,3706.38 4861,2664.62 4842.6,2664.62 "/>
  <polygon class="fil70" points="4861,3706.38 4879.42,3706.38 4879.42,2664.62 4861,2664.62 "/>
  <polygon class="fil70" points="4879.4,3706.38 4897.82,3706.38 4897.82,2664.62 4879.4,2664.62 "/>
  <polygon class="fil71" points="4897.83,3706.38 4916.24,3706.38 4916.24,2664.62 4897.83,2664.62 "/>
  <path class="fil71" d="M4916.23 3706.38l5.34 0c4.4,0 8.76,-0.17 13.08,-0.5l0 -1040.74c-4.32,-0.34 -8.68,-0.51 -13.08,-0.51l-5.34 0 0 1041.76z"/>
  <path class="fil72" d="M4953.05 3703.43l0 -1035.82c-6.04,-1.15 -12.19,-1.98 -18.42,-2.47l0 1040.74c6.24,-0.48 12.38,-1.31 18.42,-2.45z"/>
  <path class="fil72" d="M4971.47 3698.86l0 -1030.73 -3.12 3.12c-5.02,-1.44 -10.11,-2.66 -15.29,-3.64l0 1035.82c6.26,-1.19 12.4,-2.71 18.41,-4.57z"/>
  <path class="fil73" d="M4989.88 3691.96l0 -1042.25 -18.42 18.42 0 1030.73c6.3,-1.95 12.45,-4.26 18.42,-6.9z"/>
  <path class="fil73" d="M5008.31 3682.43l0 -1051.15 -18.42 18.42 0 1042.26c6.35,-2.81 12.5,-5.99 18.42,-9.53z"/>
  <path class="fil73" d="M5026.71 3669.75l0 -1056.88 -18.41 18.41 0 1051.15c6.42,-3.83 12.57,-8.07 18.41,-12.68z"/>
  <path class="fil73" d="M5045.12 3652.89l0 -1058.43 -18.42 18.42 0 1056.88c6.54,-5.17 12.7,-10.81 18.42,-16.86z"/>
  <path class="fil74" d="M5063.55 3629.66l0 -1053.64 -18.42 18.42 0 1058.43c6.78,-7.18 12.95,-14.95 18.42,-23.22z"/>
  <path class="fil74" d="M5081.94 3592.83l0 -814.58c-2.16,-6.06 -4.65,-11.97 -7.46,-17.7l7.46 -7.46 0 -195.46 -18.41 18.41 0 1053.64c7.55,-11.41 13.76,-23.76 18.41,-36.84z"/>
  <path class="fil74" d="M5100.35 2734.66l0 -195.46 -18.42 18.42 0 195.46 18.42 -18.42zm-18.42 43.57l0 814.61c6.3,-17.72 9.74,-36.76 9.74,-56.57l0 -701.55c0,-19.8 -3.44,-38.8 -9.74,-56.49z"/>
  <polygon class="fil74" points="5118.78,2716.23 5118.78,2520.77 5100.36,2539.19 5100.36,2734.65 "/>
  <polygon class="fil75" points="5137.2,2697.8 5137.2,2502.34 5118.8,2520.75 5118.8,2716.21 "/>
  <polygon class="fil75" points="5155.61,2679.38 5155.61,2483.92 5137.2,2502.34 5137.2,2697.81 "/>
  <polygon class="fil75" points="5174.02,2660.98 5174.02,2465.51 5155.6,2483.94 5155.6,2679.4 "/>
  <polygon class="fil76" points="5192.44,2642.55 5192.44,2447.09 5174.03,2465.5 5174.03,2660.96 "/>
  <polygon class="fil76" points="5210.85,2624.14 5210.85,2428.67 5192.43,2447.09 5192.43,2642.56 "/>
  <polygon class="fil76" points="5229.25,2605.73 5229.25,2410.26 5210.83,2428.68 5210.83,2624.15 "/>
  <polygon class="fil77" points="5247.67,2587.31 5247.67,2391.83 5229.26,2410.25 5229.26,2605.72 "/>
  <polygon class="fil78" points="5266.08,2568.89 5266.08,2373.41 5247.66,2391.84 5247.66,2587.31 "/>
  <path class="fil78" d="M5284.51 2550.45l0 -195.47 -18.42 18.42 0 195.47 18.42 -18.42zm0 -205.34l0 -819.82c-6.89,18.44 -10.67,38.38 -10.67,59.17l0 701.55c0,20.8 3.81,40.72 10.67,59.1z"/>
  <path class="fil78" d="M5302.9 2532.06l0 -1042.43c-7.47,11.06 -13.67,23.03 -18.41,35.7l0 819.74c0.89,2.39 1.83,4.75 2.83,7.09l-2.83 2.83 0 195.47 18.41 -18.41z"/>
  <path class="fil79" d="M5321.32 2513.64l0 -1046.79c-6.76,7.05 -12.93,14.67 -18.42,22.79l0 1042.42 18.42 -18.42z"/>
  <path class="fil79" d="M5339.74 2495.2l0 -1044.97c-6.53,5.09 -12.69,10.64 -18.42,16.6l0 1046.79 18.42 -18.42z"/>
  <path class="fil79" d="M5358.14 2476.81l0 -1039.07c-6.41,3.77 -12.56,7.95 -18.41,12.5l0 1044.98 18.41 -18.41z"/>
  <path class="fil80" d="M5376.55 2458.39l0 -1030.03c-6.35,2.76 -12.5,5.9 -18.42,9.38l0 1039.07 18.42 -18.42z"/>
  <path class="fil80" d="M5394.98 2448.84l0 -1027.25c-6.3,1.91 -12.45,4.17 -18.42,6.76l0 1030.02 11.72 -11.72c2.21,0.77 4.45,1.5 6.7,2.19z"/>
  <path class="fil81" d="M5413.4 2453.32l0 -1036.19c-6.26,1.15 -12.4,2.64 -18.41,4.46l0 1027.26c6.01,1.82 12.15,3.32 18.41,4.47z"/>
  <path class="fil81" d="M5431.81 2455.68l0 -1040.88c-6.24,0.44 -12.38,1.22 -18.42,2.33l0 1036.19c6.04,1.11 12.19,1.91 18.42,2.36z"/>
  <path class="fil81" d="M5450.21 2456.12l0 -1041.75 -6.46 0c-4.02,0 -8,0.16 -11.95,0.44l0 1040.87c4.01,0.29 8.06,0.44 12.14,0.44l6.27 0z"/>
  <polygon class="fil81" points="5468.63,2456.12 5468.63,1414.36 5450.23,1414.36 5450.23,2456.12 "/>
  <polygon class="fil82" points="5487.05,2456.12 5487.05,1414.36 5468.63,1414.36 5468.63,2456.12 "/>
  <polygon class="fil82" points="5505.45,2456.12 5505.45,1414.36 5487.03,1414.36 5487.03,2456.12 "/>
  <polygon class="fil83" points="5523.87,2456.12 5523.87,1414.36 5505.46,1414.36 5505.46,2456.12 "/>
  <polygon class="fil84" points="5542.28,2456.12 5542.28,1414.36 5523.86,1414.36 5523.86,2456.12 "/>
  <polygon class="fil84" points="5560.71,2456.12 5560.71,1414.36 5542.29,1414.36 5542.29,2456.12 "/>
  <polygon class="fil85" points="5579.1,2456.12 5579.1,1414.36 5560.69,1414.36 5560.69,2456.12 "/>
  <polygon class="fil85" points="5597.51,2456.12 5597.51,1414.36 5579.1,1414.36 5579.1,2456.12 "/>
  <polygon class="fil85" points="5615.94,2456.12 5615.94,1414.36 5597.52,1414.36 5597.52,2456.12 "/>
  <polygon class="fil86" points="5634.33,2456.12 5634.33,1414.36 5615.93,1414.36 5615.93,2456.12 "/>
  <polygon class="fil86" points="5652.78,2456.12 5652.78,1414.36 5634.36,1414.36 5634.36,2456.12 "/>
  <polygon class="fil87" points="5671.18,2456.12 5671.18,1414.36 5652.76,1414.36 5652.76,2456.12 "/>
  <polygon class="fil87" points="5689.6,2456.12 5689.6,1414.36 5671.19,1414.36 5671.19,2456.12 "/>
  <polygon class="fil87" points="5708.01,2456.12 5708.01,1414.36 5689.59,1414.36 5689.59,2456.12 "/>
  <polygon class="fil87" points="5726.41,2456.12 5726.41,1414.36 5707.99,1414.36 5707.99,2456.12 "/>
  <polygon class="fil88" points="5744.83,2456.12 5744.83,1414.36 5726.42,1414.36 5726.42,2456.12 "/>
  <polygon class="fil88" points="5763.24,2456.12 5763.24,1414.36 5744.82,1414.36 5744.82,2456.12 "/>
  <polygon class="fil88" points="5781.64,2456.12 5781.64,1414.36 5763.23,1414.36 5763.23,2456.12 "/>
  <polygon class="fil88" points="5800.06,2456.12 5800.06,1414.36 5781.66,1414.36 5781.66,2456.12 "/>
  <polygon class="fil89" points="5818.48,2456.12 5818.48,1414.36 5800.06,1414.36 5800.06,2456.12 "/>
  <polygon class="fil89" points="5836.91,2456.12 5836.91,1414.36 5818.49,1414.36 5818.49,2456.12 "/>
  <polygon class="fil89" points="5855.3,2456.12 5855.3,1414.36 5836.89,1414.36 5836.89,2456.12 "/>
  <polygon class="fil90" points="5873.71,2456.12 5873.71,1414.36 5855.29,1414.36 5855.29,2456.12 "/>
  <polygon class="fil90" points="5892.14,2456.12 5892.14,1414.36 5873.72,1414.36 5873.72,2456.12 "/>
  <polygon class="fil91" points="5910.53,2456.12 5910.53,1414.36 5892.13,1414.36 5892.13,2456.12 "/>
  <polygon class="fil91" points="5928.97,2456.12 5928.97,1414.36 5910.55,1414.36 5910.55,2456.12 "/>
  <polygon class="fil91" points="5947.37,2456.12 5947.37,1414.36 5928.96,1414.36 5928.96,2456.12 "/>
  <polygon class="fil92" points="5965.79,2456.12 5965.79,1414.36 5947.39,1414.36 5947.39,2456.12 "/>
  <polygon class="fil92" points="5984.21,2456.12 5984.21,1414.36 5965.79,1414.36 5965.79,2456.12 "/>
  <polygon class="fil92" points="6002.61,2456.12 6002.61,1414.36 5984.19,1414.36 5984.19,2456.12 "/>
  <polygon class="fil92" points="6021.03,2456.12 6021.03,1414.36 6002.62,1414.36 6002.62,2456.12 "/>
  <polygon class="fil93" points="6039.44,2456.12 6039.44,1414.36 6021.02,1414.36 6021.02,2456.12 "/>
  <polygon class="fil93" points="6057.84,2456.12 6057.84,1414.36 6039.42,1414.36 6039.42,2456.12 "/>
  <polygon class="fil93" points="6076.26,2456.12 6076.26,1414.36 6057.86,1414.36 6057.86,2456.12 "/>
  <polygon class="fil93" points="6094.67,2456.12 6094.67,1414.36 6076.26,1414.36 6076.26,2456.12 "/>
  <polygon class="fil94" points="6113.1,2456.12 6113.1,1414.36 6094.69,1414.36 6094.69,2456.12 "/>
  <polygon class="fil94" points="6131.49,2456.12 6131.49,1414.36 6113.09,1414.36 6113.09,2456.12 "/>
  <path class="fil95" d="M6149.91 2456.06l0 -1041.64c-1.38,-0.03 -2.76,-0.05 -4.14,-0.05l-14.28 0 0 1041.75 14.09 0c1.45,0 2.89,-0.02 4.33,-0.05z"/>
  <path class="fil95" d="M6168.34 2454.58l0 -1038.68c-6.05,-0.82 -12.19,-1.32 -18.42,-1.48l0 1041.64c6.23,-0.16 12.37,-0.67 18.42,-1.49z"/>
  <path class="fil95" d="M6186.73 2451.04l0 -1031.6c-6.02,-1.51 -12.16,-2.69 -18.41,-3.54l0 1038.68c6.25,-0.85 12.39,-2.03 18.41,-3.54z"/>
  <path class="fil95" d="M6205.17 2445.26l0 -1020.06c-5.99,-2.26 -12.13,-4.18 -18.42,-5.76l0 1031.59c6.28,-1.58 12.43,-3.51 18.42,-5.77z"/>
  <path class="fil96" d="M6223.57 2437.04l0 -1003.62c-5.95,-3.09 -12.09,-5.84 -18.42,-8.22l0 1020.07c6.32,-2.39 12.47,-5.14 18.42,-8.23z"/>
  <path class="fil96" d="M6241.99 2425.91l0 -981.37c-5.88,-4.07 -12.02,-7.79 -18.41,-11.11l0 1003.6c6.38,-3.32 12.53,-7.04 18.41,-11.12z"/>
  <path class="fil97" d="M6260.4 2411.19l0 -951.92c-5.79,-5.32 -11.94,-10.24 -18.42,-14.73l0 981.38c6.48,-4.49 12.63,-9.41 18.42,-14.73z"/>
  <path class="fil97" d="M6278.8 2391.39l0 -912.34c-5.61,-7.08 -11.78,-13.7 -18.42,-19.8l0 951.95c6.64,-6.11 12.81,-12.73 18.42,-19.81z"/>
  <path class="fil97" d="M6297.22 2362.69l0 -854.93c-5.18,-10.19 -11.36,-19.8 -18.41,-28.68l0 912.3c7.05,-8.89 13.22,-18.49 18.41,-28.68z"/>
  <path class="fil97" d="M6297.22 1507.74l0 854.95c11.74,-23.08 18.37,-49.14 18.37,-76.68l0 -701.55c0,-27.57 -6.64,-53.64 -18.37,-76.72z"/>
  <path class="fil0" d="M3023.34 3569.56c-13.6,0 -24.63,11.06 -24.63,24.63l0 101.87c0,13.6 11.03,24.66 24.63,24.66l101.86 0c13.6,0 24.66,-11.06 24.66,-24.66l0 -101.87c0,-13.57 -11.06,-24.63 -24.66,-24.63l-101.86 0z"/>
  <path class="fil98" d="M5398.25 5606.18c0,62.12 -637.75,112.44 -1424.42,112.44 -786.67,0 -1424.42,-50.32 -1424.42,-112.44 0,-62.04 637.75,-112.33 1424.42,-112.33 786.67,0 1424.42,50.29 1424.42,112.33z"/>
  <path class="fil99" d="M156.36 7027.15c-31.03,-13.09 -58.03,-30.69 -80.98,-53.09 -22.98,-22.29 -41.26,-48.35 -54.89,-78.12 -13.66,-29.75 -20.49,-62.04 -20.49,-96.84l0 -474.59c0,-24.8 8.69,-45.86 26.06,-63.29 17.37,-17.37 38.46,-26 63.29,-26 23.55,0 44.35,8.63 62.35,26 17.97,17.43 26.98,38.49 26.98,63.29l0 474.59c0,18.6 7.14,34.8 21.4,48.46 14.26,13.66 30.72,20.46 49.32,20.46l1116.7 0c24.83,0 45.92,8.63 63.29,26.06 17.37,17.37 26.06,38.4 26.06,63.24 0,24.89 -8.69,45.92 -26.06,63.29 -17.37,17.43 -38.46,26.06 -63.29,26.06l-1111.1 0c-34.75,0 -67.63,-6.54 -98.64,-19.52z"/>
  <path class="fil99" d="M2832.69 6844.7c27.29,-15.52 48.69,-34.38 64.2,-56.75 15.52,-22.29 26.06,-46.78 31.66,-73.52 5.57,-26.66 8.37,-51.15 8.37,-73.52 0,-22.31 -2.8,-46.8 -8.37,-73.55 -5.6,-26.63 -16.15,-51.12 -31.66,-73.52 -15.52,-22.29 -36.92,-41.15 -64.2,-56.75 -27.29,-15.43 -62.04,-23.2 -104.21,-23.2l-751.93 0c-43.43,0 -78.49,7.77 -105.15,23.2 -26.69,15.6 -47.78,34.46 -63.29,56.75 -15.52,22.4 -26.03,46.89 -31.63,73.52 -5.57,26.74 -8.37,51.23 -8.37,73.55 0,22.37 2.8,46.86 8.37,73.52 5.6,26.74 16.12,51.23 31.63,73.52 15.51,22.37 36.6,41.23 63.29,56.75 26.66,15.52 61.72,23.32 105.15,23.32l751.93 0c42.18,0 76.92,-7.8 104.21,-23.32zm277.31 -203.79c0,47.18 -7.74,94.64 -23.26,142.44 -15.52,47.78 -38.14,91.12 -67.92,130.27 -29.77,39.06 -65.78,71.01 -107.95,95.84 -42.2,24.8 -89.98,37.2 -143.33,37.2l-848.68 0c-50.89,-2.51 -96.15,-16.43 -135.87,-41.92 -39.72,-25.4 -73.52,-57.35 -101.41,-95.81 -27.94,-38.4 -49.35,-81.23 -64.23,-128.44 -14.89,-47.12 -22.32,-93.64 -22.32,-139.59 0,-47.12 7.72,-94.58 23.26,-142.35 15.49,-47.78 38.15,-91.21 67.92,-130.27 29.77,-39.09 65.75,-71.03 107.95,-95.84 42.18,-24.83 89.95,-37.23 143.3,-37.23l848.71 0c50.86,2.52 96.12,16.43 135.87,41.83 39.69,25.49 73.52,57.43 101.44,95.92 27.92,38.38 49.32,81.24 64.2,128.36 14.89,47.18 22.32,93.72 22.32,139.58z"/>
  <path class="fil99" d="M4595.18 6798.18c34.72,24.23 70.09,50.55 106.15,79.15 13.57,9.89 25.4,21.37 35.29,34.35 9.97,13.09 14.92,28.26 14.92,45.63 0,24.89 -8.72,45.92 -26.06,63.29 -17.34,17.43 -38.49,26.06 -63.29,26.06 -21.06,0 -42.18,-8.63 -63.23,-26.06 -50.89,-37.23 -103.04,-73.2 -156.36,-107.89 -53.38,-34.8 -108.87,-65.81 -166.59,-93.07 -57.69,-27.32 -117.55,-49.03 -179.59,-65.21 -62.06,-16.12 -126.55,-24.17 -193.56,-24.17l-370.38 0c-16.15,2.54 -29.77,9.97 -40.95,22.31 -11.17,12.4 -16.74,27.92 -16.74,46.52l0 158.22c0,24.89 -9,45.92 -27,63.29 -17.97,17.43 -38.77,26.06 -62.35,26.06 -24.83,0 -45.89,-8.63 -63.26,-26.06 -17.4,-17.37 -26.06,-38.4 -26.06,-63.29l0 -178.67c0,-31 5.89,-60.43 17.69,-88.35 11.77,-27.92 27.57,-52.15 47.46,-72.61 19.83,-20.46 43.4,-36.63 70.72,-48.38 27.26,-11.83 57.06,-17.69 89.32,-17.69l986.44 0c18.63,0 35.06,-6.54 49.32,-19.54 14.23,-13.06 21.37,-29.49 21.37,-49.38 0,-18.6 -7.14,-34.69 -21.37,-48.38 -14.26,-13.66 -30.69,-20.43 -49.32,-20.43l-1122.31 0c-24.83,0 -45.89,-8.66 -63.26,-26.09 -17.4,-17.35 -26.06,-38.4 -26.06,-63.29 0,-24.8 8.66,-45.86 26.06,-63.29 17.37,-17.37 38.43,-26 63.26,-26l1114.85 0c34.72,0 67.32,6.46 97.67,19.55 30.43,13 57.09,30.69 80.07,53.06 22.97,22.29 40.92,48.38 54,78.12 12.97,29.77 19.52,62.06 19.52,96.75 0,34.8 -6.54,67.06 -19.52,96.84 -13.08,29.77 -31.03,55.84 -54,78.15 -22.98,22.37 -49.63,39.98 -80.07,53.06 -30.35,12.97 -62.95,19.52 -97.67,19.52l-7.46 0c33.55,21.14 67.67,43.77 102.35,67.92z"/>
  <path class="fil99" d="M5164.69 7046.66c-27.32,0 -54.58,-5.86 -81.92,-17.69 -27.23,-11.71 -51.46,-28.17 -72.58,-49.29 -21.06,-21.11 -38.4,-46.52 -52.06,-76.29 -13.69,-29.83 -20.46,-63.29 -20.46,-100.52l0 -167.5c0,-33.55 9.54,-55.84 28.83,-66.98 19.2,-11.23 49.29,-16.77 90.29,-16.77l1248.83 0c24.8,0 45.86,8.63 63.21,26.06 17.43,17.37 26.09,38.4 26.09,63.23 0,24.89 -8.66,45.95 -26.09,63.29 -17.35,17.43 -38.4,26.06 -63.21,26.06l-1189.31 0 0 91.21c0,12.43 5.29,23.23 15.86,32.55 10.46,9.32 24.49,14 41.83,14l1172.54 0c24.8,0 45.95,8.63 63.29,26.06 17.34,17.37 26.06,38.4 26.06,63.24 0,24.89 -8.71,45.92 -26.06,63.29 -17.35,17.43 -38.49,26.06 -63.29,26.06l-1181.85 0zm-227.02 -722.15c0,-24.8 8.63,-45.86 26.06,-63.29 17.37,-17.37 38.4,-26 63.21,-26l1319.61 0c24.8,0 45.95,8.63 63.29,26 17.34,17.43 26.06,38.49 26.06,63.29 0,24.89 -8.71,45.95 -26.06,63.29 -17.35,17.43 -38.49,26.09 -63.29,26.09l-1319.61 0c-24.8,0 -45.83,-8.66 -63.21,-26.09 -17.43,-17.35 -26.06,-38.4 -26.06,-63.29z"/>
  <path class="fil99" d="M8192.77 6957.31c0,24.89 -8.63,45.92 -25.97,63.29 -17.46,17.43 -38.49,26.06 -63.29,26.06 -24.83,0 -45.95,-8.63 -63.32,-26.06 -17.34,-17.37 -26.06,-38.4 -26.06,-63.29l0 -405.7c0,-50.89 -3.12,-76.29 -9.32,-76.29 -4.94,0 -22.29,16.69 -52.06,50.21l-409.44 465.3c-16.2,18.63 -36.06,32.55 -59.61,41.83 -23.57,9.31 -49.06,14 -76.29,14 -27.34,0 -52.75,-4.69 -76.29,-14 -23.57,-9.29 -43.43,-23.2 -59.63,-41.83l-409.44 -465.3c-28.52,-33.52 -45.86,-50.21 -52.06,-50.21 -6.2,0 -9.32,25.4 -9.32,76.29l0 405.7c0,24.89 -8.71,45.92 -26.06,63.29 -17.37,17.43 -38.49,26.06 -63.32,26.06 -24.8,0 -45.83,-8.63 -63.26,-26.06 -17.37,-17.37 -26,-38.4 -26,-63.29l0 -543.42c0,-49.66 14.26,-91.81 42.75,-126.61 28.6,-34.72 67.66,-52.06 117.3,-52.06 29.74,0 56.43,7.46 79.98,22.32 23.55,14.91 45.35,32.86 65.12,53.98l428.1 487.59c6.2,6.29 14,12.74 23.29,19.54 9.32,6.86 18.86,10.23 28.86,10.23 9.89,0 19.52,-3.37 28.83,-10.23 9.29,-6.8 17,-13.26 23.29,-19.54l426.15 -487.59 1.94 0c17.35,-23.55 38.38,-42.18 63.21,-55.84 24.8,-13.66 52.15,-20.46 81.89,-20.46 49.63,0 88.69,17.35 117.3,52.06 28.49,34.8 42.75,76.95 42.75,126.61l0 543.42z"/>
  <polygon class="fil99" points="2277.61,7577.43 2077.57,7577.43 2077.57,7962.41 1962.75,7962.41 1962.75,7577.43 1762.02,7577.43 1762.02,7479.76 2277.61,7479.76 "/>
  <path class="fil99" d="M2741.63 7749.3l-90.89 -179.73 -6.23 0.14 -93.87 179.59 190.99 0zm240.59 213.11l-134.27 0 -58.04 -116.84 -288.37 0 -58.83 116.84 -133.47 0 246.08 -482.65 180.82 0 246.08 482.65z"/>
  <path class="fil99" d="M3741.21 7768.1c0,82.64 -18.34,137.16 -55,163.3 -29.32,20.63 -87.98,31 -175.99,31l-118.93 0c-81.58,0 -137.27,-11.72 -167.04,-35.12 -34.38,-27 -51.58,-79.72 -51.58,-158.02l0 -74.95c0,-86.7 15.34,-144.39 46.06,-173.3 29.32,-28.43 87.75,-42.6 175.3,-42.6l104.5 0c81.58,0 137.27,6.14 167.07,18.46 50.4,20.54 75.61,64.38 75.61,131.35l-118.24 0c0.46,-29.23 -27.43,-43.92 -83.69,-43.92 -5.97,0 -13.74,0 -23.34,0 -9.14,0 -15.32,0 -18.52,0l-89.86 0c-49.86,0 -82.35,7.14 -97.44,21.37 -15.09,14.17 -22.63,46.12 -22.63,95.75l0 51.03c0,45.03 7.97,74.21 23.97,87.55 14.14,11.92 44.49,17.86 91.04,17.86l93.12 0c44.29,0 70.06,-0.43 77.38,-1.34 19.14,-2.77 32.29,-10.4 39.38,-22.89 7.06,-12.49 10.6,-35.29 10.6,-68.58l-172.56 0 0 -93.49 290.8 0 0 96.52z"/>
  <polygon class="fil99" points="4355.75,7962.41 3947.46,7962.41 3947.46,7479.76 4062.24,7479.76 4062.24,7866.17 4355.75,7866.17 "/>
  <polygon class="fil99" points="4568.2,7962.41 4683.05,7962.41 4683.05,7479.76 4568.2,7479.76 "/>
  <polygon class="fil99" points="5492.15,7962.41 5356.24,7962.41 5041.87,7602.26 5041.87,7962.41 4927.09,7962.41 4927.09,7479.76 5097.54,7479.76 5377.39,7809.73 5377.39,7479.76 5492.15,7479.76 "/>
  <polygon class="fil99" points="6219.44,7962.41 5731.34,7962.41 5731.34,7479.76 6219.44,7479.76 6219.44,7576.03 5846.2,7576.03 5846.2,7664.72 6207.78,7664.72 6207.78,7760.96 5846.2,7760.96 5846.2,7866.17 6219.44,7866.17 "/>
 </g>
</svg>
