<?xml version="1.0" encoding="UTF-8"?>
<!DOCTYPE svg PUBLIC "-//W3C//DTD SVG 1.1//EN" "http://www.w3.org/Graphics/SVG/1.1/DTD/svg11.dtd">
<!-- Creator: CorelDRAW 2018 (64-Bit) -->
<svg xmlns="http://www.w3.org/2000/svg" xml:space="preserve" width="344.746mm" height="336.615mm" version="1.1" style="shape-rendering:geometricPrecision; text-rendering:geometricPrecision; image-rendering:optimizeQuality; fill-rule:evenodd; clip-rule:evenodd"
viewBox="0 0 35650.31 34809.47"
 xmlns:xlink="http://www.w3.org/1999/xlink">
 <defs>
  <style type="text/css">
   <![CDATA[
    .fil2 {fill:#E3E5E5}
    .fil1 {fill:#A9CD24;fill-rule:nonzero}
    .fil3 {fill:#838A8C;fill-rule:nonzero}
    .fil0 {fill:#46A8CA;fill-rule:nonzero}
   ]]>
  </style>
 </defs>
 <g id="Layer_x0020_1">
  <metadata id="CorelCorpID_0Corel-Layer"/>
  <path class="fil0" d="M8519.05 8342.67c165,-79.57 337.46,-29.59 520.98,154.68 196.57,249.55 452.71,311.46 770.15,176.94 62.29,-23.75 123.22,-56.58 182.03,-98.48 438.05,-116.13 861.67,-53.34 1266.63,202.8 464.03,282.37 766.05,730.36 899.59,1340.98 72.99,317.07 239.73,559.65 501.96,723.03 136.4,79.95 279.14,131.42 426.85,151.82 0.74,0 0.74,0 1.5,0 5.72,0.74 5.72,0.74 11.93,1.49 0.74,0 0.74,0 1.86,0 5.84,0.74 5.84,0.74 11.69,1.37 6.6,0.74 6.6,0.74 13.56,1.5 0.99,0 0.99,0 2.11,0 5.85,0.74 5.85,0.74 11.32,1.12 1.12,0 1.12,0 2.23,0.37 5.35,0.74 5.35,0.74 12.06,-3.61 0.62,0 0.62,0 2.12,0.37 5.47,0.74 5.47,0.74 11.31,0.99 1.12,0 1.12,0 2.23,0 5.84,0.75 5.84,0.75 11.19,1.5 1.13,0 1.13,0 2.62,0 5.47,0.74 5.47,0.74 10.94,1.49 1.49,0 1.49,0 2.62,0.37 5.35,0.37 5.35,0.37 11.56,-3.61 1.12,0 1.12,0 2.61,0.25 5.47,0.37 5.47,0.37 11.31,0.75 1.13,0.37 1.13,0.37 2.49,0.74 5.59,0.37 5.59,0.37 11.06,1.12 1.37,0 1.37,0 2.86,0.37 5.1,0.37 5.1,0.37 11.31,-3.73 1.49,0 1.49,0 2.98,0.5 5.1,0.25 5.1,0.25 10.44,1 1.5,0 1.5,0 3.36,0 5.1,0.74 5.1,0.74 11.31,-3.24 1.12,0 1.12,0 2.86,0.37 5.1,0.37 5.1,0.37 10.69,1.12 76.09,-5.97 153.8,-20.14 233,-42.4 141.25,-43.76 266.71,-103.2 378,-189.99 1.49,0 1.49,0 3.6,-3.73 3.36,0.37 3.36,0.37 7.34,-2.86 1.86,-3.6 1.86,-3.6 3.35,-3.6 3.98,-3.36 3.98,-3.36 7.96,-6.97 1.49,0.38 1.49,0.38 3.36,-3.35 3.97,-3.61 3.97,-3.61 7.95,-6.85 1.49,0.26 1.49,0.26 2.49,0.26 4.1,-3.24 4.1,-3.24 8.08,-6.47 1.86,-3.97 1.86,-3.97 3.24,-3.72 3.72,-3.61 3.72,-3.61 7.33,-6.97 104.69,-89.27 194.46,-198.44 269.94,-327.87 169.34,-289.34 220.33,-583.77 158.03,-890.89 -168.97,-656.63 -79.2,-1271.36 271.43,-1855.01 698.16,-1132.11 2167.59,-1545.03 3321.95,-908.79 567.97,311.22 937.14,773.76 1114.44,1392.84 91.89,325.02 285.61,573.81 578.55,743.17 293.31,169.97 605.28,215.23 931.04,132.42 311.46,-79.2 544.23,-260.12 701.89,-539.87 154.68,-277.4 182.78,-575.06 89.65,-889.89 -92.62,-295.06 -272.8,-524.22 -546.46,-693.07 -274.3,-167.86 -561.77,-224.06 -859.81,-167.11 -652.65,175.45 -1285.91,96.99 -1892.93,-236.36 -563.01,-302.52 -929.93,-732.23 -1090.45,-1284.91 -7.33,-6.59 -7.33,-6.59 -8.82,-14.55 -1.75,-12.8 -1.75,-12.8 -3.61,-25.49 -9.08,-16.91 -9.08,-16.91 -12.06,-35.07 -87.16,-256.14 -265.59,-447.24 -535.16,-574.19 -266.33,-124.46 -553.06,-143.37 -852.96,-60.93 -293.69,82.44 -529.31,249.18 -703.63,500.84 -168.97,253.52 -225.18,517 -164.62,790.91 3.35,6.21 3.35,6.21 6.59,11.69 1.12,1.87 1.12,1.87 -3.61,6.97 2.86,5.35 2.86,5.35 6.23,10.94 132.04,572.32 32.45,1138.94 -311.22,1697.47 -341.43,566.11 -799.99,945.59 -1371.32,1134.46 -54.34,14.67 -106.19,31.46 -155.43,50.35 -519.12,143.74 -1017.46,90.15 -1494.18,-146.59 -455.7,-265.21 -729.62,-687.34 -832.95,-1252.45 -0.74,-29.84 -0.74,-29.84 -5.84,-52.47 -0.25,-0.37 -0.25,-0.37 -0.74,-0.37 -0.62,-0.38 -0.62,-0.38 -0.99,-0.75 -69.75,-511.02 57.57,-1020.44 381.97,-1538.06 329,-503.07 746.28,-851.1 1258.93,-1051.4 24.75,-11.93 24.75,-11.93 43.02,-18.53 1.5,1.87 1.5,1.87 9.82,-1.86 17.53,-6.96 17.53,-6.96 35.07,-13.43 60.55,-24.49 118.12,-52.59 179.42,-89.77 0.37,0.37 0.37,0.37 0.74,1.12 7.34,-5.1 7.34,-5.1 15.05,-9.95l0 0c246.93,-144.1 430.09,-345.41 549.33,-603.29 154.68,-286.11 357.23,-470.62 597.2,-551.69 238.6,-79.82 479.44,-43.39 735.45,108.43 268.45,203.91 605.53,250.54 1006.52,135.65 80.32,-22.25 150.7,-47.37 219.58,-78.46 532.29,-96.23 1029.52,-34.94 1503.38,185.77 529.06,247.68 875.96,632.51 1040.84,1161.57 81.69,282 269.94,499.35 555.29,650.04 33.58,19.03 73.61,37.19 107.93,52.85 267.08,133.29 550.07,166.36 852.59,100.71 412.18,-91.15 675.9,-323.16 788.31,-691.95 109.42,-309.48 295.93,-482.68 553.06,-527.57 239.35,-42.65 515.5,51.48 819.01,278.4 320.3,278.64 674.16,392.78 1043.33,333.34 70.38,-11.69 135.41,-29.09 195.21,-52.47 478.21,-13.55 933.16,127.95 1378.17,430.84 476.84,329.37 811.06,764.93 1001.8,1304.18 99.97,290.33 264.22,520.86 491.39,692.07 222.57,171.09 440.03,231.27 655.63,195.08 198.83,-36.43 329.75,-169.59 399.01,-387.06 65.64,-209.39 46.75,-450.48 -48.12,-712.83 -91.52,-243.33 -238.24,-454.95 -433.32,-621.94 -195.96,-162.39 -392.54,-245.57 -591.48,-248.43 -405.97,50.61 -868.88,-81.68 -1377.43,-399.12 -491.76,-321.05 -867.14,-751.13 -1106.12,-1264.77 -8.08,-20.89 -8.08,-20.89 -23.74,-46.38 0,-0.37 0,-0.37 0.37,-0.62 0.37,-0.5 0.37,-0.5 0.74,-0.87 -213.37,-455.58 -228.04,-849.24 -52.22,-1171.77 170.47,-296.29 462.29,-418.15 889.39,-369.65 178.42,16.16 288.96,-22.39 319.67,-124.34 25.12,-93.26 -20.14,-207.65 -144.85,-351.88 -127.33,-142.99 -291.45,-273.54 -510.04,-405.34 -210.87,-121.85 -404.1,-203.91 -580.04,-242.47 -188.62,-36.05 -323.28,-21.14 -375.75,58.45 -66.03,84.55 -40.54,210.13 85.42,376.74 222.2,324.52 258.26,627.91 119.61,927.56 -176.94,302.39 -509.29,491.01 -1010.87,550.58 -23.38,5.1 -23.38,5.1 -55.09,6.46 -438.54,50.73 -673.42,255.39 -685.85,625.3 -103.58,231.64 -268.44,366.67 -489.65,403.48 -251.29,45.25 -535.89,-50.24 -854.32,-285.24 -164.13,-117.49 -325.02,-194.46 -502.7,-236.74 -176.56,-51.85 -367.68,-66.4 -555.3,-41.28 -584.01,127.32 -1162.93,73.73 -1752.05,-158.28 -520.73,-229.16 -862.78,-570.21 -1018.95,-1012.24 -3.73,-18.66 -3.73,-18.66 -7.33,-38.54 0,0 0,0 -0.37,0 0,-1.25 0,-1.25 -0.38,-2.49 -122.59,-380.48 -21.51,-739.81 301.4,-1079.25 325.39,-319.56 754.37,-512.27 1317.99,-590.61 246.7,-39.79 431.58,-119.37 555.3,-231.28 114.89,-105.69 142.24,-208.89 68.63,-310.84 -75.23,-99.47 -221.21,-171.59 -438.17,-216.36 -218.22,-39.78 -449.11,-46 -689.58,-18.64 -239.97,31.09 -430.83,89.52 -582.15,179.04 -137.53,94.5 -181.66,196.46 -134.29,308.36 94.12,230.03 8.08,499.84 -285.61,808.2 -305.37,318.31 -731.86,562 -1283.04,726.14 -28.48,7.46 -28.48,7.46 -57.32,16.16 -457.07,134.29 -739.07,361.82 -833.94,685.6 -158.65,224.8 -338.58,371.03 -554.18,443.27 -243.58,83.93 -472.73,47.5 -702.51,-92.63 -224.06,-138.26 -499.1,-136.77 -818.65,-6.96 -184.64,78.09 -348.77,186 -483.43,315.19 0,0 0,0 0,0.37 0.37,0.37 0.37,0.37 -7.33,7.34l0 0c0.74,0.74 0.74,0.74 -7.21,7.58 -43.77,44.15 -92.63,97.86 -131.05,148.58 -165.87,216.23 -246.94,431.46 -239.23,647.8 28.72,413.81 -109.17,877.08 -422.88,1384.51 -307.12,488.41 -694.93,853.96 -1150.25,1087.85 -22.51,8.7 -22.51,8.7 -50.73,26.24 -362.19,179.54 -586.13,477.58 -677.4,892.74 -120.36,270.69 -258.25,450.86 -410.81,533.67 -167.73,91.26 -322.78,38.67 -460.05,-152.82 -133.79,-183.89 -298.66,-198.07 -492.76,-57.69 -142.99,103.7 -261.98,276.53 -358.21,516.26 -89.77,231.27 -135.78,462.54 -136.15,692.07 2.23,250.91 52.97,428.97 154.3,535.89 108.05,116.75 240.1,138.27 399.51,46.63 223.94,-128.69 391.05,-377.12 495.37,-750.39 108.42,-329.12 245.19,-530.79 415.16,-623.06z"/>
  <path class="fil0" d="M28111.56 11890.42c-154.31,-145.97 -324.41,-179.54 -509.67,-96.73 -200.31,79.2 -358.22,249.54 -470.62,510.03 -116.38,264.47 -153.18,535.16 -110.91,820.51 76.21,537.27 -10.57,1069.19 -265.96,1618.27 -274.67,523.46 -639.85,891.26 -1101.76,1102.01 -83.43,33.57 -164.12,77.71 -237.11,125.58 -435.56,129.81 -860.55,90.76 -1268.01,-136.4 -469.88,-286.11 -768.29,-720.91 -889.39,-1299.46 -63.54,-301.4 -227.3,-527.57 -490.39,-681.12 -267.7,-153.69 -558.16,-188.25 -875.84,-91.27 -319.18,94.5 -560.76,284.24 -724.51,572.46 -166.37,288.09 -209.39,582.15 -135.41,886.03 70.74,302.14 237.98,525.33 491.76,676.41 250.29,149.2 525.32,181.29 827.47,95.99 584.02,-199.93 1130.49,-171.84 1627.35,82.44 474.22,228.78 744.29,608.89 822.37,1128.62 53.59,503.19 -94.12,983.27 -445.87,1458.24 -352.75,465.52 -797.51,796.77 -1329.31,990.11 -331.61,134.9 -571.7,334.1 -703.75,585.51 -162.4,275.4 -377.5,454.09 -635.5,536.64 -238.98,73.98 -481.56,44.15 -725.27,-98.1 -259.36,-156.91 -579.67,-187.63 -948.82,-90.9 -289.34,72.61 -513.28,203.91 -676.41,390.67 -160.9,180.29 -198.44,359.34 -136.4,537.76 61.67,164.12 202.18,280.13 434.44,350.26 235.74,63.04 483.81,61.18 752.62,-5.22 349.89,-91.15 600.8,-252.4 746.78,-488.41 152.93,-224.8 346.53,-376.87 588.75,-452.71 242.33,-77.71 472.85,-61.3 681.87,46.26 209.01,119.74 470.25,115.26 803.73,-15.29 242.96,-98.11 457.82,-245.07 621.94,-429.34 168.23,-192.6 258,-380.23 251.04,-552.31 -19.02,-354.99 129.56,-767.91 454.83,-1234.94 318.56,-453.45 718.43,-796.01 1179.85,-1011.61 455.7,-232.77 716.56,-571.71 804.47,-1041.46 12.31,-74.11 16.41,-141.25 17.78,-209.39 -2.48,-12.81 -2.48,-12.81 0,-33.95 -43.02,-512.27 73.36,-1038.97 356.49,-1580.71 271.8,-544.73 612.12,-913.89 1001.42,-1087.97 165.99,-99.84 295.43,-274.29 390.3,-522.72 91.51,-251.04 122.59,-501.33 93.38,-757.72 -32.08,-264.46 -120.73,-456.32 -267.7,-596.08z"/>
  <path class="fil0" d="M19847.52 15871.61c-1.86,-86.92 -13.56,-170.09 -33.57,-249.18 -4.73,-21.26 -4.73,-21.26 -5.1,-43.76 -181.04,-641.71 -97.11,-1264.15 255.01,-1862.83 303.14,-520.11 714.58,-878.09 1236.3,-1077.9 99.97,-3.98 200.68,-17.9 305,-48.61 307.86,-86.42 543.86,-276.9 707.74,-561.77 162.01,-284.85 208.64,-583.27 141.87,-888.27 -187.88,-670.18 -122.22,-1289.26 187.5,-1871.17 308.98,-578.91 758.09,-926.19 1346.22,-1038.22 53.96,-13.81 104.31,-32.83 150.57,-57.94 476.09,-45.26 923.34,86.78 1346.59,398.75 447.99,328.63 740.93,771.52 892.63,1359.27 73.73,300.53 214.48,534.4 418.52,688.34 198.69,162.39 400.87,201.79 605.53,129.56 190.11,-63.55 326.51,-222.57 411.81,-470.63 81.06,-242.7 87.9,-498.72 20.52,-783.32 -66.03,-263.73 -185.77,-482.19 -355.36,-632.14 -180.92,-172.21 -365.56,-236.75 -555.3,-196.96 -430.08,126.82 -887.15,21.14 -1369.84,-341.94 -464.41,-330.12 -798.5,-787.55 -992.97,-1359.27 -2.48,-7.95 -2.48,-7.95 -5.1,-16.04 -6.21,-14.92 -6.21,-14.92 -12.06,-30.59 -4.73,-16.04 -4.73,-16.04 -9.45,-32.45 -104.32,-273.67 -278.39,-487.16 -532.29,-652.78 -256.76,-165.12 -515.13,-221.32 -784.7,-177.18 -271.8,49.24 -474.97,195.84 -607.39,442.77 -135.03,251.78 -153.94,529.8 -58.44,828.22 1.86,6.84 1.86,6.84 3.35,13.79 -0.74,0.74 -0.74,0.74 -1.12,1.12 5.84,11.32 5.84,11.32 8.09,17.91 188.12,613.61 138.63,1197.25 -157.67,1749.57 -276.53,507.18 -668.69,859.17 -1180.09,1044.82 -95.25,2.23 -192.6,14.66 -291.58,39.78 -325.77,86.79 -573.45,276.16 -740.56,570.59 -168.85,292.95 -210.01,602.68 -124.34,925.58 166.37,634.74 87.54,1255.19 -237.11,1865.57 -699.78,1184.19 -2197.69,1622.98 -3400.78,940.12 -583.65,-367.43 -959.77,-862.04 -1133.84,-1489.96 -87.91,-321.29 -276.16,-566.48 -565.74,-743.42 -201.43,-117.87 -410.82,-176.56 -627.91,-169.59 -1.5,0.25 -1.5,0.25 -2.49,0.25 -5.97,1.12 -5.97,1.12 -11.69,1.86 -0.74,0 -0.74,0 -1.87,0.37 -6.21,0.74 -6.21,0.74 -12.43,1.86 -0.74,0 -0.74,0 -0.99,0 -7.34,-2.98 -7.34,-2.98 -13.93,-1.86 -59.43,5.1 -119.37,13.93 -179.54,27.35 -4.73,0.37 -4.73,0.37 -9.08,1.13 -22.25,7.7 -22.25,7.7 -44.88,15.29 -24.37,3.72 -47.75,11.69 -70.75,19.64 -582.64,149.71 -1133.1,55.83 -1650.47,-271.68 -500.84,-324.4 -819.27,-782.96 -960.14,-1391.72 -1.74,-7.33 -1.74,-7.33 -3.97,-14.67 -3.24,-14.18 -3.24,-14.18 -6.23,-28.84 -4.72,-14.55 -4.72,-14.55 -8.32,-36.43 -70.51,-289.34 -221.07,-503.83 -449.48,-647.56 -223.31,-140.75 -458.19,-158.29 -700.77,-74.1 -238.24,92.38 -420.64,272.92 -550.58,547.58 -125.09,263.48 -160.14,540.75 -105.81,831.83 1.12,8.82 1.12,8.82 2.24,17.53 0.74,0 0.74,0 1.12,0 1.12,8.71 1.12,8.71 2.11,17.4 120.86,585.26 70.13,1145.53 -147.34,1671.98 -202.43,501.58 -484.05,809.57 -839.41,919.73 -192.22,33.21 -321.78,167.73 -389.55,407.09 -62.42,234.63 -53.72,484.05 25.86,757.35 83.18,272.55 206.77,484.8 377.99,652.65 177.93,171.46 355.24,237.85 539.13,208.64 184.65,-31.71 317.07,-158.28 398.38,-373.89 86.05,-221.82 91.15,-474.22 20.02,-742.8 -177.93,-598.93 -164.87,-1157.83 45.63,-1678.07 467.64,-1074.78 1640.89,-1453.02 2649.28,-773.01 511.78,327.88 857.69,810.56 1028.41,1434 92.26,325.14 277.15,574.19 554.8,746.02 50.36,29.22 102.58,56.58 157.29,81.45 5.84,2.11 5.84,2.11 11.69,4.35 0.37,-0.37 0.37,-0.37 0.37,-0.37 209.4,92.62 430.84,113.76 665.71,67.89 6.96,0.37 6.96,0.37 10.94,-3.36 21.14,-5.47 21.14,-5.47 44.51,-7.58 16.05,-7.71 16.05,-7.71 35.07,-12.07 581.16,-132.04 1162.94,-40.15 1739.74,275.78 607.02,318.06 1010.88,793.41 1201.73,1418.32 176.94,612.5 88.53,1170.4 -254.65,1673.11 -338.19,493.49 -806.95,789.8 -1409.62,896.6 -357.6,86.54 -581.17,268.2 -657.38,547.59 -99.59,298.78 -280.63,461.91 -541.75,496.11 -164.99,22.01 -352.74,-21.76 -553.06,-127.57 -81.68,-354.99 -29.59,-696.18 162.63,-1023.68 274.3,-470.25 728.88,-760.33 1356.78,-862.78 285.98,-69.26 500.84,-227.3 643.2,-476.85 143.62,-253.89 172.46,-527.2 80.95,-821.5 -88.65,-296.55 -280.14,-529.43 -570.21,-695.05 -288.6,-166.24 -589.12,-215.85 -893.12,-144.36 -314.09,70.75 -541.99,239.23 -686.11,502.34 -141.25,259.36 -167.11,528.56 -69.38,817.52 191.98,554.18 158.4,1064.84 -83.18,1531.85 -461.04,806.59 -1681.43,943.73 -2630.62,327.88 -467.27,-341.68 -805.85,-757.35 -1014.1,-1248.73 -101.47,-252.4 -265.22,-468.01 -483.43,-636.61 -212.37,-165.87 -421.39,-246.19 -608.88,-215.85 -186.39,14.92 -299.79,117.74 -344.29,303.76 -35.81,185.01 -6.97,383.83 101.33,624.3 100.34,221.83 248.43,424.25 430.21,586.88 189.25,167.11 377.5,262.72 551.2,267.45 370.65,-8.71 800.74,146.35 1282.67,472.36 486.29,306.5 850.73,685.23 1097.29,1131.73 230.52,413.67 263.36,736.21 108.67,961.26 -127.69,199.56 -378.98,246.93 -733.97,165.62 -687.97,-171.84 137.14,403.1 265.58,482.68 264.47,155.8 485.17,269.56 692.82,355.73 167.11,60.43 265.22,73.98 305.75,42.52 34.19,-45.14 -4.85,-126.45 -116.76,-239.97 -233.88,-249.17 -305,-475.72 -202.55,-686.59 144.11,-218.84 438.17,-341.81 905.19,-346.91 465.4,-18.64 681,-201.42 657,-547.21 86.79,-180.54 230.9,-284.86 428.22,-311.6 252.17,-30.59 525.33,57.32 820.51,263.1 308.61,227.3 648.18,312.22 1021.45,256.89 290.83,-47.51 512.15,-170.1 655.14,-371.78 146.35,-208.01 179.92,-431.2 94.5,-670.55 -161.52,-476.84 -97.72,-966.73 195.22,-1470.55 314.45,-491.76 788.68,-820.51 1413.97,-980.29 638.49,-169.22 960.27,-538.39 975.56,-1118.05z"/>
  <path class="fil1" d="M16500.33 7292.38c-1324.2,1484.35 -3177.1,4965.45 1592.03,6974.39 -614.73,-1531.85 -1104.25,-2499.32 -1258.18,-4196.05 564.74,1921.78 890.15,2820.74 1535.08,4123.43 1191.41,-1794.82 1665.39,-5132.44 -1868.93,-6901.78z"/>
  <path class="fil1" d="M18016.89 19174.54c1444.31,-503.44 2353.35,-930.67 3895.39,-1156.72 -1766.35,566.11 -2601.04,851.72 -3823.16,1365.73 1598.62,808.08 4386.42,853.33 6244.03,-1911.21 -1142.91,-972.2 -4342.64,-2589.71 -6316.26,1702.2z"/>
  <path class="fil1" d="M11533.51 8171.96c476.09,-1001.43 743.04,-1657.44 1489.95,-2501.94 -694.31,1115.31 -991.97,1677.82 -1351.69,2589.47 1329.31,-337.45 3203.33,-1720.1 2596.68,-3982.31 -1245.87,182.78 -3490.06,1087.21 -2734.94,3894.78z"/>
  <path class="fil1" d="M10750.17 12506.52c-949.58,1356.41 -1832.01,4073.58 1819.44,6207.97 -662.23,-1261.41 -1138.69,-2093.99 -1399.8,-3565.65 604.04,1691.24 954.67,2458.17 1609.06,3537.3 853.71,-1331.29 1141.56,-4341.28 -2028.7,-6179.62z"/>
  <path class="fil1" d="M24394.82 8906.67c-1110.46,1402.3 -2907.53,4864 1182.34,6463.98 -367.68,-1320.6 -717.56,-2186.98 -819.27,-3778.27 422.38,1784.63 636.11,2581.39 1024.3,3697.7 952.18,-1649.35 1325.69,-4610.48 -1387.37,-6383.42z"/>
  <path class="fil2" d="M18166.83 23520.54c-3258.53,0 -5900.11,308.98 -5900.11,689.83 0,380.85 2641.58,689.46 5900.11,689.46 3258.79,0 5899.98,-308.61 5899.98,-689.46 0,-380.85 -2641.19,-689.83 -5899.98,-689.83z"/>
  <path class="fil3" d="M680.13 30739.76c-135.03,-56.58 -252.54,-133.54 -352.13,-230.9 -99.97,-97.1 -179.79,-210.5 -238.85,-340.06 -59.56,-129.44 -89.15,-269.93 -89.15,-421l0 -2065.15c0,-108.04 37.67,-199.93 113.14,-275.4 75.48,-75.6 167.48,-113.52 275.41,-113.52 102.58,0 192.97,37.92 271.43,113.52 78.09,75.47 117.49,167.36 117.49,275.4l0 2065.15c0,81.06 30.96,151.07 93.01,210.5 62.05,59.43 133.54,89.03 214.48,89.03l4859.27 0c107.93,0 199.94,37.92 275.41,113.4 75.47,75.59 113.52,167.48 113.52,275.53 0,107.93 -38.05,199.45 -113.52,275.04 -75.47,75.85 -167.48,113.4 -275.41,113.4l-4834.77 0c-151.44,0 -294.43,-28.48 -429.34,-84.92z"/>
  <path class="fil3" d="M12326.17 29945.86c118.61,-67.14 211.99,-149.46 279.51,-246.94 67.52,-96.98 113.4,-203.54 137.52,-319.92 24.37,-116.01 36.43,-222.57 36.43,-319.55 0,-97.48 -12.06,-203.91 -36.43,-319.92 -24.12,-116.14 -70,-222.94 -137.52,-319.93 -67.52,-97.47 -160.9,-179.54 -279.51,-247.06 -118.87,-67.52 -269.94,-101.33 -453.34,-101.33l-3272.09 0c-188.88,0 -341.44,33.82 -457.45,101.33 -116.38,67.52 -207.9,149.58 -275.41,247.06 -67.52,96.99 -113.39,203.79 -137.89,319.93 -24.13,116.01 -36.56,222.44 -36.56,319.92 0,96.98 12.43,203.54 36.56,319.55 24.5,116.38 70.37,222.94 137.89,319.92 67.52,97.48 159.03,179.8 275.41,246.94 116.01,67.89 268.57,101.46 457.45,101.46l3272.09 0c183.4,0 334.47,-33.57 453.34,-101.46zm1206.83 -886.41c0,204.91 -33.95,411.44 -101.47,619.45 -67.39,207.9 -165.87,396.89 -295.42,566.86 -129.56,169.97 -286.35,308.98 -469.88,417.03 -183.52,107.92 -391.42,161.89 -623.44,161.89l-3692.97 0c-221.45,-10.57 -418.4,-71.5 -591.36,-182.03 -172.95,-110.91 -319.92,-249.92 -441.4,-417.28 -121.48,-167.11 -214.61,-353.5 -279.52,-558.53 -64.53,-205.4 -96.98,-407.83 -96.98,-607.39 0,-205.4 33.57,-411.93 101.08,-619.83 67.39,-207.64 165.99,-396.89 295.81,-566.85 129.56,-170.1 285.98,-309.1 469.5,-417.03 183.52,-108.05 391.42,-162.01 623.8,-162.01l3692.98 0c221.44,10.94 418.4,71.5 590.98,182.03 172.95,110.91 319.92,249.92 441.4,417.41 121.49,167.36 214.99,353.49 279.52,558.78 64.9,205.16 97.36,407.58 97.36,607.51z"/>
  <path class="fil3" d="M19995.6 29743.43c151.07,105.44 305.01,220.33 461.43,344.42 59.55,43.39 110.91,93.01 154.05,149.94 43.02,56.45 64.91,122.85 64.91,198.44 0,107.93 -37.93,199.45 -113.52,275.04 -75.85,75.85 -167.36,113.4 -275.41,113.4 -91.88,0 -183.52,-37.55 -275.41,-113.4 -221.44,-162.01 -447.98,-318.56 -680.01,-469.5 -232.38,-151.07 -473.85,-286.35 -724.89,-404.97 -251.3,-118.87 -511.78,-213.37 -781.72,-283.5 -269.94,-70 -550.57,-105.44 -842.02,-105.44l-1611.68 0c-70.49,11.06 -129.55,43.4 -178.42,97.48 -48.49,53.96 -72.61,121.48 -72.61,202.43l0 688.45c0,107.93 -39.41,199.45 -117.49,275.04 -78.33,75.85 -168.85,113.4 -271.43,113.4 -107.93,0 -199.93,-37.55 -275.41,-113.4 -75.47,-75.59 -113.4,-167.11 -113.4,-275.04l0 -777.85c0,-134.54 25.49,-262.98 76.97,-384.46 51.35,-121.48 119.99,-226.91 206.53,-315.94 86.41,-89.04 188.87,-159.03 307.86,-210.51 118.49,-51.48 248.42,-76.96 388.8,-76.96l4292.42 0c80.94,0 152.44,-28.48 214.48,-85.05 62.04,-56.82 93,-128.31 93,-214.48 0,-80.94 -30.96,-151.32 -93,-210.87 -62.05,-59.06 -133.54,-88.9 -214.48,-88.9l-4883.77 0c-107.93,0 -199.93,-37.67 -275.41,-113.52 -75.47,-75.47 -113.4,-167.11 -113.4,-275.04 0,-108.04 37.93,-199.93 113.4,-275.4 75.48,-75.6 167.48,-113.52 275.41,-113.52l4851.31 0c150.95,0 292.57,28.47 425,85.04 132.42,56.58 248.42,133.54 348.39,230.89 99.84,96.99 178.05,210.51 234.88,340.08 56.58,129.43 85.05,269.93 85.05,421.25 0,151.07 -28.48,291.45 -85.05,421.01 -56.82,129.56 -135.03,242.95 -234.88,340.06 -99.97,97.35 -215.97,174.32 -348.39,230.89 -132.43,56.58 -274.05,84.92 -425,84.92l-32.45 0c145.85,92.01 293.93,190.49 445.38,295.56z"/>
  <path class="fil3" d="M22473.8 30824.68c-118.99,0 -237.86,-25.49 -356.49,-76.97 -118.86,-50.98 -223.92,-122.47 -315.94,-214.48 -91.89,-91.89 -167.36,-202.43 -226.54,-331.99 -59.44,-129.55 -89.28,-275.4 -89.28,-437.42l0 -728.88c0,-145.85 41.91,-242.95 125.84,-291.45 83.56,-48.49 214.48,-72.98 392.54,-72.98l5434.09 0c108.04,0 199.93,37.92 275.53,113.39 75.48,75.6 113.4,167.48 113.4,275.54 0,107.93 -37.92,199.56 -113.4,275.04 -75.59,75.84 -167.48,113.39 -275.53,113.39l-5174.72 0 0 397.01c0,53.97 22.64,100.97 68.51,141.5 46.01,40.54 106.56,60.93 182.41,60.93l5102.23 0c107.92,0 199.56,37.92 275.41,113.4 75.59,75.59 113.14,167.48 113.14,275.53 0,107.93 -37.55,199.45 -113.14,275.04 -75.85,75.85 -167.49,113.4 -275.41,113.4l-5142.64 0zm-988.25 -3142.04c0,-108.04 37.93,-199.93 113.4,-275.4 75.48,-75.6 167.48,-113.52 275.41,-113.52l5742.07 0c107.92,0 199.56,37.92 275.41,113.52 75.59,75.47 113.14,167.36 113.14,275.4 0,107.93 -37.55,199.57 -113.14,275.04 -75.85,75.85 -167.49,113.52 -275.41,113.52l-5742.07 0c-107.93,0 -199.93,-37.67 -275.41,-113.52 -75.47,-75.47 -113.4,-167.11 -113.4,-275.04z"/>
  <path class="fil3" d="M35650.31 30436.24c0,107.93 -37.55,199.45 -113.51,275.04 -75.48,75.85 -167.11,113.4 -275.04,113.4 -108.3,0 -199.93,-37.55 -275.41,-113.4 -75.84,-75.59 -113.51,-167.11 -113.51,-275.04l0 -1765.72c0,-221.45 -13.43,-331.99 -40.41,-331.99 -21.63,0 -97.11,72.99 -226.92,218.59l-1781.77 2024.6c-70,81.07 -156.42,141.99 -258.99,182.41 -102.58,40.54 -213.37,60.56 -331.99,60.56 -118.99,0 -229.53,-20.02 -331.98,-60.56 -102.83,-40.41 -189.24,-101.33 -259.37,-182.41l-1781.65 -2024.6c-124.09,-145.6 -199.69,-218.59 -226.67,-218.59 -27.35,0 -40.54,110.54 -40.54,331.99l0 1765.72c0,107.93 -37.92,199.45 -113.4,275.04 -75.84,75.85 -167.36,113.4 -275.4,113.4 -107.93,0 -199.94,-37.55 -275.41,-113.4 -75.6,-75.59 -113.52,-167.11 -113.52,-275.04l0 -2365.04c0,-216.11 62.05,-399.51 186.51,-550.58 123.97,-151.32 294.43,-226.91 510.29,-226.91 129.55,0 245.56,32.45 348.14,97.11 102.46,64.9 196.96,143.36 283.36,234.88l1862.72 2122.08c26.98,26.98 60.93,55.08 101.46,85.04 40.41,29.47 82.07,44.51 125.46,44.51 43.03,0 85.05,-15.04 125.46,-44.51 40.54,-29.97 74.1,-58.06 101.09,-85.04l1854.63 -2122.08 8.08 0c75.85,-102.46 167.48,-183.53 275.41,-242.96 108.04,-59.06 226.91,-89.03 356.48,-89.03 215.97,0 385.95,75.59 510.41,226.91 123.96,151.07 186,334.47 186,550.58l0 2365.04z"/>
  <polygon class="fil3" points="9910.76,33134.39 9040.4,33134.39 9040.4,34809.47 8540.55,34809.47 8540.55,33134.39 7667.33,33134.39 7667.33,32709.65 9910.76,32709.65 "/>
  <path class="fil3" d="M11929.65 33882.16l-395.03 -781.72 -27.35 0.37 -408.7 781.35 831.08 0zm1047.42 927.31l-584.52 0 -252.78 -508.42 -1254.57 0 -256.01 508.42 -580.78 0 1070.68 -2099.82 786.81 0 1071.18 2099.82z"/>
  <path class="fil3" d="M16279.63 33963.98c0,359.58 -79.82,596.82 -239.23,710.59 -127.69,90.02 -383.08,134.9 -766.17,134.9l-517.25 0c-354.99,0 -597.58,-50.6 -727.13,-152.44 -149.58,-117.74 -224.31,-346.9 -224.31,-687.96l0 -326.15c0,-376.87 66.76,-628.28 200.55,-753.74 127.44,-123.72 381.72,-185.77 762.94,-185.77l454.46 0c354.99,0 597.19,27.1 727.13,80.33 219.21,89.4 329,280.13 329,572.08l-514.76 0c2.23,-127.69 -119.24,-191.61 -364.07,-191.61 -25.86,0 -59.8,0 -101.83,0 -39.67,0 -66.4,0 -80.21,0l-391.05 0c-217.09,0 -358.59,31.09 -424.24,93.01 -65.64,62.05 -98.23,201.06 -98.23,416.66l0 222.2c0,195.83 34.69,322.77 104.07,380.84 61.55,51.85 193.59,77.96 396.14,77.96l405.35 0c192.6,0 304.87,-2.11 336.7,-6.09 83.43,-12.06 140.38,-45.25 171.46,-99.59 30.59,-53.96 45.88,-153.55 45.88,-298.04l-750.76 0 0 -407.21 1265.51 0 0 420.02z"/>
  <polygon class="fil3" points="18953.65,34809.47 17176.73,34809.47 17176.73,32709.65 17676.58,32709.65 17676.58,34390.7 18953.65,34390.7 "/>
  <polygon class="fil3" points="19878.11,34809.47 20377.55,34809.47 20377.55,32709.66 19878.11,32709.66 "/>
  <polygon class="fil3" points="23898.71,34809.47 23307.36,34809.47 21939.26,33242.31 21939.26,34809.47 21439.55,34809.47 21439.55,32709.65 22181.61,32709.65 23398.88,34145.26 23398.88,32709.65 23898.71,32709.65 "/>
  <polygon class="fil3" points="27063.38,34809.47 24939.42,34809.47 24939.42,32709.65 27063.38,32709.65 27063.38,33128.42 25439.27,33128.42 25439.27,33514.11 27012.65,33514.11 27012.65,33932.89 25439.27,33932.89 25439.27,34390.7 27063.38,34390.7 "/>
 </g>
</svg>
