<?xml version="1.0" encoding="UTF-8"?>
<!DOCTYPE svg PUBLIC "-//W3C//DTD SVG 1.1//EN" "http://www.w3.org/Graphics/SVG/1.1/DTD/svg11.dtd">
<!-- Creator: CorelDRAW 2018 (64-Bit) -->
<svg xmlns="http://www.w3.org/2000/svg" xml:space="preserve" width="344.746mm" height="328.495mm" version="1.1" style="shape-rendering:geometricPrecision; text-rendering:geometricPrecision; image-rendering:optimizeQuality; fill-rule:evenodd; clip-rule:evenodd"
viewBox="0 0 16829.26 16035.93"
 xmlns:xlink="http://www.w3.org/1999/xlink">
 <defs>
  <style type="text/css">
   <![CDATA[
    .fil0 {fill:#CBDA16;fill-rule:nonzero}
    .fil1 {fill:#C9D917;fill-rule:nonzero}
    .fil2 {fill:#C6D81D;fill-rule:nonzero}
    .fil4 {fill:#C3D72B;fill-rule:nonzero}
    .fil3 {fill:#C4D728;fill-rule:nonzero}
    .fil7 {fill:#C2D733;fill-rule:nonzero}
    .fil6 {fill:#C2D730;fill-rule:nonzero}
    .fil5 {fill:#C2D72C;fill-rule:nonzero}
    .fil9 {fill:#BFD638;fill-rule:nonzero}
    .fil8 {fill:#BFD634;fill-rule:nonzero}
    .fil11 {fill:#BDD53E;fill-rule:nonzero}
    .fil10 {fill:#BDD53B;fill-rule:nonzero}
    .fil13 {fill:#BAD442;fill-rule:nonzero}
    .fil12 {fill:#BAD43F;fill-rule:nonzero}
    .fil16 {fill:#B8D448;fill-rule:nonzero}
    .fil15 {fill:#B8D445;fill-rule:nonzero}
    .fil14 {fill:#B8D443;fill-rule:nonzero}
    .fil20 {fill:#B5D350;fill-rule:nonzero}
    .fil19 {fill:#B5D34E;fill-rule:nonzero}
    .fil18 {fill:#B5D34A;fill-rule:nonzero}
    .fil17 {fill:#B5D348;fill-rule:nonzero}
    .fil23 {fill:#B3D255;fill-rule:nonzero}
    .fil22 {fill:#B3D253;fill-rule:nonzero}
    .fil21 {fill:#B3D250;fill-rule:nonzero}
    .fil26 {fill:#B0D25B;fill-rule:nonzero}
    .fil25 {fill:#B0D158;fill-rule:nonzero}
    .fil24 {fill:#B0D155;fill-rule:nonzero}
    .fil28 {fill:#AED15D;fill-rule:nonzero}
    .fil27 {fill:#AED15B;fill-rule:nonzero}
    .fil31 {fill:#AAD064;fill-rule:nonzero}
    .fil30 {fill:#ABD061;fill-rule:nonzero}
    .fil29 {fill:#ABD05F;fill-rule:nonzero}
    .fil33 {fill:#A7CF68;fill-rule:nonzero}
    .fil32 {fill:#A7CF66;fill-rule:nonzero}
    .fil37 {fill:#A5CF6F;fill-rule:nonzero}
    .fil36 {fill:#A5CF6D;fill-rule:nonzero}
    .fil35 {fill:#A5CE6A;fill-rule:nonzero}
    .fil34 {fill:#A5CE69;fill-rule:nonzero}
    .fil40 {fill:#A1CE74;fill-rule:nonzero}
    .fil39 {fill:#A1CE71;fill-rule:nonzero}
    .fil38 {fill:#A2CE6F;fill-rule:nonzero}
    .fil44 {fill:#9FCD7A;fill-rule:nonzero}
    .fil43 {fill:#9FCD78;fill-rule:nonzero}
    .fil42 {fill:#9FCD76;fill-rule:nonzero}
    .fil41 {fill:#9FCD74;fill-rule:nonzero}
    .fil48 {fill:#9BCD81;fill-rule:nonzero}
    .fil47 {fill:#9BCC7E;fill-rule:nonzero}
    .fil46 {fill:#9BCC7C;fill-rule:nonzero}
    .fil45 {fill:#9CCC7A;fill-rule:nonzero}
    .fil52 {fill:#99CC87;fill-rule:nonzero}
    .fil51 {fill:#99CC85;fill-rule:nonzero}
    .fil50 {fill:#99CC82;fill-rule:nonzero}
    .fil49 {fill:#99CC81;fill-rule:nonzero}
    .fil57 {fill:#95CC8F;fill-rule:nonzero}
    .fil56 {fill:#95CB8D;fill-rule:nonzero}
    .fil55 {fill:#95CB8B;fill-rule:nonzero}
    .fil54 {fill:#95CB89;fill-rule:nonzero}
    .fil53 {fill:#95CB87;fill-rule:nonzero}
    .fil60 {fill:#92CB95;fill-rule:nonzero}
    .fil59 {fill:#92CB93;fill-rule:nonzero}
    .fil58 {fill:#92CB91;fill-rule:nonzero}
    .fil66 {fill:#8ECB9F;fill-rule:nonzero}
    .fil65 {fill:#8ECA9E;fill-rule:nonzero}
    .fil64 {fill:#8ECA9B;fill-rule:nonzero}
    .fil63 {fill:#8ECA99;fill-rule:nonzero}
    .fil62 {fill:#8ECA97;fill-rule:nonzero}
    .fil61 {fill:#8ECA95;fill-rule:nonzero}
    .fil69 {fill:#8ACAA3;fill-rule:nonzero}
    .fil68 {fill:#8AC9A1;fill-rule:nonzero}
    .fil67 {fill:#8AC99F;fill-rule:nonzero}
    .fil74 {fill:#86C9AB;fill-rule:nonzero}
    .fil73 {fill:#87C9A9;fill-rule:nonzero}
    .fil72 {fill:#87C9A7;fill-rule:nonzero}
    .fil71 {fill:#87C9A5;fill-rule:nonzero}
    .fil70 {fill:#87C9A3;fill-rule:nonzero}
    .fil77 {fill:#82C8B1;fill-rule:nonzero}
    .fil76 {fill:#82C8AF;fill-rule:nonzero}
    .fil75 {fill:#82C8AD;fill-rule:nonzero}
    .fil83 {fill:#7FC8BA;fill-rule:nonzero}
    .fil82 {fill:#7FC8B8;fill-rule:nonzero}
    .fil81 {fill:#7FC8B6;fill-rule:nonzero}
    .fil80 {fill:#7FC8B4;fill-rule:nonzero}
    .fil79 {fill:#7FC8B3;fill-rule:nonzero}
    .fil78 {fill:#80C8B0;fill-rule:nonzero}
    .fil89 {fill:#79C8C5;fill-rule:nonzero}
    .fil88 {fill:#7AC8C3;fill-rule:nonzero}
    .fil87 {fill:#7AC8C1;fill-rule:nonzero}
    .fil86 {fill:#7AC7BF;fill-rule:nonzero}
    .fil85 {fill:#7AC7BE;fill-rule:nonzero}
    .fil84 {fill:#7BC7BB;fill-rule:nonzero}
    .fil95 {fill:#75C8CE;fill-rule:nonzero}
    .fil94 {fill:#76C7CC;fill-rule:nonzero}
    .fil93 {fill:#76C7CA;fill-rule:nonzero}
    .fil92 {fill:#76C7C8;fill-rule:nonzero}
    .fil91 {fill:#76C7C7;fill-rule:nonzero}
    .fil90 {fill:#77C7C5;fill-rule:nonzero}
    .fil117 {fill:#838A8C;fill-rule:nonzero}
    .fil102 {fill:#6FC7D8;fill-rule:nonzero}
    .fil101 {fill:#70C7D6;fill-rule:nonzero}
    .fil100 {fill:#70C7D4;fill-rule:nonzero}
    .fil99 {fill:#70C7D3;fill-rule:nonzero}
    .fil98 {fill:#71C7D1;fill-rule:nonzero}
    .fil97 {fill:#71C6CF;fill-rule:nonzero}
    .fil96 {fill:#71C6CE;fill-rule:nonzero}
    .fil110 {fill:#6AC7E4;fill-rule:nonzero}
    .fil109 {fill:#6BC6E2;fill-rule:nonzero}
    .fil108 {fill:#6BC6E0;fill-rule:nonzero}
    .fil107 {fill:#6BC6DE;fill-rule:nonzero}
    .fil106 {fill:#6CC6DD;fill-rule:nonzero}
    .fil105 {fill:#6CC6DB;fill-rule:nonzero}
    .fil104 {fill:#6CC6DA;fill-rule:nonzero}
    .fil103 {fill:#6DC6D8;fill-rule:nonzero}
    .fil116 {fill:#64C6EC;fill-rule:nonzero}
    .fil115 {fill:#64C5EA;fill-rule:nonzero}
    .fil114 {fill:#64C5E9;fill-rule:nonzero}
    .fil113 {fill:#65C5E7;fill-rule:nonzero}
    .fil112 {fill:#65C5E5;fill-rule:nonzero}
    .fil111 {fill:#66C5E3;fill-rule:nonzero}
   ]]>
  </style>
 </defs>
 <g id="Layer_x0020_1">
  <metadata id="CorelCorpID_0Corel-Layer"/>
  <path class="fil0" d="M3017.77 5322.8l0 -611.17c-26.42,19.43 -43.66,50.65 -43.66,85.7l0 439.81c0,35.05 17.24,66.25 43.66,85.66z"/>
  <path class="fil1" d="M3061.77 5341.82l0 -649.23c-16.06,2.93 -30.9,9.49 -43.63,18.77l0 611.7c12.73,9.28 27.57,15.82 43.63,18.75z"/>
  <path class="fil1" d="M3105.22 5343.55l0 -652.69 -24.28 0c-6.61,0 -13.08,0.61 -19.37,1.77l0 649.15c6.29,1.16 12.76,1.77 19.37,1.77l24.28 0z"/>
  <polygon class="fil1" points="3148.64,5343.55 3148.64,4690.85 3105.01,4690.85 3105.01,5343.55 "/>
  <polygon class="fil1" points="3192.68,5343.55 3192.68,4690.85 3149.03,4690.85 3149.03,5343.55 "/>
  <polygon class="fil2" points="3236.12,5343.55 3236.12,4690.85 3192.46,4690.85 3192.46,5343.55 "/>
  <path class="fil2" d="M3280.12 7638.89l0 -1764.08c-14.17,38.93 -21.92,80.87 -21.92,124.55l0 1515c0,43.67 7.75,85.6 21.92,124.53zm0 -2295.34l0 -652.69 -43.63 0 0 652.69 43.63 0z"/>
  <path class="fil2" d="M3323.58 7722.66l0 -1931.64c-18,25.92 -32.75,54.23 -43.66,84.34l0 1762.95c10.91,30.11 25.66,58.43 43.66,84.34zm0 -2379.12l0 -652.69 -43.66 0 0 652.69 43.66 0z"/>
  <path class="fil2" d="M3366.99 7774.43l0 -2035.17c-16.08,15.97 -30.69,33.41 -43.63,52.08l0 1931.01c12.94,18.68 27.55,36.12 43.63,52.09zm0 -2430.89l0 -652.69 -43.63 0 0 652.69 43.63 0z"/>
  <path class="fil2" d="M3411.03 7811.83l0 -2109.96c-15.49,11.21 -30.09,23.59 -43.65,37.01l0 2035.94c13.56,13.42 28.16,25.8 43.65,37.01zm0 -2468.28l0 -652.69 -43.65 0 0 652.69 43.65 0z"/>
  <path class="fil2" d="M3454.44 7838.88l0 -2164.05c-15.2,8.06 -29.78,17.16 -43.63,27.21l0 2109.63c13.85,10.04 28.43,19.15 43.63,27.21zm0 -2495.33l0 -652.69 -43.63 0 0 652.69 43.63 0z"/>
  <path class="fil3" d="M3497.9 7858.44l0 -2203.18c-15.04,5.62 -29.61,12.2 -43.66,19.66l0 2163.84c14.04,7.46 28.62,14.05 43.66,19.67zm0 -2514.89l0 -652.69 -43.66 0 0 652.69 43.66 0zm0 -923.73l0 -1281.15c-16.31,33.62 -25.46,71.28 -25.46,110.96l0 1059.11c0,39.73 9.15,77.42 25.46,111.07z"/>
  <path class="fil3" d="M3541.92 7871.8l0 -2229.88c-14.91,3.51 -29.48,7.94 -43.65,13.21l0 2203.45c14.17,5.28 28.74,9.71 43.65,13.22zm0 -2530.4l0 -648.38c-6.89,-1.42 -14.03,-2.16 -21.35,-2.16l-22.3 0 0 652.69 22.3 0c7.31,0 14.45,-0.74 21.35,-2.15zm0 -857.62l0 -1409.02c-17.53,18.69 -32.3,39.97 -43.65,63.18l0 1282.61c11.35,23.24 26.13,44.53 43.65,63.23z"/>
  <path class="fil3" d="M3585.33 7879.26l0 -2244.8c-14.82,1.64 -29.38,4.15 -43.63,7.51l0 2229.78c14.25,3.36 28.81,5.88 43.63,7.51zm0 -2557.82l0 -608.45c-12.6,-9.75 -27.45,-16.73 -43.63,-20.01l0 648.46c16.18,-3.28 31.03,-10.26 43.63,-20zm0 -800.52l0 -1483.31c-15.9,10.82 -30.53,23.37 -43.63,37.37l0 1408.55c13.1,14.01 27.73,26.56 43.63,37.38z"/>
  <path class="fil3" d="M3628.8 7881.5l0 -2249.28 -3.16 0c-13.68,0 -27.19,0.78 -40.5,2.26l0 2244.76c13.31,1.48 26.81,2.26 40.5,2.26l3.16 0zm0 -3336.77l0 -1530.92c-15.37,6.58 -29.98,14.62 -43.66,23.93l0 1483.04c13.67,9.32 28.28,17.35 43.66,23.94zm-43.66 168.1l0 608.75c25.34,-19.49 41.67,-50.12 41.67,-84.45l0 -439.81c0,-34.33 -16.34,-64.99 -41.67,-84.49z"/>
  <path class="fil4" d="M3672.79 7881.5l0 -2249.28 -43.63 0 0 2249.28 43.63 0zm0 -3322.48l0 -1559.49c-15.08,3.42 -29.67,8.17 -43.63,14.12l0 1531.24c13.96,5.95 28.55,10.71 43.63,14.13z"/>
  <path class="fil4" d="M3716.25 7881.5l0 -2249.28 -43.66 0 0 2249.28 43.66 0zm0 -3316.48l0 -1571.49c-14.92,0.77 -29.5,2.82 -43.66,6.04l0 1559.4c14.16,3.22 28.74,5.28 43.66,6.04z"/>
  <path class="fil5" d="M3759.66 7881.5l0 -2249.28 -43.63 0 0 2249.28 43.63 0zm0 -3316.14l0 -1572.17 -30.13 0c-4.53,0 -9.03,0.12 -13.5,0.36l0 1571.46c4.47,0.23 8.97,0.36 13.5,0.36l30.13 0z"/>
  <path class="fil6" d="M3803.71 7881.5l0 -2249.28 -43.66 0 0 2249.28 43.66 0zm0 -3316.14l0 -1572.17 -43.66 0 0 1572.17 43.66 0z"/>
  <path class="fil6" d="M3847.12 7881.5l0 -2249.28 -43.63 0 0 2249.28 43.63 0zm0 -3316.14l0 -1572.17 -43.63 0 0 1572.17 43.63 0z"/>
  <path class="fil6" d="M3891.16 7881.5l0 -2249.28 -43.66 0 0 2249.28 43.66 0zm0 -3316.14l0 -1572.17 -43.66 0 0 1572.17 43.66 0z"/>
  <path class="fil6" d="M3934.6 7881.5l0 -2249.28 -43.66 0 0 2249.28 43.66 0zm0 -3316.14l0 -1572.17 -43.66 0 0 1572.17 43.66 0z"/>
  <path class="fil7" d="M3978.01 7881.5l0 -2249.28 -43.63 0 0 2249.28 43.63 0zm0 -3316.14l0 -1572.17 -43.63 0 0 1572.17 43.63 0z"/>
  <path class="fil8" d="M4022.06 7881.5l0 -2249.28 -43.66 0 0 2249.28 43.66 0zm0 -3316.14l0 -1572.17 -43.66 0 0 1572.17 43.66 0z"/>
  <path class="fil9" d="M4065.47 7881.5l0 -2249.28 -43.63 0 0 2249.28 43.63 0zm0 -3316.14l0 -1572.17 -43.63 0 0 1572.17 43.63 0z"/>
  <path class="fil9" d="M4108.92 7881.5l0 -2249.28 -43.65 0 0 2249.28 43.65 0zm0 -3316.14l0 -1572.17 -43.65 0 0 1572.17 43.65 0z"/>
  <path class="fil9" d="M4152.92 7881.5l0 -2249.28 -43.63 0 0 2249.28 43.63 0zm0 -3316.14l0 -1572.17 -43.63 0 0 1572.17 43.63 0z"/>
  <path class="fil9" d="M4196.38 9175.52l0 -583.22c-17.27,18.96 -27.81,44.16 -27.81,71.73l0 439.64c0,27.65 10.54,52.88 27.81,71.85zm0 -1294.02l0 -2249.28 -43.66 0 0 2249.28 43.66 0zm0 -3316.14l0 -1572.17 -43.66 0 0 1572.17 43.66 0z"/>
  <path class="fil9" d="M4239.8 9204.31l0 -640.8c-16.9,5.93 -31.85,16.01 -43.63,29.03l0 582.75c11.78,13.02 26.73,23.1 43.63,29.03zm0 -1322.81l0 -2249.28 -43.63 0 0 2249.28 43.63 0zm0 -3316.14l0 -1572.17 -43.63 0 0 1572.17 43.63 0zm0 -2100.99l0 -455.07c-22.95,13.52 -38.35,38.56 -38.35,67.01l0 321.01c0,28.48 15.4,53.52 38.35,67.05z"/>
  <path class="fil10" d="M4283.84 9210.26l0 -652.7 -9.02 0c-12.13,0 -23.78,2.06 -34.63,5.81l0 641.08c10.85,3.76 22.5,5.81 34.63,5.81l9.02 0zm0 -1328.76l0 -2249.28 -43.65 0 0 2249.28 43.65 0zm0 -3316.14l0 -1572.17 -43.65 0 0 1572.17 43.65 0zm0 -2090.34l0 -476.37 -4.92 0c-14.12,0 -27.35,3.8 -38.74,10.42l0 455.53c11.39,6.62 24.62,10.43 38.74,10.43l4.92 0z"/>
  <path class="fil10" d="M4327.27 9210.26l0 -652.7 -43.66 0 0 652.7 43.66 0zm0 -1328.76l0 -2249.28 -43.66 0 0 2249.28 43.66 0zm0 -3316.14l0 -1572.17 -43.66 0 0 1572.17 43.66 0zm0 -2090.34l0 -476.37 -43.66 0 0 476.37 43.66 0z"/>
  <path class="fil10" d="M4371.27 9210.26l0 -652.7 -43.63 0 0 652.7 43.63 0zm0 -1328.76l0 -2249.28 -43.63 0 0 2249.28 43.63 0zm0 -3316.14l0 -1572.17 -43.63 0 0 1572.17 43.63 0zm0 -2090.34l0 -476.37 -43.63 0 0 476.37 43.63 0z"/>
  <path class="fil10" d="M4414.73 9210.26l0 -652.7 -43.65 0 0 652.7 43.65 0zm0 -1328.76l0 -2249.28 -43.65 0 0 2249.28 43.65 0zm0 -3316.14l0 -1572.17 -43.65 0 0 1572.17 43.65 0zm0 -2090.34l0 -476.37 -43.65 0 0 476.37 43.65 0z"/>
  <path class="fil11" d="M4458.14 9210.26l0 -652.7 -43.63 0 0 652.7 43.63 0zm0 -1328.76l0 -2249.28 -43.63 0 0 2249.28 43.63 0zm0 -3316.14l0 -1572.17 -43.63 0 0 1572.17 43.63 0zm0 -2090.34l0 -476.37 -43.63 0 0 476.37 43.63 0z"/>
  <path class="fil11" d="M4502.19 9210.26l0 -652.7 -43.66 0 0 652.7 43.66 0zm0 -1328.76l0 -2249.28 -43.66 0 0 2249.28 43.66 0zm0 -3316.14l0 -1572.17 -43.66 0 0 1572.17 43.66 0zm0 -2090.34l0 -476.37 -43.66 0 0 476.37 43.66 0z"/>
  <path class="fil12" d="M4545.6 9210.26l0 -652.7 -43.63 0 0 652.7 43.63 0zm0 -1328.76l0 -2249.28 -43.63 0 0 2249.28 43.63 0zm0 -3316.14l0 -1572.17 -43.63 0 0 1572.17 43.63 0zm0 -2090.34l0 -476.37 -43.63 0 0 476.37 43.63 0z"/>
  <path class="fil13" d="M4589.06 9210.26l0 -652.7 -43.66 0 0 652.7 43.66 0zm0 -1328.76l0 -2249.28 -43.66 0 0 2249.28 43.66 0zm0 -3316.14l0 -1572.17 -43.66 0 0 1572.17 43.66 0zm0 -2090.34l0 -476.37 -43.66 0 0 476.37 43.66 0z"/>
  <path class="fil13" d="M4633.06 9210.26l0 -652.7 -43.63 0 0 652.7 43.63 0zm0 -1328.76l0 -2249.28 -43.63 0 0 2249.28 43.63 0zm0 -3316.14l0 -1572.17 -43.63 0 0 1572.17 43.63 0zm0 -2097.77l0 -461.51c-10.03,-4.76 -21.23,-7.43 -33.07,-7.43l-10.56 0 0 476.37 10.56 0c11.84,0 23.04,-2.67 33.07,-7.43z"/>
  <path class="fil13" d="M4676.51 9210.26l0 -652.7 -43.65 0 0 652.7 43.65 0zm0 -1328.76l0 -2249.28 -43.65 0 0 2249.28 43.65 0zm0 -3316.14l0 -1572.17 -43.65 0 0 1572.17 43.65 0zm0 -2155.87l0 -345.34c-4.06,-25.73 -20.8,-47.37 -43.65,-58.15l0 461.68c22.85,-10.78 39.59,-32.43 43.65,-58.19z"/>
  <path class="fil14" d="M4719.95 9210.14l0 -652.46c-1.63,-0.07 -3.27,-0.12 -4.92,-0.12l-38.74 0 0 652.7 38.74 0c1.65,0 3.29,-0.04 4.92,-0.12zm0 -1328.64l0 -2249.28 -43.66 0 0 2249.28 43.66 0zm0 -3316.14l0 -1572.17 -43.66 0 0 1572.17 43.66 0zm-43.66 -2502.54l0 348c0.77,-4.39 1.18,-8.9 1.18,-13.5l0 -321.01c0,-4.59 -0.41,-9.1 -1.18,-13.49z"/>
  <path class="fil15" d="M4763.95 9198.15l0 -628.48c-13.21,-6.95 -28.01,-11.19 -43.63,-11.98l0 652.43c15.62,-0.79 30.42,-5.02 43.63,-11.97zm0 -1316.65l0 -2249.28 -43.63 0 0 2249.28 43.63 0zm0 -3316.14l0 -1572.17 -43.63 0 0 1572.17 43.63 0z"/>
  <path class="fil15" d="M4807.41 9156.07l0 -544.35c-10.19,-17.91 -25.41,-32.61 -43.66,-42.16l0 628.69c18.24,-9.54 33.46,-24.26 43.66,-42.18zm0 -1274.58l0 -2249.28 -43.66 0 0 2249.28 43.66 0zm0 -3316.84l0 -1570.76c-6.28,-0.46 -12.61,-0.71 -19,-0.71l-24.65 0 0 1572.17 24.65 0c6.39,0 12.73,-0.24 19,-0.71z"/>
  <path class="fil16" d="M4850.82 7881.5l0 -2249.28 -43.63 0 0 2249.28 43.63 0zm0 -3323.85l0 -1556.74c-14.12,-3.55 -28.7,-5.93 -43.63,-7.02l0 1570.78c14.93,-1.09 29.51,-3.47 43.63,-7.02zm-43.63 4053.67l0 545.16c8.95,-15.58 14.09,-33.61 14.09,-52.81l0 -439.64c0,-19.14 -5.14,-37.14 -14.09,-52.71z"/>
  <path class="fil16" d="M4894.86 7881.5l0 -2249.28 -43.66 0 0 2249.28 43.66 0zm0 -3339.35l0 -1525.75c-13.93,-6.39 -28.53,-11.57 -43.66,-15.4l0 1556.56c15.13,-3.83 29.72,-9.01 43.66,-15.41z"/>
  <path class="fil16" d="M4938.28 7881.5l0 -2249.28 -43.63 0 0 2249.28 43.63 0zm0 -3364.7l0 -1475.06c-13.61,-9.84 -28.21,-18.39 -43.63,-25.45l0 1525.96c15.42,-7.06 30.02,-15.61 43.63,-25.46z"/>
  <path class="fil17" d="M4981.73 7881.5l0 -2249.28 -43.66 0 0 2249.28 43.66 0zm0 -3404.4l0 -1395.68c-12.97,-14.88 -27.63,-28.25 -43.66,-39.82l0 1475.35c16.03,-11.58 30.69,-24.96 43.66,-39.84z"/>
  <path class="fil17" d="M5025.75 7881.5l0 -2249.28 -43.66 0 0 2249.28 43.66 0zm0 -2646.73l0 -368.97c-14.53,11.95 -23.7,30.04 -23.7,50.15l0 268.65c0,20.15 9.17,38.24 23.7,50.17zm0 -828.88l0 -1253.3c-10.68,-25.97 -25.51,-49.84 -43.66,-70.76l0 1394.86c18.15,-20.93 32.98,-44.81 43.66,-70.8z"/>
  <path class="fil18" d="M5069.17 7881.5l0 -2249.28 -43.63 0 0 2249.28 43.63 0zm0 -2631.98l0 -398.48 -1.96 0c-15.95,0 -30.43,5.62 -41.67,14.94l0 368.61c11.24,9.31 25.73,14.93 41.67,14.93l1.96 0zm-43.63 -2097.46l0 1254.37c12.47,-30.14 19.37,-63.13 19.37,-97.68l0 -1059.11c0,-34.5 -6.9,-67.46 -19.37,-97.58z"/>
  <path class="fil18" d="M5113.21 7881.5l0 -2249.28 -43.65 0 0 2249.28 43.65 0zm0 -2631.98l0 -398.48 -43.65 0 0 398.48 43.65 0z"/>
  <path class="fil19" d="M5156.62 7881.13l0 -2248.54c-5.32,-0.23 -10.67,-0.37 -16.04,-0.37l-27.59 0 0 2249.28 27.59 0c5.37,0 10.72,-0.14 16.04,-0.37zm0 -2631.61l0 -398.48 -43.63 0 0 398.48 43.63 0z"/>
  <path class="fil19" d="M5200.08 7876.62l0 -2239.52c-14.3,-2.35 -28.87,-3.87 -43.66,-4.52l0 2248.55c14.79,-0.64 29.35,-2.16 43.66,-4.52zm0 -2627.1l0 -398.48 -43.66 0 0 398.48 43.66 0z"/>
  <path class="fil19" d="M5244.08 7866.54l0 -2219.36c-14.21,-4.2 -28.78,-7.55 -43.63,-10.02l0 2239.4c14.85,-2.47 29.42,-5.82 43.63,-10.02zm0 -2617.02l0 -398.48 -43.63 0 0 398.48 43.63 0z"/>
  <path class="fil20" d="M5287.54 7850.62l0 -2187.53c-14.12,-6.21 -28.69,-11.55 -43.66,-15.97l0 2219.48c14.96,-4.42 29.54,-9.76 43.66,-15.98zm0 -2601.1l0 -398.48 -43.66 0 0 398.48 43.66 0z"/>
  <path class="fil21" d="M5330.95 7827.98l0 -2142.25c-13.96,-8.51 -28.54,-16.11 -43.63,-22.73l0 2187.73c15.09,-6.62 29.67,-14.22 43.63,-22.74zm0 -2578.46l0 -398.48 -43.63 0 0 398.48 43.63 0z"/>
  <path class="fil22" d="M5375 7796.46l0 -2079.22c-13.75,-11.44 -28.34,-21.9 -43.66,-31.27l0 2141.77c15.32,-9.37 29.9,-19.84 43.66,-31.28zm0 -2560.38l0 -371.59c-10.99,-8.42 -24.71,-13.45 -39.55,-13.45l-4.11 0 0 398.48 4.11 0c14.84,0 28.56,-5.02 39.55,-13.44z"/>
  <path class="fil22" d="M5418.43 7753.88l0 -1994.07c-13.35,-15.42 -27.96,-29.72 -43.65,-42.76l0 2079.59c15.69,-13.04 30.31,-27.34 43.65,-42.76zm-43.65 -2889.56l0 371.92c15.66,-11.89 25.82,-30.65 25.82,-51.64l0 -268.65c0,-20.97 -10.17,-39.73 -25.82,-51.63z"/>
  <path class="fil22" d="M5461.84 10229.55l0 -1761.11c-13.8,38.51 -21.33,79.93 -21.33,123.05l0 1515c0,43.11 7.53,84.55 21.33,123.07zm0 -2537.66l0 -1870.09c-12.41,-22.26 -27.04,-43.11 -43.63,-62.25l0 1994.59c16.59,-19.14 31.22,-40 43.63,-62.25z"/>
  <path class="fil23" d="M5505.89 10315.08l0 -1932.13c-18,25.93 -32.75,54.25 -43.66,84.39l0 1763.32c10.91,30.14 25.65,58.48 43.66,84.42zm0 -2761.41l0 -1593.64c-5.33,-49.39 -20.56,-95.9 -43.66,-137.54l0 1868.71c23.1,-41.63 38.33,-88.15 43.66,-137.53zm0 -5152.17l0 -1484.21c-26.91,43.61 -42.48,94.83 -42.48,149.51l0 1185.01c0,54.75 15.58,106.04 42.48,149.69z"/>
  <path class="fil23" d="M5549.3 10366.86l0 -2035.67c-16.08,15.96 -30.7,33.4 -43.63,52.07l0 1931.5c12.94,18.68 27.55,36.13 43.63,52.1zm0 -7118.68l0 -419.32c-7.56,12.3 -11.94,26.71 -11.94,42.07l0 335.15c0,15.39 4.38,29.81 11.94,42.1zm0 -792.21l0 -1593.11c-16.65,16.4 -31.34,34.79 -43.63,54.78l0 1483.51c12.3,20.01 26.98,38.41 43.63,54.83zm-43.63 3502.16l0 1597.45c1.53,-13.54 2.35,-27.29 2.35,-41.22l0 -1515c0,-13.94 -0.82,-27.69 -2.35,-41.23z"/>
  <path class="fil24" d="M5592.76 10403.83l0 -2109.58c-15.5,11.25 -30.1,23.67 -43.66,37.13l0 2035.28c13.56,13.48 28.15,25.91 43.66,37.16zm0 -7120.86l0 -488.96c-18.29,6.28 -33.75,18.91 -43.66,35.19l0 418.65c9.9,16.27 25.37,28.87 43.66,35.12zm0 -791.72l0 -1663.64c-15.68,10.39 -30.31,22.27 -43.66,35.44l0 1592.72c13.35,13.18 27.97,25.07 43.66,35.47z"/>
  <path class="fil24" d="M5636.75 10431.28l0 -2164.45c-15.21,8.05 -29.78,17.13 -43.63,27.16l0 2110.11c13.85,10.03 28.43,19.12 43.63,27.18zm0 -7143.96l0 -497.68 -17.8 0c-9,0 -17.69,1.5 -25.83,4.25l0 489.21c8.14,2.74 16.83,4.23 25.83,4.23l17.8 0zm0 -772.1l0 -1711.55c-15.27,6.66 -29.86,14.61 -43.63,23.71l0 1664.13c13.78,9.1 28.36,17.06 43.63,23.72z"/>
  <path class="fil25" d="M5680.21 10450.81l0 -2203.5c-15.04,5.6 -29.61,12.17 -43.65,19.62l0 2164.25c14.04,7.45 28.61,14.03 43.65,19.64zm0 -6003.59l0 -675c-8.04,17.34 -12.55,36.63 -12.55,56.92l0 561.19c0,20.28 4.5,39.56 12.55,56.89zm0 -1159.9l0 -497.68 -43.65 0 0 497.68 43.65 0zm0 -757.15l0 -1741.45c-15.05,3.85 -29.63,8.9 -43.65,15.03l0 1711.39c14.02,6.13 28.6,11.18 43.65,15.04z"/>
  <path class="fil25" d="M5724.21 10464.13l0 -2230.13c-14.91,3.5 -29.48,7.91 -43.63,13.17l0 2203.79c14.16,5.26 28.72,9.68 43.63,13.18zm0 -5963.63l0 -781.6c-18.64,13.49 -33.74,31.57 -43.63,52.54l0 676.57c9.9,20.95 24.99,39.01 43.63,52.49zm0 -1213.18l0 -497.68 -43.63 0 0 497.68 43.63 0zm0 -749.53l0 -1756.69c-14.89,1.4 -29.47,3.93 -43.63,7.53l0 1741.62c14.17,3.6 28.74,6.14 43.63,7.54z"/>
  <path class="fil25" d="M5767.67 10471.57l0 -2245.01c-14.83,1.63 -29.4,4.13 -43.66,7.48l0 2230.03c14.25,3.35 28.83,5.86 43.66,7.49zm0 -5950.19l0 -823.41c-15.9,4.39 -30.64,11.61 -43.66,21.06l0 781.32c13.01,9.44 27.75,16.64 43.66,21.03zm0 -1234.06l0 -497.68 -43.66 0 0 497.68 43.66 0zm0 -748.26l0 -1759.23 -16.66 0c-9.1,0 -18.11,0.45 -27,1.29l0 1756.65c8.89,0.84 17.9,1.29 27,1.29l16.66 0z"/>
  <path class="fil25" d="M5811.1 10473.8l0 -2249.46 -3.15 0c-13.69,0 -27.19,0.78 -40.5,2.25l0 2244.96c13.31,1.47 26.81,2.25 40.5,2.25l3.15 0zm0 -5947.53l0 -833.19 -7.26 0c-12.6,0 -24.8,1.73 -36.39,4.95l0 823.29c11.59,3.22 23.79,4.95 36.39,4.95l7.26 0zm0 -1238.95l0 -497.68 -43.65 0 0 497.68 43.65 0zm0 -748.26l0 -1759.23 -43.65 0 0 1759.23 43.65 0z"/>
  <path class="fil25" d="M5855.11 10473.8l0 -2249.46 -43.63 0 0 2249.46 43.63 0zm0 -5947.53l0 -833.19 -43.63 0 0 833.19 43.63 0zm0 -1238.95l0 -497.68 -43.63 0 0 497.68 43.63 0zm0 -748.26l0 -1759.23 -43.63 0 0 1759.23 43.63 0z"/>
  <path class="fil25" d="M5898.56 10473.8l0 -2249.46 -43.66 0 0 2249.46 43.66 0zm0 -5947.53l0 -833.19 -43.66 0 0 833.19 43.66 0zm0 -1238.95l0 -497.68 -43.66 0 0 497.68 43.66 0zm0 -748.26l0 -1759.23 -43.66 0 0 1759.23 43.66 0z"/>
  <path class="fil26" d="M5941.97 10473.8l0 -2249.46 -43.63 0 0 2249.46 43.63 0zm0 -5947.53l0 -833.19 -43.63 0 0 833.19 43.63 0zm0 -1238.95l0 -497.68 -43.63 0 0 497.68 43.63 0zm0 -748.26l0 -1759.23 -43.63 0 0 1759.23 43.63 0z"/>
  <path class="fil26" d="M5986.02 10473.8l0 -2249.46 -43.65 0 0 2249.46 43.65 0zm0 -5947.53l0 -833.19 -43.65 0 0 833.19 43.65 0zm0 -1245.55l0 -484.46c-9.8,-4.26 -20.6,-6.62 -31.92,-6.62l-11.74 0 0 497.68 11.74 0c11.32,0 22.11,-2.36 31.92,-6.6zm0 -741.66l0 -1759.23 -43.65 0 0 1759.23 43.65 0z"/>
  <path class="fil26" d="M6029.43 10473.8l0 -2249.46 -43.63 0 0 2249.46 43.63 0zm0 -5947.53l0 -833.19 -43.63 0 0 833.19 43.63 0zm0 -1290.36l0 -394.76c-7.98,-20.15 -23.79,-36.44 -43.63,-44.98l0 484.65c19.84,-8.52 35.65,-24.76 43.63,-44.91zm0 -696.84l0 -1759.23 -43.63 0 0 1759.23 43.63 0z"/>
  <path class="fil27" d="M6072.89 10473.8l0 -2249.46 -43.66 0 0 2249.46 43.66 0zm0 -3698.58l0 -742.57c-21.66,24.12 -34.85,55.94 -34.85,90.67l0 561.25c0,34.76 13.2,66.56 34.85,90.64zm0 -2248.95l0 -833.19 -43.66 0 0 833.19 43.66 0zm0 -1987.21l0 -1759.23 -43.66 0 0 1759.23 43.66 0zm-43.66 301.61l0 395.72c3.78,-9.37 5.87,-19.6 5.87,-30.3l0 -335.15c0,-10.67 -2.09,-20.89 -5.87,-30.26z"/>
  <path class="fil28" d="M6116.89 10473.8l0 -2249.46 -43.63 0 0 2249.46 43.63 0zm0 -3666l0 -807.78c-16.64,7.76 -31.46,18.78 -43.63,32.23l0 743.39c12.17,13.43 27,24.43 43.63,32.17zm0 -2281.53l0 -833.19 -43.63 0 0 833.19 43.63 0zm0 -1987.21l0 -1759.23 -43.63 0 0 1759.23 43.63 0z"/>
  <path class="fil28" d="M6160.34 10473.8l0 -2249.46 -43.66 0 0 2249.46 43.66 0zm0 -3654.04l0 -831.73c-15.46,1.57 -30.16,5.76 -43.66,12.08l0 807.59c13.5,6.31 28.2,10.48 43.66,12.05zm0 -2293.49l0 -833.19 -43.66 0 0 833.19 43.66 0zm0 -1987.21l0 -1759.23 -43.66 0 0 1759.23 43.66 0z"/>
  <path class="fil28" d="M6204.37 10473.8l0 -2249.46 -43.66 0 0 2249.46 43.66 0zm0 -3653.35l0 -833.13 -30.15 0c-4.55,0 -9.06,0.23 -13.5,0.67l0 831.79c4.44,0.44 8.95,0.67 13.5,0.67l30.15 0zm0 -2294.18l0 -833.19 -43.66 0 0 833.19 43.66 0zm0 -1987.21l0 -1759.23 -43.66 0 0 1759.23 43.66 0z"/>
  <path class="fil29" d="M6247.78 10473.8l0 -2249.46 -43.63 0 0 2249.46 43.63 0zm0 -2800.1l0 -229.06c-0.13,1.5 -0.2,3.03 -0.2,4.56l0 219.93c0,1.54 0.07,3.06 0.2,4.56zm0 -853.25l0 -833.13 -43.63 0 0 833.13 43.63 0zm0 -2294.18l0 -833.19 -43.63 0 0 833.19 43.63 0zm0 -1987.21l0 -1759.23 -43.63 0 0 1759.23 43.63 0z"/>
  <path class="fil29" d="M6291.24 10473.8l0 -2249.46 -43.66 0 0 2249.46 43.66 0zm0 -2752.33l0 -324.55c-24.74,4.6 -43.66,26.37 -43.66,52.28l0 219.93c0,25.97 18.92,47.73 43.66,52.34zm0 -901.02l0 -833.13 -43.66 0 0 833.13 43.66 0zm0 -2294.18l0 -833.19 -43.66 0 0 833.19 43.66 0zm0 -1987.21l0 -1759.23 -43.66 0 0 1759.23 43.66 0z"/>
  <path class="fil29" d="M6335.23 10473.8l0 -2249.46 -43.63 0 0 2249.46 43.63 0zm0 -2751.42l0 -326.35 -34.24 0c-3.2,0 -6.34,0.28 -9.39,0.83l0 324.69c3.05,0.55 6.19,0.83 9.39,0.83l34.24 0zm0 -901.92l0 -833.13 -43.63 0 0 833.13 43.63 0zm0 -2294.18l0 -833.19 -43.63 0 0 833.19 43.63 0zm0 -1987.21l0 -1759.23 -43.63 0 0 1759.23 43.63 0z"/>
  <path class="fil30" d="M6378.7 10473.8l0 -2249.46 -43.66 0 0 2249.46 43.66 0zm0 -2751.42l0 -326.35 -43.66 0 0 326.35 43.66 0zm0 -901.92l0 -833.13 -43.66 0 0 833.13 43.66 0zm0 -2294.88l0 -831.8c-4.52,-0.46 -9.09,-0.7 -13.72,-0.7l-29.93 0 0 833.19 29.93 0c4.63,0 9.21,-0.23 13.72,-0.69zm0 -1986.51l0 -1759.23 -43.66 0 0 1759.23 43.66 0z"/>
  <path class="fil30" d="M6422.1 10473.8l0 -2249.46 -43.63 0 0 2249.46 43.63 0zm0 -2751.42l0 -326.35 -43.63 0 0 326.35 43.63 0zm0 -901.92l0 -833.13 -43.63 0 0 833.13 43.63 0zm0 -2306.94l0 -807.67c-13.5,-6.35 -28.2,-10.54 -43.63,-12.09l0 831.84c15.44,-1.55 30.13,-5.73 43.63,-12.08zm0 -1974.46l0 -1759.23 -43.63 0 0 1759.23 43.63 0z"/>
  <path class="fil31" d="M6466.15 10473.8l0 -2249.46 -43.66 0 0 2249.46 43.66 0zm0 -2751.42l0 -326.35 -43.66 0 0 326.35 43.66 0zm0 -901.92l0 -833.13 -43.66 0 0 833.13 43.66 0zm0 -2339.89l0 -741.71c-12.15,-13.68 -26.99,-24.91 -43.66,-32.82l0 807.3c16.67,-7.9 31.51,-19.11 43.66,-32.77zm0 -1941.5l0 -1759.23 -43.66 0 0 1759.23 43.66 0z"/>
  <path class="fil31" d="M6509.59 10473.8l0 -2249.46 -43.66 0 0 2249.46 43.66 0zm0 -2751.42l0 -326.35 -43.66 0 0 326.35 43.66 0zm0 -901.92l0 -833.13 -43.66 0 0 833.13 43.66 0zm0 -4281.39l0 -1759.23 -43.66 0 0 1759.23 43.66 0zm-43.66 1199.55l0 742.2c21.5,-24.08 34.63,-55.81 34.63,-90.48l0 -561.19c0,-34.67 -13.13,-66.42 -34.63,-90.53z"/>
  <path class="fil31" d="M6552.99 10473.8l0 -2249.46 -43.63 0 0 2249.46 43.63 0zm0 -2762.28l0 -304.63c-8.94,-6.81 -20.17,-10.86 -32.48,-10.86l-11.15 0 0 326.35 11.15 0c12.31,0 23.53,-4.05 32.48,-10.86zm0 -891.06l0 -833.13 -43.63 0 0 833.13 43.63 0zm0 -4281.39l0 -1759.23 -43.63 0 0 1759.23 43.63 0z"/>
  <path class="fil32" d="M6597.04 10473.8l0 -2249.46 -43.66 0 0 2249.46 43.66 0zm0 -3653.35l0 -833.13 -43.66 0 0 833.13 43.66 0zm0 -4281.39l0 -1759.23 -43.66 0 0 1759.23 43.66 0zm-43.66 4868.12l0 304.03c12.58,-9.76 20.55,-25.01 20.55,-42.07l0 -219.93c0,-17.03 -7.97,-32.27 -20.55,-42.02z"/>
  <path class="fil32" d="M6640.45 10473.8l0 -2249.46 -43.63 0 0 2249.46 43.63 0zm0 -3653.35l0 -833.13 -43.63 0 0 833.13 43.63 0zm0 -4281.39l0 -1759.23 -43.63 0 0 1759.23 43.63 0z"/>
  <path class="fil32" d="M6683.91 10473.8l0 -2249.46 -43.65 0 0 2249.46 43.65 0zm0 -3653.35l0 -833.13 -43.65 0 0 833.13 43.65 0zm0 -4281.39l0 -1759.23 -43.65 0 0 1759.23 43.65 0z"/>
  <path class="fil32" d="M6727.91 10473.8l0 -2249.46 -43.63 0 0 2249.46 43.63 0zm0 -3653.35l0 -833.13 -43.63 0 0 833.13 43.63 0zm0 -4281.39l0 -1759.23 -43.63 0 0 1759.23 43.63 0z"/>
  <path class="fil33" d="M6771.37 10473.8l0 -2249.46 -43.66 0 0 2249.46 43.66 0zm0 -3658.26l0 -823.29c-11.49,-3.2 -23.56,-4.93 -36.03,-4.93l-7.63 0 0 833.13 7.63 0c12.46,0 24.54,-1.72 36.03,-4.91zm0 -4276.48l0 -1759.23 -43.66 0 0 1759.23 43.66 0z"/>
  <path class="fil33" d="M6815.37 10473.8l0 -2249.46 -43.63 0 0 2249.46 43.63 0zm0 -3679.72l0 -780.32c-12.99,-9.6 -27.73,-16.93 -43.63,-21.41l0 823.1c15.9,-4.47 30.64,-11.79 43.63,-21.37zm0 -4255.02l0 -1759.23 -43.63 0 0 1759.23 43.63 0z"/>
  <path class="fil34" d="M6858.82 10473.8l0 -2249.46 -43.66 0 0 2249.46 43.66 0zm0 -3733.25l0 -673.19c-9.74,-21.44 -24.89,-39.94 -43.66,-53.74l0 780.61c18.77,-13.78 33.92,-32.26 43.66,-53.68zm0 -3048.51l0 -505.56c-8.35,14.47 -13.13,31.21 -13.13,49.02l0 407.64c0,17.76 4.78,34.46 13.13,48.9zm0 -1152.97l0 -1759.23 -43.66 0 0 1759.23 43.66 0z"/>
  <path class="fil35" d="M6902.26 10473.8l0 -2249.46 -43.66 0 0 2249.46 43.66 0zm0 -6741.64l0 -585.87c-18.36,8.77 -33.63,23.01 -43.66,40.57l0 504.79c10.03,17.53 25.3,31.76 43.66,40.52zm0 -1193.1l0 -1759.23 -43.66 0 0 1759.23 43.66 0zm-43.66 3527.82l0 674.13c7.9,-17.21 12.33,-36.33 12.33,-56.44l0 -561.25c0,-20.09 -4.42,-39.22 -12.33,-56.44z"/>
  <path class="fil35" d="M6946.26 10473.8l0 -2249.46 -43.63 0 0 2249.46 43.63 0zm0 -6732l0 -605.15 -1.37 0c-15.09,0 -29.42,3.4 -42.26,9.47l0 586.22c12.84,6.06 27.17,9.47 42.26,9.47l1.37 0zm0 -1202.94l0 -1758.83c-3.38,-0.12 -6.77,-0.2 -10.18,-0.2l-33.45 0 0 1759.23 33.45 0c3.41,0 6.8,-0.08 10.18,-0.2z"/>
  <path class="fil35" d="M6989.72 10473.8l0 -2249.46 -43.65 0 0 2249.46 43.65 0zm0 -6732l0 -605.15 -43.65 0 0 605.15 43.65 0zm0 -1207.82l0 -1749.07c-14.22,-2.71 -28.8,-4.36 -43.65,-4.88l0 1758.84c14.85,-0.52 29.44,-2.17 43.65,-4.89z"/>
  <path class="fil36" d="M7033.13 10473.8l0 -2249.46 -43.63 0 0 2249.46 43.63 0zm0 -6732l0 -605.15 -43.63 0 0 605.15 43.63 0zm0 -1219.74l0 -1725.23c-14.07,-5.1 -28.66,-9.1 -43.63,-11.96l0 1749.15c14.98,-2.85 29.56,-6.87 43.63,-11.96z"/>
  <path class="fil36" d="M7077.18 10473.8l0 -2249.46 -43.66 0 0 2249.46 43.66 0zm0 -6732l0 -605.15 -43.66 0 0 605.15 43.66 0zm0 -1240.08l0 -1684.57c-13.88,-7.9 -28.47,-14.67 -43.66,-20.19l0 1724.96c15.18,-5.53 29.77,-12.31 43.66,-20.21z"/>
  <path class="fil36" d="M7120.59 10473.8l0 -2249.46 -43.63 0 0 2249.46 43.63 0zm0 -6732l0 -605.15 -43.63 0 0 605.15 43.63 0zm0 -1270.37l0 -1624c-13.54,-11.41 -28.14,-21.61 -43.63,-30.4l0 1684.81c15.49,-8.8 30.09,-18.99 43.63,-30.41z"/>
  <path class="fil37" d="M7164.04 10473.8l0 -2249.46 -43.66 0 0 2249.46 43.66 0zm0 -6732l0 -605.15 -43.66 0 0 605.15 43.66 0zm0 -1315.95l0 -1532.88c-12.85,-16.78 -27.5,-32.11 -43.66,-45.71l0 1624.34c16.16,-13.61 30.81,-28.95 43.66,-45.75z"/>
  <path class="fil38" d="M7208.04 10473.8l0 -2249.46 -43.63 0 0 2249.46 43.63 0zm0 -6732l0 -605.15 -43.63 0 0 605.15 43.63 0zm0 -1398.33l0 -1368.23c-10.09,-29.72 -24.94,-57.29 -43.63,-81.81l0 1531.93c18.69,-24.54 33.55,-52.13 43.63,-81.89z"/>
  <path class="fil38" d="M7251.5 10473.8l0 -2249.46 -43.65 0 0 2249.46 43.65 0zm0 -6732l0 -605.15 -43.65 0 0 605.15 43.65 0zm-43.65 -2767.12l0 1369.37c9.89,-28.98 15.26,-60.01 15.26,-92.24l0 -1185.01c0,-32.18 -5.37,-63.17 -15.26,-92.12z"/>
  <path class="fil39" d="M7294.94 10473.8l0 -2249.46 -43.66 0 0 2249.46 43.66 0zm0 -2761.45l0 -595.2c-20.72,19.42 -33.68,47.06 -33.68,77.72l0 439.63c0,30.66 12.96,58.36 33.68,77.85zm0 -3970.55l0 -605.15 -43.66 0 0 605.15 43.66 0z"/>
  <path class="fil39" d="M7338.93 10473.43l0 -2248.72c-5.32,-0.23 -10.67,-0.37 -16.05,-0.37l-27.59 0 0 2249.46 27.59 0c5.38,0 10.72,-0.14 16.05,-0.37zm0 -2736.19l0 -644.88c-16.51,4.61 -31.41,13.11 -43.63,24.46l0 595.88c12.22,11.38 27.12,19.92 43.63,24.54zm0 -3995.44l0 -605.15 -43.63 0 0 605.15 43.63 0z"/>
  <path class="fil39" d="M7382.39 10468.91l0 -2239.69c-14.3,-2.36 -28.87,-3.88 -43.65,-4.52l0 2248.73c14.79,-0.64 29.35,-2.16 43.65,-4.52zm0 -2727.76l0 -652.69 -14.89 0c-9.97,0 -19.61,1.38 -28.76,3.95l0 644.78c9.14,2.58 18.79,3.97 28.76,3.97l14.89 0zm0 -4004.07l0 -595.73c-9.5,-3.06 -19.63,-4.71 -30.15,-4.71l-13.5 0 0 605.15 13.5 0c10.52,0 20.65,-1.65 30.15,-4.71z"/>
  <path class="fil40" d="M7426.39 10458.8l0 -2219.48c-14.21,-4.21 -28.77,-7.57 -43.63,-10.04l0 2239.56c14.86,-2.47 29.42,-5.83 43.63,-10.05zm0 -2717.65l0 -652.69 -43.63 0 0 652.69 43.63 0zm0 -4033.05l0 -537.74c-11.55,-13.21 -26.56,-23.32 -43.63,-28.89l0 595.49c17.07,-5.57 32.08,-15.67 43.63,-28.86zm0 -3178.22l0 -417.82c-14.25,13.58 -23.09,32.68 -23.09,53.81l0 309.92c0,21.12 8.84,40.37 23.09,54.1z"/>
  <path class="fil41" d="M7469.85 10442.85l0 -2187.59c-14.11,-6.22 -28.69,-11.57 -43.66,-16l0 2219.6c14.96,-4.43 29.54,-9.78 43.66,-16.01zm0 -2701.69l0 -652.69 -43.66 0 0 652.69 43.66 0zm0 -7190.73l0 -458.61c-16.92,1.9 -32.09,9.35 -43.66,20.45l0 417.43c11.57,11.23 26.74,18.79 43.66,20.73zm-43.66 2619.72l0 538.19c15.35,-17.42 24.65,-40.27 24.65,-65.2l0 -407.64c0,-25 -9.3,-47.9 -24.65,-65.35z"/>
  <path class="fil42" d="M7513.26 10420.13l0 -2142.17c-13.96,-8.54 -28.54,-16.15 -43.63,-22.79l0 2187.77c15.09,-6.65 29.67,-14.26 43.63,-22.81zm0 -2678.97l0 -652.69 -43.63 0 0 652.69 43.63 0zm0 -5291.26l0 -480.23c-0.52,4.31 -0.79,8.69 -0.79,13.14l0 453.95c0,4.45 0.27,8.83 0.79,13.14zm0 -1898.98l0 -459.59 -34.83 0c-2.98,0 -5.92,0.18 -8.8,0.51l0 458.56c2.89,0.34 5.82,0.52 8.8,0.52l34.83 0z"/>
  <path class="fil42" d="M7557.3 10388.49l0 -2078.9c-13.74,-11.48 -28.33,-21.98 -43.65,-31.38l0 2141.68c15.32,-9.41 29.91,-19.91 43.65,-31.39zm0 -2647.33l0 -652.69 -43.65 0 0 652.69 43.65 0zm0 -5215.86l0 -631.04c-23.11,17.05 -39.3,42.88 -43.65,72.48l0 486.08c4.35,29.6 20.54,55.43 43.65,72.48zm0 -1974.38l0 -459.59 -43.65 0 0 459.59 43.65 0z"/>
  <path class="fil42" d="M7600.72 10345.71l0 -1993.38c-13.34,-15.48 -27.93,-29.84 -43.63,-42.93l0 2079.28c15.7,-13.1 30.3,-27.47 43.63,-42.96zm0 -2604.55l0 -652.69 -43.63 0 0 652.69 43.63 0zm0 -5196.56l0 -669.64c-16.1,3.27 -30.92,10.03 -43.63,19.46l0 630.72c12.71,9.43 27.53,16.19 43.63,19.46zm0 -1993.68l0 -459.59 -43.63 0 0 459.59 43.63 0z"/>
  <path class="fil43" d="M7644.18 10283.21l0 -1868.42c-12.38,-22.42 -27.04,-43.43 -43.66,-62.69l0 1993.84c16.62,-19.28 31.27,-40.3 43.66,-62.73zm0 -2542.05l0 -652.69 -43.66 0 0 652.69 43.66 0zm0 -5194.35l0 -674.06 -21.35 0c-7.64,0 -15.1,0.78 -22.3,2.25l0 669.56c7.2,1.47 14.66,2.25 22.3,2.25l21.35 0zm0 -1995.89l0 -459.59 -43.66 0 0 459.59 43.66 0z"/>
  <path class="fil43" d="M7688.2 11137.44l0 -580.66c-11.27,17.42 -17.83,38.19 -17.83,60.47l0 459.83c0,22.24 6.56,42.97 17.83,60.36zm0 -997.58l0 -1581.75c-4.67,-51.26 -19.96,-99.57 -43.65,-142.66l0 1867.11c23.7,-43.12 38.98,-91.43 43.65,-142.7zm0 -2398.7l0 -652.69 -43.65 0 0 652.69 43.65 0zm0 -5194.35l0 -674.06 -43.65 0 0 674.06 43.65 0zm0 -1995.89l0 -459.59 -43.65 0 0 459.59 43.65 0z"/>
  <path class="fil43" d="M7731.61 11176.47l0 -658.78c-17.8,9.01 -32.89,22.68 -43.63,39.42l0 579.98c10.74,16.71 25.83,30.38 43.63,39.37zm0 -3435.32l0 -652.69 -43.63 0 0 652.69 43.63 0zm0 -5194.35l0 -674.06 -43.63 0 0 674.06 43.63 0zm0 -1995.89l0 -459.59 -43.63 0 0 459.59 43.63 0zm-43.63 8004.74l0 1586.65c1.15,-11.8 1.76,-23.74 1.76,-35.83l0 -1515c0,-12.09 -0.61,-24.03 -1.76,-35.83z"/>
  <path class="fil44" d="M7775.07 11188.13l0 -682.1c-15.62,0.87 -30.39,5.02 -43.66,11.76l0 658.58c13.27,6.74 28.04,10.88 43.66,11.75zm0 -3446.97l0 -652.69 -43.66 0 0 652.69 43.66 0zm0 -5194.35l0 -674.06 -43.66 0 0 674.06 43.66 0zm0 -1995.89l0 -459.59 -43.66 0 0 459.59 43.66 0z"/>
  <path class="fil45" d="M7819.07 11188.31l0 -682.46 -37.76 0c-1.97,0 -3.92,0.05 -5.87,0.16l0 682.15c1.94,0.1 3.9,0.16 5.87,0.16l37.76 0zm0 -3447.82l0 -651.35c-3.92,-0.44 -7.9,-0.67 -11.94,-0.67l-31.7 0 0 652.69 31.7 0c4.03,0 8.02,-0.23 11.94,-0.67zm0 -5193.67l0 -674.06 -43.63 0 0 674.06 43.63 0zm0 -2002.74l0 -446c-9.51,-4.33 -20.11,-6.74 -31.31,-6.74l-12.33 0 0 459.59 12.33 0c11.19,0 21.79,-2.46 31.31,-6.85z"/>
  <path class="fil45" d="M7862.52 11188.31l0 -682.46 -43.66 0 0 682.46 43.66 0zm0 -3462.71l0 -621.64c-13.01,-7.9 -27.83,-13.11 -43.66,-14.85l0 651.4c15.83,-1.75 30.65,-6.98 43.66,-14.91zm0 -5178.79l0 -674.06 -43.66 0 0 674.06 43.66 0zm0 -2063.63l0 -324.7c-2.67,-26.95 -19.78,-49.74 -43.66,-60.51l0 446.19c23.88,-10.92 40.99,-33.99 43.66,-60.99z"/>
  <path class="fil46" d="M7905.94 11188.31l0 -682.46 -43.63 0 0 682.46 43.63 0zm0 -3513.36l0 -520.48c-8.77,-21.16 -24.2,-38.9 -43.63,-50.65l0 621.91c19.43,-11.79 34.86,-29.59 43.63,-50.78zm0 -5128.14l0 -674.06 -43.63 0 0 674.06 43.63 0zm-43.63 -2390.29l0 328.63c0.39,-3.07 0.59,-6.19 0.59,-9.36l0 -309.92c0,-3.17 -0.2,-6.29 -0.59,-9.35z"/>
  <path class="fil46" d="M7949.98 11188.31l0 -682.46 -43.66 0 0 682.46 43.66 0zm0 -8641.5l0 -674.06 -43.66 0 0 674.06 43.66 0zm-43.66 4608.61l0 518.57c4.92,-12.22 7.63,-25.55 7.63,-39.48l0 -439.63c0,-13.94 -2.71,-27.25 -7.63,-39.45z"/>
  <path class="fil47" d="M7993.41 11188.31l0 -682.46 -43.66 0 0 682.46 43.66 0zm0 -8641.5l0 -674.06 -43.66 0 0 674.06 43.66 0zm0 -984.79l0 -888.79c-9.94,22.23 -15.48,46.79 -15.48,72.56l0 743.44c0,25.87 5.54,50.51 15.48,72.79z"/>
  <path class="fil47" d="M8037.41 11188.31l0 -682.46 -43.63 0 0 682.46 43.63 0zm0 -8641.5l0 -674.06 -43.63 0 0 674.06 43.63 0zm0 -924.22l0 -1009.83c-18.36,16.59 -33.31,36.88 -43.63,59.64l0 890.45c10.32,22.81 25.27,43.13 43.63,59.74z"/>
  <path class="fil47" d="M8080.87 11188.31l0 -682.46 -43.66 0 0 682.46 43.66 0zm0 -8641.59l0 -673.88c-1.44,-0.05 -2.88,-0.09 -4.33,-0.09l-39.33 0 0 674.06 39.33 0c1.45,0 2.89,-0.04 4.33,-0.09zm0 -894.99l0 -1068.07c-15.98,7.63 -30.68,17.53 -43.66,29.28l0 1009.48c12.98,11.77 27.68,21.68 43.66,29.3z"/>
  <path class="fil48" d="M8124.28 11188.31l0 -682.46 -43.63 0 0 682.46 43.63 0zm0 -8652.48l0 -652.08c-13.28,-6.47 -28.05,-10.33 -43.63,-10.91l0 673.9c15.58,-0.58 30.35,-4.43 43.63,-10.91zm0 -869.84l0 -1096.59c-15.31,2.93 -29.94,7.81 -43.63,14.36l0 1067.86c13.69,6.56 28.32,11.43 43.63,14.36z"/>
  <path class="fil49" d="M8168.33 11188.31l0 -682.46 -43.66 0 0 682.46 43.66 0zm0 -8691.32l0 -574.41c-10.8,-16.48 -25.89,-29.9 -43.66,-38.64l0 651.69c17.76,-8.74 32.85,-22.17 43.66,-38.64zm0 -827.79l0 -1103.02 -10.2 0c-11.43,0 -22.61,1.09 -33.46,3.14l0 1096.73c10.85,2.06 22.03,3.14 33.46,3.14l10.2 0z"/>
  <path class="fil49" d="M8211.74 11188.31l0 -682.46 -43.63 0 0 682.46 43.63 0zm0 -9519.11l0 -1103.02 -43.63 0 0 1103.02 43.63 0zm-43.63 253.04l0 575.08c11.49,-17.39 18.19,-38.21 18.19,-60.56l0 -453.95c0,-22.35 -6.7,-43.17 -18.19,-60.57z"/>
  <path class="fil50" d="M8255.2 11187.46l0 -680.75c-4.5,-0.56 -9.08,-0.85 -13.72,-0.85l-29.93 0 0 682.46 29.93 0c4.64,0 9.22,-0.29 13.72,-0.85zm0 -2513.65l0 -557.25c-11.24,16.85 -17.83,37.04 -17.83,58.71l0 439.81c0,21.67 6.59,41.87 17.83,58.73zm0 -7004.61l0 -1103.02 -43.65 0 0 1103.02 43.65 0z"/>
  <path class="fil50" d="M8299.2 11172.1l0 -650.02c-13.07,-7.96 -27.86,-13.31 -43.63,-15.33l0 680.67c15.77,-2.02 30.56,-7.36 43.63,-15.31zm0 -2460.42l0 -632.95c-17.66,8.24 -32.78,21.21 -43.63,37.28l0 558.36c10.86,16.08 25.97,29.06 43.63,37.31zm0 -7042.48l0 -1103.02 -43.63 0 0 1103.02 43.63 0z"/>
  <path class="fil51" d="M8342.66 11123.67l0 -553.1c-9.42,-20.2 -24.74,-37.14 -43.66,-48.62l0 650.27c18.92,-11.46 34.23,-28.38 43.66,-48.55zm0 -936.52l0 -734.67c-2.07,10.33 -3.16,21.01 -3.16,31.94l0 670.78c0,10.93 1.09,21.62 3.16,31.95zm0 -1465.6l0 -652.68c-15.53,0.14 -30.32,3.7 -43.66,9.95l0 632.76c13.34,6.26 28.13,9.82 43.66,9.96zm0 -7052.35l0 -1103.02 -43.66 0 0 1103.02 43.66 0z"/>
  <path class="fil51" d="M8386.09 10269.01l0 -898.44c-21.94,22.38 -37.49,51.08 -43.65,83.06l0 732.37c6.16,31.98 21.71,60.65 43.65,83.01zm0 -1547.46l0 -652.7 -42.48 0 -1.17 0.01 0 652.67 1.17 0.01 42.48 0zm0 -7052.36l0 -1103.02 -43.65 0 0 1103.02 43.65 0zm-43.65 8900.92l0 554.03c6.76,-14.3 10.56,-30.25 10.56,-47.06l0 -459.83c0,-16.85 -3.8,-32.82 -10.56,-47.14z"/>
  <path class="fil51" d="M8430.09 10300.93l0 -962.32c-16.26,8.06 -30.99,18.78 -43.63,31.59l0 899.19c12.64,12.79 27.37,23.5 43.63,31.55zm0 -1579.38l0 -652.7 -43.63 0 0 652.7 43.63 0zm0 -7052.36l0 -1103.02 -43.63 0 0 1103.02 43.63 0z"/>
  <path class="fil52" d="M8473.55 10315.18l0 -990.85c-15.4,2.71 -30.06,7.62 -43.66,14.38l0 962.13c13.6,6.75 28.25,11.65 43.66,14.35zm0 -1593.63l0 -652.7 -43.66 0 0 652.7 43.66 0zm0 -7052.36l0 -1103.02 -43.66 0 0 1103.02 43.66 0z"/>
  <path class="fil53" d="M8516.96 10317.61l0 -995.72 -15.46 0c-9.61,0 -19.02,0.85 -28.17,2.47l0 990.78c9.15,1.62 18.56,2.47 28.17,2.47l15.46 0zm0 -1596.06l0 -652.7 -43.63 0 0 652.7 43.63 0zm0 -7052.36l0 -1103.02 -43.63 0 0 1103.02 43.63 0z"/>
  <path class="fil54" d="M8561 11228.79l0 -1906.9 -43.65 0 0 995.72 15.26 0 0 911.54c9.49,0 18.91,-0.32 28.39,-0.36zm0 -2152.08l0 -1007.86 -43.65 0 0 652.7 15.26 0 0 364.56c9.11,-3.83 18.6,-6.99 28.39,-9.39zm0 -5654.86l0 -2855.68 -43.65 0 0 1103.02 15.26 0 0 1752.3c9.49,0 18.93,0.24 28.39,0.36zm0 -3120.98l0 -300.75c-3.3,-0.01 -6.6,-0.07 -9.89,-0.13l-18.5 0 0 300.87 28.39 0z"/>
  <path class="fil54" d="M8604.42 11228.25l0 -1906.35 -43.63 0 0 1906.9c14.54,-0.21 29.08,-0.37 43.63,-0.55zm0 -2157.08l0 -1002.31 -43.63 0 0 1007.92c14.01,-3.46 28.62,-5.4 43.63,-5.61zm0 -5648.37l0 -2856.61 -43.63 0 0 2855.68c14.57,0.22 29.12,0.47 43.63,0.94zm0 -3121.92l0 -300.2c-14.55,-0.18 -29.09,-0.35 -43.63,-0.55l0 300.75 43.63 0z"/>
  <path class="fil54" d="M8648.46 11227.69l0 -1905.79 -43.66 0 0 1906.35c14.54,-0.23 29.13,-0.26 43.66,-0.56zm0 -2156.54l0 -1002.29 -43.66 0 0 1002.3 2.35 -0.01 41.31 0zm0 -5646.6l0 -2858.37 -43.66 0 0 2856.63c14.58,0.48 29.15,0.98 43.66,1.74zm0 -3123.67l0 -299.64c-14.53,-0.29 -29.11,-0.32 -43.66,-0.56l0 300.2 43.66 0z"/>
  <path class="fil55" d="M8691.87 11226.77l0 -1904.88 -43.63 0 0 1905.8c14.54,-0.31 29.11,-0.51 43.63,-0.92zm0 -2155.63l0 -1002.29 -43.63 0 0 1002.29 43.63 0zm0 -5643.85l0 -2861.11 -43.63 0 0 2858.35c14.59,0.77 29.12,1.72 43.63,2.76zm0 -3126.42l0 -298.73c-14.52,-0.41 -29.09,-0.61 -43.63,-0.92l0 299.64 43.63 0z"/>
  <path class="fil55" d="M8735.33 11225.12l0 -1903.23 -43.66 0 0 1904.89c14.58,-0.44 29.09,-1.14 43.66,-1.66zm0 -2153.98l0 -1002.29 -43.66 0 0 1002.29 43.66 0zm0 -5640.24l0 -2864.73 -43.66 0 0 2861.1c14.6,1.05 29.14,2.3 43.66,3.63zm0 -3130.03l0 -297.08c-14.56,-0.52 -29.08,-1.22 -43.66,-1.66l0 298.74 43.66 0z"/>
  <path class="fil56" d="M8779.35 11223.45l0 -1901.55 -43.66 0 0 1903.21c14.56,-0.54 29.12,-1.03 43.66,-1.66zm0 -2152.3l0 -1002.29 -43.66 0 0 1002.29 43.66 0zm0 -5635.75l0 -2869.21 -43.66 0 0 2864.76c14.59,1.35 29.15,2.83 43.66,4.45zm0 -3134.51l0 -295.4c-14.53,-0.63 -29.1,-1.12 -43.66,-1.66l0 297.06 43.66 0z"/>
  <path class="fil56" d="M8822.77 11221.77l0 -1899.88 -43.63 0 0 1901.56c14.53,-0.63 29.13,-0.95 43.63,-1.69zm0 -2150.63l0 -994.69c-12.24,-4.9 -25.59,-7.6 -39.53,-7.6l-4.11 0 0 1002.29 43.63 0zm0 -5630.52l0 -2874.45 -43.63 0 0 2869.19c14.58,1.64 29.14,3.35 43.63,5.26zm0 -3139.75l0 -293.72c-14.5,-0.74 -29.1,-1.06 -43.63,-1.69l0 295.41 43.63 0z"/>
  <path class="fil56" d="M8866.22 11219.02l0 -1897.12 -43.66 0 0 1899.89c14.6,-0.76 29.08,-1.91 43.66,-2.77zm0 -2147.87l0 -962.69c-11.48,-14.1 -26.5,-25.25 -43.66,-32.08l0 994.77 43.66 0zm0 -5624.44l0 -2880.53 -43.66 0 0 2874.42c14.59,1.93 29.16,3.9 43.66,6.11zm0 -3145.83l0 -290.97c-14.57,-0.85 -29.06,-2.01 -43.66,-2.77l0 293.74 43.66 0z"/>
  <path class="fil57" d="M8910.22 11216.23l0 -1894.33 -43.63 0 0 1897.1c14.56,-0.87 29.1,-1.8 43.63,-2.76zm0 -2145.08l0 -433.62c-5.08,0.56 -10.23,0.85 -15.46,0.85l-7.04 0c1.17,-7.45 2.35,-15.32 2.35,-23.3l0 -439.81c0,-25.05 -8.81,-48.14 -23.48,-66.36l0 962.23 43.63 0zm0 -1294.35l0 -1.64c-2.03,0.35 -4.04,0.76 -6.07,1.1 2.04,0.13 4.06,0.32 6.07,0.54zm0 -4322.81l0 -2887.58c-2.98,-0.15 -5.98,-0.22 -9,-0.22l-34.63 0 0 2880.58c14.6,2.24 29.12,4.71 43.63,7.22zm0 -3153.11l0 -288.18c-14.53,-0.97 -29.08,-1.89 -43.63,-2.76l0 290.95 43.63 0z"/>
  <path class="fil57" d="M8953.68 11213.48l0 -1891.58 -43.65 0 0 1894.34c14.54,-0.97 29.14,-1.69 43.65,-2.76zm0 -2142.33l0 -445.73c-13.55,6.27 -28.24,10.46 -43.65,12.14l0 433.59 43.65 0zm0 -1282.28l0 -21.65c-14.49,2.81 -29.06,5.45 -43.65,7.98l0 1.59c15.44,1.66 30.12,5.83 43.65,12.09zm0 -4326.83l0 -2888.03c-13.92,-4.26 -28.55,-6.87 -43.65,-7.61l0 2887.56c14.61,2.53 29.14,5.26 43.65,8.08zm0 -3161.16l0 -285.43c-14.51,-1.07 -29.11,-1.8 -43.65,-2.76l0 288.19 43.65 0z"/>
  <path class="fil58" d="M8997.09 11209.9l0 -1888 -43.63 0 0 1891.6c14.57,-1.09 29.08,-2.4 43.63,-3.59zm0 -2138.75l0 -476.98c-12.34,13.04 -27.14,23.74 -43.63,31.35l0 445.63 43.63 0zm0 -1251.07l0 -61.79c-14.49,3.12 -29.04,6.13 -43.63,8.97l0 21.5c16.5,7.6 31.3,18.29 43.63,31.32zm0 -4349.14l0 -2877.01c-13.46,-8.5 -28.11,-15.26 -43.63,-19.99l0 2888.06c14.6,2.84 29.14,5.82 43.63,8.94zm0 -3170.06l0 -281.85c-14.55,-1.19 -29.06,-2.5 -43.63,-3.59l0 285.44 43.63 0z"/>
  <path class="fil58" d="M9041.14 11205.99l0 -1884.09 -43.66 0 0 1887.97c14.58,-1.2 29.11,-2.57 43.66,-3.88zm0 -2134.84l0 -1322.85c-14.5,3.44 -29.05,6.76 -43.66,9.92l0 62.28c23.66,25.2 38.15,59.05 38.15,96.11l0 581.09c0,37.08 -14.52,70.88 -38.15,96.06l0 477.39 43.66 0zm0 -5590.28l0 -1875.56 -1.98 0.02 -0.59 0c0.87,-1.01 1.72,-2.02 2.57,-3.05l0 -969.29c-12.34,-15.16 -27.09,-28.3 -43.66,-38.82l0 2876.85c14.6,3.15 29.16,6.41 43.66,9.85zm0 -3179.97l0 -277.97c-14.55,-1.31 -29.08,-2.68 -43.66,-3.88l0 281.82 41.67 0 1.98 0.02z"/>
  <path class="fil59" d="M9084.55 11202.14l0 -1880.24 -43.63 0 0 1884.11c14.54,-1.31 29.12,-2.46 43.63,-3.87zm0 -2130.99l0 -1333.65c-14.49,3.75 -29.03,7.38 -43.63,10.85l0 1322.8 43.63 0zm0 -5579.59l0 -1891.12c-14.08,3.08 -28.68,4.75 -43.63,4.88l0 1875.5c14.59,3.46 29.16,6.99 43.63,10.74zm0 -3185.76l0 -279.01c-14.51,-1.42 -29.09,-2.57 -43.63,-3.88l0 277.98c14.95,0.12 29.55,1.81 43.63,4.9zm-43.63 326.92l0 969.83c25.57,-30.95 40.5,-70.53 40.5,-113.31l0 -743.44c0,-42.71 -15.21,-82.12 -40.5,-113.07z"/>
  <path class="fil59" d="M9128.01 11197.73l0 -1875.84 -43.66 0 0 1880.26c14.57,-1.42 29.12,-2.89 43.66,-4.42zm0 -2126.59l0 -1345.41c-14.49,4.08 -29.05,8.02 -43.66,11.81l0 1333.61 43.66 0zm0 -5567.83l0 -1917.45c-13.82,6.38 -28.44,11.31 -43.66,14.62l0 1891.02c14.62,3.79 29.16,7.73 43.66,11.81zm0 -3182.88l0 -289.24c-14.54,-1.53 -29.09,-3 -43.66,-4.42l0 278.98c15.22,3.32 29.83,8.28 43.66,14.68z"/>
  <path class="fil59" d="M9172.03 11192.7l0 -1870.81 -43.66 0 0 1875.79c14.59,-1.54 29.1,-3.34 43.66,-4.99zm0 -2121.56l0 -1358.31c-14.49,4.41 -29.05,8.67 -43.66,12.79l0 1345.52 43.66 0zm0 -5554.88l0 -1957.64c-13.34,10.68 -27.99,19.79 -43.66,27.05l0 1917.73c14.62,4.12 29.16,8.44 43.66,12.85zm0 -3168.51l0 -311.53c-14.56,-1.65 -29.07,-3.45 -43.66,-4.99l0 289.37c15.67,7.29 30.31,16.44 43.66,27.15z"/>
  <path class="fil60" d="M9215.44 11187.73l0 -1860.06c-13.71,-3.76 -28.14,-5.78 -43.05,-5.78l-0.59 0 0 1870.83c14.55,-1.65 29.12,-3.23 43.63,-4.99zm0 -2116.59l0 -1372.02c-14.48,4.74 -29.03,9.33 -43.63,13.78l0 1358.24 43.63 0zm0 -5541.13l0 -2018.27c-12.11,17.79 -26.84,33.65 -43.63,47.06l0 1957.4c14.61,4.45 29.15,9.07 43.63,13.81zm0 -3135.28l0 -353.54c-14.51,-1.76 -29.08,-3.34 -43.63,-4.99l0 311.38c16.79,13.44 31.53,29.34 43.63,47.15z"/>
  <path class="fil61" d="M9259.48 11182.4l0 -1835.18c-13.36,-8.5 -28.03,-15.09 -43.65,-19.43l0 1859.9c14.55,-1.76 29.13,-3.42 43.65,-5.29zm0 -2111.25l0 -1386.96c-14.48,5.08 -29.03,10.02 -43.65,14.81l0 1372.15 43.65 0zm0 -5526.19l0 -3498.43c-14.52,-1.87 -29.1,-3.52 -43.65,-5.29l0 354.07c22.96,34.01 36.39,74.88 36.39,118.63l0 878.5c0,43.89 -13.42,84.77 -36.39,118.74l0 2018.97c14.62,4.79 29.17,9.73 43.65,14.82z"/>
  <path class="fil62" d="M9302.89 11176.32l0 -920.69 -2.54 0c0.86,-1.1 1.71,-2.22 2.54,-3.34l0 -864.71c-11.92,-16.02 -26.72,-29.77 -43.63,-40.5l0 1835.35c14.59,-1.89 29.08,-4.11 43.63,-6.11zm0 -2105.18l0 -1402.71c-14.47,5.43 -29.02,10.71 -43.63,15.84l0 1386.88 43.63 0zm0 -5510.45l0 -3508.09c-14.56,-2 -29.04,-4.22 -43.63,-6.11l0 3498.38c14.61,5.13 29.16,10.38 43.63,15.81z"/>
  <path class="fil62" d="M9346.36 11170.24l0 -914.61 -43.66 0 0 920.72c14.56,-2 29.13,-4 43.66,-6.11zm0 -2099.09l0 -1419.55c-14.48,5.78 -29.03,11.42 -43.66,16.91l0 1402.64 43.66 0zm0 -5493.66l0 -3518.79c-14.53,-2.11 -29.09,-4.11 -43.66,-6.11l0 3508.04c14.62,5.49 29.19,11.08 43.66,16.86zm-43.66 5809.83l0 865.25c20.3,-27.24 32.28,-60.83 32.28,-97.35l0 -670.78c0,-36.35 -12,-69.99 -32.28,-97.12z"/>
  <path class="fil62" d="M9390.35 11164.01l0 -908.39 -43.63 0 0 914.56c14.53,-2.11 29.14,-3.95 43.63,-6.18zm0 -2092.87l0 -1437.69c-14.46,6.15 -29.01,12.14 -43.63,17.99l0 1419.7 43.63 0zm0 -5475.58l0 -3530.65c-14.49,-2.22 -29.1,-4.07 -43.63,-6.18l0 3518.9c14.62,5.84 29.18,11.79 43.63,17.94z"/>
  <path class="fil63" d="M9433.81 11156.81l0 -903.29c-9.28,1.38 -18.75,2.1 -28.39,2.1l-15.26 0 0 908.42c14.61,-2.24 29.08,-4.88 43.66,-7.23zm0 -2083.57l0 -1458.83c-14.47,6.53 -29.03,12.9 -43.66,19.12l0 1437.61 15.26 0c9.64,0 19.12,0.72 28.39,2.1zm0 -5458.67l0 -3542.47c-14.57,-2.35 -29.05,-4.99 -43.66,-7.23l0 3530.6c14.63,6.22 29.19,12.58 43.66,19.1z"/>
  <path class="fil63" d="M9477.25 11149.62l0 -907.92c-13.84,5.59 -28.47,9.61 -43.66,11.85l0 903.3c14.57,-2.35 29.12,-4.77 43.66,-7.23zm0 -2064.52l0 -1490.86c-14.46,6.91 -29.02,13.67 -43.66,20.27l0 1458.71c15.19,2.25 29.81,6.28 43.66,11.88zm0 -5450.28l0 -3555.51c-14.53,-2.47 -29.08,-4.88 -43.66,-7.23l0 3542.41c14.64,6.6 29.18,13.41 43.66,20.33z"/>
  <path class="fil64" d="M9521.25 11142.33l0 -925.53c-13.32,10.04 -27.98,18.39 -43.63,24.75l0 908c14.52,-2.46 29.14,-4.65 43.63,-7.22zm0 -2032.3l0 -1537.42c-14.45,7.31 -29,14.46 -43.63,21.46l0 1491.18c15.66,6.37 30.31,14.73 43.63,24.78zm0 -5453.55l0 -3569.89c-14.49,-2.57 -29.11,-4.76 -43.63,-7.22l0 3555.61c14.64,7 29.17,14.19 43.63,21.5z"/>
  <path class="fil64" d="M9564.7 11134.14l0 -962.78c-11.98,17.46 -26.76,32.88 -43.66,45.59l0 925.41c14.61,-2.59 29.09,-5.52 43.66,-8.22zm0 -1978.65l0 -1605.47c-14.45,7.72 -29.01,15.28 -43.66,22.69l0 1537.17c16.9,12.72 31.67,28.15 43.66,45.61zm0 -5476.38l0 -3584.32c-14.57,-2.7 -29.05,-5.63 -43.66,-8.22l0 3569.82c14.65,7.41 29.2,15 43.66,22.72z"/>
  <path class="fil64" d="M9608.11 11125.82l0 -3599.63c-14.44,8.14 -28.99,16.12 -43.63,23.94l0 1605.04c21.45,31.13 34.04,68.76 34.04,109.2l0 798.03c0,40.5 -12.59,78.16 -34.04,109.28l0 962.5c14.57,-2.71 29.1,-5.54 43.63,-8.36zm0 -7422.88l0 -3599.84c-14.53,-2.82 -29.06,-5.65 -43.63,-8.36l0 3584.25c14.65,7.83 29.19,15.81 43.63,23.95z"/>
  <path class="fil65" d="M9652.16 11117.38l0 -3616.68c-14.44,8.59 -29,17.01 -43.66,25.27l0 3599.77c14.54,-2.82 29.16,-5.43 43.66,-8.37zm0 -7388.92l0 -3616.91c-14.5,-2.93 -29.12,-5.55 -43.66,-8.37l0 3599.98c14.66,8.27 29.21,16.7 43.66,25.3z"/>
  <path class="fil66" d="M9695.57 11108.25l0 -3634.03c-14.43,9.04 -28.98,17.9 -43.63,26.61l0 3616.59c14.58,-2.95 29.09,-6.11 43.63,-9.18zm0 -7353.28l0 -3634.28c-14.54,-3.07 -29.05,-6.23 -43.63,-9.18l0 3616.83c14.66,8.71 29.2,17.6 43.63,26.64z"/>
  <path class="fil66" d="M9739.03 11098.79l0 -3652.48c-14.43,9.52 -29,18.85 -43.66,28.03l0 3633.95c14.59,-3.07 29.11,-6.32 43.66,-9.5zm0 -7315.88l0 -3652.76c-14.55,-3.19 -29.07,-6.43 -43.66,-9.5l0 3634.2c14.67,9.19 29.22,18.55 43.66,28.07z"/>
  <path class="fil67" d="M9783.03 11089.21l0 -3672.64c-14.41,10.02 -28.97,19.83 -43.63,29.5l0 3652.63c14.54,-3.19 29.14,-6.2 43.63,-9.49zm0 -7276.5l0 -3672.98c-14.49,-3.3 -29.09,-6.31 -43.63,-9.5l0 3652.93c14.67,9.68 29.21,19.54 43.63,29.56z"/>
  <path class="fil68" d="M9826.48 11079.06l0 -3693.5c-14.42,10.55 -28.97,20.93 -43.65,31.14l0 3672.54c14.58,-3.32 29.11,-6.76 43.65,-10.18zm0 -7235.36l0 -3693.83c-14.54,-3.43 -29.07,-6.87 -43.65,-10.18l0 3672.89c14.68,10.2 29.23,20.58 43.65,31.13z"/>
  <path class="fil68" d="M9870.51 11068.32l0 -3715.89c-14.43,11.12 -28.95,22.1 -43.66,32.86l0 3693.68c14.59,-3.44 29.1,-7.09 43.66,-10.65zm0 -7191.57l0 -3716.15c-14.55,-3.56 -29.07,-7.21 -43.66,-10.65l0 3694.01c14.69,10.75 29.25,21.68 43.66,32.79z"/>
  <path class="fil69" d="M9913.92 11057.73l0 -3739.67c-14.4,11.69 -28.93,23.21 -43.63,34.54l0 3715.78c14.54,-3.55 29.13,-6.98 43.63,-10.65zm0 -7146.65l0 -3739.88c-14.5,-3.67 -29.09,-7.09 -43.63,-10.65l0 3716.03c14.69,11.32 29.24,22.82 43.63,34.5z"/>
  <path class="fil70" d="M9957.38 11046.55l0 -3764.69c-14.39,12.31 -28.94,24.42 -43.65,36.36l0 3739.55c14.57,-3.69 29.12,-7.42 43.65,-11.22zm0 -7099.29l0 -3764.88c-14.53,-3.8 -29.08,-7.53 -43.65,-11.22l0 3739.77c14.71,11.93 29.27,24.03 43.65,36.33z"/>
  <path class="fil70" d="M10001.37 11034.65l0 -3791.34c-14.36,12.95 -28.93,25.68 -43.63,38.25l0 3764.9c14.59,-3.82 29.08,-7.87 43.63,-11.81zm0 -7048.8l0 -3791.56c-14.55,-3.93 -29.04,-7.99 -43.63,-11.81l0 3765.1c14.7,12.58 29.27,25.32 43.63,38.28z"/>
  <path class="fil71" d="M10044.84 11022.89l0 -3819.85c-14.37,13.68 -28.92,27.15 -43.66,40.44l0 3791.23c14.56,-3.93 29.15,-7.77 43.66,-11.81zm0 -6996.85l0 -3819.99c-14.51,-4.05 -29.1,-7.88 -43.66,-11.81l0 3791.44c14.72,13.27 29.3,26.7 43.66,40.37z"/>
  <path class="fil71" d="M10088.25 11010.64l0 -3850.18c-14.36,14.45 -28.87,28.74 -43.63,42.79l0 3819.7c14.56,-4.07 29.12,-8.13 43.63,-12.31zm0 -6942.05l0 -3850.29c-14.51,-4.18 -29.07,-8.25 -43.63,-12.31l0 3819.84c14.75,14.04 29.28,28.31 43.63,42.75z"/>
  <path class="fil71" d="M10132.29 10997.54l0 -3882.64c-14.33,15.26 -28.89,30.3 -43.65,45.16l0 3850.47c14.61,-4.2 29.09,-8.66 43.65,-12.99zm0 -6883.26l0 -3882.89c-14.56,-4.32 -29.05,-8.78 -43.65,-12.99l0 3850.58c14.78,14.87 29.3,30.01 43.65,45.3z"/>
  <path class="fil72" d="M10175.7 10984.62l0 -3917.29c-14.3,16.16 -28.87,32.07 -43.63,47.8l0 3882.47c14.55,-4.32 29.13,-8.55 43.63,-12.98zm0 -6822.69l0 -3917.63c-14.5,-4.43 -29.08,-8.66 -43.63,-12.98l0 3882.72c14.78,15.75 29.31,31.71 43.63,47.89z"/>
  <path class="fil72" d="M10219.16 10971.24l0 -3954.63c-14.31,17.19 -28.83,34.21 -43.65,50.95l0 3917.12c14.57,-4.45 29.14,-8.88 43.65,-13.44zm0 -6758.77l0 -3954.77c-14.51,-4.56 -29.08,-8.99 -43.65,-13.44l0 3917.47c14.79,16.7 29.37,33.6 43.65,50.75z"/>
  <path class="fil73" d="M10263.18 10956.95l0 -3994.77c-14.24,18.26 -28.85,36.21 -43.65,54l0 3954.95c14.61,-4.59 29.09,-9.46 43.65,-14.17zm0 -6689.88l0 -3995.08c-14.56,-4.71 -29.05,-9.58 -43.65,-14.17l0 3955.08c14.83,17.82 29.38,35.88 43.65,54.17z"/>
  <path class="fil73" d="M10306.59 10942.85l0 -4038.44c-14.26,19.57 -28.74,38.98 -43.63,58.05l0 3994.56c14.55,-4.71 29.13,-9.34 43.63,-14.17zm0 -6618.08l0 -4038.69c-14.5,-4.82 -29.08,-9.46 -43.63,-14.17l0 3994.86c14.87,19.06 29.38,38.43 43.63,57.99z"/>
  <path class="fil73" d="M10350.06 10928.29l0 -4085.62c-14.19,20.95 -28.77,41.6 -43.66,62.02l0 4038.24c14.57,-4.85 29.14,-9.67 43.66,-14.63zm0 -6541.88l0 -4085.75c-14.51,-4.96 -29.09,-9.79 -43.66,-14.64l0 4038.48c14.86,20.4 29.49,40.98 43.66,61.9z"/>
  <path class="fil74" d="M10394.05 10912.79l0 -4137.72c-14.14,22.63 -28.69,44.98 -43.63,67.05l0 4086.04c14.6,-5 29.08,-10.26 43.63,-15.37zm0 -6458.54l0 -4138.1c-14.55,-5.11 -29.03,-10.37 -43.63,-15.37l0 4086.15c14.98,22.13 29.45,44.62 43.63,67.32z"/>
  <path class="fil74" d="M10437.51 10897.48l0 -4195.13c-14.11,24.64 -28.64,49 -43.66,73.02l0 4137.48c14.56,-5.12 29.15,-10.14 43.66,-15.37zm0 -6370.84l0 -4195.19c-14.5,-5.23 -29.09,-10.26 -43.66,-15.38l0 4137.85c14.98,23.95 29.59,48.15 43.66,72.72z"/>
  <path class="fil75" d="M10481.51 10881.47l0 -4259.88c-14.01,27.04 -28.55,53.76 -43.63,80.13l0 4195.63c14.56,-5.26 29.12,-10.51 43.63,-15.88zm0 -6273.98l0 -4260.02c-14.51,-5.37 -29.07,-10.62 -43.63,-15.88l0 4195.71c15.09,26.38 29.62,53.13 43.63,80.19z"/>
  <path class="fil75" d="M10524.96 10864.95l0 -4332.09c-13.89,30.08 -28.46,59.78 -43.65,89.1l0 4259.58c14.61,-5.41 29.1,-11.07 43.65,-16.59zm0 -6168.6l0 -4332.35c-14.55,-5.53 -29.04,-11.19 -43.65,-16.6l0 4259.72c15.21,29.36 29.74,59.12 43.65,89.23z"/>
  <path class="fil75" d="M10568.38 10848.45l0 -4415.9c-13.7,34.04 -28.3,67.61 -43.63,100.79l0 4331.7c14.55,-5.52 29.14,-10.95 43.63,-16.59zm0 -6051.56l0 -4416.39c-14.49,-5.64 -29.08,-11.07 -43.63,-16.59l0 4331.97c15.36,33.23 29.91,66.91 43.63,101.01z"/>
  <path class="fil76" d="M10612.42 10831.11l0 -4518.32c-13.47,40.12 -27.97,79.77 -43.66,118.81l0 4416.7c14.58,-5.68 29.13,-11.4 43.66,-17.19zm0 -5914.96l0 -4518.31c-14.52,-5.79 -29.08,-11.52 -43.66,-17.19l0 4417.19c15.63,38.91 30.23,78.33 43.66,118.31z"/>
  <path class="fil76" d="M10655.86 10813.36l0 -4646.63c-12.87,49.61 -27.46,98.53 -43.65,146.71l0 4517.76c14.61,-5.83 29.1,-11.89 43.65,-17.83zm0 -5751.13l0 -4646.65c-14.55,-5.95 -29.04,-12 -43.65,-17.83l0 4517.72c16.2,48.19 30.77,97.13 43.65,146.76z"/>
  <path class="fil77" d="M10699.27 10795.62l0 -4837.53c-11.17,71.02 -25.81,140.88 -43.63,209.47l0 4645.89c14.55,-5.95 29.15,-11.76 43.63,-17.83zm0 -5524.23l0 -4838.07c-14.48,-6.06 -29.08,-11.88 -43.63,-17.83l0 4645.93c17.87,68.73 32.44,138.78 43.63,209.96z"/>
  <path class="fil78" d="M10743.31 10776.9l0 -10324.85c-14.53,-6.23 -29.07,-12.45 -43.66,-18.56l0 4840.26c17.34,111.09 26.41,224.91 26.41,340.86 0,115.95 -9.07,229.77 -26.41,340.85l0 4840c14.59,-6.11 29.12,-12.34 43.66,-18.56z"/>
  <path class="fil78" d="M10786.73 10757.91l0 -10286.87c-14.53,-6.38 -29.04,-12.82 -43.63,-19.09l0 10325.04c14.6,-6.26 29.1,-12.71 43.63,-19.09z"/>
  <path class="fil79" d="M10830.18 10738.9l0 -10248.84c-14.48,-6.5 -29.11,-12.72 -43.66,-19.1l0 10287.04c14.54,-6.39 29.18,-12.59 43.66,-19.1z"/>
  <path class="fil79" d="M10874.18 10718.74l0 -10208.53c-14.54,-6.68 -29.03,-13.44 -43.63,-20l0 10248.52c14.6,-6.56 29.09,-13.32 43.63,-20z"/>
  <path class="fil80" d="M10917.64 10698.45l0 -10167.94c-14.53,-6.83 -29.06,-13.68 -43.66,-20.39l0 10208.71c14.6,-6.71 29.12,-13.56 43.66,-20.39z"/>
  <path class="fil80" d="M10961.66 10677.9l0 -10126.84c-14.46,-6.95 -29.12,-13.55 -43.65,-20.38l0 10167.6c14.53,-6.83 29.19,-13.43 43.65,-20.38z"/>
  <path class="fil81" d="M11005.07 10656.48l0 -10084c-14.56,-7.15 -29,-14.49 -43.63,-21.52l0 10127.04c14.63,-7.03 29.08,-14.37 43.63,-21.52z"/>
  <path class="fil81" d="M11048.53 10634.88l0 -10040.8c-14.52,-7.29 -29.07,-14.52 -43.66,-21.69l0 10084.19c14.59,-7.17 29.14,-14.41 43.66,-21.69z"/>
  <path class="fil81" d="M11092.53 10612.9l0 -9996.84c-14.45,-7.42 -29.1,-14.51 -43.63,-21.8l0 10040.44c14.53,-7.29 29.18,-14.38 43.63,-21.8z"/>
  <path class="fil82" d="M11135.99 10589.97l0 -9950.99c-14.58,-7.64 -29.01,-15.52 -43.66,-23.04l0 9997.05c14.65,-7.52 29.08,-15.39 43.66,-23.03z"/>
  <path class="fil82" d="M11179.4 10567.07l0 -9905.18c-14.49,-7.76 -29.07,-15.39 -43.63,-23.02l0 9951.22c14.57,-7.63 29.14,-15.26 43.63,-23.02z"/>
  <path class="fil83" d="M11223.45 10543.37l0 -9857.79c-14.49,-7.93 -29.08,-15.69 -43.66,-23.49l0 9904.77c14.57,-7.8 29.16,-15.56 43.66,-23.49z"/>
  <path class="fil83" d="M11266.86 10519.11l0 -9809.25c-14.55,-8.13 -29.01,-16.39 -43.63,-24.39l0 9858.03c14.63,-8 29.08,-16.26 43.63,-24.39z"/>
  <path class="fil83" d="M11310.32 10494.82l0 -9760.67c-14.47,-8.25 -29.1,-16.28 -43.66,-24.4l0 9809.47c14.56,-8.13 29.18,-16.15 43.66,-24.4z"/>
  <path class="fil84" d="M11354.34 10469.34l0 -9709.71c-14.53,-8.46 -29.05,-16.93 -43.66,-25.27l0 9760.26c14.61,-8.33 29.13,-16.81 43.66,-25.27z"/>
  <path class="fil84" d="M11397.75 10443.67l0 -9658.38c-14.52,-8.64 -29.03,-17.29 -43.63,-25.8l0 9709.97c14.61,-8.51 29.11,-17.16 43.63,-25.8z"/>
  <path class="fil84" d="M11441.21 10417.98l0 -9606.99c-14.44,-8.77 -29.13,-17.17 -43.66,-25.81l0 9658.62c14.53,-8.64 29.21,-17.05 43.66,-25.81z"/>
  <path class="fil85" d="M11485.21 10390.61l0 -9552.25c-14.56,-9.02 -28.98,-18.26 -43.63,-27.16l0 9606.56c14.65,-8.89 29.07,-18.13 43.63,-27.15z"/>
  <path class="fil85" d="M11528.66 10363.48l0 -9498c-14.49,-9.16 -29.07,-18.21 -43.65,-27.25l0 9552.5c14.58,-9.04 29.16,-18.09 43.65,-27.25z"/>
  <path class="fil86" d="M11572.66 10335.55l0 -9442.13c-14.47,-9.34 -29.07,-18.5 -43.63,-27.71l0 9497.55c14.56,-9.21 29.16,-18.36 43.63,-27.7z"/>
  <path class="fil86" d="M11616.12 10306.95l0 -9384.92c-14.55,-9.58 -29.01,-19.29 -43.66,-28.74l0 9442.4c14.64,-9.45 29.1,-19.16 43.66,-28.74z"/>
  <path class="fil87" d="M11659.54 10278.37l0 -9327.78c-14.45,-9.7 -29.08,-19.14 -43.63,-28.72l0 9385.21c14.55,-9.58 29.18,-19.01 43.63,-28.72z"/>
  <path class="fil87" d="M11703.58 10248.27l0 -9267.58c-14.54,-9.97 -29.02,-20.01 -43.65,-29.84l0 9327.26c14.64,-9.83 29.11,-19.87 43.65,-29.84z"/>
  <path class="fil87" d="M11747.01 10218.16l0 -9207.36c-14.51,-10.15 -29.05,-20.25 -43.66,-30.26l0 9267.88c14.61,-10.01 29.15,-20.11 43.66,-30.26z"/>
  <path class="fil88" d="M11790.43 10187.8l0 -9146.63c-14.44,-10.31 -29.09,-20.35 -43.63,-30.52l0 9207.66c14.54,-10.17 29.19,-20.21 43.63,-30.52z"/>
  <path class="fil88" d="M11834.47 10155.68l0 -9082.39c-14.56,-10.6 -28.99,-21.37 -43.65,-31.84l0 9146.06c14.66,-10.47 29.09,-21.23 43.65,-31.83z"/>
  <path class="fil89" d="M11877.88 10124.02l0 -9019.06c-14.44,-10.73 -29.08,-21.23 -43.63,-31.82l0 9082.7c14.55,-10.59 29.19,-21.08 43.63,-31.82z"/>
  <path class="fil90" d="M11921.34 10091.23l0 -8953.47c-14.53,-11.01 -29.02,-22.06 -43.66,-32.94l0 9019.34c14.64,-10.87 29.13,-21.92 43.66,-32.94z"/>
  <path class="fil91" d="M11965.34 10057.49l0 -8886.01c-14.49,-11.21 -29.03,-22.38 -43.63,-33.45l0 8952.92c14.61,-11.08 29.14,-22.24 43.63,-33.45z"/>
  <path class="fil91" d="M12008.8 10023.81l0 -8818.63c-14.45,-11.41 -29.09,-22.58 -43.66,-33.85l0 8886.32c14.57,-11.27 29.21,-22.44 43.66,-33.84z"/>
  <path class="fil92" d="M12052.21 9988.84l0 -8748.7c-14.54,-11.72 -28.97,-23.57 -43.63,-35.14l0 8818.98c14.66,-11.57 29.09,-23.42 43.63,-35.14z"/>
  <path class="fil92" d="M12096.25 9953.37l0 -8677.76c-14.43,-11.86 -29.1,-23.44 -43.65,-35.16l0 8748.07c14.55,-11.72 29.22,-23.29 43.65,-35.15z"/>
  <path class="fil93" d="M12139.69 9916.96l0 -8604.94c-14.54,-12.21 -28.99,-24.53 -43.66,-36.59l0 8678.11c14.67,-12.06 29.11,-24.38 43.66,-36.59z"/>
  <path class="fil93" d="M12183.69 9879.76l0 -8530.53c-14.46,-12.39 -29.04,-24.65 -43.63,-36.9l0 8604.32c14.59,-12.24 29.17,-24.51 43.63,-36.9z"/>
  <path class="fil93" d="M12227.15 9842.17l0 -8455.35c-14.48,-12.67 -29.05,-25.23 -43.66,-37.75l0 8530.86c14.61,-12.52 29.17,-25.09 43.66,-37.75z"/>
  <path class="fil94" d="M12270.56 9803.65l0 -8378.32c-14.5,-12.95 -28.99,-25.92 -43.63,-38.72l0 8455.75c14.64,-12.8 29.13,-25.77 43.63,-38.72z"/>
  <path class="fil94" d="M12314.6 9764.27l0 -8299.56c-14.43,-13.15 -29.09,-26.03 -43.66,-39.03l0 8377.63c14.56,-13 29.23,-25.88 43.66,-39.03z"/>
  <path class="fil95" d="M12358.01 9723.86l0 -8218.74c-14.54,-13.54 -28.94,-27.23 -43.63,-40.62l0 8299.97c14.69,-13.39 29.09,-27.07 43.63,-40.62z"/>
  <path class="fil95" d="M12401.47 9683.41l0 -8137.83c-14.41,-13.7 -29.1,-27.1 -43.66,-40.64l0 8219.12c14.55,-13.55 29.25,-26.94 43.66,-40.64z"/>
  <path class="fil96" d="M12445.49 9640.66l0 -8052.33c-14.55,-14.14 -28.96,-28.43 -43.66,-42.41l0 8137.15c14.7,-13.99 29.11,-28.27 43.66,-42.41z"/>
  <path class="fil97" d="M12488.91 9598.27l0 -7967.55c-14.43,-14.32 -29.06,-28.44 -43.63,-42.6l0 8052.76c14.58,-14.17 29.21,-28.28 43.63,-42.6z"/>
  <path class="fil98" d="M12532.36 9554.44l0 -7879.87c-14.5,-14.72 -28.99,-29.47 -43.65,-44.03l0 7967.93c14.66,-14.56 29.15,-29.3 43.65,-44.03z"/>
  <path class="fil98" d="M12576.36 9509.38l0 -7789.76c-14.44,-14.99 -29.03,-29.85 -43.63,-44.68l0 7879.12c14.61,-14.83 29.19,-29.69 43.63,-44.68z"/>
  <path class="fil98" d="M12619.82 9463.73l0 -7698.45c-14.47,-15.36 -29.01,-30.66 -43.66,-45.85l0 7790.16c14.64,-15.2 29.18,-30.49 43.66,-45.85z"/>
  <path class="fil99" d="M12663.23 9417.09l0 -7605.18c-14.46,-15.7 -28.99,-31.34 -43.63,-46.87l0 7698.92c14.64,-15.53 29.17,-31.17 43.63,-46.87z"/>
  <path class="fil99" d="M12707.28 9368.8l0 -7508.6c-14.45,-16.06 -29.03,-31.99 -43.66,-47.87l0 7604.35c14.63,-15.89 29.21,-31.82 43.66,-47.87z"/>
  <path class="fil100" d="M12750.69 9319.88l0 -7410.76c-14.47,-16.46 -28.98,-32.88 -43.63,-49.17l0 7509.1c14.65,-16.29 29.16,-32.71 43.63,-49.17z"/>
  <path class="fil100" d="M12794.74 9269.32l0 -7309.64c-14.44,-16.81 -29.03,-33.48 -43.66,-50.12l0 7409.88c14.63,-16.64 29.22,-33.31 43.66,-50.12z"/>
  <path class="fil100" d="M12838.17 9217.96l0 -7206.92c-14.47,-17.28 -28.98,-34.52 -43.65,-51.62l0 7310.17c14.67,-17.1 29.18,-34.35 43.65,-51.62z"/>
  <path class="fil101" d="M12881.58 9165.66l0 -7102.31c-14.42,-17.63 -29.01,-35.11 -43.63,-52.57l0 7207.44c14.63,-17.45 29.22,-34.93 43.63,-52.57z"/>
  <path class="fil102" d="M12925.63 9110.97l0 -6992.93c-14.46,-18.15 -28.98,-36.25 -43.66,-54.21l0 7101.34c14.68,-17.96 29.2,-36.06 43.66,-54.21z"/>
  <path class="fil103" d="M12969.04 9055.86l0 -6882.72c-14.42,-18.56 -28.98,-37 -43.63,-55.38l0 6993.48c14.65,-18.37 29.21,-36.82 43.63,-55.38z"/>
  <path class="fil103" d="M13012.5 8999.19l0 -6769.37c-14.44,-19.07 -28.98,-38.06 -43.66,-56.94l0 6883.25c14.67,-18.88 29.22,-37.87 43.66,-56.94z"/>
  <path class="fil104" d="M13056.49 8940.16l0 -6651.32c-14.44,-19.6 -28.95,-39.14 -43.63,-58.55l0 6768.41c14.68,-19.41 29.2,-38.95 43.63,-58.55z"/>
  <path class="fil104" d="M13099.95 8880.59l0 -6532.16c-14.39,-20.08 -29.01,-39.97 -43.65,-59.85l0 6651.86c14.64,-19.88 29.27,-39.77 43.65,-59.84z"/>
  <path class="fil104" d="M13143.36 8818.8l0 -6408.58c-14.46,-20.77 -28.9,-41.53 -43.63,-62.09l0 6532.77c14.73,-20.56 29.17,-41.33 43.63,-62.09z"/>
  <path class="fil105" d="M13187.41 8755.26l0 -6281.5c-14.31,-21.17 -29.07,-42.01 -43.66,-62.97l0 6407.45c14.59,-20.96 29.34,-41.81 43.66,-62.97z"/>
  <path class="fil105" d="M13230.84 8689.36l0 -6149.71c-14.5,-22.11 -28.85,-44.33 -43.65,-66.21l0 6282.14c14.8,-21.89 29.15,-44.11 43.65,-66.21z"/>
  <path class="fil106" d="M13274.25 8622.46l0 -6015.91c-14.34,-22.56 -28.98,-44.9 -43.63,-67.23l0 6150.37c14.65,-22.33 29.29,-44.68 43.63,-67.23z"/>
  <path class="fil106" d="M13318.3 8551.91l0 -5874.8c-14.4,-23.41 -28.92,-46.74 -43.66,-69.93l0 6014.66c14.73,-23.18 29.26,-46.52 43.66,-69.93z"/>
  <path class="fil107" d="M13361.71 8479.93l0 -5730.85c-14.4,-24.21 -28.88,-48.35 -43.63,-72.33l0 5875.51c14.75,-23.97 29.24,-48.12 43.63,-72.33z"/>
  <path class="fil107" d="M13405.76 8405.22l0 -5581.43c-14.27,-24.87 -29.01,-49.43 -43.65,-74.05l0 5729.54c14.64,-24.63 29.38,-49.19 43.65,-74.05z"/>
  <path class="fil108" d="M13449.17 8327.57l0 -5426.13c-14.43,-26.09 -28.81,-52.21 -43.63,-78.05l0 5582.22c14.83,-25.83 29.2,-51.96 43.63,-78.04z"/>
  <path class="fil108" d="M13492.63 8247.4l0 -5265.77c-14.35,-26.97 -28.88,-53.82 -43.66,-80.53l0 5426.82c14.77,-26.71 29.31,-53.55 43.66,-80.52z"/>
  <path class="fil109" d="M13536.63 8163.6l0 -5098.19c-14.23,-27.88 -28.94,-55.48 -43.63,-83.1l0 5264.39c14.69,-27.62 29.4,-55.22 43.63,-83.1z"/>
  <path class="fil109" d="M13580.08 8076.16l0 -4923.3c-14.36,-29.39 -28.8,-58.75 -43.66,-87.85l0 5099c14.86,-29.1 29.29,-58.46 43.66,-87.85z"/>
  <path class="fil110" d="M13623.52 7984.91l0 -4740.79c-14.32,-30.7 -28.8,-61.3 -43.66,-91.7l0 4924.19c14.85,-30.4 29.34,-61 43.66,-91.7z"/>
  <path class="fil111" d="M13667.52 7888.36l0 -4547.7c-14.23,-32.09 -28.82,-63.99 -43.63,-95.76l0 4739.22c14.82,-31.77 29.4,-63.67 43.63,-95.76z"/>
  <path class="fil111" d="M13710.98 7788.25l0 -4347.48c-14.18,-33.72 -28.85,-67.18 -43.66,-100.57l0 4548.61c14.81,-33.39 29.48,-66.84 43.66,-100.56z"/>
  <path class="fil112" d="M13754.39 7682.01l0 -4134.99c-14.18,-35.78 -28.74,-71.36 -43.63,-106.78l0 4348.56c14.89,-35.42 29.45,-71 43.63,-106.79z"/>
  <path class="fil112" d="M13798.43 7566.8l0 -3904.59c-14.19,-38.26 -28.66,-76.38 -43.66,-114.24l0 4133.08c15,-37.86 29.47,-75.99 43.66,-114.24z"/>
  <path class="fil113" d="M13841.84 7445.31l0 -3661.61c-14.1,-40.9 -28.62,-81.61 -43.63,-122.08l0 3905.77c15.02,-40.47 29.53,-81.18 43.63,-122.08z"/>
  <path class="fil113" d="M13885.3 7314l0 -3398.99c-14.02,-44.19 -28.58,-88.15 -43.66,-131.86l0 3662.72c15.07,-43.72 29.64,-87.67 43.66,-131.87z"/>
  <path class="fil114" d="M13929.33 7168.75l0 -3108.49c-13.89,-48.33 -28.51,-96.34 -43.66,-144.13l0 3396.74c15.15,-47.78 29.76,-95.79 43.66,-144.12z"/>
  <path class="fil114" d="M13972.73 7009.24l0 -2789.47c-13.74,-53.75 -28.35,-107.15 -43.63,-160.26l0 3110c15.28,-53.12 29.89,-106.52 43.63,-160.27z"/>
  <path class="fil115" d="M14016.78 6822.24l0 -2415.47c-13.63,-62.15 -27.99,-124.03 -43.66,-185.39l0 2786.27c15.67,-61.37 30.03,-123.25 43.66,-185.4z"/>
  <path class="fil115" d="M14060.19 6605.72l0 -1982.42c-13.01,-73.06 -27.82,-145.48 -43.63,-217.54l0 2417.49c15.81,-72.05 30.62,-144.48 43.63,-217.54z"/>
  <path class="fil116" d="M14103.65 6318.13l0 -1407.27c-12.14,-97.03 -26.63,-193.32 -43.65,-288.75l0 1984.78c17.02,-95.43 31.52,-191.73 43.65,-288.76z"/>
  <path class="fil116" d="M14104.02 4914.07l0 1400.86c28.56,-229.49 43.44,-463.22 43.44,-700.44 0,-237.21 -14.87,-470.94 -43.44,-700.42z"/>
  <path class="fil117" d="M321.07 14114.76c-63.98,-26.71 -119.16,-63.04 -166.11,-108.88 -47.54,-45.96 -85.11,-99.49 -112.69,-160.65 -28.18,-61.1 -42.26,-127.43 -42.26,-198.75l0 -974.88c0,-51.01 17.61,-94.38 53.41,-130.01 35.81,-35.68 79.24,-53.59 130.31,-53.59 48.13,0 90.98,17.9 127.96,53.59 36.98,35.63 55.17,79 55.17,130.01l0 974.88c0,38.27 14.67,71.32 44.02,99.38 29.35,28.05 63.39,42.03 101.54,42.03l2293.83 0c51.07,0 94.5,17.9 129.72,53.53 35.8,35.69 54,79.06 54,130.07 0,50.95 -18.2,94.38 -54,130.01 -35.22,35.63 -78.65,53.35 -129.72,53.35l-2282.68 0c-71.02,0 -138.52,-13.2 -202.5,-40.09z"/>
  <path class="fil117" d="M5818.51 13740.16c56.35,-31.87 100.37,-70.73 132.07,-116.57 32.28,-45.96 53.41,-96.26 65.15,-151.02 11.74,-54.76 17.02,-105.24 17.02,-151.02 0,-46.02 -5.28,-96.27 -17.02,-151.03 -11.74,-54.76 -32.87,-105.24 -65.15,-151.02 -31.7,-45.84 -75.72,-84.76 -132.07,-116.63 -55.76,-31.87 -127.37,-47.84 -213.65,-47.84l-1544.87 0c-89.22,0 -160.83,15.97 -216,47.84 -54.59,31.87 -98.02,70.78 -129.72,116.63 -32.28,45.78 -53.41,96.26 -65.15,151.02 -11.15,54.76 -17.02,105.01 -17.02,151.03 0,45.78 5.87,96.26 17.02,151.02 11.74,54.76 32.87,105.06 65.15,151.02 31.7,45.84 75.13,84.7 129.72,116.57 55.17,31.87 126.78,47.72 216,47.72l1544.87 0c86.28,0 157.89,-15.85 213.65,-47.72zm569.94 -418.62c0,96.79 -15.85,194.4 -47.54,292.42 -32.28,98.14 -78.65,187.36 -139.69,267.6 -61.04,80.23 -135,145.86 -221.87,196.86 -86.87,51.13 -184.89,76.42 -294.07,76.42l-1743.85 0c-104.48,-4.99 -197.22,-33.75 -278.81,-85.93 -81.59,-52.18 -150.85,-117.74 -208.37,-196.8 -57.52,-79.06 -101.54,-167.05 -132.07,-263.84 -30.52,-96.97 -45.78,-192.52 -45.78,-286.73 0,-96.79 15.85,-194.46 47.54,-292.42 32.28,-98.2 78.65,-187.36 139.7,-267.77 61.04,-80.29 135,-145.92 221.87,-196.86 86.28,-50.95 184.89,-76.48 294.65,-76.48l1743.27 0c104.48,5.16 197.22,33.75 278.81,86.1 81.59,52.18 150.85,117.8 208.37,196.87 57.53,79 101.55,166.87 132.07,263.78 30.52,96.85 45.78,192.4 45.78,286.79z"/>
  <path class="fil117" d="M9439.46 13644.6c71.02,49.6 143.81,103.84 217.77,162.41 28.17,20.49 52.24,43.91 72.78,70.79 19.96,26.65 30.52,57.99 30.52,93.68 0,50.95 -18.2,94.38 -53.41,130.01 -35.81,35.63 -79.24,53.35 -130.31,53.35 -43.44,0 -86.87,-17.73 -129.72,-53.35 -105.06,-76.48 -211.89,-150.32 -321.07,-221.81 -109.76,-71.32 -223.63,-135 -342.19,-191.17 -118.57,-55.99 -241.83,-100.54 -369.2,-133.83 -127.37,-33.04 -260.03,-49.71 -397.37,-49.71l-760.7 0c-33.45,5.16 -61.63,20.42 -84.52,45.96 -22.89,25.47 -34.04,57.34 -34.04,95.55l0 325c0,50.95 -18.78,94.38 -55.76,130.01 -36.98,35.63 -79.83,53.35 -127.96,53.35 -51.07,0 -94.5,-17.73 -130.31,-53.35 -35.22,-35.63 -53.41,-79.06 -53.41,-130.01l0 -367.03c0,-63.69 12.33,-124.32 36.39,-181.66 24.07,-57.35 56.93,-107.12 97.44,-149.15 41.08,-42.03 89.22,-75.07 145.57,-99.37 55.76,-24.07 116.8,-36.33 183.13,-36.33l2026.77 0c37.56,0 71.61,-13.44 100.95,-40.09 29.35,-26.71 44.02,-60.46 44.02,-101.31 0,-38.21 -14.67,-71.26 -44.02,-99.38 -29.34,-28.05 -63.39,-42.14 -100.95,-42.14l-2305.57 0c-51.07,0 -94.5,-17.78 -130.31,-53.41 -35.22,-35.81 -53.41,-79.06 -53.41,-130.01 0,-51.01 18.2,-94.38 53.41,-130.01 35.81,-35.68 79.24,-53.59 130.31,-53.59l2289.72 0c71.61,0 138.52,13.44 200.74,40.15 62.8,26.88 117.39,63.21 164.93,109 46.96,45.78 83.93,99.37 110.35,160.53 27,61.28 40.5,127.61 40.5,198.86 0,71.32 -13.5,137.58 -40.5,198.74 -26.41,61.16 -63.39,114.69 -110.35,160.71 -47.54,45.78 -102.13,82.12 -164.93,108.83 -62.22,26.82 -129.13,40.15 -200.74,40.15l-15.26 0c68.67,43.37 139.11,89.86 210.72,139.63z"/>
  <path class="fil117" d="M10609.27 14154.85c-56.35,0 -112.7,-12.03 -168.46,-36.33 -56.35,-24.07 -105.65,-57.82 -149.09,-101.25 -43.44,-43.2 -79.24,-95.56 -106.82,-156.72 -28.18,-61.1 -42.27,-130.01 -42.27,-206.49l0 -344.07c0,-68.73 19.96,-114.69 59.28,-137.58 39.33,-22.89 101.55,-34.45 185.48,-34.45l2565.01 0c51.06,0 94.5,17.9 130.3,53.59 35.81,35.63 53.41,79 53.41,130.01 0,50.94 -17.61,94.21 -53.41,130.01 -35.8,35.63 -79.24,53.41 -130.3,53.41l-2442.92 0 0 187.36c0,25.47 11.15,47.84 32.87,66.97 21.72,19.14 49.9,28.59 85.7,28.59l2408.88 0c51.06,0 93.91,17.9 129.71,53.53 35.81,35.69 53.41,79.06 53.41,130.07 0,50.95 -17.61,94.38 -53.41,130.01 -35.8,35.63 -78.65,53.35 -129.71,53.35l-2427.66 0zm-466.64 -1483.24c0,-51.01 17.61,-94.38 53.41,-130.01 35.81,-35.68 79.24,-53.59 130.31,-53.59l2710.57 0c51.06,0 93.91,17.9 129.71,53.59 35.81,35.63 53.41,79 53.41,130.01 0,50.95 -17.61,94.21 -53.41,130.01 -35.8,35.63 -78.65,53.41 -129.71,53.41l-2710.57 0c-51.07,0 -94.5,-17.78 -130.31,-53.41 -35.8,-35.81 -53.41,-79.06 -53.41,-130.01z"/>
  <path class="fil117" d="M16829.26 13971.48c0,50.95 -18.19,94.38 -53.41,130.01 -35.81,35.63 -79.24,53.35 -129.72,53.35 -51.65,0 -94.5,-17.73 -130.31,-53.35 -35.8,-35.63 -53.41,-79.06 -53.41,-130.01l0 -833.54c0,-104.54 -6.46,-156.72 -19.37,-156.72 -9.98,0 -45.78,34.45 -106.83,103.18l-841.11 955.75c-33.45,38.27 -73.96,67.03 -122.67,86.17 -48.13,19.08 -100.37,28.52 -156.72,28.52 -55.76,0 -108,-9.45 -156.72,-28.52 -48.13,-19.14 -89.22,-47.9 -122.09,-86.17l-841.11 -955.75c-58.7,-68.73 -94.5,-103.18 -106.82,-103.18 -12.91,0 -19.37,52.18 -19.37,156.72l0 833.54c0,50.95 -17.61,94.38 -53.41,130.01 -35.8,35.63 -79.24,53.35 -130.31,53.35 -50.48,0 -93.91,-17.73 -129.71,-53.35 -35.81,-35.63 -53.41,-79.06 -53.41,-130.01l0 -1116.46c0,-101.78 28.76,-188.59 87.46,-259.9 58.69,-71.32 139.11,-107.12 241.24,-107.12 61.04,0 115.63,15.32 164.35,45.96 48.13,30.52 92.74,67.56 133.83,110.76l879.27 1001.76c12.91,12.79 28.76,26.18 48.13,40.15 18.78,13.91 38.74,21.01 58.7,21.01 20.54,0 40.5,-7.1 59.28,-21.01 19.37,-13.97 35.22,-27.36 48.13,-40.15l875.15 -1001.76 4.11 0c35.22,-48.36 78.65,-86.63 129.72,-114.69 51.06,-27.88 107.41,-42.03 168.46,-42.03 102.13,0 181.96,35.8 240.66,107.12 58.69,71.32 88.04,158.13 88.04,259.9l0 1116.46z"/>
  <polygon class="fil117" points="4678.64,15245.18 4267.77,15245.18 4267.77,16035.93 4031.81,16035.93 4031.81,15245.18 3619.18,15245.18 3619.18,15044.68 4678.64,15044.68 "/>
  <path class="fil117" d="M5631.86 15598.18l-186.65 -369.02 -12.91 0.35 -193.11 368.67 392.67 0zm494.22 437.76l-275.87 0 -119.15 -240.01 -592.24 0 -120.91 240.01 -274.7 0 505.96 -991.26 370.96 0 505.96 991.26z"/>
  <path class="fil117" d="M7685.04 15636.8c0,169.92 -37.56,281.74 -113.28,335.45 -59.87,42.55 -180.2,63.69 -361.56,63.69l-244.17 0c-167.28,0 -281.74,-23.89 -342.78,-71.96 -71.02,-55.59 -106.24,-163.76 -106.24,-324.77l0 -153.96c0,-177.91 31.69,-296.59 94.5,-355.82 60.45,-58.4 180.2,-87.69 360.39,-87.69l214.83 0c167.28,0 281.74,12.79 342.78,38.09 103.89,42.2 155.54,132.07 155.54,269.89l-243 0c1.17,-60.28 -56.35,-90.45 -171.98,-90.45 -12.33,0 -28.18,0 -48.13,0 -18.78,0 -31.11,0 -37.56,0l-184.89 0c-102.13,0 -169.04,14.67 -200.15,43.91 -31.11,29.29 -46.37,94.91 -46.37,196.87l0 104.71c0,92.45 16.44,152.38 49.3,179.79 28.76,24.59 91.56,36.86 186.65,36.86l191.35 0c90.98,0 144.39,-1.05 159.07,-2.93 39.33,-5.7 66.33,-21.37 81,-46.84 14.67,-25.65 21.72,-72.67 21.72,-140.87l-354.52 0 0 -192.05 597.52 0 0 198.1z"/>
  <polygon class="fil117" points="8947.59,16035.93 8108.83,16035.93 8108.83,15044.68 8344.19,15044.68 8344.19,15838.25 8947.59,15838.25 "/>
  <polygon class="fil117" points="9383.7,16035.93 9619.47,16035.93 9619.47,15044.68 9383.7,15044.68 "/>
  <polygon class="fil117" points="11281.92,16035.93 11002.53,16035.93 10356.87,15296.31 10356.87,16035.93 10120.92,16035.93 10120.92,15044.68 10471.33,15044.68 11045.97,15722.38 11045.97,15044.68 11281.92,15044.68 "/>
  <polygon class="fil117" points="12775.73,16035.93 11773.2,16035.93 11773.2,15044.68 12775.73,15044.68 12775.73,15242.36 12009.16,15242.36 12009.16,15424.62 12751.67,15424.62 12751.67,15622.3 12009.16,15622.3 12009.16,15838.25 12775.73,15838.25 "/>
 </g>
</svg>
