<svg xmlns="http://www.w3.org/2000/svg" xmlns:xlink="http://www.w3.org/1999/xlink" width="149.535" height="149.535" viewBox="0 0 149.535 149.535"><defs><clipPath id="a"><rect width="149.536" height="149.536" fill="none"/></clipPath></defs><g clip-path="url(#a)"><rect width="149.536" height="149.536" rx="5" fill="none" opacity="0.8"/><g transform="translate(27.505 20.561)"><g transform="translate(44.158 95.38)"><path d="M225.25,447.3a1.6,1.6,0,0,0-1.6,1.6v1.766a1.6,1.6,0,0,0,3.2,0V448.9A1.6,1.6,0,0,0,225.25,447.3Z" transform="translate(-223.651 -447.3)" fill="#484848"/></g><g transform="translate(54.755 95.38)"><path d="M274.948,447.3a1.6,1.6,0,0,0-1.6,1.6v1.766a1.6,1.6,0,0,0,3.2,0V448.9A1.6,1.6,0,0,0,274.948,447.3Z" transform="translate(-273.349 -447.3)" fill="#484848"/></g><g transform="translate(45.924 4.416)"><path d="M240.6,20.709a1.6,1.6,0,0,0-1.6,1.6v2.816h-3.866V22.308a1.6,1.6,0,1,0-3.2,0v4.407s0,.006,0,.008,0,.006,0,.008V31.14a1.6,1.6,0,1,0,3.2,0V28.323H239V31.14a1.6,1.6,0,0,0,3.2,0V22.308A1.6,1.6,0,0,0,240.6,20.709Z" transform="translate(-231.932 -20.709)" fill="#484848"/></g><path d="M117.078,52.989h-19.6V26.327a1.6,1.6,0,0,0-1.6-1.6h-.167V20.861h1.933a1.6,1.6,0,0,0,1.6-1.6V12.2a1.6,1.6,0,0,0-1.6-1.6h-19.6v-9a1.6,1.6,0,0,0-1.6-1.6H58.79a1.6,1.6,0,0,0-1.6,1.6v9h-19.6A1.6,1.6,0,0,0,36,12.2v7.066a1.6,1.6,0,0,0,1.6,1.6h1.933v3.866h-.167a1.6,1.6,0,0,0-1.6,1.6v14.13a1.6,1.6,0,0,0,3.2,0V27.926H94.283V54.584s0,0,0,0,0,0,0,0V89.91s0,0,0,0,0,0,0,0v16.06H88.65V102.11H89.7a1.6,1.6,0,0,0,1.6-1.6v-10.6a1.6,1.6,0,0,0-1.6-1.6H84.4a1.6,1.6,0,0,0-1.6,1.6v10.6a1.6,1.6,0,0,0,1.6,1.6h1.05v3.868H79.819v-18h1.933a1.6,1.6,0,0,0,1.6-1.6V79.316a1.6,1.6,0,0,0-1.6-1.6H53.492a1.6,1.6,0,0,0-1.6,1.6v7.065a1.6,1.6,0,0,0,1.6,1.6h1.933v18H49.792V102.11h1.05a1.6,1.6,0,0,0,1.6-1.6v-10.6a1.6,1.6,0,0,0-1.6-1.6h-5.3a1.6,1.6,0,0,0-1.6,1.6v10.6a1.6,1.6,0,0,0,1.6,1.6h1.05v3.868H40.96V46.848a1.6,1.6,0,0,0-3.2,0v6.141h-19.6a1.6,1.6,0,0,0-1.6,1.6V89.914a1.6,1.6,0,0,0,1.6,1.6H20.1v16.064a1.6,1.6,0,0,0,1.6,1.6h91.848a1.6,1.6,0,0,0,1.6-1.6V91.513h1.933a1.6,1.6,0,0,0,1.6-1.6V54.588A1.6,1.6,0,0,0,117.078,52.989ZM37.762,105.978H23.3V91.513H37.762Zm0-17.663h-18V56.187h18Zm11.481,10.6h-2.1v-7.4h2.1Zm16.725,7.066H58.623v-18h7.344Zm10.653,0H69.166v-18H76.62Zm-19.6-21.2H55.091V80.916H80.153v3.867H57.024ZM88.1,98.912H86v-7.4h2.1ZM60.389,3.2H74.854v8.994s0,0,0,0,0,0,0,0v5.462H60.389ZM41.127,17.663H39.194V13.8h18v3.867H41.127Zm51.39,7.065H42.727V20.861h49.79Zm1.608-7.065H78.053V13.8h18v3.867Zm17.822,88.315H97.482V91.513h14.464Zm3.533-17.663h-18V56.187h18Z" transform="translate(-16.566)" fill="#484848"/><g transform="translate(7.065 60.054)"><path d="M58.363,281.632H51.3a1.6,1.6,0,0,0-1.6,1.6V290.3a1.6,1.6,0,0,0,1.6,1.6h7.065a1.6,1.6,0,0,0,1.6-1.6v-7.065A1.6,1.6,0,0,0,58.363,281.632Zm-1.6,7.066H52.9v-3.867h3.867Z" transform="translate(-49.699 -281.632)" fill="#484848"/></g><g transform="translate(28.261 60.054)"><path d="M157.763,281.632H150.7a1.6,1.6,0,0,0-1.6,1.6V290.3a1.6,1.6,0,0,0,1.6,1.6h7.065a1.6,1.6,0,0,0,1.6-1.6v-7.065A1.6,1.6,0,0,0,157.763,281.632Zm-1.6,7.066H152.3v-3.867h3.867Z" transform="translate(-149.099 -281.632)" fill="#484848"/></g><g transform="translate(63.587 60.054)"><path d="M323.43,281.632h-7.065a1.6,1.6,0,0,0-1.6,1.6V290.3h0a1.6,1.6,0,0,0,1.6,1.6h7.065a1.6,1.6,0,0,0,1.6-1.6v-7.065A1.6,1.6,0,0,0,323.43,281.632Zm-1.6,7.066h-3.866v-3.867h3.866Z" transform="translate(-314.766 -281.632)" fill="#484848"/></g><g transform="translate(45.869 60.054)"><path d="M240.34,281.632h-7.065a1.6,1.6,0,0,0-1.6,1.6V290.3a1.6,1.6,0,0,0,1.6,1.6h7.065a1.6,1.6,0,0,0,1.6-1.6v-7.065A1.6,1.6,0,0,0,240.34,281.632Zm-1.6,7.066h-3.867v-3.867h3.867Z" transform="translate(-231.675 -281.632)" fill="#484848"/></g><g transform="translate(28.261 45.923)"><path d="M157.763,215.365H150.7a1.6,1.6,0,0,0-1.6,1.6v7.065a1.6,1.6,0,0,0,1.6,1.6h7.065a1.6,1.6,0,0,0,1.6-1.6v-7.065A1.6,1.6,0,0,0,157.763,215.365Zm-1.6,7.065H152.3v-3.867h3.867Z" transform="translate(-149.099 -215.365)" fill="#484848"/></g><g transform="translate(63.587 45.923)"><path d="M323.43,215.365h-7.065a1.6,1.6,0,0,0-1.6,1.6v7.065h0a1.6,1.6,0,0,0,1.6,1.6h7.065a1.6,1.6,0,0,0,1.6-1.6v-7.065A1.6,1.6,0,0,0,323.43,215.365Zm-1.6,7.065h-3.866v-3.867h3.866Z" transform="translate(-314.766 -215.365)" fill="#484848"/></g><g transform="translate(45.869 45.923)"><path d="M240.34,215.365h-7.065a1.6,1.6,0,0,0-1.6,1.6v7.065a1.6,1.6,0,0,0,1.6,1.6h7.065a1.6,1.6,0,0,0,1.6-1.6v-7.065A1.6,1.6,0,0,0,240.34,215.365Zm-1.6,7.065h-3.867v-3.867h3.867Z" transform="translate(-231.675 -215.365)" fill="#484848"/></g><g transform="translate(28.261 31.793)"><path d="M157.763,149.1H150.7a1.6,1.6,0,0,0-1.6,1.6v7.065a1.6,1.6,0,0,0,1.6,1.6h7.065a1.6,1.6,0,0,0,1.6-1.6V150.7A1.6,1.6,0,0,0,157.763,149.1Zm-1.6,7.066H152.3V152.3h3.867Z" transform="translate(-149.099 -149.097)" fill="#484848"/></g><g transform="translate(63.587 31.793)"><path d="M323.431,149.1h-7.065a1.6,1.6,0,0,0-1.6,1.6v7.065a1.6,1.6,0,0,0,1.6,1.6h7.065a1.6,1.6,0,0,0,1.6-1.6V150.7A1.6,1.6,0,0,0,323.431,149.1Zm-1.6,7.066h-3.866V152.3h3.866Z" transform="translate(-314.767 -149.097)" fill="#484848"/></g><g transform="translate(45.869 31.793)"><path d="M240.34,149.1h-7.065a1.6,1.6,0,0,0-1.6,1.6v7.065a1.6,1.6,0,0,0,1.6,1.6h7.065a1.6,1.6,0,0,0,1.6-1.6V150.7A1.6,1.6,0,0,0,240.34,149.1Zm-1.6,7.066h-3.867V152.3h3.867Z" transform="translate(-231.675 -149.097)" fill="#484848"/></g><g transform="translate(84.783 60.054)"><path d="M422.831,281.632h-7.065a1.6,1.6,0,0,0-1.6,1.6V290.3a1.6,1.6,0,0,0,1.6,1.6h7.065a1.6,1.6,0,0,0,1.6-1.6v-7.065A1.6,1.6,0,0,0,422.831,281.632Zm-1.6,7.066h-3.866v-3.867h3.866Z" transform="translate(-414.167 -281.632)" fill="#484848"/></g><g transform="translate(7.065 74.184)"><path d="M58.363,347.9H51.3a1.6,1.6,0,0,0-1.6,1.6v7.066a1.6,1.6,0,0,0,1.6,1.6h7.065a1.6,1.6,0,0,0,1.6-1.6V349.5A1.6,1.6,0,0,0,58.363,347.9Zm-1.6,7.065H52.9V351.1h3.867Z" transform="translate(-49.699 -347.898)" fill="#484848"/></g><g transform="translate(84.783 74.184)"><path d="M422.831,347.9h-7.065a1.6,1.6,0,0,0-1.6,1.6v7.066a1.6,1.6,0,0,0,1.6,1.6h7.065a1.6,1.6,0,0,0,1.6-1.6V349.5A1.6,1.6,0,0,0,422.831,347.9Zm-1.6,7.065h-3.866V351.1h3.866Z" transform="translate(-414.167 -347.898)" fill="#484848"/></g></g></g></svg>