<svg xmlns="http://www.w3.org/2000/svg" xmlns:xlink="http://www.w3.org/1999/xlink" width="149.536" height="149.535" viewBox="0 0 149.536 149.535"><defs><clipPath id="a"><rect width="149.536" height="149.536" fill="none"/></clipPath></defs><g clip-path="url(#a)"><rect width="149.536" height="149.536" rx="5" fill="none" opacity="0.8"/><g transform="translate(15.45 14.954)"><path d="M210.027,208A2.028,2.028,0,0,0,208,210.027v28.385a2.027,2.027,0,1,0,4.055,0V210.027A2.028,2.028,0,0,0,210.027,208Z" transform="translate(-159.341 -159.34)" fill="#484848"/><path d="M162.027,208A2.028,2.028,0,0,0,160,210.027v28.385a2.027,2.027,0,1,0,4.055,0V210.027A2.028,2.028,0,0,0,162.027,208Z" transform="translate(-123.506 -159.34)" fill="#484848"/><path d="M260.055,210.027a2.027,2.027,0,1,0-4.055,0v28.385a2.027,2.027,0,1,0,4.055,0Z" transform="translate(-195.176 -159.34)" fill="#484848"/><path d="M351.591,314.519,337.4,304.382a2.027,2.027,0,0,0-2.357,0l-14.193,10.137a2.028,2.028,0,0,0-.849,1.649v4.658a25.5,25.5,0,0,0,12.82,22.092l2.394,1.369a2.028,2.028,0,0,0,1.8.1A25.416,25.416,0,0,0,352.44,321v-4.835A2.027,2.027,0,0,0,351.591,314.519ZM348.385,321a21.362,21.362,0,0,1-12.06,19.248l-1.492-.852a21.436,21.436,0,0,1-10.777-18.571v-3.615l12.165-8.689,12.165,8.689Z" transform="translate(-242.956 -231.013)" fill="#484848"/><path d="M352.9,348.4a2.027,2.027,0,0,0-.9,1.686v2.828a15.655,15.655,0,0,0,6.985,13.052,2.027,2.027,0,0,0,2.25-3.374,11.61,11.61,0,0,1-5.18-9.678v-1.743l5.18-3.453a2.027,2.027,0,1,0-2.25-3.374Z" transform="translate(-266.846 -260.875)" fill="#484848"/><path d="M109.266,80.88a28.211,28.211,0,0,0-14.19,3.809v-40.3A6.09,6.09,0,0,0,88.993,38.3H82.909V27.817A6.082,6.082,0,0,0,80.881,16H52.5a6.082,6.082,0,0,0-2.027,11.816V38.3h-22.3a6.089,6.089,0,0,0-6.082,6.082V111.55a8.11,8.11,0,1,0,9.881,9.88h2.541a8.11,8.11,0,0,0,15.706,0H83.624a28.384,28.384,0,1,0,25.642-40.55ZM91.021,44.385v8.11H86.964V48.44a2.027,2.027,0,0,0-2.027-2.027H80.881V42.357h8.112A2.03,2.03,0,0,1,91.021,44.385ZM74.8,38.3V28.165h4.055V38.3ZM70.744,28.165V38.3h-8.11V28.165ZM52.5,20.055H80.881a2.027,2.027,0,0,1,0,4.055H52.5a2.027,2.027,0,0,1,0-4.055Zm2.027,8.11h4.055V38.3H54.524ZM52.5,117.375H50.212a8.124,8.124,0,0,0-7.851-6.082v-2.027h8.108a2.03,2.03,0,0,1,2.027,2.027Zm-17.991,0h-.257V42.357h4.405a6.055,6.055,0,0,0-.348,2.027v68a8.141,8.141,0,0,0-3.8,4.991Zm7.855-72.99a2.03,2.03,0,0,1,2.027-2.027H52.5v4.055H48.441a2.028,2.028,0,0,0-2.027,2.027v4.055H42.361ZM28.166,42.357h2.027v71.69a8.119,8.119,0,0,0-4.055-2.5V44.385A2.03,2.03,0,0,1,28.166,42.357Zm-4.055,81.1a4.055,4.055,0,1,1,4.055-4.055A4.055,4.055,0,0,1,24.111,123.457Zm18.247,0a4.055,4.055,0,1,1,4.055-4.055A4.055,4.055,0,0,1,42.359,123.457Zm14.192-6.082v-6.082a6.089,6.089,0,0,0-6.082-6.082H42.361V56.55h6.08a2.027,2.027,0,0,0,2.028-2.027V50.467h4.055a2.028,2.028,0,0,0,2.028-2.027V42.357H76.826V48.44a2.028,2.028,0,0,0,2.028,2.027h4.055v4.055a2.028,2.028,0,0,0,2.028,2.027h6.084V87.54a28.36,28.36,0,0,0-8.957,29.835Zm52.715,16.22a24.33,24.33,0,1,1,24.33-24.33A24.33,24.33,0,0,1,109.266,133.595Z" transform="translate(-16.002 -16)" fill="#484848"/></g></g></svg>