<svg xmlns="http://www.w3.org/2000/svg" xmlns:xlink="http://www.w3.org/1999/xlink" width="149.536" height="149.535" viewBox="0 0 149.536 149.535"><defs><clipPath id="a"><rect width="149.536" height="149.536" fill="none"/></clipPath></defs><g clip-path="url(#a)"><rect width="149.536" height="149.536" rx="5" fill="none" opacity="0.8"/><path d="M119.825,30.673c-.014-.007-40.487-15.2-40.5-15.208A11.022,11.022,0,0,0,66.173.456a1.8,1.8,0,0,0,1,3.459,7.42,7.42,0,0,1,9.48,7.115c0,7.4-9.516,10.1-13.547,4.149a7.409,7.409,0,0,1-.345-7.74,1.8,1.8,0,0,0-3.15-1.748,11.017,11.017,0,0,0,3.5,14.478v9.424a1.8,1.8,0,0,0,3.6,0V21.747a11.021,11.021,0,0,0,5.456-.1v53.57c-.786,0-3.64-.006-5.456-.006V36.8a1.8,1.8,0,0,0-3.6,0V75.212a17.624,17.624,0,0,0-9.247,2.322,4.878,4.878,0,0,0-4.357-2.692H40.571A4.878,4.878,0,0,0,35.7,79.714v2.881H5.425A5.43,5.43,0,0,0,0,88.02v21.869a5.429,5.429,0,0,0,5.425,5.426H35.7v1.464a4.88,4.88,0,0,0,4.874,4.874h8.935a4.865,4.865,0,0,0,3.968-2.05c4.233,2.155,4.227,1.678,34.586,1.678a6.067,6.067,0,0,0,4.266-10.3,6.106,6.106,0,0,0,.009-8.5,6.11,6.11,0,0,0,0-8.491,6.074,6.074,0,0,0-3.618-10.25c.817-3.62-2.316-8.527-7.425-8.527H75.768V52.2L90.493,46.67a1.8,1.8,0,0,0-1.265-3.37l-13.46,5.053V19.9a11.169,11.169,0,0,0,1.517-1.352l38.938,14.618L95.969,40.77a1.8,1.8,0,1,0,1.268,3.37c.028-.01,22.56-8.468,22.587-8.481a2.681,2.681,0,0,0,0-4.986ZM35.7,111.714H5.425A1.827,1.827,0,0,1,3.6,109.889V88.02A1.826,1.826,0,0,1,5.425,86.2H35.7ZM50.47,117.6c-.5.6-.173.448-9.9.448a1.274,1.274,0,0,1-1.272-1.272V79.714a1.272,1.272,0,0,1,1.272-1.27h8.935a1.288,1.288,0,0,1,1.272,1.332c0,40.034.133,37.315-.307,37.827Zm3.908-1.613v-9.056a24.418,24.418,0,0,0,8.731-3.207c0,12.853-.075,12.631.216,13.952-3.054,0-5.693.265-8.947-1.689Zm14.576,1.689H67.125c-.553-1-.415-1.108-.415-16.595a24.433,24.433,0,0,0,1.831-1.8,5.968,5.968,0,0,0,1.628,3.2,6.106,6.106,0,0,0,.009,8.5A6.108,6.108,0,0,0,68.955,117.679Zm19.1,0H74.446a2.435,2.435,0,0,1-2.279-3.207,2.389,2.389,0,0,1,2.279-1.678H88.059a2.443,2.443,0,0,1,0,4.885Zm-.334-8.5H74.446a2.434,2.434,0,0,1-2.279-3.21,2.39,2.39,0,0,1,2.279-1.678H88.059a2.452,2.452,0,1,1-.334,4.888ZM72.059,98.182A2.389,2.389,0,0,1,74.446,95.8H88.059a2.444,2.444,0,0,1,0,4.888H74.446a2.391,2.391,0,0,1-2.386-2.5Zm16-10.872a2.443,2.443,0,0,1,0,4.885c-14.867,0-14.058.123-14.821-.329a2.388,2.388,0,0,1-1.071-1.344V88.988c.6-1.926,2.563-1.678,3.6-1.678Zm-6.768-8.491c3.74,0,5,4.888,2.984,4.888H82.4c.032,0,.062,0,.091,0-8.826,0-9.226-.186-10.88.717a6.088,6.088,0,0,0-2.568,7.953,21.054,21.054,0,0,1-14.661,10.9v-21.8A13.946,13.946,0,0,1,62.6,78.813c6.743,0,18.663,0,18.7,0Zm0,0" transform="translate(13.6 14.954)" fill="#484848"/></g></svg>