<svg xmlns="http://www.w3.org/2000/svg" width="26.51" height="26.07" viewBox="0 0 26.51 26.07">
  <g id="trolley" transform="translate(0.001 0.001)">
    <path id="Path_454" data-name="Path 454" d="M26,23.658a1.583,1.583,0,0,0,.485-1.15s0-.008,0-.012A1.555,1.555,0,0,0,24.9,20.98L24.167,21c0-.038,0-.076,0-.114l-.2-8.837a1.151,1.151,0,0,0-1.175-1.122l-2.639.061-.012-.518A1.556,1.556,0,0,0,18.55,8.95l-5.883.136a1.555,1.555,0,0,0-1.517,1.589l.012.518-2.639.061a1.146,1.146,0,0,0-.115.008L8.326,7.756,14.6,7.2a.518.518,0,0,0,.472-.516V3.276a.518.518,0,0,0-.518-.518H8.676a2.1,2.1,0,0,0-3-1.315L1.923.541A1.563,1.563,0,0,0,.045,1.685,1.55,1.55,0,0,0,1.187,3.56l3.756.9a2.109,2.109,0,0,0,.179.219l.043,1.8a.518.518,0,0,0,.517.505h.013a.518.518,0,0,0,.505-.53L6.172,5.291a2.1,2.1,0,0,0,.481.056H6.7a2.12,2.12,0,0,0,.528-.08l.376,15.878a2.828,2.828,0,0,0-.328-.02,2.767,2.767,0,0,0-.73.1L6.3,10.6a.518.518,0,0,0-1.035.024l.264,11.125a2.708,2.708,0,0,0-.994,2.094,2.75,2.75,0,0,0,5.425.608l13.291-.327a1.682,1.682,0,0,0-.17.739,1.716,1.716,0,0,0,3.431,0A1.691,1.691,0,0,0,26,23.658Zm-1.081-1.643a.517.517,0,0,1,.53.5.528.528,0,0,1-.506.535l-14.951.368a2.691,2.691,0,0,0-.407-1.048ZM22.813,11.959a.116.116,0,0,1,.116.111l.2,8.837a.115.115,0,0,1-.111.116l-2.639.061-.01-.455a.518.518,0,0,0-1.035.024l.011.455-6.918.16-.21-9.064,6.918-.16.1,4.469a.518.518,0,0,0,1.035-.024l-.1-4.468ZM12.186,10.651a.518.518,0,0,1,.506-.53l5.883-.136a.52.52,0,0,1,.529.506l.012.518-6.918.16ZM8.437,12.405a.115.115,0,0,1,.111-.116l2.639-.061.21,9.064-2.748.064-.212-8.933c0-.006,0-.012,0-.017Zm.24-8.612h1.979V6.511L8.3,6.719,8.251,4.61a2.049,2.049,0,0,0,.426-.816Zm5.357,2.42-2.342.207V3.794h2.342ZM1.111,2.321a.509.509,0,0,1-.061-.389.525.525,0,0,1,.631-.384l3.13.752a2.045,2.045,0,0,0-.246,1.007L1.429,2.554a.508.508,0,0,1-.318-.233Zm5.568,1.99A1.047,1.047,0,0,1,5.6,3.3a1.019,1.019,0,0,1,.289-.737,1.055,1.055,0,0,1,.739-.323h.025A1.046,1.046,0,0,1,7.707,3.252a1.02,1.02,0,0,1-.289.737,1.055,1.055,0,0,1-.739.322ZM8.941,23.444,5.6,23.526a1.717,1.717,0,0,1,3.343-.082ZM7.279,25.533a1.715,1.715,0,0,1-1.551-.974l3.136-.077A1.715,1.715,0,0,1,7.279,25.533Zm17.514,0a.667.667,0,1,1,.68-.667A.674.674,0,0,1,24.793,25.533Zm0,0" transform="translate(0 -0.498)" fill="#0FACF3"/>
    <path id="Path_455" data-name="Path 455" d="M101.219,146.952h.033a.518.518,0,0,0,.484-.549h0a.518.518,0,1,0-.517.551Zm0,0" transform="translate(-95.488 -138.387)" fill="#0FACF3"/>
    <path id="Path_456" data-name="Path 456" d="M373.108,339.555a.518.518,0,1,0,.518.518h0A.517.517,0,0,0,373.108,339.555Zm0,0" transform="translate(-353.299 -322)" fill="#0FACF3"/>
  </g>
</svg>
