<svg id="passport_2_" data-name="passport (2)" xmlns="http://www.w3.org/2000/svg" width="18.973" height="26.102" viewBox="0 0 18.973 26.102">
  <g id="Group_116" data-name="Group 116">
    <g id="Group_115" data-name="Group 115">
      <path id="Path_69" data-name="Path 69" d="M88.4.343A1.429,1.429,0,0,0,87.252.017L71.336,2.509a.508.508,0,0,0-.162.055,1.692,1.692,0,0,0-1.242,1.629V24.412a1.692,1.692,0,0,0,1.69,1.69H84.994a1.432,1.432,0,0,0,1.43-1.43V23.609l1.274-.2A1.424,1.424,0,0,0,88.9,21.994V1.43A1.428,1.428,0,0,0,88.4.343Zm-3,22.4v1.932a.411.411,0,0,1-.411.411H71.622a.671.671,0,0,1-.67-.67V4.192a.671.671,0,0,1,.67-.67H84.994a.411.411,0,0,1,.411.411Zm2.48-.745h0a.409.409,0,0,1-.346.406l-1.114.177V3.933a1.432,1.432,0,0,0-1.43-1.43H77.968L87.41,1.025a.411.411,0,0,1,.474.406V21.994Z" transform="translate(-69.932 0)" fill="#0FACF3"/>
    </g>
  </g>
  <g id="Group_118" data-name="Group 118" transform="translate(2.513 4.368)">
    <g id="Group_117" data-name="Group 117" transform="translate(0)">
      <path id="Path_70" data-name="Path 70" d="M130.318,89.363c-.025-.065-.051-.131-.079-.2a.51.51,0,1,0-.939.4c.023.053.044.108.065.161a4.721,4.721,0,0,1-.785,4.7l-3.619,4.34-3.62-4.34a4.714,4.714,0,0,1,5.374-7.395.51.51,0,1,0,.379-.947,5.734,5.734,0,0,0-6.536,8.995l4.011,4.809a.51.51,0,0,0,.783,0l4.011-4.809A5.743,5.743,0,0,0,130.318,89.363Z" transform="translate(-119.228 -85.673)" fill="#0FACF3"/>
    </g>
  </g>
  <g id="Group_120" data-name="Group 120" transform="translate(4.505 19.867)">
    <g id="Group_119" data-name="Group 119" transform="translate(0)">
      <path id="Path_71" data-name="Path 71" d="M165.265,389.7H158.8a.51.51,0,1,0,0,1.02h6.463a.51.51,0,1,0,0-1.02Z" transform="translate(-158.292 -389.704)" fill="#0FACF3"/>
    </g>
  </g>
  <g id="Group_122" data-name="Group 122" transform="translate(13.109 22.295)">
    <g id="Group_121" data-name="Group 121" transform="translate(0)">
      <path id="Path_72" data-name="Path 72" d="M328.09,437.745a.479.479,0,0,0-.029-.1.5.5,0,0,0-.047-.088.495.495,0,0,0-.141-.141.5.5,0,0,0-.088-.047.477.477,0,0,0-.1-.029.5.5,0,0,0-.2,0,.5.5,0,0,0-.1.029.515.515,0,0,0-.088.047.487.487,0,0,0-.078.063.517.517,0,0,0-.064.077.5.5,0,0,0-.047.088.516.516,0,0,0-.029.1.518.518,0,0,0,0,.2.535.535,0,0,0,.029.1.52.52,0,0,0,.047.088l.009.013a.5.5,0,0,0,.132.129.512.512,0,0,0,.088.046.544.544,0,0,0,.1.03.5.5,0,0,0,.295-.03.5.5,0,0,0,.088-.046.519.519,0,0,0,.078-.064.489.489,0,0,0,.063-.078.517.517,0,0,0,.047-.088c.006-.014.011-.029.015-.043s.01-.035.014-.053a.49.49,0,0,0,0-.2Z" transform="translate(-327.081 -437.335)" fill="#0FACF3"/>
    </g>
  </g>
  <g id="Group_124" data-name="Group 124" transform="translate(2.363 22.295)">
    <g id="Group_123" data-name="Group 123">
      <path id="Path_73" data-name="Path 73" d="M125.489,437.331h-8.694a.51.51,0,1,0,0,1.02h8.694a.51.51,0,1,0,0-1.02Z" transform="translate(-116.285 -437.331)" fill="#0FACF3"/>
    </g>
  </g>
  <g id="Group_126" data-name="Group 126" transform="translate(4.487 6.524)">
    <g id="Group_125" data-name="Group 125" transform="translate(0)">
      <path id="Path_74" data-name="Path 74" d="M165.467,131.738s0-.006,0-.009a3.763,3.763,0,0,0-3.745-3.748h-.014a3.763,3.763,0,0,0-3.759,3.759s0,0,0,0,0,.008,0,.012a3.759,3.759,0,0,0,7.517-.017Zm-6.475-.346a2.746,2.746,0,0,1,1.937-2.278,8.6,8.6,0,0,0-.408,2.633A7.517,7.517,0,0,1,158.991,131.393Zm.082,1.1a8.509,8.509,0,0,0,1.511.292,8.583,8.583,0,0,0,.348,1.586A2.749,2.749,0,0,1,159.074,132.489Zm2.973,1.969a7.55,7.55,0,0,1-.428-1.637,8.57,8.57,0,0,0,1.616-.189l1.135-.244A2.745,2.745,0,0,1,162.046,134.457Zm.974-2.823a7.549,7.549,0,0,1-1.48.167,7.572,7.572,0,0,1,.5-2.78,2.745,2.745,0,0,1,2.376,2.313Z" transform="translate(-157.949 -127.981)" fill="#0FACF3"/>
    </g>
  </g>
  <g id="Group_128" data-name="Group 128" transform="translate(11.43 5.899)">
    <g id="Group_127" data-name="Group 127" transform="translate(0)">
      <path id="Path_75" data-name="Path 75" d="M295.14,116.121a.541.541,0,0,0-.029-.1.517.517,0,0,0-.047-.088.486.486,0,0,0-.063-.078.544.544,0,0,0-.077-.064.549.549,0,0,0-.088-.047.516.516,0,0,0-.1-.029.5.5,0,0,0-.2,0,.515.515,0,0,0-.1.029.55.55,0,0,0-.088.047.582.582,0,0,0-.077.064.516.516,0,0,0-.11.165.533.533,0,0,0-.029.1.5.5,0,0,0-.01.1.5.5,0,0,0,.01.1.519.519,0,0,0,.076.183.521.521,0,0,0,.063.078.54.54,0,0,0,.077.063.551.551,0,0,0,.088.047.519.519,0,0,0,.2.039.5.5,0,0,0,.1-.01.513.513,0,0,0,.1-.029.551.551,0,0,0,.088-.047.507.507,0,0,0,.077-.063.487.487,0,0,0,.063-.078.5.5,0,0,0,.047-.088.517.517,0,0,0,.029-.1.5.5,0,0,0,.01-.1A.508.508,0,0,0,295.14,116.121Z" transform="translate(-294.131 -115.711)" fill="#0FACF3"/>
    </g>
  </g>
</svg>
