<svg id="kaaba_6_" data-name="kaaba (6)" xmlns="http://www.w3.org/2000/svg" width="25.998" height="26.1" viewBox="0 0 25.998 26.1">
  <path id="kaaba_6_2" data-name="kaaba (6)" d="M25.919,3.082,13.684.024a.763.763,0,0,0-.371,0L1.08,3.082A.764.764,0,0,0,.5,3.824V22.277a.764.764,0,0,0,.579.742l12.234,3.059.011,0c.021,0,.043.009.065.012l.022,0a.714.714,0,0,0,.175,0l.022,0c.022,0,.044-.007.065-.012l.011,0,12.234-3.059a.764.764,0,0,0,.579-.742V3.824a.764.764,0,0,0-.579-.742ZM2.03,4.8l10.7,2.676V8.962L2.03,6.286ZM24.969,6.286l-10.7,2.676V7.48L24.969,4.8ZM2.03,7.862l10.7,2.676V12.02L2.03,9.344Zm12.234,2.676,10.7-2.676V9.344l-10.7,2.676ZM13.5,1.554l9.081,2.27L13.5,6.094,4.418,3.824ZM2.03,10.92l10.7,2.676v10.76l-2.039-.51v-6.03a.764.764,0,0,0-.579-.742L5.019,15.8a.764.764,0,0,0-.95.742V22.19L2.03,21.68ZM5.6,22.572V17.522l3.568.892v5.051Zm8.666,1.784V13.6l10.7-2.676V21.68Zm0,0" transform="translate(-0.5 -0.001)" fill="#0FACF3"/>
</svg>
