<svg xmlns="http://www.w3.org/2000/svg" width="25.631" height="18.502" viewBox="0 0 25.631 18.502">
  <g id="airplane" transform="translate(0.252 0.252)">
    <path id="airplane-2" data-name="airplane" d="M2.993,11.076a.439.439,0,0,0-.215.575l.988,2.12a.438.438,0,0,0,.579.215L11.808,10.5l-.676,7.068a.439.439,0,0,0,.145.369,1.916,1.916,0,0,0,1.159.439,1.411,1.411,0,0,0,.347-.044,2.231,2.231,0,0,0,1.4-1.62l2.937-8.7L22.931,5.3c1.712-.8,2.594-2.419,2-3.683a2.222,2.222,0,0,0-1.716-1.2,4.069,4.069,0,0,0-2.4.369L14.108,3.938,6.891,1.115a2.227,2.227,0,0,0-2.133.031A1.79,1.79,0,0,0,4.1,2.564a.439.439,0,0,0,.189.347L9.152,6.251,6.369,7.568,1.7,6.383a.439.439,0,0,0-.487.211L.052,8.688a.439.439,0,0,0,.228.619l3.455,1.427ZM5,2.344a.751.751,0,0,1,.264-.474c.25-.18.707-.154,1.317.075l6.427,2.507-2.933,1.37ZM1.053,8.683l.764-1.356L6.307,8.442a.44.44,0,0,0,.29-.026L21.193,1.6a3.209,3.209,0,0,1,1.874-.3,1.375,1.375,0,0,1,1.071.694c.368.79-.356,1.945-1.581,2.515L17.5,6.879l.307-.909a.446.446,0,1,0-.847-.281L13.348,16.44c-.215.61-.483.975-.781,1.054a.743.743,0,0,1-.536-.1l.878-9.219a.441.441,0,0,0-.878-.083L11.9,9.5,4.362,13.012l-.619-1.317,1.238-.579a.439.439,0,0,0,0-.8Zm0,0" transform="translate(0.001 -0.376)" fill="#484848" stroke="#484848" stroke-linecap="round" stroke-width="0.5"/>
  </g>
</svg>
