<svg xmlns="http://www.w3.org/2000/svg" width="18.174" height="18.175" viewBox="0 0 18.174 18.175">
  <g id="bedtime" transform="translate(0.1 0.1)">
    <g id="XMLID_538_">
      <g id="XMLID_539_">
        <g id="XMLID_540_">
          <path id="XMLID_552_" d="M17.675,224.779a3.164,3.164,0,0,0-3.141-2.813H12.323a.351.351,0,1,0,0,.7h2.212a2.461,2.461,0,0,1,2.433,2.106H6.53v-1.112a1,1,0,0,1,.995-.995h1.99a.351.351,0,1,0,0-.7H7.524a1.7,1.7,0,0,0-1.361.684,1.754,1.754,0,0,0-2.793,2.124H2.6v-4.423A.351.351,0,0,0,2.247,220H.351a.351.351,0,0,0-.351.351V229.9a.351.351,0,0,0,.351.351H17.624a.351.351,0,0,0,.351-.351v-4.774A.351.351,0,0,0,17.675,224.779ZM3.721,223.721a1.053,1.053,0,1,1,1.053,1.053A1.054,1.054,0,0,1,3.721,223.721Zm13.552,5.828H.7v-2.668H5.974a.351.351,0,1,0,0-.7H.7V220.7H1.9v4.423a.351.351,0,0,0,.351.351H17.273Z" transform="translate(0 -212.277)" fill="#484848" stroke="#484848" stroke-width="0.2"/>
          <path id="XMLID_541_" d="M301.1,276.1a.351.351,0,1,0,.249-.1A.353.353,0,0,0,301.1,276.1Z" transform="translate(-290.433 -266.311)" fill="#484848" stroke="#484848" stroke-width="0.2"/>
          <path id="XMLID_542_" d="M200.521,396.7a.351.351,0,1,0-.248-.1A.354.354,0,0,0,200.521,396.7Z" transform="translate(-193.143 -382.098)" fill="#484848" stroke="#484848" stroke-width="0.2"/>
          <path id="XMLID_543_" d="M162.364,82.17h.71l-.958.958a.351.351,0,0,0,.248.6h1.557a.351.351,0,1,0,0-.7h-.709l.958-.958a.351.351,0,0,0-.248-.6h-1.557a.351.351,0,0,0,0,.7Z" transform="translate(-156.325 -78.608)" fill="#484848" stroke="#484848" stroke-width="0.2"/>
          <path id="XMLID_544_" d="M130.684,189.023h.265l-.513.513a.351.351,0,0,0,.248.6H131.8a.351.351,0,1,0,0-.7h-.265l.513-.513a.351.351,0,0,0-.248-.6h-1.112a.351.351,0,0,0,0,.7Z" transform="translate(-125.757 -181.71)" fill="#484848" stroke="#484848" stroke-width="0.2"/>
          <path id="XMLID_547_" d="M270.318,8.636A4.318,4.318,0,1,0,266,4.318,4.323,4.323,0,0,0,270.318,8.636Zm0-7.934A3.616,3.616,0,1,1,266.7,4.318,3.62,3.62,0,0,1,270.318.7Z" transform="translate(-256.661)" fill="#484848" stroke="#484848" stroke-width="0.2"/>
          <path id="XMLID_548_" d="M452.668,113.794h.244a.351.351,0,1,0,0-.7h-.244a.351.351,0,1,0,0,.7Z" transform="translate(-436.437 -109.122)" fill="#484848" stroke="#484848" stroke-width="0.2"/>
          <path id="XMLID_549_" d="M299.674,113.259a.351.351,0,0,0-.351-.351h-.244a.351.351,0,0,0,0,.7h.244A.351.351,0,0,0,299.674,113.259Z" transform="translate(-288.241 -108.944)" fill="#484848" stroke="#484848" stroke-width="0.2"/>
          <path id="XMLID_550_" d="M379.259,186.317a.351.351,0,0,0-.351.351v.244a.351.351,0,0,0,.7,0v-.244A.351.351,0,0,0,379.259,186.317Z" transform="translate(-365.606 -179.776)" fill="#484848" stroke="#484848" stroke-width="0.2"/>
          <path id="XMLID_551_" d="M348.684,43.265h1.077a.351.351,0,0,0,.351-.351l0-2.563a.351.351,0,0,0-.351-.352h0a.351.351,0,0,0-.351.351l0,2.212h-.726a.351.351,0,1,0,0,.7Z" transform="translate(-336.104 -38.596)" fill="#484848" stroke="#484848" stroke-width="0.2"/>
        </g>
      </g>
    </g>
  </g>
</svg>
