<svg xmlns="http://www.w3.org/2000/svg" xmlns:xlink="http://www.w3.org/1999/xlink" width="16.295" height="18.281" viewBox="0 0 16.295 18.281">
  <defs>
    <clipPath id="clip-path">
      <rect width="16.295" height="18.282" fill="none"/>
    </clipPath>
  </defs>
  <g id="boy-smiling" clip-path="url(#clip-path)">
    <circle id="Ellipse_106" data-name="Ellipse 106" cx="0.634" cy="0.634" r="0.634" transform="translate(4.004 10.619)" fill="#484848" stroke="#484848" stroke-width="0.3"/>
    <circle id="Ellipse_107" data-name="Ellipse 107" cx="0.634" cy="0.634" r="0.634" transform="translate(11.023 10.619)" fill="#484848" stroke="#484848" stroke-width="0.3"/>
    <path id="Path_390" data-name="Path 390" d="M106.307,213.875a1.289,1.289,0,0,0-.917.38.339.339,0,0,0,.479.479.62.62,0,0,1,.876,0,.339.339,0,1,0,.479-.479A1.289,1.289,0,0,0,106.307,213.875Z" transform="translate(-101.669 -204.656)" fill="#484848" stroke="#484848" stroke-width="0.3"/>
    <path id="Path_391" data-name="Path 391" d="M271.054,214.27a.339.339,0,0,0,.479.479.62.62,0,0,1,.876,0,.339.339,0,1,0,.479-.479A1.3,1.3,0,0,0,271.054,214.27Z" transform="translate(-260.314 -204.671)" fill="#484848" stroke="#484848" stroke-width="0.3"/>
    <path id="Path_392" data-name="Path 392" d="M184.939,323.231a.923.923,0,0,1-1.306,0,.339.339,0,0,0-.479.479,1.6,1.6,0,0,0,2.264,0,.339.339,0,0,0-.479-.479Z" transform="translate(-176.139 -309.284)" fill="#484848" stroke="#484848" stroke-width="0.3"/>
    <path id="Path_393" data-name="Path 393" d="M39.353,10.769a1.883,1.883,0,0,0-1.541-1.849V3.25A2.189,2.189,0,0,0,34.9,1.185L32.768.463A8.444,8.444,0,0,0,27.79.3c-2.122.586-3.339,1.824-3.527,3.584a2.573,2.573,0,0,0-.388.731L23.71,5.1a.589.589,0,0,0,.967.611,1.183,1.183,0,0,1,.22-.168V8.921A1.879,1.879,0,0,0,25,12.634a6.509,6.509,0,0,0,1.78,3.42,6.376,6.376,0,0,0,4.571,1.921h0a6.461,6.461,0,0,0,6.361-5.342A1.882,1.882,0,0,0,39.353,10.769ZM36.458,1.991a1.488,1.488,0,0,1,.676,1.259V7.686a2.2,2.2,0,0,1-1.86-2.173l-.028-3.727A1.484,1.484,0,0,1,36.458,1.991ZM24.452,5.025l.066-.195a1.9,1.9,0,0,1,2.6-1.113,2.592,2.592,0,0,0,3.018-.628l.084-.095a.339.339,0,0,0-.508-.449l-.084.095A1.91,1.91,0,0,1,27.4,3.1a2.579,2.579,0,0,0-2.1-.033c-.061.026-.121.056-.179.086a3.85,3.85,0,0,1,2.848-2.2A7.769,7.769,0,0,1,32.55,1.1l2.018.685.026,1.751a5.958,5.958,0,0,1-3.7,2.333A5.959,5.959,0,0,1,26.5,5.006,1.837,1.837,0,0,0,24.452,5.025Zm-.417,5.744A1.2,1.2,0,0,1,24.9,9.616v1.837q0,.238.017.473A1.2,1.2,0,0,1,24.035,10.769ZM35.441,15.6A5.741,5.741,0,0,1,31.355,17.3h0a5.7,5.7,0,0,1-4.088-1.719,5.84,5.84,0,0,1-1.691-4.124V5.386a1.171,1.171,0,0,1,.554.188,6.634,6.634,0,0,0,4.889.966A6.629,6.629,0,0,0,34.6,4.593v.92a2.88,2.88,0,0,0,2.538,2.856v3.148A5.741,5.741,0,0,1,35.441,15.6ZM37.8,11.926c.008-.135.013-.271.013-.408v-1.9a1.2,1.2,0,0,1-.013,2.309Z" transform="translate(-23.207 0.157)" fill="#484848" stroke="#484848" stroke-width="0.3"/>
  </g>
</svg>
