<svg xmlns="http://www.w3.org/2000/svg" width="17.975" height="17.975" viewBox="0 0 17.975 17.975">
  <g id="calendar_2_" data-name="calendar (2)" transform="translate(-0.001)">
    <g id="Group_634" data-name="Group 634">
      <g id="Group_633" data-name="Group 633">
        <circle id="Ellipse_32" data-name="Ellipse 32" cx="0.702" cy="0.702" r="0.702" transform="translate(12.849 6.67)" fill="#484848"/>
        <path id="Path_240" data-name="Path 240" d="M15.166,1.4h-.913V.7a.7.7,0,1,0-1.4,0v.7H9.654V.7a.7.7,0,1,0-1.4,0v.7H5.091V.7a.7.7,0,0,0-1.4,0v.7H2.809A2.812,2.812,0,0,0,0,4.213V15.166a2.812,2.812,0,0,0,2.809,2.809H8.18a.7.7,0,0,0,0-1.4H2.809a1.406,1.406,0,0,1-1.4-1.4V4.213a1.406,1.406,0,0,1,1.4-1.4h.878v.7a.7.7,0,1,0,1.4,0v-.7H8.25v.7a.7.7,0,1,0,1.4,0v-.7h3.195v.7a.7.7,0,1,0,1.4,0v-.7h.913a1.406,1.406,0,0,1,1.4,1.4v4a.7.7,0,0,0,1.4,0v-4A2.812,2.812,0,0,0,15.166,1.4Z" fill="#484848"/>
        <path id="Path_241" data-name="Path 241" d="M274.248,270a4.248,4.248,0,1,0,4.248,4.248A4.253,4.253,0,0,0,274.248,270Zm0,7.092a2.844,2.844,0,1,1,2.844-2.844A2.847,2.847,0,0,1,274.248,277.092Z" transform="translate(-260.521 -260.521)" fill="#484848"/>
        <path id="Path_242" data-name="Path 242" d="M372.72,331.439H372.4V330.7a.7.7,0,1,0-1.4,0v1.439a.7.7,0,0,0,.7.7h1.018a.7.7,0,1,0,0-1.4Z" transform="translate(-357.975 -318.415)" fill="#484848"/>
        <circle id="Ellipse_33" data-name="Ellipse 33" cx="0.702" cy="0.702" r="0.702" transform="translate(9.795 6.67)" fill="#484848"/>
        <circle id="Ellipse_34" data-name="Ellipse 34" cx="0.702" cy="0.702" r="0.702" transform="translate(6.741 9.725)" fill="#484848"/>
        <circle id="Ellipse_35" data-name="Ellipse 35" cx="0.702" cy="0.702" r="0.702" transform="translate(3.686 6.67)" fill="#484848"/>
        <circle id="Ellipse_36" data-name="Ellipse 36" cx="0.702" cy="0.702" r="0.702" transform="translate(3.686 9.725)" fill="#484848"/>
        <circle id="Ellipse_37" data-name="Ellipse 37" cx="0.702" cy="0.702" r="0.702" transform="translate(3.686 12.779)" fill="#484848"/>
        <circle id="Ellipse_38" data-name="Ellipse 38" cx="0.702" cy="0.702" r="0.702" transform="translate(6.741 12.779)" fill="#484848"/>
        <circle id="Ellipse_39" data-name="Ellipse 39" cx="0.702" cy="0.702" r="0.702" transform="translate(6.741 6.67)" fill="#484848"/>
      </g>
    </g>
  </g>
</svg>
