<svg xmlns="http://www.w3.org/2000/svg" width="18.557" height="17.975" viewBox="0 0 18.557 17.975">
  <g id="counterclockwide-arrow" transform="translate(0.001)">
    <g id="Group_467" data-name="Group 467" transform="translate(0 0)">
      <path id="Path_146" data-name="Path 146" d="M25.27,15.149a1.193,1.193,0,0,0-1.2-1.193H22.09V10.369a1.205,1.205,0,0,0-2.411,0v4.787a1.193,1.193,0,0,0,1.2,1.187h3.191A1.194,1.194,0,0,0,25.27,15.149Z" transform="translate(-11.6 -5.698)" fill="#484848"/>
      <path id="Path_147" data-name="Path 147" d="M9.279.709A9.273,9.273,0,0,0,1.705,15.341l-.961.949a.551.551,0,0,0,.385.944l3.458.014a.735.735,0,0,0,.737-.727l.031-3.458a.552.552,0,0,0-.939-.4l-.973.96A6.818,6.818,0,0,1,2.393,9.987a6.885,6.885,0,1,1,9.438,6.382,1.208,1.208,0,0,0-.736,1.356,1.193,1.193,0,0,0,1.612.874A9.273,9.273,0,0,0,9.279.709Z" transform="translate(0 -0.709)" fill="#484848"/>
    </g>
  </g>
</svg>
