<svg xmlns="http://www.w3.org/2000/svg" width="14.764" height="18.2" viewBox="0 0 14.764 18.2">
  <g id="place" transform="translate(-48.785 0.1)">
    <g id="Group_630" data-name="Group 630" transform="translate(48.886)">
      <g id="Group_629" data-name="Group 629">
        <g id="Path_238" data-name="Path 238" transform="translate(-48.886 0)" fill="#484848">
          <path d="M 56.16740036010742 18.04999923706055 C 55.96797943115234 18.04999923706055 55.77946090698242 17.96282958984375 55.65016937255859 17.81084060668945 L 50.36346054077148 11.60107040405273 C 49.88365936279297 11.04568958282471 49.52565002441406 10.45448017120361 49.29959869384766 9.84414005279541 C 48.45647048950195 7.614260196685791 48.77494049072266 5.093420028686523 50.15164184570312 3.101219892501831 C 51.53536224365234 1.098580002784729 53.72801971435547 -0.05000000074505806 56.16740036010742 -0.05000000074505806 C 58.60678100585938 -0.05000000074505806 60.7994384765625 1.098580002784729 62.18317031860352 3.101229906082153 C 63.55990982055664 5.093460083007812 63.87775039672852 7.615789890289307 63.03340148925781 9.848469734191895 C 62.80894088745117 10.45468044281006 62.45101165771484 11.04510021209717 61.96966171264648 11.60299968719482 L 56.68461990356445 17.81085014343262 C 56.55537033081055 17.96282958984375 56.36684036254883 18.04999923706055 56.16740036010742 18.04999923706055 Z M 56.16740036010742 1.308740019798279 C 54.18085861206055 1.308740019798279 52.39554214477539 2.24370002746582 51.26922988891602 3.873879909515381 C 50.1463508605957 5.499000072479248 49.88571929931641 7.552919864654541 50.57205200195312 9.368120193481445 C 50.74219131469727 9.827799797058105 51.01895141601562 10.28151988983154 51.39474868774414 10.71699047088623 L 56.16740036010742 16.32280349731445 L 60.93491744995117 10.72310638427734 L 60.93603134155273 10.72142028808594 L 60.94248962402344 10.71453952789307 C 61.3160514831543 10.2813196182251 61.59231185913086 9.828949928283691 61.76115036010742 9.372639656066895 C 62.44866943359375 7.554590225219727 62.18851852416992 5.499100208282471 61.06538009643555 3.873889923095703 C 59.93904876708984 2.24370002746582 58.15380859375 1.308740019798279 56.16740036010742 1.308740019798279 Z" stroke="none"/>
          <path d="M 56.16740036010742 0 C 53.74475860595703 0 51.56692123413086 1.140859603881836 50.19277191162109 3.129639625549316 C 48.82538223266602 5.108380317687988 48.50963973999023 7.613510131835938 49.34648895263672 9.826769828796387 C 49.57033157348633 10.43118000030518 49.92615127563477 11.01839065551758 50.40153121948242 11.56865978240967 L 55.68825912475586 17.77844047546387 C 55.80781936645508 17.91900062561035 55.98300933837891 18 56.16740036010742 18 C 56.35179138183594 18 56.52698135375977 17.91902923583984 56.64654922485352 17.77844047546387 L 61.93180084228516 11.57034015655518 C 62.4092903137207 11.01691055297852 62.76464080810547 10.43033027648926 62.98662185668945 9.830780029296875 C 63.82516098022461 7.613510131835938 63.50944137573242 5.108380317687988 62.14202880859375 3.129639625549316 C 60.76787948608398 1.140859603881836 58.59004974365234 0 56.16740036010742 0 M 56.16740036010742 16.39992904663086 L 51.35689926147461 10.74966049194336 C 50.97760009765625 10.31013011932373 50.69813919067383 9.85282039642334 50.5252799987793 9.385800361633301 C 49.83319854736328 7.555390357971191 50.09585189819336 5.484129905700684 51.22809219360352 3.845459938049316 C 52.3638801574707 2.201549530029297 54.16429901123047 1.258729934692383 56.16740036010742 1.258729934692383 C 58.17045974731445 1.258729934692383 59.97068023681641 2.201519966125488 61.10651016235352 3.845459938049316 C 62.23894882202148 5.484129905700684 62.5018196105957 7.555390357971191 61.80804061889648 9.389989852905273 C 61.63687896728516 9.852569580078125 61.3574104309082 10.3099193572998 60.97790145874023 10.74983024597168 C 60.97684860229492 10.75088977813721 60.97579193115234 10.75193977355957 60.97494888305664 10.75321006774902 L 56.16740036010742 16.39992904663086 M 56.16740036010742 -0.1000003814697266 C 58.62343978881836 -0.1000003814697266 60.83110046386719 1.056440353393555 62.22430038452148 3.072790145874023 C 63.61038208007812 5.078550338745117 63.93033218383789 7.618129730224609 63.08015060424805 9.86614990234375 C 62.85375213623047 10.4776496887207 62.49277877807617 11.07321929931641 62.00751113891602 11.63566017150879 L 56.72269058227539 17.84325981140137 C 56.58393859863281 18.00641059875488 56.38153076171875 18.10000038146973 56.16740036010742 18.10000038146973 C 55.95328903198242 18.10000038146973 55.75088882446289 18.00641059875488 55.61209106445312 17.84322929382324 L 50.32538986206055 11.63348007202148 C 49.84189224243164 11.07382011413574 49.48083114624023 10.47744941711426 49.25271224975586 9.861499786376953 C 48.40388870239258 7.616580009460449 48.72447204589844 5.078510284423828 50.11050033569336 3.072790145874023 C 51.50370025634766 1.056440353393555 53.71136093139648 -0.1000003814697266 56.16740036010742 -0.1000003814697266 Z M 60.90354537963867 10.68292617797852 C 61.27494049072266 10.25210380554199 61.54769515991211 9.805439949035645 61.71424865722656 9.355290412902832 C 62.39609146118164 7.552260398864746 62.1380500793457 5.514019966125488 61.02423858642578 3.902310371398926 C 59.90737915039062 2.285829544067383 58.13713073730469 1.358730316162109 56.16740036010742 1.358730316162109 C 54.1975212097168 1.358730316162109 52.42720031738281 2.285829544067383 51.31035995483398 3.902299880981445 C 50.19681930541992 5.513919830322266 49.93830108642578 7.550600051879883 50.61882019042969 9.350429534912109 C 50.7869987487793 9.80482006072998 51.06071853637695 10.25338935852051 51.43260955810547 10.68432998657227 L 56.16740036010742 16.24566841125488 L 60.89488220214844 10.69299507141113 L 60.89699172973633 10.68980979919434 L 60.90354537963867 10.68292617797852 Z" stroke="none" fill="#484848"/>
        </g>
      </g>
    </g>
    <g id="Group_632" data-name="Group 632" transform="translate(52.643 3.734)">
      <g id="Group_631" data-name="Group 631">
        <g id="Path_239" data-name="Path 239" transform="translate(-155.754 -106.219)" fill="#484848">
          <path d="M 159.2785034179688 113.3179702758789 C 157.3075256347656 113.3179702758789 155.7040100097656 111.7144622802734 155.7040100097656 109.7434844970703 C 155.7040100097656 107.7725143432617 157.3075256347656 106.1690139770508 159.2785034179688 106.1690139770508 C 161.2494659423828 106.1690139770508 162.8529815673828 107.7725143432617 162.8529815673828 109.7434844970703 C 162.8529815673828 111.7144622802734 161.2494659423828 113.3179702758789 159.2785034179688 113.3179702758789 Z M 159.2785034179688 107.5276947021484 C 158.0567169189453 107.5276947021484 157.0627288818359 108.5216751098633 157.0627288818359 109.7434387207031 C 157.0627288818359 110.965202331543 158.0567169189453 111.9591827392578 159.2785034179688 111.9591827392578 C 160.5002593994141 111.9591827392578 161.4942321777344 110.965202331543 161.4942321777344 109.7434387207031 C 161.4942321777344 108.5216751098633 160.5002593994141 107.5276947021484 159.2785034179688 107.5276947021484 Z" stroke="none"/>
          <path d="M 159.2785034179688 106.2190093994141 C 157.3351745605469 106.2190093994141 155.7540130615234 107.7999725341797 155.7540130615234 109.7434844970703 C 155.7540130615234 111.6869888305664 157.3350067138672 113.2679748535156 159.2785034179688 113.2679748535156 C 161.2220001220703 113.2679748535156 162.802978515625 111.6869888305664 162.802978515625 109.7434844970703 C 162.802978515625 107.8001708984375 161.2217864990234 106.2190093994141 159.2785034179688 106.2190093994141 M 159.2785034179688 112.0091857910156 C 158.0292053222656 112.0091857910156 157.0127258300781 110.9927749633789 157.0127258300781 109.7434387207031 C 157.0127258300781 108.494140625 158.0292053222656 107.4776916503906 159.2785034179688 107.4776916503906 C 160.5278015136719 107.4776916503906 161.5442352294922 108.494140625 161.5442352294922 109.7434387207031 C 161.5442352294922 110.9927749633789 160.5278015136719 112.0091857910156 159.2785034179688 112.0091857910156 M 159.2785034179688 106.119010925293 C 161.2770385742188 106.119010925293 162.9029693603516 107.7449417114258 162.9029693603516 109.7434844970703 C 162.9029693603516 111.7420349121094 161.2770385742188 113.3679733276367 159.2785034179688 113.3679733276367 C 157.2799530029297 113.3679733276367 155.6540069580078 111.7420349121094 155.6540069580078 109.7434844970703 C 155.6540069580078 107.7449417114258 157.2799530029297 106.119010925293 159.2785034179688 106.119010925293 Z M 159.2785034179688 111.9091796875 C 160.4726867675781 111.9091796875 161.4442291259766 110.937629699707 161.4442291259766 109.7434387207031 C 161.4442291259766 108.5492401123047 160.4726867675781 107.5776901245117 159.2785034179688 107.5776901245117 C 158.0842895507812 107.5776901245117 157.1127166748047 108.5492401123047 157.1127166748047 109.7434387207031 C 157.1127166748047 110.937629699707 158.0842895507812 111.9091796875 159.2785034179688 111.9091796875 Z" stroke="none" fill="#484848"/>
        </g>
      </g>
    </g>
  </g>
</svg>
