<svg id="hotel_7_" data-name="hotel (7)" xmlns="http://www.w3.org/2000/svg" width="24.412" height="26.102" viewBox="0 0 24.412 26.102">
  <g id="Group_82" data-name="Group 82" transform="translate(10.557 22.803)">
    <g id="Group_81" data-name="Group 81">
      <path id="Path_52" data-name="Path 52" d="M224.033,447.3a.382.382,0,0,0-.382.382v.422a.382.382,0,1,0,.765,0v-.422A.382.382,0,0,0,224.033,447.3Z" transform="translate(-223.651 -447.3)" fill="#484848"/>
    </g>
  </g>
  <g id="Group_84" data-name="Group 84" transform="translate(13.091 22.803)">
    <g id="Group_83" data-name="Group 83">
      <path id="Path_53" data-name="Path 53" d="M273.731,447.3a.382.382,0,0,0-.382.382v.422a.382.382,0,1,0,.765,0v-.422A.382.382,0,0,0,273.731,447.3Z" transform="translate(-273.349 -447.3)" fill="#484848"/>
    </g>
  </g>
  <g id="Group_86" data-name="Group 86" transform="translate(10.979 1.056)">
    <g id="Group_85" data-name="Group 85">
      <path id="Path_54" data-name="Path 54" d="M234,20.709a.382.382,0,0,0-.382.382v.673H232.7v-.673a.382.382,0,1,0-.765,0V23.2a.382.382,0,1,0,.765,0v-.673h.924V23.2a.382.382,0,0,0,.765,0V21.091A.382.382,0,0,0,234,20.709Z" transform="translate(-231.932 -20.709)" fill="#484848"/>
    </g>
  </g>
  <g id="Group_88" data-name="Group 88">
    <g id="Group_87" data-name="Group 87">
      <path id="Path_55" data-name="Path 55" d="M40.6,12.668H35.911V6.294a.382.382,0,0,0-.382-.382h-.04V4.987h.462a.382.382,0,0,0,.382-.382V2.916a.382.382,0,0,0-.382-.382H31.266V.382A.382.382,0,0,0,30.884,0H26.661a.382.382,0,0,0-.382.382V2.534H21.594a.382.382,0,0,0-.382.382V4.605a.382.382,0,0,0,.382.382h.462v.924h-.04a.382.382,0,0,0-.382.382V9.672a.382.382,0,0,0,.765,0v-3H35.146V13.05h0V21.5h0v3.84H33.8v-.925h.251a.382.382,0,0,0,.382-.382V21.5a.382.382,0,0,0-.382-.382H32.784a.382.382,0,0,0-.382.382V24.03a.382.382,0,0,0,.382.382h.251v.925H31.688v-4.3h.462a.382.382,0,0,0,.382-.382V18.963a.382.382,0,0,0-.382-.382H25.394a.382.382,0,0,0-.382.382v1.689a.382.382,0,0,0,.382.382h.462v4.3H24.51v-.925h.251a.382.382,0,0,0,.382-.382V21.5a.382.382,0,0,0-.382-.382H23.494a.382.382,0,0,0-.382.382V24.03a.382.382,0,0,0,.382.382h.251v.925H22.4V11.2a.382.382,0,0,0-.765,0v1.468H16.948a.382.382,0,0,0-.382.382V21.5a.382.382,0,0,0,.382.382h.462v3.841a.382.382,0,0,0,.382.382H39.752a.382.382,0,0,0,.382-.382V21.879H40.6a.382.382,0,0,0,.382-.382V13.051A.382.382,0,0,0,40.6,12.668ZM21.633,25.337H18.175V21.879h3.458Zm0-4.223h-4.3V13.433h4.3Zm2.745,2.534h-.5V21.879h.5Zm4,1.689H26.621v-4.3h1.756Zm2.547,0H29.141v-4.3h1.782ZM26.239,20.27h-.462v-.924h5.992v.924h-5.53Zm7.43,3.378h-.5V21.879h.5ZM27.043.765H30.5v2.15h0V4.223H27.043ZM22.438,4.223h-.462V3.3h4.3v.925h-3.84ZM34.724,5.912H22.82V4.987h11.9Zm.384-1.689H31.266V3.3h4.3v.925Zm4.261,21.114H35.911V21.879h3.458Zm.845-4.223h-4.3V13.433h4.3Z" transform="translate(-16.566)" fill="#484848"/>
    </g>
  </g>
  <g id="Group_90" data-name="Group 90" transform="translate(1.689 14.357)">
    <g id="Group_89" data-name="Group 89">
      <path id="Path_56" data-name="Path 56" d="M51.77,281.632H50.081a.382.382,0,0,0-.382.382V283.7a.382.382,0,0,0,.382.382H51.77a.382.382,0,0,0,.382-.382v-1.689A.382.382,0,0,0,51.77,281.632Zm-.382,1.689h-.924V282.4h.924Z" transform="translate(-49.699 -281.632)" fill="#484848"/>
    </g>
  </g>
  <g id="Group_92" data-name="Group 92" transform="translate(6.757 14.357)">
    <g id="Group_91" data-name="Group 91">
      <path id="Path_57" data-name="Path 57" d="M151.17,281.632h-1.689a.382.382,0,0,0-.382.382V283.7a.382.382,0,0,0,.382.382h1.689a.382.382,0,0,0,.382-.382v-1.689A.382.382,0,0,0,151.17,281.632Zm-.382,1.689h-.924V282.4h.924Z" transform="translate(-149.099 -281.632)" fill="#484848"/>
    </g>
  </g>
  <g id="Group_94" data-name="Group 94" transform="translate(15.202 14.357)">
    <g id="Group_93" data-name="Group 93">
      <path id="Path_58" data-name="Path 58" d="M316.837,281.632h-1.689a.382.382,0,0,0-.382.382V283.7h0a.382.382,0,0,0,.382.382h1.689a.382.382,0,0,0,.382-.382v-1.689A.382.382,0,0,0,316.837,281.632Zm-.382,1.689h-.924V282.4h.924Z" transform="translate(-314.766 -281.632)" fill="#484848"/>
    </g>
  </g>
  <g id="Group_96" data-name="Group 96" transform="translate(10.966 14.357)">
    <g id="Group_95" data-name="Group 95">
      <path id="Path_59" data-name="Path 59" d="M233.746,281.632h-1.689a.382.382,0,0,0-.382.382V283.7a.382.382,0,0,0,.382.382h1.689a.382.382,0,0,0,.382-.382v-1.689A.382.382,0,0,0,233.746,281.632Zm-.382,1.689h-.924V282.4h.924Z" transform="translate(-231.675 -281.632)" fill="#484848"/>
    </g>
  </g>
  <g id="Group_98" data-name="Group 98" transform="translate(6.757 10.979)">
    <g id="Group_97" data-name="Group 97">
      <path id="Path_60" data-name="Path 60" d="M151.17,215.365h-1.689a.382.382,0,0,0-.382.382v1.689a.382.382,0,0,0,.382.382h1.689a.382.382,0,0,0,.382-.382v-1.689A.382.382,0,0,0,151.17,215.365Zm-.382,1.689h-.924v-.924h.924Z" transform="translate(-149.099 -215.365)" fill="#484848"/>
    </g>
  </g>
  <g id="Group_100" data-name="Group 100" transform="translate(15.202 10.979)">
    <g id="Group_99" data-name="Group 99">
      <path id="Path_61" data-name="Path 61" d="M316.837,215.365h-1.689a.382.382,0,0,0-.382.382v1.689h0a.382.382,0,0,0,.382.382h1.689a.382.382,0,0,0,.382-.382v-1.689A.382.382,0,0,0,316.837,215.365Zm-.382,1.689h-.924v-.924h.924Z" transform="translate(-314.766 -215.365)" fill="#484848"/>
    </g>
  </g>
  <g id="Group_102" data-name="Group 102" transform="translate(10.966 10.979)">
    <g id="Group_101" data-name="Group 101">
      <path id="Path_62" data-name="Path 62" d="M233.746,215.365h-1.689a.382.382,0,0,0-.382.382v1.689a.382.382,0,0,0,.382.382h1.689a.382.382,0,0,0,.382-.382v-1.689A.382.382,0,0,0,233.746,215.365Zm-.382,1.689h-.924v-.924h.924Z" transform="translate(-231.675 -215.365)" fill="#484848"/>
    </g>
  </g>
  <g id="Group_104" data-name="Group 104" transform="translate(6.757 7.601)">
    <g id="Group_103" data-name="Group 103">
      <path id="Path_63" data-name="Path 63" d="M151.17,149.1h-1.689a.382.382,0,0,0-.382.382v1.689a.382.382,0,0,0,.382.382h1.689a.382.382,0,0,0,.382-.382v-1.689A.382.382,0,0,0,151.17,149.1Zm-.382,1.689h-.924v-.924h.924Z" transform="translate(-149.099 -149.097)" fill="#484848"/>
    </g>
  </g>
  <g id="Group_106" data-name="Group 106" transform="translate(15.202 7.601)">
    <g id="Group_105" data-name="Group 105">
      <path id="Path_64" data-name="Path 64" d="M316.838,149.1h-1.689a.382.382,0,0,0-.382.382v1.689a.382.382,0,0,0,.382.382h1.689a.382.382,0,0,0,.382-.382v-1.689A.382.382,0,0,0,316.838,149.1Zm-.382,1.689h-.924v-.924h.924Z" transform="translate(-314.767 -149.097)" fill="#484848"/>
    </g>
  </g>
  <g id="Group_108" data-name="Group 108" transform="translate(10.966 7.601)">
    <g id="Group_107" data-name="Group 107">
      <path id="Path_65" data-name="Path 65" d="M233.746,149.1h-1.689a.382.382,0,0,0-.382.382v1.689a.382.382,0,0,0,.382.382h1.689a.382.382,0,0,0,.382-.382v-1.689A.382.382,0,0,0,233.746,149.1Zm-.382,1.689h-.924v-.924h.924Z" transform="translate(-231.675 -149.097)" fill="#484848"/>
    </g>
  </g>
  <g id="Group_110" data-name="Group 110" transform="translate(20.27 14.357)">
    <g id="Group_109" data-name="Group 109">
      <path id="Path_66" data-name="Path 66" d="M416.238,281.632h-1.689a.382.382,0,0,0-.382.382V283.7a.382.382,0,0,0,.382.382h1.689a.382.382,0,0,0,.382-.382v-1.689A.382.382,0,0,0,416.238,281.632Zm-.382,1.689h-.924V282.4h.924Z" transform="translate(-414.167 -281.632)" fill="#484848"/>
    </g>
  </g>
  <g id="Group_112" data-name="Group 112" transform="translate(1.689 17.736)">
    <g id="Group_111" data-name="Group 111">
      <path id="Path_67" data-name="Path 67" d="M51.77,347.9H50.081a.382.382,0,0,0-.382.382v1.689a.382.382,0,0,0,.382.382H51.77a.382.382,0,0,0,.382-.382V348.28A.382.382,0,0,0,51.77,347.9Zm-.382,1.689h-.924v-.924h.924Z" transform="translate(-49.699 -347.898)" fill="#484848"/>
    </g>
  </g>
  <g id="Group_114" data-name="Group 114" transform="translate(20.27 17.736)">
    <g id="Group_113" data-name="Group 113">
      <path id="Path_68" data-name="Path 68" d="M416.238,347.9h-1.689a.382.382,0,0,0-.382.382v1.689a.382.382,0,0,0,.382.382h1.689a.382.382,0,0,0,.382-.382V348.28A.382.382,0,0,0,416.238,347.9Zm-.382,1.689h-.924v-.924h.924Z" transform="translate(-414.167 -347.898)" fill="#484848"/>
    </g>
  </g>
</svg>
