<svg xmlns="http://www.w3.org/2000/svg" width="18.947" height="18" viewBox="0 0 18.947 18">
  <path id="ic_airline_seat_recline_extra_24px" d="M5.174,5.449a1.9,1.9,0,1,1,2.643-.464,1.907,1.907,0,0,1-2.643.464Zm10.09,12.657h-6.7a2.834,2.834,0,0,1-2.8-2.406L3.895,6.737H2l1.885,9.247A4.746,4.746,0,0,0,8.575,20h6.689Zm.218-3.79H10.858l-.976-3.884a7.33,7.33,0,0,0,4.879,1.156V9.57a5.773,5.773,0,0,1-4.443-1.184l-1.554-1.2a2.143,2.143,0,0,0-.72-.36,2.093,2.093,0,0,0-.938-.057H7.088A2.148,2.148,0,0,0,5.344,9.238l1.279,5.609a2.85,2.85,0,0,0,2.795,2.312h6.49L19.527,20l1.421-1.421Z" transform="translate(-2 -2)" fill="#484848"/>
</svg>
