<svg id="_010---Life-Insurance" data-name="010---Life-Insurance" xmlns="http://www.w3.org/2000/svg" width="26.104" height="26.102" viewBox="0 0 26.104 26.102">
  <path id="Shape" d="M26.839,2.666,20.748.035a.432.432,0,0,0-.345,0l-6.09,2.631a.435.435,0,0,0-.261.4V6.739A6.824,6.824,0,0,0,12.31,8.506,6.3,6.3,0,0,0,7.071,5.655C3.326,5.655,1,8.166,1,12.206A8.178,8.178,0,0,0,1.9,16.1h-.47a.435.435,0,0,0,0,.87H2.44a14.666,14.666,0,0,0,2.006,2.206c.245.232.483.458.706.683,1.6,1.626,6.659,5.96,6.873,6.142a.435.435,0,0,0,.566,0c.215-.184,5.27-4.516,6.873-6.142.222-.225.461-.451.706-.683a13.772,13.772,0,0,0,2.149-2.4,7.559,7.559,0,0,0,1.068-2.5l1.846-1.314a4.43,4.43,0,0,0,1.866-3.6V3.065A.435.435,0,0,0,26.839,2.666Zm-24.97,9.54c0-3.558,1.945-5.681,5.2-5.681a5.539,5.539,0,0,1,4.846,3.021.437.437,0,0,0,.781,0,5.909,5.909,0,0,1,1.351-1.706V9.357a4.43,4.43,0,0,0,1.866,3.6l.407.29-.856,2.85H14.049a.435.435,0,0,0-.389.241L13,17.662l-.692-5.535a.435.435,0,0,0-.848-.071L10.245,16.1H8.829a.435.435,0,0,0-.348.174l-.684.914L7.083,12.55a.435.435,0,0,0-.842-.071L5.035,16.1H2.9A7.21,7.21,0,0,1,1.868,12.206Zm19.726,4.085a12.924,12.924,0,0,1-2.021,2.249c-.253.239-.5.472-.727.7-1.365,1.383-5.427,4.893-6.538,5.848-1.111-.957-5.173-4.466-6.538-5.848-.229-.232-.474-.465-.727-.7a17.058,17.058,0,0,1-1.521-1.575H5.349a.435.435,0,0,0,.412-.3L6.5,14.46l.6,3.877a.435.435,0,0,0,.778.195l1.175-1.566h1.523a.435.435,0,0,0,.417-.31l.714-2.375.614,4.916a.435.435,0,0,0,.358.375.472.472,0,0,0,.072,0,.435.435,0,0,0,.389-.241l1.185-2.37h1.471a.435.435,0,0,0,.417-.31l.726-2.414.6,4.521a.435.435,0,0,0,.8.167l1.305-2.175a.435.435,0,1,0-.746-.448l-.665,1.108-.413-3.1,2.306,1.641a.776.776,0,0,0,.9,0l1.2-.851A6.8,6.8,0,0,1,21.594,16.291ZM26.23,9.357a3.558,3.558,0,0,1-1.5,2.89L20.574,15.2l-4.155-2.958a3.558,3.558,0,0,1-1.5-2.889V3.352L20.574.908,26.23,3.352Z" transform="translate(-0.997 0)" fill="#484848"/>
  <path id="Shape-2" data-name="Shape" d="M39.611,4.392l-4.35,1.879a.435.435,0,0,0-.261.4v5.147A2.688,2.688,0,0,0,36.135,14l3.4,2.419a.435.435,0,0,0,.5,0L43.436,14a2.689,2.689,0,0,0,1.135-2.181V6.67a.435.435,0,0,0-.261-.4l-4.35-1.879A.435.435,0,0,0,39.611,4.392ZM43.7,6.958v4.859a1.817,1.817,0,0,1-.77,1.473L39.785,15.53,36.64,13.29a1.816,1.816,0,0,1-.77-1.473V6.956l3.915-1.691Z" transform="translate(-20.208 -2.461)" fill="#484848"/>
  <path id="Shape-3" data-name="Shape" d="M39.7,15.135a.435.435,0,0,0-.522.7l1.74,1.305a.435.435,0,0,0,.6-.076L45,12.71a.435.435,0,0,0-.68-.543L41.1,16.187Z" transform="translate(-22.468 -6.783)" fill="#484848"/>
</svg>
