<svg xmlns="http://www.w3.org/2000/svg" width="23.102" height="23.102" viewBox="0 0 23.102 23.102">
  <g id="air-freight_3_" data-name="air-freight (3)" transform="translate(0.001)">
    <path id="Path_48" data-name="Path 48" d="M238.569,254.491a.965.965,0,1,0,1.365,0A.964.964,0,0,0,238.569,254.491Zm0,0" transform="translate(-228.033 -243.291)" fill="#484848"/>
    <path id="Path_49" data-name="Path 49" d="M18.058,1.821a51.5,51.5,0,0,0-3.731,3.626l-1.646-.268.755-.755a1.354,1.354,0,0,0-1.914-1.914L9.388,4.643,1.926,3.428A1.522,1.522,0,0,0,.788,6.164l7.436,5.385L6.833,12.942a11.322,11.322,0,0,0-1.5,1.953l-3.468-1.02a1.458,1.458,0,0,0-1.241,2.6l2.843,1.968c-.495,1.092-.8,1.882-.81,1.919a.451.451,0,0,0,.582.582c.036-.014.826-.315,1.918-.81L7.13,22.975a1.458,1.458,0,0,0,2.6-1.242l-1.02-3.468a11.329,11.329,0,0,0,1.953-1.5l1.392-1.392,5.385,7.436a1.523,1.523,0,0,0,2.736-1.138l-1.215-7.462,2.134-2.134a1.354,1.354,0,0,0-1.914-1.915l-.756.755-.268-1.646A51.517,51.517,0,0,0,21.78,5.547l0,0c1.392-1.8,1.717-3.625.81-4.533s-2.729-.582-4.534.811Zm-5.9,1.326a.451.451,0,0,1,.638.638L11.583,5l-1.1-.179ZM1.318,5.433a.62.62,0,0,1,.463-1.114L13.54,6.233,8.871,10.9Zm-.253,9.448a.556.556,0,0,1,.55-.14l3.244.954c-.332.581-.666,1.223-1,1.917l-2.716-1.88a.556.556,0,0,1-.077-.85Zm7.657,7.657a.556.556,0,0,1-.85-.077l-1.88-2.717c.7-.334,1.337-.669,1.917-1l.954,3.243a.556.556,0,0,1-.14.55ZM19.817,10.8a.451.451,0,0,1,.638.638l-1.674,1.674-.179-1.1Zm-.534,11.017a.62.62,0,0,1-1.114.464L12.7,14.732l4.669-4.669Zm-9.26-5.689a11.363,11.363,0,0,1-2.16,1.594A33.432,33.432,0,0,1,3.905,19.7a33,33,0,0,1,2.015-4.031,11.17,11.17,0,0,1,1.55-2.087c11.022-11,10.369-10.428,11.038-10.963a2.343,2.343,0,0,1,1.85.628,2.343,2.343,0,0,1,.628,1.85c-.536.67.024.024-10.963,11.038ZM21.758,3.908a2.978,2.978,0,0,0-2.064-2.064c.653-.331,1.753-.7,2.259-.2.4.4.3,1.281-.2,2.26Zm0,0" transform="translate(0 -0.501)" fill="#484848"/>
    <path id="Path_50" data-name="Path 50" d="M269.59,197.923l-2.729,2.729a.965.965,0,0,0,1.365,1.365l2.729-2.729a.965.965,0,0,0-1.365-1.365Zm0,0" transform="translate(-255.976 -189.8)" fill="#484848"/>
    <path id="Path_51" data-name="Path 51" d="M326.152,141.353l-2.73,2.73a.965.965,0,1,0,1.365,1.365l2.73-2.73a.965.965,0,1,0-1.365-1.365Zm0,0" transform="translate(-310.288 -135.48)" fill="#484848"/>
  </g>
</svg>
