<svg xmlns="http://www.w3.org/2000/svg" xmlns:xlink="http://www.w3.org/1999/xlink" width="23.681" height="32.581" viewBox="0 0 23.681 32.581">
  <defs>
    <clipPath id="clip-path">
      <rect width="23.681" height="32.581" fill="none"/>
    </clipPath>
  </defs>
  <g id="passport_2_" data-name="passport (2)" clip-path="url(#clip-path)">
    <g id="Group_116" data-name="Group 116" transform="translate(0 0)">
      <g id="Group_115" data-name="Group 115">
        <path id="Path_69" data-name="Path 69" d="M92.988.429A1.784,1.784,0,0,0,91.551.021L71.684,3.131a.635.635,0,0,0-.2.068,2.113,2.113,0,0,0-1.55,2.033V30.472a2.112,2.112,0,0,0,2.109,2.109H88.732A1.787,1.787,0,0,0,90.518,30.8V29.47l1.59-.253a1.778,1.778,0,0,0,1.5-1.763V1.785A1.783,1.783,0,0,0,92.988.429ZM89.245,28.384V30.8a.513.513,0,0,1-.513.513H72.041a.837.837,0,0,1-.837-.837V5.233a.837.837,0,0,1,.837-.837H88.732a.513.513,0,0,1,.513.513Zm3.1-.93h0a.511.511,0,0,1-.432.506l-1.39.221V4.909a1.787,1.787,0,0,0-1.785-1.785h-8.77L91.748,1.279a.513.513,0,0,1,.592.506V27.454Z" transform="translate(-69.932 0)" fill="#484848"/>
      </g>
    </g>
    <g id="Group_118" data-name="Group 118" transform="translate(3.137 5.452)">
      <g id="Group_117" data-name="Group 117" transform="translate(0)">
        <path id="Path_70" data-name="Path 70" d="M133.071,90.28c-.031-.081-.064-.164-.1-.245a.636.636,0,1,0-1.172.5c.028.067.055.134.081.2A5.893,5.893,0,0,1,130.9,96.6l-4.518,5.417L121.866,96.6a5.884,5.884,0,0,1,6.708-9.231.636.636,0,0,0,.473-1.182,7.157,7.157,0,0,0-8.158,11.227l5.007,6a.636.636,0,0,0,.977,0l5.007-6A7.168,7.168,0,0,0,133.071,90.28Z" transform="translate(-119.228 -85.673)" fill="#484848"/>
      </g>
    </g>
    <g id="Group_120" data-name="Group 120" transform="translate(5.623 24.799)">
      <g id="Group_119" data-name="Group 119" transform="translate(0)">
        <path id="Path_71" data-name="Path 71" d="M167,389.7h-8.068a.636.636,0,1,0,0,1.273H167a.636.636,0,1,0,0-1.273Z" transform="translate(-158.292 -389.704)" fill="#484848"/>
      </g>
    </g>
    <g id="Group_122" data-name="Group 122" transform="translate(16.364 27.83)">
      <g id="Group_121" data-name="Group 121" transform="translate(0)">
        <path id="Path_72" data-name="Path 72" d="M328.341,437.847a.6.6,0,0,0-.036-.119.628.628,0,0,0-.059-.11.618.618,0,0,0-.176-.176.633.633,0,0,0-.11-.059.592.592,0,0,0-.119-.036.627.627,0,0,0-.249,0,.617.617,0,0,0-.119.036.65.65,0,0,0-.109.059.608.608,0,0,0-.1.079.643.643,0,0,0-.08.1.626.626,0,0,0-.059.11.644.644,0,0,0-.036.119.643.643,0,0,0,0,.248.664.664,0,0,0,.036.12.647.647,0,0,0,.059.109l.012.016a.651.651,0,0,0,.068.081.619.619,0,0,0,.206.137.676.676,0,0,0,.119.037.624.624,0,0,0,.368-.037.624.624,0,0,0,.11-.058.643.643,0,0,0,.1-.08.611.611,0,0,0,.079-.1.649.649,0,0,0,.059-.109c.007-.018.013-.036.019-.054a.665.665,0,0,0,.017-.066.61.61,0,0,0,0-.248Z" transform="translate(-327.081 -437.335)" fill="#484848"/>
      </g>
    </g>
    <g id="Group_124" data-name="Group 124" transform="translate(2.95 27.829)">
      <g id="Group_123" data-name="Group 123">
        <path id="Path_73" data-name="Path 73" d="M127.774,437.331H116.921a.636.636,0,1,0,0,1.273h10.853a.636.636,0,1,0,0-1.273Z" transform="translate(-116.285 -437.331)" fill="#484848"/>
      </g>
    </g>
    <g id="Group_126" data-name="Group 126" transform="translate(5.601 8.144)">
      <g id="Group_125" data-name="Group 125" transform="translate(0)">
        <path id="Path_74" data-name="Path 74" d="M167.333,132.671s0-.007,0-.011a4.7,4.7,0,0,0-4.674-4.679h-.018a4.7,4.7,0,0,0-4.692,4.692s0,0,0,.006,0,.01,0,.015a4.692,4.692,0,0,0,9.383-.021Zm-8.083-.431a3.428,3.428,0,0,1,2.418-2.844,10.742,10.742,0,0,0-.509,3.287A9.381,9.381,0,0,1,159.25,132.24Zm.1,1.368a10.626,10.626,0,0,0,1.886.364,10.712,10.712,0,0,0,.435,1.98A3.432,3.432,0,0,1,159.353,133.607Zm3.711,2.458a9.422,9.422,0,0,1-.534-2.043,10.7,10.7,0,0,0,2.017-.236l1.416-.3A3.427,3.427,0,0,1,163.063,136.065Zm1.216-3.524a9.42,9.42,0,0,1-1.847.209,9.451,9.451,0,0,1,.625-3.47,3.426,3.426,0,0,1,2.965,2.887Z" transform="translate(-157.949 -127.981)" fill="#484848"/>
      </g>
    </g>
    <g id="Group_128" data-name="Group 128" transform="translate(14.267 7.363)">
      <g id="Group_127" data-name="Group 127" transform="translate(0)">
        <path id="Path_75" data-name="Path 75" d="M295.391,116.223a.677.677,0,0,0-.036-.119.644.644,0,0,0-.059-.109.608.608,0,0,0-.079-.1.627.627,0,0,0-.207-.138.642.642,0,0,0-.119-.036.628.628,0,0,0-.249,0,.643.643,0,0,0-.119.036.682.682,0,0,0-.11.059.722.722,0,0,0-.1.08.646.646,0,0,0-.137.206.674.674,0,0,0-.036.119.633.633,0,0,0-.012.125.626.626,0,0,0,.012.124.645.645,0,0,0,.036.119.629.629,0,0,0,.059.11.646.646,0,0,0,.079.1.672.672,0,0,0,.1.079.682.682,0,0,0,.11.059.646.646,0,0,0,.244.049.627.627,0,0,0,.124-.013.642.642,0,0,0,.119-.036.682.682,0,0,0,.11-.059.639.639,0,0,0,.1-.079.609.609,0,0,0,.079-.1.629.629,0,0,0,.059-.11.647.647,0,0,0,.036-.119.627.627,0,0,0,.013-.124A.633.633,0,0,0,295.391,116.223Z" transform="translate(-294.131 -115.711)" fill="#484848"/>
      </g>
    </g>
  </g>
</svg>
