<svg xmlns="http://www.w3.org/2000/svg" width="15.199" height="18.101" viewBox="0 0 15.199 18.101">
  <g id="visa_2_" data-name="visa (2)" transform="translate(-16.996 0.051)">
    <g id="Group_608" data-name="Group 608" transform="translate(20.418 0)">
      <g id="Group_607" data-name="Group 607">
        <path id="Path_227" data-name="Path 227" d="M67.425,1.278,58.143.01a1.127,1.127,0,0,0-1.267.963l-.2,1.482a.29.29,0,0,0,.576.079l.2-1.482a.545.545,0,0,1,.613-.466l9.281,1.268a.545.545,0,0,1,.466.613l-1.819,13.31a.546.546,0,0,1-.613.466l-.62-.085a.29.29,0,1,0-.079.575l.62.085a1.124,1.124,0,0,0,1.267-.963l1.819-13.31A1.127,1.127,0,0,0,67.425,1.278Z" transform="translate(-56.671 0)" fill="#484848" stroke="#484848" stroke-width="0.1"/>
      </g>
    </g>
    <g id="Group_610" data-name="Group 610" transform="translate(17.046 2.315)">
      <g id="Group_609" data-name="Group 609">
        <path id="Path_228" data-name="Path 228" d="M27.539,27.2H18.171a1.127,1.127,0,0,0-1.125,1.125V41.765a1.127,1.127,0,0,0,1.125,1.125h9.368a1.127,1.127,0,0,0,1.125-1.125V28.33A1.127,1.127,0,0,0,27.539,27.2Zm.545,14.56a.545.545,0,0,1-.544.544H18.171a.545.545,0,0,1-.544-.544V28.33a.545.545,0,0,1,.544-.544h9.368a.545.545,0,0,1,.544.544V41.765Z" transform="translate(-17.046 -27.205)" fill="#484848" stroke="#484848" stroke-width="0.1"/>
      </g>
    </g>
    <g id="Group_612" data-name="Group 612" transform="translate(19.37 14.224)">
      <g id="Group_611" data-name="Group 611" transform="translate(0)">
        <path id="Path_229" data-name="Path 229" d="M50.743,167.153h-6.1a.29.29,0,1,0,0,.581h6.1a.29.29,0,1,0,0-.581Z" transform="translate(-44.353 -167.153)" fill="#484848" stroke="#484848" stroke-width="0.1"/>
      </g>
    </g>
    <g id="Group_614" data-name="Group 614" transform="translate(19.37 15.676)">
      <g id="Group_613" data-name="Group 613" transform="translate(0)">
        <path id="Path_230" data-name="Path 230" d="M47.839,184.22h-3.2a.29.29,0,1,0,0,.581h3.2a.29.29,0,1,0,0-.581Z" transform="translate(-44.353 -184.22)" fill="#484848" stroke="#484848" stroke-width="0.1"/>
      </g>
    </g>
    <g id="Group_616" data-name="Group 616" transform="translate(17.917 5.219)">
      <g id="Group_615" data-name="Group 615">
        <path id="Path_231" data-name="Path 231" d="M36.872,61.34H27.577a.291.291,0,0,0-.29.29V67.44a.291.291,0,0,0,.29.29h9.295a.29.29,0,0,0,.29-.29V61.63A.291.291,0,0,0,36.872,61.34Zm-.29,5.809H27.868V61.921h8.714Z" transform="translate(-27.287 -61.34)" fill="#484848" stroke="#484848" stroke-width="0.1"/>
      </g>
    </g>
    <g id="Group_618" data-name="Group 618" transform="translate(17.917 5.219)">
      <g id="Group_617" data-name="Group 617">
        <path id="Path_232" data-name="Path 232" d="M31.644,61.34H27.577a.291.291,0,0,0-.29.29v3.486a.291.291,0,0,0,.29.29h4.066a.29.29,0,0,0,.29-.29V61.63A.291.291,0,0,0,31.644,61.34Zm-.29,3.486H27.868v-2.9h3.486Z" transform="translate(-27.287 -61.34)" fill="#484848" stroke="#484848" stroke-width="0.1"/>
      </g>
    </g>
    <g id="Group_620" data-name="Group 620" transform="translate(18.789 6.118)">
      <g id="Group_619" data-name="Group 619">
        <path id="Path_233" data-name="Path 233" d="M39.9,72.759a.29.29,0,0,0-.276-.2H39.4a.348.348,0,0,1-.332-.241L39,72.1a.29.29,0,0,0-.552,0l-.069.213a.348.348,0,0,1-.332.241h-.224a.29.29,0,0,0-.171.525l.181.132a.348.348,0,0,1,.127.39l-.069.213a.29.29,0,0,0,.447.325l.182-.132a.348.348,0,0,1,.411,0l.181.132a.29.29,0,0,0,.447-.325l-.069-.213a.348.348,0,0,1,.127-.39l.181-.132A.291.291,0,0,0,39.9,72.759Zm-1,.621a.933.933,0,0,0-.347,0,.926.926,0,0,0-.107-.33.927.927,0,0,0,.28-.2.928.928,0,0,0,.28.2A.928.928,0,0,0,38.892,73.38Z" transform="translate(-37.527 -71.903)" fill="#484848" stroke="#484848" stroke-width="0.1"/>
      </g>
    </g>
    <g id="Group_622" data-name="Group 622" transform="translate(21.984 6.381)">
      <g id="Group_621" data-name="Group 621">
        <path id="Path_234" data-name="Path 234" d="M80.592,74.993H75.363a.29.29,0,1,0,0,.581h5.228a.29.29,0,0,0,0-.581Z" transform="translate(-75.073 -74.993)" fill="#484848" stroke="#484848" stroke-width="0.1"/>
      </g>
    </g>
    <g id="Group_624" data-name="Group 624" transform="translate(21.984 7.543)">
      <g id="Group_623" data-name="Group 623">
        <path id="Path_235" data-name="Path 235" d="M80.592,88.647H75.363a.29.29,0,1,0,0,.581h5.228a.29.29,0,1,0,0-.581Z" transform="translate(-75.073 -88.647)" fill="#484848" stroke="#484848" stroke-width="0.1"/>
      </g>
    </g>
    <g id="Group_626" data-name="Group 626" transform="translate(21.984 8.705)">
      <g id="Group_625" data-name="Group 625">
        <path id="Path_236" data-name="Path 236" d="M80.592,102.3H75.363a.29.29,0,1,0,0,.581h5.228a.29.29,0,1,0,0-.581Z" transform="translate(-75.073 -102.3)" fill="#484848" stroke="#484848" stroke-width="0.1"/>
      </g>
    </g>
    <g id="Group_628" data-name="Group 628" transform="translate(17.917 9.867)">
      <g id="Group_627" data-name="Group 627">
        <path id="Path_237" data-name="Path 237" d="M36.872,115.953H27.577a.29.29,0,1,0,0,.581h9.295a.29.29,0,1,0,0-.581Z" transform="translate(-27.287 -115.953)" fill="#484848" stroke="#484848" stroke-width="0.1"/>
      </g>
    </g>
  </g>
</svg>
