<svg xmlns="http://www.w3.org/2000/svg" xmlns:xlink="http://www.w3.org/1999/xlink" width="149.535" height="149.535" viewBox="0 0 149.535 149.535"><defs><clipPath id="a"><rect width="149.536" height="149.536" fill="none"/></clipPath></defs><g clip-path="url(#a)"><rect width="149.536" height="149.536" rx="5" fill="none" opacity="0.8"/><g transform="translate(20.119 20.561)"><path d="M108.881,97.486a6.628,6.628,0,0,0,2.03-4.814c0-.017,0-.034,0-.051a6.512,6.512,0,0,0-6.655-6.351l-3.052.071c.011-.158.015-.317.012-.477l-.856-37.008a4.819,4.819,0,0,0-4.922-4.7l-11.049.256-.05-2.168a6.517,6.517,0,0,0-6.654-6.351l-24.635.57A6.512,6.512,0,0,0,46.7,43.116l.05,2.168L35.7,45.54a4.8,4.8,0,0,0-.482.035l-.347-14.681,26.26-2.317a2.167,2.167,0,0,0,1.978-2.16V12.131a2.168,2.168,0,0,0-2.168-2.168h-24.6A8.782,8.782,0,0,0,23.785,4.458L8.056.678A6.544,6.544,0,0,0,.189,5.47a6.492,6.492,0,0,0,4.782,7.853L20.7,17.1a8.833,8.833,0,0,0,.748.917l.179,7.558a2.168,2.168,0,0,0,2.167,2.117h.053a2.169,2.169,0,0,0,2.117-2.219l-.117-4.906a8.8,8.8,0,0,0,2.016.235l.208,0a8.878,8.878,0,0,0,2.212-.334L31.857,86.96a11.846,11.846,0,0,0-1.373-.084,11.586,11.586,0,0,0-3.057.412L26.375,42.816a2.168,2.168,0,0,0-4.336.1l1.1,46.589a11.341,11.341,0,0,0-4.164,8.769A11.515,11.515,0,0,0,41.7,100.822l55.659-1.37a7.043,7.043,0,0,0-.713,3.095,7.185,7.185,0,0,0,14.369,0,7.079,7.079,0,0,0-2.131-5.061ZM104.355,90.6a2.166,2.166,0,0,1,2.22,2.094,2.209,2.209,0,0,1-2.118,2.242L41.845,96.481a11.268,11.268,0,0,0-1.7-4.391ZM95.536,48.492a.484.484,0,0,1,.487.465l.856,37.008a.483.483,0,0,1-.464.486l-11.05.256L85.322,84.8a2.168,2.168,0,0,0-4.336.1l.044,1.906-28.97.671-.879-37.959,28.971-.671.433,18.713a2.168,2.168,0,0,0,4.336-.1l-.434-18.712ZM51.03,43.016A2.171,2.171,0,0,1,53.148,40.8l24.635-.57A2.18,2.18,0,0,1,80,42.345l.051,2.167-28.971.671Zm-15.7,7.346a.483.483,0,0,1,.465-.487l11.049-.256.878,37.959-11.508.266-.886-37.409c0-.025,0-.048,0-.073ZM36.337,14.3h8.289V25.68l-9.862.87-.209-8.832A8.58,8.58,0,0,0,36.337,14.3ZM58.768,24.431l-9.807.866v-11h9.807ZM4.655,8.133A2.13,2.13,0,0,1,4.4,6.5,2.2,2.2,0,0,1,7.043,4.895L20.15,8.044a8.563,8.563,0,0,0-1.028,4.219L5.984,9.107a2.129,2.129,0,0,1-1.33-.974Zm23.315,8.333a4.385,4.385,0,0,1-4.513-4.234,4.269,4.269,0,0,1,1.21-3.085,4.417,4.417,0,0,1,3.1-1.351h.106a4.382,4.382,0,0,1,4.408,4.236,4.271,4.271,0,0,1-1.209,3.085,4.416,4.416,0,0,1-3.1,1.35ZM37.445,96.59l-14,.345a7.191,7.191,0,0,1,14-.345Zm-6.961,8.748a7.183,7.183,0,0,1-6.5-4.08l13.135-.323A7.18,7.18,0,0,1,30.484,105.338Zm73.343,0a2.792,2.792,0,1,1,2.848-2.792A2.823,2.823,0,0,1,103.827,105.338Zm0,0" transform="translate(0 -0.498)" fill="#0FACF3"/><path d="M102.868,150.254c.046,0,.091,0,.137,0a2.169,2.169,0,0,0,2.029-2.3v0a2.168,2.168,0,1,0-2.166,2.306Zm0,0" transform="translate(-78.868 -114.386)" fill="#0FACF3"/><path d="M374.758,339.555a2.169,2.169,0,1,0,2.168,2.169v0A2.167,2.167,0,0,0,374.758,339.555Zm0,0" transform="translate(-291.805 -266.04)" fill="#0FACF3"/></g></g></svg>