<svg xmlns="http://www.w3.org/2000/svg" xmlns:xlink="http://www.w3.org/1999/xlink" width="149.535" height="149.535" viewBox="0 0 149.535 149.535"><defs><clipPath id="a"><rect width="149.536" height="149.536" fill="none"/></clipPath></defs><g clip-path="url(#a)"><rect width="149.536" height="149.536" rx="5" fill="none" opacity="0.8"/><g transform="translate(19.922 20.561)"><path d="M239.624,255.546a4.56,4.56,0,1,0,6.449,0A4.556,4.556,0,0,0,239.624,255.546Zm0,0" transform="translate(-189.828 -202.613)" fill="#0FACF3"/><path d="M85.342,6.739c-3.659,2.833-4.656,4.293-17.634,17.136l-7.78-1.267,3.57-3.57a6.4,6.4,0,1,0-9.047-9.047L44.368,20.075,9.1,14.334A7.195,7.195,0,0,0,3.728,27.262l35.143,25.45-6.579,6.58a53.507,53.507,0,0,0-7.067,9.228L8.836,63.7A6.892,6.892,0,0,0,2.969,75.981l13.435,9.3c-2.339,5.162-3.761,8.894-3.827,9.067a2.132,2.132,0,0,0,2.75,2.75c.172-.065,3.9-1.488,9.067-3.827l9.3,13.436a6.892,6.892,0,0,0,12.278-5.867L41.157,84.453a53.541,53.541,0,0,0,9.228-7.067l6.58-6.58,25.449,35.143a7.2,7.2,0,0,0,12.929-5.376L89.6,65.31,99.685,55.227a6.4,6.4,0,0,0-9.046-9.048l-3.571,3.57L85.8,41.969C98.658,28.978,100.1,28,102.93,24.345l.011-.014c6.577-8.524,8.116-17.132,3.827-21.423S93.869.159,85.342,6.739ZM57.466,13.008a2.132,2.132,0,0,1,3.017,3.014l-5.742,5.742-5.187-.845ZM6.228,23.807a2.93,2.93,0,0,1,2.19-5.264l55.574,9.048L41.925,49.658Zm-1.2,44.65a2.628,2.628,0,0,1,2.6-.664L22.962,72.3c-1.568,2.745-3.149,5.778-4.727,9.061L5.4,72.475a2.628,2.628,0,0,1-.364-4.018Zm36.188,36.187a2.629,2.629,0,0,1-4.019-.363L28.316,91.442c3.285-1.579,6.319-3.162,9.061-4.726l4.507,15.328a2.628,2.628,0,0,1-.662,2.6Zm52.433-55.45a2.132,2.132,0,0,1,3.014,3.017l-7.912,7.911-.844-5.187Zm-2.521,52.063a2.93,2.93,0,0,1-5.264,2.192l-25.85-35.7L82.086,45.685ZM47.37,74.37A53.7,53.7,0,0,1,37.163,81.9a158,158,0,0,1-18.706,9.318,155.978,155.978,0,0,1,9.525-19.048,52.79,52.79,0,0,1,7.326-9.865C87.4,10.345,84.309,13.025,87.47,10.5a11.073,11.073,0,0,1,8.743,2.966,11.075,11.075,0,0,1,2.967,8.743c-2.534,3.169.115.112-51.81,52.164ZM102.829,16.6a14.073,14.073,0,0,0-9.754-9.755c3.086-1.565,8.283-3.318,10.678-.925,1.891,1.892,1.421,6.056-.924,10.679Zm0,0" transform="translate(0 -0.501)" fill="#0FACF3"/><path d="M280.811,198.976l-12.9,12.9a4.561,4.561,0,1,0,6.45,6.45l12.9-12.9a4.56,4.56,0,0,0-6.449-6.449Zm0,0" transform="translate(-216.473 -160.586)" fill="#0FACF3"/><path d="M337.377,142.406l-12.9,12.9a4.561,4.561,0,0,0,6.45,6.45l12.9-12.9a4.56,4.56,0,1,0-6.449-6.45Zm0,0" transform="translate(-262.405 -114.65)" fill="#0FACF3"/></g></g></svg>