<svg xmlns="http://www.w3.org/2000/svg" xmlns:xlink="http://www.w3.org/1999/xlink" width="149.535" height="149.535" viewBox="0 0 149.535 149.535"><defs><clipPath id="a"><rect width="149.536" height="149.536" fill="none"/></clipPath></defs><g clip-path="url(#a)"><rect width="149.536" height="149.536" rx="5" fill="none" opacity="0.8"/><g transform="translate(25.158 25.322)"><path d="M95.84,11.559,49.952.087a2.864,2.864,0,0,0-1.391,0L2.673,11.559A2.867,2.867,0,0,0,.5,14.341V83.555a2.867,2.867,0,0,0,2.173,2.782L48.561,97.81c.013,0,.027,0,.04.007.08.019.161.034.244.046.028,0,.055.01.083.013a2.677,2.677,0,0,0,.656,0c.028,0,.055-.008.083-.013.083-.012.164-.027.244-.046.013,0,.027,0,.04-.007L95.84,86.338a2.867,2.867,0,0,0,2.173-2.782V14.341a2.867,2.867,0,0,0-2.173-2.782Zm-89.6,6.455L46.388,28.052v5.56L6.236,23.574Zm86.04,5.56L52.124,33.612v-5.56L92.276,18.014ZM6.236,29.486,46.388,39.524v5.56L6.236,35.046ZM52.124,39.524,92.276,29.486v5.56L52.124,45.084Zm-2.868-33.7,34.063,8.516L49.256,22.857,15.194,14.341ZM6.236,40.958,46.388,51V91.354L38.74,89.442V66.825a2.867,2.867,0,0,0-2.173-2.782l-19.12-4.78a2.867,2.867,0,0,0-3.563,2.782V83.228L6.236,81.316Zm13.384,43.7V65.718L33,69.064V88.008Zm32.5,6.692V51L92.276,40.958V81.316Zm0,0" transform="translate(-0.5 -0.001)" fill="#0FACF3"/></g></g></svg>