<svg xmlns="http://www.w3.org/2000/svg" xmlns:xlink="http://www.w3.org/1999/xlink" width="149.535" height="149.535" viewBox="0 0 149.535 149.535"><defs><clipPath id="a"><rect width="149.536" height="149.536" fill="none"/></clipPath></defs><g clip-path="url(#a)"><rect width="149.536" height="149.536" rx="5" fill="none" opacity="0.8"/><g transform="translate(32.842 20.561)"><path d="M147.191,1.437A5.978,5.978,0,0,0,142.377.072L75.8,10.493a2.127,2.127,0,0,0-.677.229,7.079,7.079,0,0,0-5.194,6.814v84.573A7.076,7.076,0,0,0,77,109.176h55.931a5.989,5.989,0,0,0,5.983-5.983V98.752l5.329-.848A5.956,5.956,0,0,0,149.284,92V5.983A5.974,5.974,0,0,0,147.191,1.437ZM134.649,95.113v8.081a1.72,1.72,0,0,1-1.718,1.718H77a2.806,2.806,0,0,1-2.8-2.8V17.536a2.806,2.806,0,0,1,2.8-2.8h55.931a1.72,1.72,0,0,1,1.718,1.718ZM145.02,92h0a1.711,1.711,0,0,1-1.448,1.7l-4.659.742V16.451a5.99,5.99,0,0,0-5.983-5.983H103.543l39.493-6.182a1.718,1.718,0,0,1,1.984,1.7V92Z" transform="translate(-69.932 0)" fill="#0FACF3"/><g transform="translate(10.512 18.269)"><g transform="translate(0)"><path d="M165.614,101.109c-.1-.273-.215-.549-.33-.82a2.132,2.132,0,1,0-3.926,1.664c.095.224.186.45.271.674a19.749,19.749,0,0,1-3.282,19.658l-15.139,18.152-15.14-18.152a19.718,19.718,0,0,1,22.477-30.931A2.132,2.132,0,1,0,152.13,87.4a23.982,23.982,0,0,0-27.337,37.622l16.777,20.115a2.133,2.133,0,0,0,3.275,0l16.777-20.115A24.019,24.019,0,0,0,165.614,101.109Z" transform="translate(-119.228 -85.673)" fill="#0FACF3"/></g></g><g transform="translate(18.841 83.099)"><g transform="translate(0)"><path d="M187.458,389.7H160.424a2.132,2.132,0,0,0,0,4.265h27.034a2.132,2.132,0,1,0,0-4.265Z" transform="translate(-158.292 -389.704)" fill="#0FACF3"/></g></g><g transform="translate(54.833 93.256)"><g transform="translate(0)"><path d="M331.3,439.051a2,2,0,0,0-.122-.4,2.094,2.094,0,0,0-.2-.369,2.068,2.068,0,0,0-.589-.588,2.1,2.1,0,0,0-.369-.2,1.994,1.994,0,0,0-.4-.122,2.1,2.1,0,0,0-.834,0,2.074,2.074,0,0,0-.4.122,2.161,2.161,0,0,0-.367.2,2.044,2.044,0,0,0-.324.264,2.169,2.169,0,0,0-.267.324,2.093,2.093,0,0,0-.2.369,2.151,2.151,0,0,0-.122.4,2.164,2.164,0,0,0,0,.832,2.232,2.232,0,0,0,.122.4,2.167,2.167,0,0,0,.2.367c.012.018.026.035.039.052a2.083,2.083,0,0,0,.552.538,2.125,2.125,0,0,0,.367.194,2.265,2.265,0,0,0,.4.124,2.146,2.146,0,0,0,.418.04,2.115,2.115,0,0,0,.416-.04,2.15,2.15,0,0,0,.4-.124,2.072,2.072,0,0,0,.369-.194,2.181,2.181,0,0,0,.324-.266,2.054,2.054,0,0,0,.264-.324,2.154,2.154,0,0,0,.2-.367c.024-.059.045-.119.065-.18s.042-.146.057-.221a2.053,2.053,0,0,0,0-.831Z" transform="translate(-327.081 -437.335)" fill="#0FACF3"/></g></g><g transform="translate(9.884 93.255)"><path d="M154.784,437.331H118.417a2.132,2.132,0,1,0,0,4.264h36.367a2.132,2.132,0,1,0,0-4.264Z" transform="translate(-116.285 -437.331)" fill="#0FACF3"/></g><g transform="translate(18.768 27.29)"><g transform="translate(0)"><path d="M189.393,143.7c0-.012,0-.024,0-.036a15.739,15.739,0,0,0-15.663-15.679h-.059A15.74,15.74,0,0,0,157.949,143.7c0,.007,0,.014,0,.02s0,.033,0,.049a15.721,15.721,0,0,0,31.443-.07S189.393,143.7,189.393,143.7Zm-27.084-1.445a11.486,11.486,0,0,1,8.1-9.53,35.992,35.992,0,0,0-1.7,11.013A31.444,31.444,0,0,1,162.309,142.251Zm.344,4.584a35.6,35.6,0,0,0,6.321,1.22,35.9,35.9,0,0,0,1.457,6.636A11.5,11.5,0,0,1,162.653,146.835Zm12.434,8.235a31.581,31.581,0,0,1-1.789-6.846,35.843,35.843,0,0,0,6.759-.792l4.746-1.019A11.483,11.483,0,0,1,175.087,155.07Zm4.074-11.808a31.574,31.574,0,0,1-6.189.7,31.672,31.672,0,0,1,2.094-11.628A11.48,11.48,0,0,1,185,142.007Z" transform="translate(-157.949 -127.981)" fill="#0FACF3"/></g></g><g transform="translate(47.807 24.674)"><g transform="translate(0)"><path d="M298.353,117.427a2.255,2.255,0,0,0-.122-.4,2.169,2.169,0,0,0-.2-.367,2.034,2.034,0,0,0-.264-.324,2.267,2.267,0,0,0-.324-.267,2.3,2.3,0,0,0-.369-.2,2.161,2.161,0,0,0-.4-.121,2.1,2.1,0,0,0-.833,0,2.149,2.149,0,0,0-.4.121,2.3,2.3,0,0,0-.369.2,2.427,2.427,0,0,0-.324.267,2.153,2.153,0,0,0-.461.691,2.229,2.229,0,0,0-.122.4,2.112,2.112,0,0,0-.041.418,2.087,2.087,0,0,0,.041.416,2.171,2.171,0,0,0,.317.768,2.18,2.18,0,0,0,.265.324,2.256,2.256,0,0,0,.324.264,2.3,2.3,0,0,0,.369.2,2.169,2.169,0,0,0,.817.164,2.091,2.091,0,0,0,.415-.043,2.147,2.147,0,0,0,.4-.121,2.306,2.306,0,0,0,.369-.2,2.117,2.117,0,0,0,.324-.264,2.039,2.039,0,0,0,.264-.324,2.111,2.111,0,0,0,.2-.369,2.152,2.152,0,0,0,.122-.4,2.1,2.1,0,0,0,.043-.416A2.119,2.119,0,0,0,298.353,117.427Z" transform="translate(-294.131 -115.711)" fill="#0FACF3"/></g></g></g></g></svg>