<?xml version="1.0" encoding="UTF-8"?>
<!DOCTYPE svg PUBLIC "-//W3C//DTD SVG 1.1//EN" "http://www.w3.org/Graphics/SVG/1.1/DTD/svg11.dtd">
<!-- Creator: CorelDRAW 2018 (64-Bit) -->
<svg xmlns="http://www.w3.org/2000/svg" xml:space="preserve" width="113.851mm" height="113.851mm" version="1.1" style="shape-rendering:geometricPrecision; text-rendering:geometricPrecision; image-rendering:optimizeQuality; fill-rule:evenodd; clip-rule:evenodd"
viewBox="0 0 223.83 223.83"
 xmlns:xlink="http://www.w3.org/1999/xlink">
 <defs>
  <style type="text/css">
   <![CDATA[
    .fil0 {fill:#FEFEFE}
    .fil4 {fill:#332C2B;fill-rule:nonzero}
    .fil2 {fill:#F0E900;fill-rule:nonzero}
    .fil3 {fill:#62B63C;fill-rule:nonzero}
    .fil1 {fill:#009349;fill-rule:nonzero}
   ]]>
  </style>
 </defs>
 <g id="Layer_x0020_1">
  <metadata id="CorelCorpID_0Corel-Layer"/>
  <rect class="fil0" x="-0" y="-0" width="223.83" height="223.83"/>
  <g id="_2467301004848">
   <g>
    <g>
     <path class="fil1" d="M47.48 82.95c0.1,-0.77 0.05,-1.28 -1.05,-1.58 -1.11,-0.28 -3.9,-0.75 -7.98,-0.75 -5.13,0 -13.28,1.81 -16.08,14.39 -2.79,12.58 -2.03,16.84 3.42,20.52 5.41,3.67 14.35,1.44 14.82,1.27 0.46,-0.18 0.87,-0.47 1.05,-1.17 0.18,-0.7 1.11,-5.71 1.16,-6.23 0.06,-0.53 -0.23,-0.99 -0.93,-0.93 -0.7,0.06 -3.84,0.47 -6.64,0.47 -2.79,0 -4.54,-1.28 -4.31,-4.03 0.24,-2.74 0.82,-6.41 1.28,-8.56 0.47,-2.16 2.04,-6.94 5.18,-7.05 3.14,-0.11 6.7,0.3 7.29,0.41 0.58,0.12 1.45,0 1.63,-0.7 0.18,-0.69 1.1,-5.53 1.17,-6.05z"/>
     <g>
      <path class="fil1" d="M62.5 89.58c0.07,-0.39 -0.2,-0.72 -0.6,-0.72l-8.06 0c-0.4,0 -0.78,0.32 -0.85,0.72l-4.73 26.79c-0.07,0.39 0.2,0.72 0.6,0.72l8.07 0c0.4,0 0.78,-0.32 0.85,-0.72l4.72 -26.79z"/>
     </g>
     <g>
      <path class="fil1" d="M53.69 85.5c-0.07,0.39 0.2,0.72 0.6,0.72l8.07 0c0.4,0 0.78,-0.32 0.85,-0.72l0.95 -5.36c0.07,-0.39 -0.2,-0.72 -0.6,-0.72l-8.07 0c-0.4,0 -0.78,0.32 -0.85,0.72l-0.95 5.36z"/>
     </g>
     <g>
      <path class="fil1" d="M102.35 89.58c0.07,-0.39 -0.2,-0.72 -0.6,-0.72l-8.07 0c-0.4,0 -0.78,0.32 -0.85,0.72l-4.72 26.79c-0.07,0.39 0.2,0.72 0.6,0.72l8.07 0c0.4,0 0.78,-0.32 0.85,-0.72l4.72 -26.79z"/>
     </g>
     <g>
      <path class="fil1" d="M120.9 80.25c0.08,-0.45 -0.23,-0.83 -0.69,-0.83l-7.84 0c-0.46,0 -0.91,0.37 -0.99,0.83l-6.35 36c-0.08,0.45 0.23,0.83 0.69,0.83l7.85 0c0.46,0 0.91,-0.37 0.99,-0.83l6.35 -36z"/>
     </g>
     <path class="fil1" d="M85.75 88.86l-6.31 0 0.96 -5.33c0.11,-0.62 -0.04,-1.25 -0.75,-1.13l-7.47 1.18c-0.74,0.24 -1.23,0.5 -1.34,1.12 0,0 -4.33,24.37 -4.37,24.62 -0.66,3.84 0.44,8.29 7.87,8.29 4.16,0 6.55,-0.51 6.55,-0.51 0.52,0 1.01,-0.41 1.09,-0.92l0.8 -4.56c0.09,-0.51 -0.26,-0.92 -0.77,-0.92 0,0 -1.6,0 -4.67,0 -0.51,0 -1.63,-0.03 -1.42,-1.19 0.15,-0.82 2.34,-13.64 2.34,-13.64l6.46 0c0.54,0 1.07,-0.44 1.16,-0.97l0.7 -5.05c0.09,-0.55 -0.27,-0.98 -0.83,-0.98z"/>
     <g>
      <path class="fil1" d="M93.55 85.5c-0.07,0.39 0.2,0.72 0.6,0.72l8.07 0c0.4,0 0.78,-0.32 0.85,-0.72l0.94 -5.36c0.07,-0.39 -0.2,-0.72 -0.6,-0.72l-8.07 0c-0.4,0 -0.78,0.32 -0.85,0.72l-0.94 5.36z"/>
     </g>
     <g>
      <path class="fil1" d="M136.33 89.58c0.07,-0.39 -0.2,-0.72 -0.6,-0.72l-8.07 0c-0.4,0 -0.78,0.32 -0.85,0.72l-4.73 26.79c-0.07,0.39 0.2,0.72 0.6,0.72l8.07 0c0.4,0 0.78,-0.32 0.85,-0.72l4.72 -26.79z"/>
     </g>
     <g>
      <path class="fil1" d="M127.54 85.5c-0.07,0.39 0.2,0.72 0.6,0.72l8.06 0c0.4,0 0.78,-0.32 0.85,-0.72l0.94 -5.36c0.07,-0.39 -0.2,-0.72 -0.6,-0.72l-8.07 0c-0.4,0 -0.78,0.32 -0.85,0.72l-0.94 5.36z"/>
     </g>
     <path class="fil1" d="M167.84 97.18c0.13,-3.87 -2.31,-8.67 -9.24,-8.67l-5.4 0c-1.55,0 -9.3,0.2 -10.93,9.83 -1.6,9.49 -2.08,11.53 -2.08,11.53l0.12 0 -1.12 6.39c-0.08,0.46 0.22,0.82 0.67,0.82l7.64 0c0.45,0 0.88,-0.36 0.96,-0.82l1.13 -6.39 0.12 0c0,0 0.96,-6.09 1.53,-9.36l0.25 -1.41c0.44,-2.4 1.48,-3.1 2.53,-3.1 1.05,0 2.1,0 2.97,0 0.87,0 1.8,0.72 1.43,2.51 -0.45,2.24 -0.64,3.69 -0.64,3.69l-2.48 14.07c-0.08,0.46 0.23,0.82 0.68,0.82l7.63 0c0.45,0 0.88,-0.36 0.97,-0.82l2.83 -16.07c0.1,-0.55 0.21,-1.18 0.33,-1.82l0 -0 0.15 -0.81c0.02,-0.13 0.01,-0.25 -0.03,-0.37z"/>
     <path class="fil1" d="M183.17 105.18l-0.14 0.85 0.31 -0.42c-0.05,-0.15 -0.11,-0.29 -0.16,-0.43z"/>
     <path class="fil1" d="M177.99 80.55l-0.13 0.76 1.42 -1.88c-0.61,0.03 -1.19,0.52 -1.29,1.12z"/>
     <path class="fil1" d="M202.16 88.78c-0.82,0 -8.27,0 -8.91,0 -0.64,0 -0.88,0.22 -1.28,0.82 -0.31,0.45 -5.5,7.07 -7.81,10.01l3.36 -19.06c0.03,-0.23 0,-0.44 -0.08,-0.62l-15.36 34.19 -0.32 1.84c-0.12,0.61 0.32,1.12 0.94,1.12l2.24 0 8.1 -11.05 0.14 -0.85c0.05,0.14 0.11,0.28 0.16,0.43l7.04 -9.62 -4.21 17.23c0.53,1.4 0.91,2.45 0.97,2.64 0.23,0.7 0.47,1.22 1.4,1.22 0.93,0 7.98,0 8.74,0 0.76,0 0.81,-0.64 0.46,-1.22 -0.34,-0.58 -6.11,-13.46 -6.11,-13.46 0,0 10.66,-12.23 11.18,-12.75 0.53,-0.53 0.12,-0.87 -0.64,-0.87z"/>
     <path class="fil2" d="M181.28 115.96l1.75 -9.93 -8.1 11.05 5.01 0c0.63,0 1.23,-0.51 1.34,-1.12z"/>
     <path class="fil2" d="M183.33 105.61c0.77,2.06 1.99,5.31 2.83,7.61l4.21 -17.23 -7.04 9.62z"/>
     <path class="fil3" d="M186.58 79.43l-7.24 0c-0.02,0 -0.04,0 -0.06,0l-1.42 1.88 -5.79 32.81 15.36 -34.19c-0.14,-0.3 -0.46,-0.5 -0.85,-0.5z"/>
    </g>
    <g>
     <g>
      <path class="fil4" d="M63.69 124.11c-0.23,0.3 -0.6,0.7 -1.12,1.2 -0.53,0.5 -0.89,0.88 -1.09,1.15 -0.2,0.27 -1.61,2.71 -4.22,7.32 -2.22,3.93 -3.57,5.89 -4.05,5.89 -0.42,0 -0.76,-0.12 -1.02,-0.35 -0.31,-0.25 -0.42,-0.58 -0.34,-1 0.05,-0.25 0.25,-0.56 0.6,-0.95 0.35,-0.38 0.79,-1.05 1.32,-2.01 0.39,-0.73 0.78,-1.45 1.17,-2.18 -0.78,-0.75 -1.38,-1.91 -1.79,-3.48 -0.72,-2.67 -0.98,-4.55 -0.76,-5.63 0.18,-0.91 0.67,-1.37 1.47,-1.37 0.93,0 1.29,0.54 1.07,1.63 -0.02,0.11 -0.07,0.28 -0.16,0.51 -0.08,0.23 -0.14,0.4 -0.16,0.53 -0.13,0.66 -0.03,1.71 0.3,3.13 0.34,1.5 0.75,2.36 1.22,2.58 0.26,-0.3 0.88,-1.21 1.85,-2.72 1.07,-1.67 1.89,-2.87 2.44,-3.6 0.93,-1.18 1.62,-1.78 2.09,-1.78 0.34,0 0.63,0.11 0.85,0.32 0.23,0.21 0.34,0.49 0.32,0.81z"/>
      <path class="fil4" d="M69.95 134.15c-0.28,1.42 -0.86,2.63 -1.76,3.64 -1.03,1.15 -2.21,1.73 -3.54,1.73 -1.36,0 -2.3,-0.47 -2.82,-1.42 -0.47,-0.84 -0.57,-1.98 -0.29,-3.41 0.28,-1.42 0.89,-2.76 1.83,-4.02 1.1,-1.5 2.29,-2.25 3.57,-2.25 0.41,0 0.87,0.18 1.4,0.54 1.53,1.06 2.06,2.79 1.6,5.19zm-2.04 -0.05l0 0c0.47,-2.42 0.13,-3.62 -1.02,-3.62 -0.82,0 -1.54,0.51 -2.16,1.54 -0.46,0.77 -0.78,1.65 -0.97,2.63 -0.41,2.1 -0,3.15 1.22,3.15 0.79,0 1.46,-0.43 2.02,-1.3 0.42,-0.66 0.72,-1.46 0.91,-2.39z"/>
      <path class="fil4" d="M79.86 130.36c-0.09,0.49 -0.3,1.23 -0.6,2.21 -0.31,0.99 -0.51,1.73 -0.61,2.24 -0.09,0.44 -0.19,1.1 -0.32,1.97 -0.14,0.88 -0.24,1.53 -0.32,1.96 -0.07,0.36 -0.41,0.54 -1.01,0.54 -0.62,0 -0.96,-0.31 -1,-0.92 -0.67,0.4 -1.28,0.59 -1.84,0.59 -0.45,0 -0.94,-0.12 -1.46,-0.37 -0.53,-0.24 -0.87,-0.54 -1.04,-0.89 -0.32,-0.66 -0.34,-1.73 -0.05,-3.2 0.1,-0.5 0.29,-1.39 0.56,-2.65 0.26,-1.12 0.45,-2 0.56,-2.63 0.53,-0.35 0.95,-0.52 1.26,-0.52 0.74,0 1.04,0.37 0.9,1.11 -0.05,0.25 -0.16,0.63 -0.32,1.13 -0.17,0.51 -0.28,0.88 -0.33,1.14l-0.65 3.33c-0.07,0.38 -0.05,0.78 0.07,1.19 0.16,0.48 0.41,0.71 0.74,0.71 0.67,0 1.25,-0.44 1.74,-1.3 0.33,-0.6 0.58,-1.32 0.75,-2.17l0.55 -2.84c0.07,-0.36 0.07,-0.81 -0.01,-1.35 0.45,-0.37 0.86,-0.54 1.22,-0.54 0.37,0 0.68,0.12 0.94,0.36 0.25,0.23 0.35,0.53 0.27,0.9z"/>
      <path class="fil4" d="M87.63 130.67c-0.02,0.11 -0.07,0.28 -0.15,0.52 -0.42,0.47 -0.81,0.71 -1.16,0.71 -0.3,0 -0.52,-0.17 -0.69,-0.52 0.11,-0.71 -0.07,-1.06 -0.54,-1.06 -0.27,0 -0.76,0.75 -1.46,2.25 -0.31,0.66 -0.59,1.59 -0.82,2.77 -0.22,1.12 -0.3,1.8 -0.23,2.03 0.06,0.3 0.09,0.51 0.06,0.62 -0.05,0.27 -0.22,0.48 -0.48,0.65 -0.27,0.17 -0.56,0.25 -0.85,0.25 -0.83,0 -1.18,-0.4 -1.02,-1.18 0.01,-0.08 0.06,-0.19 0.12,-0.33 0.07,-0.14 0.11,-0.24 0.12,-0.31 0.16,-0.81 0.35,-2 0.58,-3.59 0.23,-1.58 0.42,-2.77 0.58,-3.56 0.13,-0.71 0.63,-1.07 1.46,-1.07 0.49,0 0.81,0.15 0.93,0.45 0.53,-0.49 1.06,-0.73 1.61,-0.73 0.37,0 0.71,0.1 1.01,0.31 0.21,0.13 0.43,0.4 0.66,0.82 0.23,0.42 0.32,0.75 0.27,0.98z"/>
      <path class="fil4" d="M104.48 138.41l-0.02 0.12c-0.3,0.35 -0.62,0.52 -0.96,0.52 -0.27,0 -0.47,-0.12 -0.6,-0.36 -0.03,-0.56 -0.88,-1.49 -2.54,-2.77 -1.67,-1.28 -2.81,-1.92 -3.42,-1.92 -0.11,0 -0.25,0 -0.42,0 -0.22,0.02 -0.37,0.02 -0.44,0.02l-0.18 0.92c-0.06,0.32 -0.1,0.73 -0.13,1.26 -0.05,0.63 -0.04,1.02 0.03,1.16 0.21,0.38 0.3,0.62 0.28,0.71 -0.05,0.29 -0.21,0.52 -0.46,0.7 -0.25,0.18 -0.52,0.27 -0.8,0.27 -0.59,0 -1,-0.21 -1.25,-0.64 -0.23,-0.38 -0.09,-1.94 0.45,-4.69 -0.33,0 -0.64,-0.1 -0.96,-0.3 -0.35,-0.25 -0.51,-0.52 -0.45,-0.81 0.11,-0.58 0.71,-1 1.8,-1.25 0.16,-0.49 0.34,-1.16 0.55,-2.02 0.22,-0.96 0.39,-1.63 0.51,-2.01 0.19,-0.5 0.46,-1.26 0.79,-2.28l-0.19 0c-0.62,0.02 -0.88,-0.26 -0.77,-0.83 0.1,-0.49 0.34,-0.8 0.74,-0.92 0.28,-0.08 0.56,-0.16 0.83,-0.24 0.36,-0.28 0.64,-0.47 0.84,-0.55 0.19,-0.09 0.49,-0.13 0.87,-0.13 0.28,0 0.39,0.13 0.35,0.38 -0.02,0.08 0.17,0.12 0.56,0.12 1.81,0 3.28,0.37 4.41,1.11 1.39,0.9 1.92,2.2 1.59,3.91 -0.26,1.31 -0.87,2.39 -1.84,3.24 -0.66,0.58 -1.75,1.24 -3.26,1.97 0.96,0.71 1.91,1.42 2.86,2.13 1.06,0.96 1.48,2.02 1.24,3.17zm-1.12 -10.6l0 0c0.2,-1.01 -0.16,-1.78 -1.06,-2.3 -0.72,-0.43 -1.63,-0.64 -2.71,-0.64 -0.14,0 -0.48,0.02 -1.02,0.07 -0.09,0.57 -0.43,1.54 -1.01,2.93 -0.33,0.84 -0.69,2.06 -1.06,3.67 0.83,0.32 1.36,0.47 1.58,0.47 0.19,0 0.47,-0.05 0.85,-0.16 1.08,-0.32 2.01,-0.8 2.79,-1.45 0.9,-0.74 1.45,-1.61 1.64,-2.6z"/>
      <path class="fil4" d="M110.45 129.7c-0.05,0.28 -0.2,0.68 -0.42,1.21 -0.23,0.52 -0.37,0.92 -0.42,1.21l-0.95 4.87c-0.06,0.3 -0.07,0.77 -0.02,1.42 -0.3,0.37 -0.59,0.55 -0.87,0.55 -0.98,0 -1.41,-0.49 -1.32,-1.49 0.2,-1.84 0.4,-3.23 0.58,-4.16 0.3,-1.56 0.62,-2.87 0.95,-3.93 0.01,-0.08 0.03,-0.16 0.04,-0.24 0.06,-0.28 0.3,-0.43 0.73,-0.43 0.39,0 0.75,0.08 1.11,0.24 0.46,0.18 0.65,0.43 0.59,0.76zm0.85 -3.31l0 0c-0.07,0.35 -0.24,0.63 -0.51,0.85 -0.28,0.22 -0.58,0.33 -0.92,0.33 -0.41,0 -0.75,-0.14 -1.04,-0.42 -0.3,-0.29 -0.4,-0.63 -0.32,-1.04 0.07,-0.35 0.24,-0.63 0.53,-0.85 0.28,-0.22 0.6,-0.33 0.96,-0.33 0.42,0 0.76,0.14 1.03,0.41 0.27,0.28 0.37,0.63 0.29,1.05z"/>
      <path class="fil4" d="M118.99 131.79c-0.11,0.39 -0.34,1.09 -0.71,2.08 -0.32,0.87 -0.53,1.56 -0.64,2.08 -0.09,0.47 -0.21,1.19 -0.34,2.13 -0.14,0.95 -0.25,1.66 -0.34,2.13 -0.19,0.97 -0.43,1.7 -0.7,2.18 -0.34,0.6 -0.84,1.08 -1.51,1.45 -0.68,0.37 -1.34,0.56 -1.99,0.56 -0.68,0 -1.49,-0.19 -2.42,-0.57 -1.12,-0.44 -1.63,-0.93 -1.53,-1.47 0.13,-0.69 0.52,-1.04 1.15,-1.04 0.29,0 0.48,0.09 0.55,0.26 0.14,0.32 0.24,0.51 0.3,0.57 0.06,0.06 0.3,0.14 0.71,0.23 0.42,0.08 0.71,0.13 0.88,0.13 1.4,0 2.27,-0.89 2.62,-2.67 0.1,-0.52 0.16,-0.96 0.19,-1.33 -0.78,0.59 -1.64,0.88 -2.56,0.88 -0.39,0 -0.8,-0.1 -1.24,-0.33 -0.44,-0.22 -0.75,-0.48 -0.94,-0.78 -0.37,-0.57 -0.45,-1.41 -0.22,-2.53 0.26,-1.34 0.85,-2.82 1.76,-4.43 1.13,-1.97 2.22,-2.96 3.29,-2.96 0.65,0 1.21,0.31 1.68,0.92 0.32,0.58 0.64,1.16 0.96,1.73 0.09,0.16 0.26,0.3 0.5,0.43 0.29,0.15 0.48,0.28 0.56,0.35zm-2.62 1.42l0 0c0.05,-0.23 -0.02,-0.43 -0.21,-0.59 0.19,-1.45 -0.17,-2.18 -1.06,-2.18 -0.51,0 -1.08,0.73 -1.71,2.2 -0.46,1.12 -0.78,2.09 -0.93,2.91 -0.3,1.55 -0.06,2.32 0.73,2.32 0.74,0 1.45,-0.62 2.12,-1.85 0.53,-0.94 0.88,-1.88 1.06,-2.82z"/>
      <path class="fil4" d="M126.36 139.19c-0.35,0.3 -0.77,0.45 -1.25,0.45 -0.33,0 -0.62,-0.21 -0.88,-0.62 0.27,-1.39 0.48,-2.46 0.63,-3.22 0.68,-3.5 0.53,-5.25 -0.46,-5.25 -1.02,0 -1.81,1.41 -2.36,4.24 -0.03,0.15 -0.07,0.39 -0.13,0.69 -0.06,0.3 -0.1,0.53 -0.13,0.69 -0.05,0.23 -0.07,0.59 -0.09,1.07 -0.02,0.48 -0.05,0.84 -0.09,1.07 -0.04,0.21 -0.2,0.39 -0.47,0.56 -0.27,0.17 -0.51,0.25 -0.71,0.25 -0.39,0 -0.69,-0.16 -0.89,-0.49 -0.21,-0.32 -0.28,-0.68 -0.2,-1.07l2.75 -13.68c0.01,-0.05 0.02,-0.11 0.04,-0.19 0.02,-0.08 0.03,-0.14 0.03,-0.17 0.11,-0.57 0.48,-0.85 1.09,-0.85 0.29,0 0.61,0.14 0.94,0.41 0.33,0.28 0.47,0.56 0.41,0.84 -0.07,0.35 -0.24,0.86 -0.52,1.54 -0.28,0.68 -0.45,1.19 -0.52,1.54 -0.08,0.44 -0.21,1.15 -0.36,2.11 0.38,-0.21 0.68,-0.31 0.92,-0.31 0.61,0 1.23,0.15 1.89,0.45 0.84,0.4 1.35,1.04 1.53,1.92 0.13,0.66 0.09,1.58 -0.14,2.75l-1.03 5.28z"/>
      <path class="fil4" d="M133.91 130.34c-0.08,0.42 -0.78,0.72 -2.1,0.9 -0.1,0.35 -0.27,1.14 -0.51,2.37l-0.31 1.56c-0.06,0.31 -0.1,0.78 -0.12,1.39 -0.02,0.62 -0.06,1.08 -0.12,1.37 -0.05,0.25 -0.22,0.48 -0.5,0.67 -0.28,0.2 -0.55,0.3 -0.8,0.3 -0.39,0 -0.65,-0.34 -0.78,-1.02 -0.1,-0.52 -0.1,-1.03 -0.01,-1.52l0.98 -5.02c-0.69,-0.11 -1.09,-0.18 -1.19,-0.22 -0.38,-0.13 -0.55,-0.31 -0.5,-0.54 0.01,-0.06 0.04,-0.14 0.09,-0.22 0.51,-0.58 1.02,-0.87 1.52,-0.87 0.03,0 0.08,0 0.14,0 0.06,0.01 0.1,0.02 0.14,0.02 0.32,0 0.55,-0.39 0.69,-1.16l0.33 -1.72c-0.06,-0.18 -0.08,-0.33 -0.05,-0.45 0.04,-0.21 0.2,-0.39 0.47,-0.55 0.27,-0.17 0.52,-0.25 0.73,-0.25 0.33,0 0.6,0.15 0.84,0.46 0.23,0.31 0.32,0.63 0.25,0.98 -0.08,0.38 -0.2,0.75 -0.39,1.12 -0.19,0.37 -0.31,0.75 -0.37,1.15l-0.02 0.09c1.18,0.13 1.71,0.51 1.59,1.14z"/>
      <path class="fil4" d="M146.53 138.2c-1.79,0.61 -3.62,0.93 -5.48,0.93 -1.46,0 -2.38,-0.52 -2.76,-1.56 -0.29,-0.81 -0.29,-2.01 0.02,-3.6 0.18,-0.93 0.52,-2.31 1.03,-4.14 0.5,-1.83 0.85,-3.21 1.02,-4.14 0.04,-0.18 0.08,-0.45 0.12,-0.83 0.04,-0.38 0.08,-0.66 0.12,-0.85 0.04,-0.19 0.09,-0.4 0.17,-0.64 0.38,-0.38 0.8,-0.57 1.25,-0.57 0.43,0 0.71,0.28 0.83,0.85 0.1,0.44 0.1,0.92 0,1.42 -0.21,1.07 -0.62,2.67 -1.23,4.78 -0.61,2.12 -1.02,3.7 -1.22,4.76 -0.37,1.86 -0.03,2.79 1.01,2.79 0.46,0 1.16,-0.16 2.09,-0.49 0.93,-0.32 1.63,-0.48 2.09,-0.48 0.44,0 0.73,0.2 0.89,0.59 0.12,0.32 0.14,0.71 0.04,1.19z"/>
      <path class="fil4" d="M152.3 129.7c-0.06,0.28 -0.2,0.68 -0.42,1.21 -0.23,0.52 -0.37,0.92 -0.42,1.21l-0.95 4.87c-0.06,0.3 -0.06,0.77 -0.02,1.42 -0.3,0.37 -0.59,0.55 -0.87,0.55 -0.98,0 -1.41,-0.49 -1.31,-1.49 0.2,-1.84 0.4,-3.23 0.58,-4.16 0.31,-1.56 0.62,-2.87 0.95,-3.93 0.02,-0.08 0.03,-0.16 0.05,-0.24 0.06,-0.28 0.3,-0.43 0.73,-0.43 0.38,0 0.75,0.08 1.11,0.24 0.46,0.18 0.65,0.43 0.59,0.76zm0.85 -3.31l0 0c-0.07,0.35 -0.24,0.63 -0.51,0.85 -0.28,0.22 -0.58,0.33 -0.92,0.33 -0.4,0 -0.75,-0.14 -1.04,-0.42 -0.29,-0.29 -0.4,-0.63 -0.32,-1.04 0.06,-0.35 0.24,-0.63 0.52,-0.85 0.28,-0.22 0.61,-0.33 0.96,-0.33 0.42,0 0.76,0.14 1.03,0.41 0.27,0.28 0.37,0.63 0.28,1.05z"/>
      <path class="fil4" d="M160.15 138.65c-0.31,0.36 -0.62,0.54 -0.97,0.54 -0.26,0 -0.67,-0.16 -1.21,-0.47l0.06 -0.28c0.07,-0.35 0.18,-0.86 0.34,-1.54 0.15,-0.68 0.26,-1.18 0.32,-1.49 0.66,-3.38 0.49,-5.06 -0.5,-5.06 -0.28,0 -0.64,0.22 -1.08,0.66 -1.36,1.36 -2.23,2.99 -2.6,4.9 -0.05,0.27 -0.08,0.66 -0.08,1.19 0,0.53 -0.03,0.92 -0.08,1.19 -0.04,0.22 -0.18,0.4 -0.41,0.54 -0.23,0.14 -0.46,0.21 -0.69,0.21 -0.93,0 -1.28,-0.6 -1.04,-1.8l0.96 -4.94c0.03,-0.13 0.08,-0.31 0.16,-0.56 0.08,-0.24 0.13,-0.43 0.15,-0.56 0.04,-0.19 0.06,-0.47 0.08,-0.83 0.01,-0.36 0.04,-0.63 0.07,-0.8 0.05,-0.25 0.24,-0.5 0.57,-0.72 0.33,-0.23 0.61,-0.34 0.84,-0.34 0.34,0 0.65,0.19 0.93,0.59l-0.26 0.95c0.75,-0.93 1.55,-1.4 2.39,-1.4 0.54,0 1.08,0.19 1.61,0.57 0.53,0.38 0.89,0.8 1.08,1.28 0.4,1.2 0.41,2.78 0.03,4.73l-0.67 3.43z"/>
      <path class="fil4" d="M170.71 139.55c-0.67,0.44 -1.18,0.67 -1.52,0.67 -0.45,0 -1.01,-0.48 -1.68,-1.42 -0.47,-0.66 -0.94,-1.33 -1.4,-2.01 -0.26,-0.41 -0.69,-0.98 -1.29,-1.73l-0.08 0.05 -0.41 2.08c-0.02,0.13 -0.01,0.31 0.04,0.55 0.05,0.25 0.07,0.44 0.04,0.58 -0.04,0.22 -0.19,0.42 -0.45,0.58 -0.26,0.17 -0.5,0.25 -0.73,0.25 -0.4,0 -0.71,-0.13 -0.92,-0.4 -0.21,-0.27 -0.28,-0.61 -0.2,-1.02l0.61 -3.12c0.04,-0.19 0.11,-0.48 0.24,-0.87 0.12,-0.38 0.2,-0.68 0.24,-0.86l1.24 -6.36c0.18,-0.97 0.27,-1.74 0.26,-2.32 -0,-0.27 0.01,-0.48 0.03,-0.62 0.06,-0.3 0.29,-0.57 0.69,-0.8 0.35,-0.22 0.68,-0.33 1,-0.33 0.23,0 0.46,0.09 0.7,0.27 0.23,0.18 0.33,0.39 0.29,0.6 -0.01,0.06 -0.11,0.28 -0.28,0.66 -0.17,0.38 -0.33,0.97 -0.49,1.75 -0.05,0.25 -0.48,2.36 -1.3,6.32 0.08,-0.06 1.07,-0.84 2.98,-2.34 1.58,-1.26 2.49,-1.89 2.72,-1.89 0.82,0 1.12,0.51 0.89,1.54l-0.05 0.24c-0.75,0.4 -1.73,1.02 -2.96,1.87 -1.54,1.06 -2.35,1.76 -2.42,2.1 -0.01,0.03 0.32,0.53 0.97,1.49 0.62,0.92 1.01,1.48 1.16,1.71 0.74,0.99 1.48,1.67 2.22,2.03l-0.15 0.76z"/>
     </g>
    </g>
   </g>
  </g>
 </g>
</svg>
