<?xml version="1.0" encoding="UTF-8"?>
<!DOCTYPE svg PUBLIC "-//W3C//DTD SVG 1.1//EN" "http://www.w3.org/Graphics/SVG/1.1/DTD/svg11.dtd">
<!-- Creator: CorelDRAW 2018 (64-Bit) -->
<svg xmlns="http://www.w3.org/2000/svg" xml:space="preserve" width="113.851mm" height="113.851mm" version="1.1" style="shape-rendering:geometricPrecision; text-rendering:geometricPrecision; image-rendering:optimizeQuality; fill-rule:evenodd; clip-rule:evenodd"
viewBox="0 0 205.59 205.59"
 xmlns:xlink="http://www.w3.org/1999/xlink">
 <defs>
  <style type="text/css">
   <![CDATA[
    .fil0 {fill:#FEFEFE}
    .fil1 {fill:#E03E3E}
   ]]>
  </style>
 </defs>
 <g id="Layer_x0020_1">
  <metadata id="CorelCorpID_0Corel-Layer"/>
  <rect class="fil0" x="-0" y="-0" width="205.59" height="205.59"/>
  <g id="_2501808307168">
   <path class="fil1" d="M111.46 59.87c-0.4,0.42 -1.81,2.55 -1.81,5.19 0,0.63 0.01,15.78 0,16.32 -0.02,1.15 -0.73,2.79 -1.31,3.37 -0.41,0.41 -2.92,2.69 -3.14,2.93l1.42 0.02c0.46,-0.44 5.3,-4.73 5.81,-5.31 0.66,-0.75 2.23,-2.64 2.23,-5.62 0,-0.7 0.01,-15.05 0.01,-15.68 0,-2.35 1.1,-3.66 1.66,-4.29 0.58,-0.65 2.49,-2.24 2.82,-2.6l-1.49 -0.05c-0.36,0.36 -5.7,5.18 -6.2,5.7z"/>
   <path class="fil1" d="M99.48 119.22l5.92 5.18 3.97 0c4.03,0 7.72,-1.73 10.15,-4.16 2.44,-2.44 3.33,-5.7 3.33,-8.76 0,-2.23 0,-8.08 0,-8.48 0,-2.85 -1.79,-4.51 -2.29,-5.01 -0.27,-0.27 -2,-1.9 -2,-1.9l0 6.51c0,0 1.9,1.96 2.28,2.36 1.76,1.87 1.74,5.27 -3.82,10.69 -0.98,0.95 -3.75,3.57 -7.58,3.57 -0.54,0 -9.96,0 -9.96,0z"/>
   <path class="fil1" d="M115.96 84.4c-0.66,0.7 -1.29,2.41 -1.29,3.91 0,0.84 0,3.21 0,3.21 0,0 2.62,0 3.26,0 1.27,0 2.94,-1.15 3.3,-1.76 0.02,-0.05 0,-3.19 0,-3.19 0,0 0.84,1.2 1.74,1.83 0.34,-0.43 3.31,-4.02 5.79,-4.05 4.15,-0.03 3.21,5.2 1.51,6.87 -0.55,0.54 -3,2.78 -3.75,3.51 -1.96,1.86 -5.31,0.97 -5.31,-3.84 0,0 -3.6,3.42 -4.14,3.87 -0.54,0.45 -2.4,2.42 -2.4,2.42 0,0 0,7.65 0,8.46 0,4.06 -1.34,5.42 -2.44,6.64 -0.43,0.47 -5,4.64 -5.61,5.1l-1.49 0.03c0,0 2.67,-2.43 3.21,-2.99 0.61,-0.63 1.32,-1.92 1.32,-4.06 0,-0.54 -0.07,-13.3 -0.07,-13.3 0,0 -19.89,0 -20.79,0 -7.23,0 -8.78,-8.03 -8.82,-10.17 -0.01,-0.63 0,-7.04 0,-8.04 0,-1.32 -0.84,-3.55 -2.19,-4.23l2.04 0c0.23,0.1 1.52,0.62 1.52,5.54 0,0 -0.09,5.73 -0.09,6.03 0,2.49 1.98,5.36 4.85,5.36 0.59,0 23.53,-0.02 23.53,-0.02 0.02,-0.63 0.65,-3.03 1.79,-4.3 0.64,-0.72 5.69,-5.33 6.27,-5.78l1.49 -0.02c-0.23,0.21 -2.67,2.4 -3.21,2.97zm7.73 4.82c0,0 1.36,1.81 2.01,2.33 2.53,2.03 3.74,-0.15 2.04,-2.49 -0.67,-0.92 -3.28,-0.65 -4.05,0.16z"/>
   <path class="fil1" d="M98.46 104.38c0,1.14 -3.63,4.15 -3.84,4.36 -0.26,-1.22 -1.18,-2.58 -3.88,-5.28l3.97 -3.97c2.66,2.66 3.75,3.23 3.75,4.89z"/>
   <path class="fil1" d="M105.34 58.85c0.8,0.8 2.51,2.96 1.48,3.99 -0.91,0.91 -2.32,2.35 -2.32,2.35 -0.07,-0.52 -1.39,-1.77 -1.39,-1.77 0,0 0.01,3.84 0,4.31 -0.04,1.73 -0.7,2.23 -0.7,2.23 0,0 3.2,3.18 3.2,7.25 0,1.98 0.01,3.8 0.01,4.19 0,0.84 -0.21,1.48 -0.79,2.12 -0.29,0.32 -3.25,3.3 -3.71,3.71 -0.86,0.77 -1.76,0.9 -2.44,0.9 -0.47,0 -10.71,0 -11.03,0 -1.74,0 -3.53,-1.36 -3.53,-2.71 0,-0.34 0.02,-4.09 0.02,-4.09 0.57,0.66 1.14,1.42 2.53,1.4 1.09,-0.02 2.23,-0.87 2.53,-1.18 0.32,-0.32 8.34,-8.71 8.34,-8.71 0,0 -3.76,-3.49 -6.24,-5.14 -1.21,-0.81 -2.81,0.21 -3.06,1.28 -0.76,3.34 0,8.35 0,8.35 0,0 -2.46,-2.45 -3.05,-3.04 -1.23,-1.23 -1.18,-4.01 0.28,-5.47 0.23,-0.23 2.46,-2.75 5.28,-2.75 0.45,0 3.9,0 4.4,0 2.95,0 6.19,2.94 6.19,2.94 0,0 0.48,-0.52 0.48,-1.02 0,-1.51 -0.06,-5.6 -0.06,-5.6 -2.22,-2.22 -2.53,-4.52 -1.46,-5.58 1.99,-1.99 2.71,-2.69 2.71,-2.69 0,0 -0.02,2.41 2.3,4.73zm-13.84 22.16c-1.09,1.14 -1.28,1.42 -2.29,2.03 0.09,0 12.04,0 12.42,0 3.37,0 2.7,-2.09 2.09,-3.14 -1.24,-2.16 -5.15,-6.18 -5.15,-6.18 0,0 -6.85,7.05 -7.08,7.29z"/>
   <path class="fil1" d="M77.34 92.33l-2.04 0c0,0 2.19,1.2 2.19,4.31 0,0.82 0,9.24 0,9.91 0,6.45 5.32,12.42 11.79,12.42 1.09,0 4.68,0 5.4,0 3.24,0 4.38,-0.78 6.34,-2.53 0.72,-0.64 1.65,-1.69 1.99,-2.07 1.13,-1.26 2.33,-2.29 2.33,-5.61 0,-0.81 0,-2.79 0,-3.25 0,-2.81 -1.62,-3.97 -2.41,-4.76 -0.5,-0.5 -1.88,-1.82 -1.88,-1.82l0 6.65c0,0 1.36,1.45 1.96,1.92 2.81,2.22 0.57,6.06 -2.03,6.06 -0.52,0 -11.14,0 -11.86,0.02 -4.37,0.11 -10.27,-3.79 -10.27,-10.34 0,-0.88 0,-4.82 0,-5.39 0,-5.54 -1.52,-5.54 -1.52,-5.54z"/>
   <path class="fil1" d="M90.34 104.4c0,1.13 -3.63,4.15 -3.84,4.36 -0.26,-1.22 -1.18,-2.58 -3.88,-5.28l3.97 -3.97c2.66,2.66 3.75,3.23 3.75,4.89z"/>
   <path class="fil1" d="M48.81 148.5c-0.65,0 -5.64,-0.01 -6.35,-0.01 -2,0 -1.85,-1.66 -2.03,-3.09l0 -9.12c0,0 1.39,-0.03 2.97,-0.03 1.76,0 3.95,-0.26 6.09,0.95 0,0 -1.53,-3.7 -6.1,-3.7l-2.95 0c0,0 0,-0.53 0,-1.79l0 -1.13c0,0 0,-2.55 -0.62,-3.3 0,0 3.93,0.01 4.2,0.01 3.63,0 6.44,-0.05 9.36,1.89 0,0 -0.56,-4.81 -7.58,-4.81 -4.05,0 -13.13,0 -13.71,0 0,0 2.38,2.04 2.31,6.18l0.07 16.61c0,4.17 1.67,4.28 1.67,4.28 0.16,0 1.01,0 4.68,0 0.62,0 1.36,0 2.17,0 1.98,0 4.56,0 6.66,0 3.06,0 4.13,-2.19 4.13,-3.38l0.05 -1.59c0,0 -0.97,2 -5.01,2z"/>
   <path class="fil1" d="M84.77 147.09l0 -11.62c0,-4.51 -3.68,-5.71 -6.43,-5.71 -3.63,0 -4.72,3.03 -5.18,4.08 -0.81,-2.83 -3.64,-4.11 -5.96,-4.11 -4.39,0 -5.5,4.18 -5.5,4.18 0,0 -0.1,-4.03 -3.63,-4.03l-3.45 0.01c0,0 2,0.82 2,4.31l-0.01 12.9c0,4.26 1.72,4.33 1.72,4.33l5.69 0c-0.15,-0.07 -2.18,-1.61 -2.18,-4.37l0 -11.44c0.07,-0.51 0.93,-2.24 3.38,-2.24 1.39,0 2.92,1.45 2.88,3.08l-0.01 10.63c0,4.32 1.7,4.33 1.7,4.33l5.71 0c0,0 -2.18,-1.54 -2.18,-4.37l-0.02 -11.45c0.21,-0.64 0.97,-2.19 3.12,-2.19 1.72,0 3.16,1.45 3.12,3.08 0,0 -0.01,9.71 -0.01,10.61 0.03,4.35 1.7,4.31 1.7,4.31 2.97,0 5.71,0.01 5.71,0.01 0,0 -2.18,-1.51 -2.18,-4.33z"/>
   <path class="fil1" d="M94.75 147.09c0,2.86 2.19,4.34 2.19,4.34 0,0 -2.72,-0.01 -5.69,-0.01 0,0 -1.75,0.03 -1.75,-4.29l0 -0.02 0.01 -12.94c0,-3.41 -1.98,-4.29 -1.98,-4.29l3.45 0c1.22,0 3.75,0 3.75,4.83l-0.01 12.37 0.02 0.02z"/>
   <path class="fil1" d="M112.28 131.5c0,0 -0.55,-1.55 -2.91,-1.55 -3.57,0 -4.44,4.25 -4.44,4.25 -0.29,-3.36 -1.19,-4.35 -3.71,-4.35l-3.45 0.01c0,0 2,0.82 2,4.31l-0.01 12.92c0,4.26 1.72,4.33 1.72,4.33l5.69 0c-0.15,-0.07 -2.18,-1.61 -2.18,-4.37l0.01 -10.58c0.15,-0.96 0.64,-1.7 1.4,-2.18 1.88,-1.21 4.44,-0.93 5.9,0.86 0,0 0,-2.29 0,-3.65z"/>
   <path class="fil1" d="M138.83 132.28c1.93,0 3.37,0.84 3.37,0.84l0.02 -3.25 -4.79 0 0 -4.93c0,0 -1.26,2.17 -3.83,4.29 -1.61,1.33 -5.01,2.97 -5.01,2.97l3.61 0.07 -0.01 14.99c0,4.16 1.74,4.16 1.74,4.16 3.12,0 5.68,0.01 5.68,0.01 0,0 -2.2,-1.47 -2.2,-4.21l0.01 -14.94c1.5,0.01 0.47,0.01 1.4,0.01z"/>
   <path class="fil1" d="M156.13 138.79c-3.19,3.34 -5.7,2.82 -7.7,5.26 0,0 0.32,3.32 2.86,4.49 0.87,0.4 4.38,1.67 6.66,-2.26l-0.02 3.48c0,0 -1.46,1.7 -6.1,1.7 -5.59,0 -9.42,-4.4 -9.42,-10.36 0,-5.86 3.12,-11.3 9.01,-11.33 5.78,-0.03 8.9,4.64 4.71,9.03zm-3.49 -1.37c0.95,-1.75 1.69,-6.18 -1.54,-5.94 -3.74,0.28 -3.03,10.23 -3.03,10.23 1.25,-1.36 3.13,-1.64 4.57,-4.29z"/>
   <path class="fil1" d="M92.11 128.13c1.47,0 2.66,-1.16 2.66,-2.6 0,-1.44 -1.19,-2.6 -2.66,-2.6 -1.47,0 -2.66,1.16 -2.66,2.6 0,1.43 1.19,2.6 2.66,2.6z"/>
   <path class="fil1" d="M118.21 148.98c-1.3,0 -2.22,-1.35 -2.22,-2.73 0,-5.38 4.4,-6.12 5.58,-7.56l0.01 9.07c-0.52,0.46 -1.05,1.22 -3.37,1.22zm3.36 -12.37c-1.32,2.32 -11.62,2.81 -10.04,10.77 0.62,3.16 2.73,4.08 5.38,4.08 2.57,0 4.12,-1.34 4.76,-2.59 0.38,2.4 1.6,2.54 1.6,2.54 2.98,0 5.69,0.01 5.69,0.01 0,0 -2.22,-1.47 -2.22,-4.31l0 -12.11c0,-2.9 -3.21,-5.15 -6.62,-5.15 -3.28,0 -5.34,1.58 -5.34,1.58 0,0.97 0,3.76 0,3.76 0,0 1.17,-2.98 4.14,-2.98 2.9,0 3.11,1.44 3.09,2.16 0,0 0.29,0.97 -0.43,2.24z"/>
   <path class="fil1" d="M168.73 145.57c0.03,1.52 -1.33,3.52 -4.23,3.52 -2.97,0 -4.15,-3.04 -4.15,-3.04l0 3.85c0,0 2.14,1.53 5.42,1.53 3.89,0 7.83,-2.96 7.74,-7.08 -0.03,-1.45 -0.55,-2.68 -1.34,-3.75 -1.32,-1.77 -3.71,-3 -5.57,-4.14 -1.06,-0.65 -1.62,-1.82 -1.63,-2.23 -0.03,-0.72 0.32,-2.18 3.22,-2.18 2.83,0 4.03,2.98 4.03,2.98l-0.01 -3.6c0,0 -2.16,-1.72 -5.44,-1.72 -3.41,0 -6.51,2.25 -6.45,5.15 0.05,2.54 1.12,4.19 3.2,5.74 0.82,0.61 1.8,1.21 2.94,1.84 1.66,0.92 2.26,2.04 2.28,3.13z"/>
  </g>
 </g>
</svg>
