<?xml version="1.0" encoding="UTF-8"?>
<!DOCTYPE svg PUBLIC "-//W3C//DTD SVG 1.1//EN" "http://www.w3.org/Graphics/SVG/1.1/DTD/svg11.dtd">
<!-- Creator: CorelDRAW 2018 (64-Bit) -->
<svg xmlns="http://www.w3.org/2000/svg" xml:space="preserve" width="113.851mm" height="113.851mm" version="1.1" style="shape-rendering:geometricPrecision; text-rendering:geometricPrecision; image-rendering:optimizeQuality; fill-rule:evenodd; clip-rule:evenodd"
viewBox="0 0 183.2 183.2"
 xmlns:xlink="http://www.w3.org/1999/xlink">
 <defs>
  <style type="text/css">
   <![CDATA[
    .fil0 {fill:#FEFEFE}
    .fil2 {fill:#535150}
    .fil3 {fill:#008BA0}
    .fil4 {fill:#014A8A}
    .fil1 {fill:#535150;fill-rule:nonzero}
   ]]>
  </style>
 </defs>
 <g id="Layer_x0020_1">
  <metadata id="CorelCorpID_0Corel-Layer"/>
  <rect class="fil0" x="-0" y="-0" width="183.2" height="183.2"/>
  <g id="_2501808281024">
   <path class="fil1" d="M88.5 122.96l0 -0.12 -0.23 0c-0.06,0 -0.08,-0.03 -0.08,-0.07 0,-0.04 0.03,-0.07 0.08,-0.07l0.23 0 0 -0.12 -0.23 0c-0.06,0 -0.08,-0.03 -0.08,-0.07 0,-0.04 0.03,-0.07 0.08,-0.07l0.23 0 0 -0.12 -0.27 0c-0.1,0 -0.15,0.05 -0.15,0.14 0,0.06 0.02,0.1 0.07,0.14 -0.04,0.02 -0.07,0.06 -0.07,0.12 0,0.06 0.03,0.09 0.07,0.12l-0.06 0 0 0.12 0.41 0zm0.01 -0.85c0,-0.06 -0.02,-0.1 -0.05,-0.12l0.04 0 0 -0.11 -0.24 0c-0.06,0 -0.1,0.01 -0.13,0.04 -0.03,0.03 -0.05,0.08 -0.05,0.14 0,0.07 0.01,0.11 0.03,0.16l0.09 -0.03c-0.01,-0.04 -0.02,-0.07 -0.02,-0.11 0,-0.06 0.03,-0.09 0.08,-0.09l0.01 0c-0.01,0.03 -0.02,0.06 -0.02,0.1 0,0.1 0.04,0.17 0.13,0.17l0 0c0.08,0 0.13,-0.06 0.13,-0.14zm-0.08 -0.04c0,0.04 -0.02,0.06 -0.05,0.06l-0 0c-0.04,0 -0.06,-0.03 -0.06,-0.08 0,-0.03 0.01,-0.05 0.02,-0.07l0.02 0c0.04,0 0.07,0.04 0.07,0.09zm0.07 -0.3l0 -0.12 -0.23 0c-0.06,0 -0.08,-0.03 -0.08,-0.07 0,-0.04 0.03,-0.07 0.08,-0.07l0.23 0 0 -0.12 -0.27 0c-0.09,0 -0.15,0.05 -0.15,0.14 0,0.06 0.03,0.09 0.07,0.12l-0.06 0 0 0.12 0.41 0zm0.01 -0.62c0,-0.06 -0.03,-0.09 -0.07,-0.12l0.06 0 0 -0.12 -0.41 0 0 0.12 0.23 0c0.06,0 0.08,0.03 0.08,0.07 0,0.04 -0.03,0.07 -0.08,0.07l-0.23 0 0 0.12 0.27 0c0.09,0 0.15,-0.05 0.15,-0.14zm0 -0.46c0,-0.06 -0.02,-0.1 -0.05,-0.12l0.04 0 0 -0.11 -0.24 0c-0.06,0 -0.1,0.01 -0.13,0.04 -0.03,0.03 -0.05,0.08 -0.05,0.14 0,0.07 0.01,0.11 0.03,0.16l0.09 -0.03c-0.01,-0.04 -0.02,-0.07 -0.02,-0.11 0,-0.06 0.03,-0.09 0.08,-0.09l0.01 0c-0.01,0.03 -0.02,0.06 -0.02,0.1 0,0.1 0.04,0.17 0.13,0.17l0 0c0.08,0 0.13,-0.06 0.13,-0.14zm-0.08 -0.04c0,0.04 -0.02,0.06 -0.05,0.06l-0 0c-0.04,0 -0.06,-0.03 -0.06,-0.08 0,-0.03 0.01,-0.05 0.02,-0.07l0.02 0c0.04,0 0.07,0.04 0.07,0.09zm0.07 -0.31l0 -0.12 -0.56 0 0 0.12 0.56 0zm0.01 -0.6c0,-0.04 -0.01,-0.07 -0.02,-0.09l-0.09 0c0.01,0.02 0.01,0.04 0.01,0.06 0,0.03 -0.01,0.04 -0.04,0.04l-0.18 0 0 -0.1 -0.1 0 0 0.1 -0.11 0 0 0.12 0.11 0 0 0.05 0.1 0 0 -0.05 0.2 0c0.1,0 0.12,-0.05 0.12,-0.12zm-0.01 -0.18l0 -0.12 -0.15 0c-0.1,0 -0.15,-0.05 -0.15,-0.13l0 -0.01 -0.12 0c-0,0.07 0.03,0.11 0.09,0.13l-0.08 0 0 0.12 0.41 0zm0.01 -0.42c0,-0.06 -0.02,-0.1 -0.05,-0.12l0.04 0 0 -0.11 -0.24 0c-0.06,0 -0.1,0.01 -0.13,0.04 -0.03,0.03 -0.05,0.08 -0.05,0.14 0,0.07 0.01,0.11 0.03,0.16l0.09 -0.03c-0.01,-0.04 -0.02,-0.07 -0.02,-0.11 0,-0.06 0.03,-0.09 0.08,-0.09l0.01 0c-0.01,0.03 -0.02,0.06 -0.02,0.1 0,0.1 0.04,0.17 0.13,0.17l0 0c0.08,0 0.13,-0.06 0.13,-0.14zm-0.08 -0.04c0,0.04 -0.02,0.06 -0.05,0.06l-0 0c-0.04,0 -0.06,-0.03 -0.06,-0.08 0,-0.03 0.01,-0.05 0.02,-0.07l0.02 0c0.04,0 0.07,0.04 0.07,0.09zm0.08 -0.5c0,-0.08 -0.03,-0.13 -0.08,-0.17l-0.07 0.07c0.03,0.03 0.04,0.06 0.04,0.09 0,0.06 -0.05,0.1 -0.11,0.1l-0 0c-0.06,0 -0.11,-0.04 -0.11,-0.1 0,-0.04 0.02,-0.07 0.05,-0.09l-0.08 -0.07c-0.04,0.04 -0.07,0.09 -0.07,0.16 0,0.13 0.1,0.22 0.22,0.22l0 0c0.12,0 0.21,-0.09 0.21,-0.22zm-0.47 -0.25l0 -0.12 -0.1 0 0 0.12 0.1 0zm0.46 -0l0 -0.12 -0.41 0 0 0.12 0.41 0zm0 -0.23l0 -0.12 -0.23 0c-0.06,0 -0.08,-0.03 -0.08,-0.07 0,-0.04 0.03,-0.07 0.08,-0.07l0.23 0 0 -0.12 -0.27 0c-0.09,0 -0.15,0.05 -0.15,0.14 0,0.06 0.03,0.09 0.07,0.12l-0.06 0 0 0.12 0.41 0zm0.12 -0.66c0,-0.08 -0.02,-0.14 -0.06,-0.18 -0.03,-0.03 -0.09,-0.05 -0.16,-0.05l-0.32 0 0 0.12 0.05 0c-0.03,0.03 -0.06,0.07 -0.06,0.13 0,0.09 0.07,0.18 0.19,0.18l0 0c0.12,0 0.19,-0.09 0.19,-0.18 0,-0.06 -0.03,-0.1 -0.07,-0.13l0.02 0c0.07,0 0.11,0.04 0.11,0.12 0,0.05 -0.01,0.1 -0.04,0.14l0.09 0.04c0.03,-0.05 0.04,-0.12 0.04,-0.18zm-0.26 -0.01c0,0.06 -0.04,0.1 -0.09,0.1l-0 0c-0.06,0 -0.1,-0.04 -0.1,-0.1 0,-0.06 0.04,-0.1 0.1,-0.1l0 0c0.06,0 0.09,0.04 0.09,0.1zm0.14 -0.8c0,-0.1 -0.08,-0.19 -0.21,-0.19l-0 0c-0.14,0 -0.21,0.09 -0.21,0.19 0,0.06 0.03,0.1 0.07,0.13l-0.21 0 0 0.12 0.56 0 0 -0.12 -0.05 0c0.03,-0.03 0.06,-0.07 0.06,-0.13zm-0.1 0.03c0,0.05 -0.05,0.1 -0.11,0.1l-0 0c-0.07,0 -0.11,-0.05 -0.11,-0.1 0,-0.05 0.05,-0.1 0.11,-0.1l0 0c0.07,0 0.11,0.05 0.11,0.1zm0.22 -0.38c0,-0.07 -0.03,-0.1 -0.12,-0.14l-0.42 -0.16 0 0.12 0.28 0.09 -0.28 0.09 0 0.12 0.41 -0.16c0.02,0.01 0.03,0.02 0.03,0.04 0,0.02 -0.01,0.03 -0.02,0.05l0.08 0.04c0.02,-0.03 0.03,-0.06 0.03,-0.1zm-0.13 -0.59l0 -0.12 -0.23 0c-0.06,0 -0.08,-0.03 -0.08,-0.07 0,-0.04 0.03,-0.07 0.08,-0.07l0.23 0 0 -0.12 -0.23 0c-0.06,0 -0.08,-0.03 -0.08,-0.07 0,-0.04 0.03,-0.07 0.08,-0.07l0.23 0 0 -0.12 -0.27 0c-0.1,0 -0.15,0.05 -0.15,0.14 0,0.06 0.02,0.1 0.07,0.14 -0.04,0.02 -0.07,0.06 -0.07,0.12 0,0.06 0.03,0.09 0.07,0.12l-0.06 0 0 0.12 0.41 0zm0.01 -0.85c0,-0.06 -0.02,-0.1 -0.05,-0.12l0.04 0 0 -0.11 -0.24 0c-0.06,0 -0.1,0.01 -0.13,0.05 -0.03,0.03 -0.05,0.08 -0.05,0.14 0,0.07 0.01,0.11 0.03,0.16l0.09 -0.03c-0.01,-0.04 -0.02,-0.07 -0.02,-0.11 0,-0.06 0.03,-0.09 0.08,-0.09l0.01 0c-0.01,0.03 -0.02,0.06 -0.02,0.1 0,0.1 0.04,0.17 0.13,0.17l0 0c0.08,0 0.13,-0.06 0.13,-0.14zm-0.08 -0.04c0,0.04 -0.02,0.06 -0.05,0.06l-0 0c-0.04,0 -0.06,-0.03 -0.06,-0.08 0,-0.03 0.01,-0.05 0.02,-0.07l0.02 0c0.04,0 0.07,0.04 0.07,0.09zm0.07 -0.31l0 -0.12 -0.56 0 0 0.12 0.56 0zm0 -0.23l0 -0.12 -0.23 0c-0.06,0 -0.08,-0.03 -0.08,-0.07 0,-0.04 0.03,-0.07 0.08,-0.07l0.23 0 0 -0.12 -0.23 0c-0.06,0 -0.08,-0.03 -0.08,-0.07 0,-0.04 0.03,-0.07 0.08,-0.07l0.23 0 0 -0.12 -0.27 0c-0.1,0 -0.15,0.05 -0.15,0.14 0,0.06 0.02,0.1 0.07,0.14 -0.04,0.02 -0.07,0.06 -0.07,0.12 0,0.06 0.03,0.09 0.07,0.12l-0.06 0 0 0.12 0.41 0zm0.01 -0.93c0,-0.13 -0.1,-0.22 -0.22,-0.22l-0 0c-0.12,0 -0.21,0.09 -0.21,0.22 0,0.13 0.1,0.22 0.22,0.22l0 0c0.12,0 0.21,-0.09 0.21,-0.22zm-0.1 -0c0,0.06 -0.05,0.11 -0.11,0.11l-0 0c-0.06,0 -0.11,-0.04 -0.11,-0.11 0,-0.07 0.05,-0.11 0.11,-0.11l0 0c0.06,0 0.11,0.04 0.11,0.11zm0.1 -0.45c0,-0.09 -0.04,-0.16 -0.13,-0.16l-0 0c-0.08,0 -0.1,0.07 -0.12,0.12 -0.02,0.04 -0.03,0.08 -0.05,0.08l-0 0c-0.02,0 -0.03,-0.01 -0.03,-0.04 0,-0.03 0.01,-0.07 0.04,-0.11l-0.08 -0.04c-0.03,0.04 -0.05,0.1 -0.05,0.15 0,0.08 0.05,0.15 0.13,0.15l0 0c0.08,0 0.11,-0.07 0.12,-0.12 0.01,-0.05 0.02,-0.09 0.05,-0.09l0 0c0.02,0 0.03,0.02 0.03,0.05 0,0.04 -0.02,0.09 -0.05,0.13l0.08 0.05c0.04,-0.05 0.06,-0.12 0.06,-0.18z"/>
   <path class="fil2" d="M79.95 117.61l-0 0.9c-3.83,-0.26 -5.15,1.09 -5.07,3.05 0.04,1.15 0.92,2.36 2.64,2.36 0.99,0 1.86,-0.45 2.5,-1.22l0 0.58c0,0.28 0.23,0.51 0.51,0.51l1.15 0 0 -5.78c0,-2.13 -1.19,-3.07 -3.39,-3.07 -1.04,0 -1.8,0.28 -2.47,0.61l-0.19 1.11c0.59,-0.45 1.33,-0.81 2.33,-0.81 1.24,0 2,0.47 2,1.76zm-0 1.72l0 2.24c-0.34,0.86 -1.19,1.15 -1.82,1.15 -0.75,0 -1.42,-0.49 -1.51,-1.45 -0.05,-0.54 0.12,-1.13 0.63,-1.53 0.5,-0.39 1.38,-0.64 2.7,-0.41zm-19.76 1.16l0 -4.71c0,-0.35 -0.29,-0.64 -0.64,-0.64l-1.64 0c0.32,0.12 0.58,0.4 0.57,0.86l0 4.66c0,1.83 0.52,3.25 2.82,3.25 0.85,0 1.88,-0.43 2.32,-1.2l0 0.58c0,0.28 0.23,0.51 0.51,0.51l1.16 0 0 -8.66 -1.71 0 0 5.75c0,1.11 -0.46,1.52 -1.04,1.77 -0.71,0.3 -1.55,0.23 -1.99,-0.29 -0.36,-0.43 -0.36,-1.06 -0.36,-1.87zm-8.01 -5.36c0.32,0.12 0.58,0.4 0.57,0.86l0 7.8 1.71 0 0 -5.52c-0,-1.11 0.51,-1.75 1.08,-2 0.42,-0.18 1.34,-0.37 1.96,0.02l-0.19 -1.11c-0.66,-0.26 -1.64,-0.26 -2.46,0.4 -0.15,0.13 -0.29,0.29 -0.4,0.49l0 -0.44c0,-0.28 -0.23,-0.51 -0.51,-0.51l-1.78 0zm-2.47 2.48l-0 0.9c-3.83,-0.26 -5.15,1.09 -5.07,3.05 0.04,1.15 0.92,2.36 2.64,2.36 0.99,0 1.86,-0.45 2.5,-1.22l0 0.58c0,0.28 0.23,0.51 0.51,0.51l1.15 0 0 -5.78c0,-2.13 -1.19,-3.07 -3.39,-3.07 -1.04,0 -1.8,0.28 -2.47,0.61l-0.19 1.11c0.59,-0.45 1.33,-0.81 2.33,-0.81 1.24,0 2,0.47 2,1.76zm-0 1.72l0 2.24c-0.34,0.86 -1.19,1.15 -1.82,1.15 -0.75,0 -1.42,-0.49 -1.51,-1.45 -0.05,-0.54 0.12,-1.13 0.63,-1.53 0.5,-0.39 1.38,-0.64 2.7,-0.41zm23.23 -7.2l-1.6 0c0.32,0.12 0.58,0.4 0.57,0.86l0 2.94c-0.36,-0.46 -0.99,-0.98 -2.08,-0.98 -1.64,0 -3.41,1.34 -3.41,4.51 0,2.51 1.06,4.45 3.25,4.45 0.79,0 1.65,-0.35 2.3,-0.98l0 0.35c0,0.28 0.23,0.51 0.51,0.51l1.15 0 0 -11c0,-0.32 -0.34,-0.66 -0.68,-0.66zm-1.03 6.08l0 3.79c-0.36,0.52 -0.9,0.88 -1.56,0.9 -1.83,0.06 -2.07,-2.27 -2.07,-3.51 0,-2.47 0.69,-3.48 2.03,-3.42 1.38,0.06 1.59,1.17 1.59,2.24zm-29.2 -5.82c-0.58,-0.2 -1.33,-0.38 -2.25,-0.38 -3.28,0 -5.69,2.09 -5.69,5.99 0,3.63 1.77,5.98 5.49,5.98 1.19,0 2.22,-0.19 3.11,-0.5l0 -6.06 -3.66 0 -0.15 0.94c0.28,-0.08 0.58,-0.1 0.87,-0.09l1.06 0 0 4.57c-0.3,0.09 -0.71,0.16 -1.2,0.14 -2.23,-0.1 -3.52,-1.32 -3.52,-4.96 0,-3.64 1.73,-5 3.87,-5 0.79,0 1.74,0.17 2.41,0.51l-0.34 -1.13zm96.57 11.41l1.24 0 0 -8.12c0,-0.29 -0.24,-0.53 -0.53,-0.53l-1.75 0c0.32,0.12 0.58,0.4 0.57,0.86l0 7.33c0,0.26 0.21,0.47 0.47,0.47zm7.44 -6.18l-0 0.9c-3.83,-0.26 -5.15,1.09 -5.07,3.05 0.04,1.15 0.92,2.36 2.64,2.36 0.99,0 1.86,-0.45 2.5,-1.22l0 0.58c0,0.28 0.23,0.51 0.51,0.51l1.14 0 0 -5.78c0,-2.13 -1.19,-3.07 -3.39,-3.07 -1.04,0 -1.8,0.28 -2.47,0.61l-0.19 1.11c0.59,-0.45 1.33,-0.81 2.33,-0.81 1.24,0 2,0.47 2,1.76zm-0 1.72l0 2.24c-0.34,0.86 -1.19,1.15 -1.82,1.15 -0.75,0 -1.42,-0.49 -1.51,-1.45 -0.05,-0.54 0.12,-1.13 0.63,-1.53 0.5,-0.39 1.38,-0.64 2.7,-0.41zm-14.83 3l0.26 1.04c0.78,0.37 1.7,0.56 2.4,0.56 1.87,0 3.22,-1.08 3.22,-2.62 0,-1.2 -1.11,-2.03 -2.36,-2.49 -1.12,-0.41 -1.79,-0.88 -1.66,-1.76 0.14,-0.93 0.99,-1.2 1.68,-1.17 0.91,0.05 1.45,0.33 1.89,0.66l-0.27 -1.01c-0.66,-0.32 -1.27,-0.45 -1.82,-0.48 -1.88,-0.1 -3.16,0.81 -3.16,2.35 0,1.4 1,2.05 2.13,2.5 1.17,0.46 2.01,0.93 1.87,1.91 -0.14,0.99 -0.87,1.29 -1.74,1.3 -1.03,0.01 -1.98,-0.45 -2.46,-0.78zm-20.67 1.56c-1.94,0 -3.75,-0.88 -3.75,-4.43 0,-3.55 2.02,-4.51 3.75,-4.51 1.74,0 3.75,0.96 3.75,4.51 0,3.55 -1.81,4.43 -3.75,4.43zm0.04 -0.86c1.27,-0.02 1.91,-1.05 1.91,-3.57 0,-2.52 -0.63,-3.55 -1.91,-3.57 -1.27,-0.02 -1.99,0.99 -1.99,3.57 0,2.58 0.72,3.59 1.99,3.57zm10.03 0.12c0,0.35 0.29,0.64 0.64,0.64l1.07 0 0 -5.52c0,-1.83 -0.52,-3.25 -2.82,-3.25 -0.85,0 -1.88,0.43 -2.32,1.19l0 -0.58c0,-0.28 -0.23,-0.51 -0.51,-0.51l-1.73 0c0.32,0.12 0.58,0.4 0.57,0.86l0 7.8 1.71 0 0 -5.75c-0,-1.11 0.46,-1.52 1.04,-1.77 0.71,-0.3 1.55,-0.23 1.99,0.29 0.36,0.43 0.36,1.06 0.36,1.87l0 4.71zm-25.18 0c0,0.35 0.29,0.64 0.64,0.64l1.07 0 0 -5.52c0,-1.83 -0.52,-3.25 -2.82,-3.25 -0.85,0 -1.88,0.43 -2.32,1.19l0 -0.58c0,-0.28 -0.23,-0.51 -0.51,-0.51l-1.73 0c0.32,0.12 0.58,0.4 0.57,0.86l0 7.8 1.71 0 0 -5.75c-0,-1.11 0.46,-1.52 1.04,-1.77 0.71,-0.3 1.55,-0.23 1.99,0.29 0.36,0.43 0.36,1.06 0.36,1.87l0 4.71zm9.46 -11.02l-1.6 0c0.32,0.12 0.58,0.4 0.57,0.86l0 2.94c-0.36,-0.46 -1,-0.98 -2.08,-0.98 -1.64,0 -3.41,1.34 -3.41,4.51 0,2.51 1.06,4.45 3.25,4.45 0.79,0 1.65,-0.35 2.3,-0.98l0 0.35c0,0.28 0.23,0.51 0.51,0.51l1.15 0 0 -11c0,-0.32 -0.34,-0.66 -0.68,-0.66zm-1.03 6.08l0 3.79c-0.36,0.52 -0.9,0.88 -1.56,0.9 -1.83,0.06 -2.07,-2.27 -2.07,-3.51 0,-2.47 0.69,-3.48 2.03,-3.42 1.38,0.06 1.59,1.17 1.59,2.24zm-15.91 -6.08l-1.89 0c0.32,0.12 0.58,0.4 0.57,0.86l0 10.3c0,0.28 0.23,0.51 0.51,0.51l1.38 0 0 -11.09c0,-0.32 -0.26,-0.57 -0.57,-0.57zm37.38 7.35l-0 -1.8c-0,-1.11 0.72,-1.9 1.85,-1.9 0.82,0 1.56,0.12 1.52,1.75 -0.03,1.22 -0.71,2.34 -3.37,1.96zm-0 0.83l0 0.9c0,1.29 0.76,1.8 2,1.8 1.01,0 2.24,-0.53 2.77,-0.96l-0.19 1.11c-0.87,0.4 -1.86,0.76 -2.9,0.76 -2.2,0 -3.39,-0.94 -3.39,-3.07l0 -2.54c0,-2.67 1.83,-3.46 4.15,-3.38 1.72,0.07 2.55,1.21 2.58,2.36 0.06,1.95 -1.5,3.42 -5.01,3.01z"/>
   <path class="fil3" d="M65.19 89.67l-4.93 0 -0.55 -0.96 6.24 0c0,0 11.7,-0.02 17.18,1.79 3.77,1.25 7.61,3.41 11.15,5.97 3.54,2.56 8.52,6.14 8.52,6.14 -1.31,1.04 -2.29,2.1 -4.11,2.1 -1.44,0 -2.89,-0.79 -2.89,-0.79l-12.4 -8.95c-3.35,-2.41 -7.18,-4.11 -11.29,-4.81 -2.29,-0.39 -4.6,-0.4 -6.92,-0.5zm-9.14 -7.32l5.7 0c6.8,-0.05 10.49,0.24 15.99,2.26 5.04,1.85 9.37,4.91 13.69,8l9.2 6.6c0,0 1.57,1.38 3.15,1.38 1.91,0 3.22,-1.05 4.72,-2.03l-12.33 -9.03c0,0 -5.34,-4 -11.9,-6.16 -7.27,-2.4 -19.32,-1.98 -19.32,-1.98l-9.46 0 0.55 0.96zm-4.85 -8.43l11.76 0c0,0 14.59,0.02 20.34,1.42 4.7,1.14 10.87,4.31 14.19,6.85 3.33,2.53 16.62,12.15 16.62,12.15 0,0 -1.66,1.92 -4.37,1.92 -2.01,0 -2.75,-0.76 -3.32,-1.05l-15.1 -10.86c-4.2,-3.02 -8.55,-5.58 -13.17,-7.19 -4.62,-1.61 -9.5,-2.27 -14.76,-2.27l-11.65 0 -0.55 -0.96z"/>
   <path class="fil4" d="M65.34 66.61c11.63,0 18.73,1.27 24.18,3.33 4.16,1.58 7.66,3.81 11.22,6.36l19.26 13.83c0,0 -0.83,0.83 -1.94,1.45 -1.89,1.05 -4.44,0.61 -6.45,-0.93l-17.93 -12.74c-5.44,-3.87 -10.74,-7.1 -17.31,-8.91 -4.81,-1.32 -14.08,-1.44 -14.08,-1.44l-14.74 0 -0.55 -0.96 18.35 0zm-22.08 -6.48l17.81 0c0,0 9.93,0.4 14.64,1.45 7.43,1.72 13.93,5.2 20.43,9.84l21.16 15.1c1.75,1.3 4.06,2.14 5.94,1.11 0.82,-0.45 1.49,-1.02 2.18,-1.63l-24.28 -17.48c-4.01,-2.89 -8.92,-4.96 -12.96,-6.18 -5.58,-1.69 -11.94,-3.09 -23.53,-3.09l-21.9 0 0.51 0.89zm76.63 15.62c-1.34,-0.02 -2.27,-0.12 -3.49,-0.41 -2.01,-0.48 -2.82,-2 -2.82,-2 -0.73,1.48 1.25,3.26 2.21,3.95l9.7 6.91c1.46,0.84 2.3,0.18 2.3,0.18 0,0 2.52,-1.33 3.85,-1.64 1.33,-0.31 5.13,-0.44 5.62,-0.35 0.49,0.09 2.35,1.28 2.35,1.28 0.58,-4.29 -2.21,-4.69 -3.98,-4.96 -1.77,-0.27 -4.21,-0.44 -4.21,-0.44l-3.23 0.88 -1.9 -1.46c0,0 3.85,0.31 4.87,0.35 1.02,0.04 0.75,-0.4 0.27,-1.37 -0.49,-0.97 -1.59,-0.93 -1.59,-0.93l-9.93 0z"/>
  </g>
 </g>
</svg>
