<?xml version="1.0" encoding="UTF-8"?>
<!DOCTYPE svg PUBLIC "-//W3C//DTD SVG 1.1//EN" "http://www.w3.org/Graphics/SVG/1.1/DTD/svg11.dtd">
<!-- Creator: CorelDRAW 2018 (64-Bit) -->
<svg xmlns="http://www.w3.org/2000/svg" xml:space="preserve" width="113.851mm" height="113.851mm" version="1.1" style="shape-rendering:geometricPrecision; text-rendering:geometricPrecision; image-rendering:optimizeQuality; fill-rule:evenodd; clip-rule:evenodd"
viewBox="0 0 190.1 190.1"
 xmlns:xlink="http://www.w3.org/1999/xlink">
 <defs>
  <style type="text/css">
   <![CDATA[
    .fil0 {fill:#FEFEFE}
    .fil2 {fill:#ED1B24}
    .fil1 {fill:#FFF2F2}
   ]]>
  </style>
 </defs>
 <g id="Layer_x0020_1">
  <metadata id="CorelCorpID_0Corel-Layer"/>
  <rect class="fil0" x="-0" y="-0" width="190.1" height="190.1"/>
  <g id="lion-air-seeklogo.com.cdr">
   <path class="fil1" d="M113.52 85.52l0.01 -1.09 1.44 -0.05c-0.17,-0.68 -0.99,-1.33 -1.82,-0.73 -0.7,0.51 -0.61,1.64 0.37,1.87z"/>
   <path class="fil2" d="M106.87 96.59c-1.7,-2.07 -3.62,-4.71 -4.36,-9.86 0.81,-0.19 1.19,-0.02 1.08,-0.2 -0.48,-0.75 -1.1,-1.64 -0.72,-2.79 0.83,0.06 2.34,-0.3 3.33,-0.21 -0.36,-0.65 -0.38,-1.41 -0.01,-1.89 1.68,0.22 3.21,-0.26 4.67,0 -0.01,-0.55 -0.05,-1.2 0.54,-1.49 0.74,0.9 3.24,0.81 3.95,1.94 0.18,-0.31 0.66,-0.95 1.38,-0.9 0.97,2.08 2.53,2.47 3.56,2.92 0.78,0.33 0.32,0.88 0.39,1.31 0.83,1.08 2.98,0.64 3.26,0.92 0.26,0.26 -0.04,0.77 -0.04,0.83 0.19,1.53 -0.61,2.27 -1.06,2.7 -0,-0.32 -0.2,-1.57 -1.61,-1.18 -1.03,0.29 -2.04,1.65 -1.47,3.03 0.6,1.3 1.8,0.71 2.04,0.48 0.14,-0.21 0.26,-0.17 0.29,-0.04 0.11,0.59 -0.2,1.97 -1.14,2.08 -0.63,-0.08 -1.02,-0.26 -1.66,-0.22 -0.34,3.92 2.12,2.96 2.02,4.27 -0.05,0.65 -1.86,0.41 -0.2,2.6 0.5,0.65 0.33,1.14 -0.63,1.07 -0.06,1.9 -2.46,6.88 -8.39,7.01 0.12,1.57 0.32,3.01 -0.74,3.73 -0.41,0.26 -1.32,0.35 -1.85,0.11 1.49,-1.31 1.42,-3.64 1.32,-5.15 -0.29,-0.04 -0.56,-0.11 -0.84,-0.19 -0.11,1.12 -0.26,4.99 -2.9,5.93 -0.62,0.22 -1.57,0.05 -1.97,-0.54 2.25,-0.74 3.88,-3.69 4.26,-5.61 -0.27,-0.12 -0.54,-0.25 -0.79,-0.41 -1.06,2.93 -3.36,5.57 -5.67,5.76 -0.83,-0.01 -1.83,-0.41 -2.14,-1.28 2.91,-0.05 6.06,-2.89 7.17,-4.94 -0.25,-0.2 -0.48,-0.42 -0.69,-0.66 -2.12,2.65 -5.04,4.52 -7.76,4.46 -1.52,-0.03 -2.67,-0.52 -3.02,-2.42 4.04,0.85 8.28,-0.87 10.34,-2.6 -0.22,-0.31 -0.41,-0.64 -0.56,-0.98 -3.83,2.28 -8.76,2.76 -11.42,1.58 -1.42,-0.63 -2.25,-2.22 -1.87,-4.1 2.57,2.21 9.09,2.79 12.99,1.7 -0.08,-0.29 -0.15,-0.59 -0.19,-0.89 -5.96,0.23 -11.47,-1.19 -13.45,-3.74 -1.23,-1.58 -1.04,-3.14 0.14,-4.64 2.78,4.42 8.92,6.65 13.26,7.44 0.01,-0.31 0.04,-0.62 0.09,-0.92 -4.55,-1.14 -12.31,-6.38 -13.4,-10.97 -0.44,-2.19 0.25,-4.37 2.49,-4.83 0.55,5.75 5.49,11.71 11.11,15 0.11,-0.33 0.24,-0.64 0.39,-0.94 -7.88,-5.09 -11.62,-14.93 -9.39,-20.13 0.76,-1.78 1.67,-2.4 4.29,-1.98 -2.53,10.37 1.94,17.62 5.68,21.2 1.11,-1.43 2.84,-2.35 4.79,-2.35 3.35,0 6.06,2.71 6.06,6.06 0,3.28 -2.6,5.95 -5.85,6.05 0.03,0.29 0.06,0.59 0.09,0.89 3.79,-0.17 6.78,-3.29 6.78,-7.12 0,-5.34 -6.88,-9.48 -11.95,-4.9zm8.26 -12.13c-0.87,-0.23 -1.29,-0.29 -1.44,-0.12 -0.09,0.1 -0.15,0.53 -0.04,1.25 -1.22,-0.15 -1.02,-1.47 -0.71,-1.84 0.15,-0.18 1.5,-0.99 2.19,0.71zm3.9 1.23c0.57,0.05 1.06,-0.07 1.48,-0.01 -0.37,0.49 -0.39,0.9 -0.57,1.2 -0.21,0.01 -0.82,-0.48 -0.91,-1.19z"/>
   <path class="fil2" d="M28.71 104.49l8.42 -0c0.96,0 1.29,-0.09 1.56,-0.75l1.38 -3.59c0.49,-1.38 -0.26,-1.44 -1.19,-1.44l-5.57 0c-1.26,0 -1.79,-0.07 -0.88,-2.7l3.03 -8.76c0.36,-1.04 -0.07,-1.04 -0.54,-1.04l-5.28 0c-0.65,0 -0.73,-0.01 -1,0.76l-3.77 10.9c-0.58,1.89 -1.94,6.62 3.84,6.62zm13.15 0l4.92 0c0.61,0 0.72,0 0.97,-0.71l3.65 -11.77c0.23,-0.75 -0.18,-0.75 -0.62,-0.75l-5.02 0c-0.62,0 -0.7,-0.01 -0.87,0.55l-3.59 11.56c-0.23,0.67 -0.28,1.11 0.56,1.11zm109.92 0l4.92 0c0.61,0 0.72,0 0.97,-0.71l1.44 -4.63c0.6,-1.93 1.18,-3.46 3.61,-2.77l3.08 -3.77c-1.16,-2.55 -6.18,-1.21 -6.74,-1.18 -1.06,0.06 -2.18,0.04 -3.38,-0.17 -0.62,0 -0.7,-0.01 -0.87,0.55l-3.59 11.56c-0.23,0.67 -0.28,1.11 0.56,1.11zm-8.65 0l4.92 0c0.61,0 0.72,0 0.97,-0.71l3.65 -11.77c0.23,-0.75 -0.18,-0.75 -0.62,-0.75l-5.02 0c-0.62,0 -0.7,-0.01 -0.87,0.55l-3.59 11.56c-0.23,0.67 -0.28,1.11 0.56,1.11zm6.85 -19.56c-4.86,1.01 -4.12,6.15 1.02,4.92 4.74,-1.13 4.23,-6.01 -1.02,-4.92zm-16.14 15.85c-1.23,0.42 -2.25,0.56 -2.9,0.28 -2,-0.85 0.03,-6.81 3.26,-7.19 1.73,-0.2 2.09,0.77 1.68,2.12l-2.31 7.7c-0.14,0.53 0.07,0.78 0.49,0.79l5.25 0c0.57,-0 0.6,-0.12 0.72,-0.51l3.72 -11.82c0.12,-0.43 0.37,-0.94 -0.39,-0.89 -4.04,0.24 -5.19,-1.78 -9.95,-1.08 -7.1,1.35 -10.97,10.85 -6.97,13.77 2.81,2.04 6.67,-0.67 7.4,-3.17zm-64.79 3.71l4.92 0c0.61,0 0.72,0 0.97,-0.71l1.85 -5.91c0.31,-1.23 0.75,-1.77 2.98,-1.54 0.94,0.1 1.27,0.31 0.84,1.73l-1.67 5.55c-0.16,0.57 0.08,0.87 0.87,0.87l4.73 0c0.55,0 0.67,-0.16 0.98,-1.14l1.57 -5.04c0.77,-2.47 0.5,-4.26 -0.47,-5.4 -3.05,-3.6 -9.79,-1.51 -10.29,-1.48 -1.06,0.06 -2.18,0.04 -3.38,-0.17 -0.62,0 -0.7,-0.01 -0.87,0.55l-3.59 11.56c-0.23,0.67 -0.28,1.11 0.56,1.11zm-6.5 -6.28c-0.43,0.91 -1.76,1.86 -3.08,1.96 -1.85,0.15 -3.12,-1.01 -2.41,-2.54 1.42,-3.08 6.9,-2.43 5.49,0.58zm-1.72 -7.21c-8.09,0.82 -12.6,8.41 -8.27,12.15 4.28,3.7 13.34,0.77 15.63,-4.67 2.12,-4.94 -2.68,-7.95 -7.36,-7.48zm-12.15 -6.07c-4.86,1.01 -4.12,6.15 1.02,4.92 4.74,-1.13 4.23,-6.01 -1.02,-4.92z"/>
  </g>
 </g>
</svg>
