<?xml version="1.0" encoding="UTF-8"?>
<!DOCTYPE svg PUBLIC "-//W3C//DTD SVG 1.1//EN" "http://www.w3.org/Graphics/SVG/1.1/DTD/svg11.dtd">
<!-- Creator: CorelDRAW 2018 (64-Bit) -->
<svg xmlns="http://www.w3.org/2000/svg" xml:space="preserve" width="113.851mm" height="113.851mm" version="1.1" style="shape-rendering:geometricPrecision; text-rendering:geometricPrecision; image-rendering:optimizeQuality; fill-rule:evenodd; clip-rule:evenodd"
viewBox="0 0 197.55 197.55"
 xmlns:xlink="http://www.w3.org/1999/xlink">
 <defs>
  <style type="text/css">
   <![CDATA[
    .str0 {stroke:white;stroke-width:0.13;stroke-miterlimit:10}
    .fil0 {fill:#FEFEFE}
    .fil3 {fill:#CDA700;fill-rule:nonzero}
    .fil1 {fill:#008D95;fill-rule:nonzero}
    .fil14 {fill:#262D71;fill-rule:nonzero}
    .fil5 {fill:url(#id0)}
    .fil12 {fill:url(#id1)}
    .fil9 {fill:url(#id2)}
    .fil7 {fill:url(#id3)}
    .fil4 {fill:url(#id4)}
    .fil10 {fill:url(#id5)}
    .fil13 {fill:url(#id6)}
    .fil8 {fill:url(#id7)}
    .fil11 {fill:url(#id8)}
    .fil6 {fill:url(#id9)}
    .fil2 {fill:url(#id10)}
   ]]>
  </style>
  <linearGradient id="id0" gradientUnits="userSpaceOnUse" x1="91.61" y1="82.84" x2="108.25" y2="73.3">
   <stop offset="0" style="stop-opacity:1; stop-color:#CDA700"/>
   <stop offset="0.219608" style="stop-opacity:1; stop-color:#C79D02"/>
   <stop offset="0.509804" style="stop-opacity:1; stop-color:#FFF8D9"/>
   <stop offset="1" style="stop-opacity:1; stop-color:#C19205"/>
  </linearGradient>
  <linearGradient id="id1" gradientUnits="userSpaceOnUse" xlink:href="#id0" x1="108.22" y1="99.33" x2="123.91" y2="94.52">
  </linearGradient>
  <linearGradient id="id2" gradientUnits="userSpaceOnUse" xlink:href="#id0" x1="88.79" y1="99.33" x2="73.09" y2="94.52">
  </linearGradient>
  <linearGradient id="id3" gradientUnits="userSpaceOnUse" xlink:href="#id0" x1="77.16" y1="53.13" x2="101.73" y2="90.46">
  </linearGradient>
  <linearGradient id="id4" gradientUnits="userSpaceOnUse" xlink:href="#id0" x1="135.19" y1="118.38" x2="110.17" y2="146.13">
  </linearGradient>
  <linearGradient id="id5" gradientUnits="userSpaceOnUse" xlink:href="#id0" x1="75.13" y1="99.84" x2="84.12" y2="111.33">
  </linearGradient>
  <linearGradient id="id6" gradientUnits="userSpaceOnUse" xlink:href="#id0" x1="121.88" y1="99.84" x2="112.88" y2="111.33">
  </linearGradient>
  <linearGradient id="id7" gradientUnits="userSpaceOnUse" xlink:href="#id0" x1="138.33" y1="80.42" x2="96.27" y2="69.97">
  </linearGradient>
  <linearGradient id="id8" gradientUnits="userSpaceOnUse" xlink:href="#id0" x1="58.68" y1="80.42" x2="100.74" y2="69.97">
  </linearGradient>
  <linearGradient id="id9" gradientUnits="userSpaceOnUse" xlink:href="#id0" x1="119.85" y1="53.13" x2="95.28" y2="90.46">
  </linearGradient>
  <linearGradient id="id10" gradientUnits="userSpaceOnUse" x1="32.92" y1="86.9" x2="53.54" y2="43.68">
   <stop offset="0" style="stop-opacity:1; stop-color:#008D95"/>
   <stop offset="0.490196" style="stop-opacity:1; stop-color:#135D83"/>
   <stop offset="1" style="stop-opacity:1; stop-color:#262D71"/>
  </linearGradient>
 </defs>
 <g id="Layer_x0020_1">
  <metadata id="CorelCorpID_0Corel-Layer"/>
  <rect class="fil0" x="-0" y="-0" width="197.55" height="197.55"/>
  <path class="fil1" d="M98.5 115.77c22.08,0 39.97,-17.9 39.97,-39.97 0,-22.08 -17.9,-39.98 -39.97,-39.98 -22.08,0 -39.98,17.9 -39.98,39.98 0,22.08 17.9,39.97 39.98,39.97z"/>
  <path class="fil2" d="M98.5 115.77c22.08,0 39.97,-17.9 39.97,-39.97 0,-22.08 -17.9,-39.98 -39.97,-39.98 -22.08,0 -39.98,17.9 -39.98,39.98 0,22.08 17.9,39.97 39.98,39.97z"/>
  <path class="fil3" d="M63.91 55.76c-0.03,0.05 -0.06,0.1 -0.09,0.15 -3.36,5.86 -5.29,12.65 -5.29,19.88 0,22.08 17.9,39.97 39.98,39.97 14.84,0 27.79,-8.08 34.69,-20.09 0.03,-0.06 0.07,-0.12 0.1,-0.18 0.04,-0.06 0.09,-0.09 0.14,-0.05 0.06,0.04 0.08,0.08 0.04,0.15 -0.03,0.06 -0.06,0.13 -0.09,0.19 -0.45,0.95 -0.94,1.89 -1.47,2.81 -10.98,19.15 -35.55,25.7 -54.87,14.62 -19.33,-11.08 -26.09,-35.59 -15.11,-54.74 0.53,-0.93 1.09,-1.82 1.69,-2.69 0.03,-0.05 0.07,-0.1 0.1,-0.14 0.03,-0.05 0.09,-0.08 0.15,-0.04 0.07,0.04 0.07,0.09 0.04,0.15z"/>
  <path class="fil4" d="M63.91 55.76c-0.03,0.05 -0.06,0.1 -0.09,0.15 -3.36,5.86 -5.29,12.65 -5.29,19.88 0,22.08 17.9,39.97 39.98,39.97 14.84,0 27.79,-8.08 34.69,-20.09 0.03,-0.06 0.07,-0.12 0.1,-0.18 0.04,-0.06 0.09,-0.09 0.14,-0.05 0.06,0.04 0.08,0.08 0.04,0.15 -0.03,0.06 -0.06,0.13 -0.09,0.19 -0.45,0.95 -0.94,1.89 -1.47,2.81 -10.98,19.15 -35.55,25.7 -54.87,14.62 -19.33,-11.08 -26.09,-35.59 -15.11,-54.74 0.53,-0.93 1.09,-1.82 1.69,-2.69 0.03,-0.05 0.07,-0.1 0.1,-0.14 0.03,-0.05 0.09,-0.08 0.15,-0.04 0.07,0.04 0.07,0.09 0.04,0.15z"/>
  <polygon class="fil3" points="99.51,82.68 98.5,83.44 97.5,82.68 94.2,84.36 94.2,84.61 102.83,84.61 102.83,84.36 "/>
  <polygon class="fil5" points="99.51,82.68 98.5,83.44 97.5,82.68 94.2,84.36 94.2,84.61 102.83,84.61 102.83,84.36 "/>
  <path class="fil3" d="M98.5 83.44l-1 -0.77 -1.02 -7 0.66 0 -0.82 -7 0.78 0 -0.98 -7 0.94 0 -0.82 -6.88c-2.73,3.52 -4.46,10.66 -5,16.14 -2.31,-4.23 -1.51,-13.82 0.89,-17.79 -4.25,2.32 -8.88,8.68 -11.53,15.18 -1.46,-6.12 3.24,-14.84 8.24,-18.58 -4.89,0.89 -11.26,4.69 -17.39,11.93 2.02,-9.7 11.57,-15.55 17.26,-16.76 -6.26,-0.63 -12.36,1.38 -17.9,4.07 6.01,-6.94 15.08,-9.45 21.08,-8.77 -1.02,-1.07 -2,-1.63 -3.52,-2.09 2.52,-1.18 6.46,-0.56 8,1.16 0,0 0.28,-3.21 2.12,-4.48l0 48.66z"/>
  <path class="fil6" d="M98.5 83.44l-1 -0.77 -1.02 -7 0.66 0 -0.82 -7 0.78 0 -0.98 -7 0.94 0 -0.82 -6.88c-2.73,3.52 -4.46,10.66 -5,16.14 -2.31,-4.23 -1.51,-13.82 0.89,-17.79 -4.25,2.32 -8.88,8.68 -11.53,15.18 -1.46,-6.12 3.24,-14.84 8.24,-18.58 -4.89,0.89 -11.26,4.69 -17.39,11.93 2.02,-9.7 11.57,-15.55 17.26,-16.76 -6.26,-0.63 -12.36,1.38 -17.9,4.07 6.01,-6.94 15.08,-9.45 21.08,-8.77 -1.02,-1.07 -2,-1.63 -3.52,-2.09 2.52,-1.18 6.46,-0.56 8,1.16 0,0 0.28,-3.21 2.12,-4.48l0 48.66z"/>
  <path class="fil3" d="M98.5 83.44l1 -0.77 1.02 -7 -0.66 0 0.82 -7 -0.78 0 0.98 -7 -0.94 0 0.82 -6.88c2.73,3.52 4.46,10.66 5,16.14 2.31,-4.23 1.52,-13.82 -0.89,-17.79 4.25,2.32 8.88,8.68 11.53,15.18 1.46,-6.12 -3.24,-14.84 -8.24,-18.58 4.89,0.89 11.26,4.69 17.39,11.93 -2.02,-9.7 -11.57,-15.55 -17.26,-16.76 6.26,-0.63 12.36,1.38 17.9,4.07 -6.01,-6.94 -15.08,-9.45 -21.08,-8.77 1.02,-1.07 2,-1.63 3.52,-2.09 -2.52,-1.18 -6.46,-0.56 -8,1.16 0,0 -0.28,-3.21 -2.12,-4.48l0 48.66z"/>
  <path class="fil7" d="M98.5 83.44l1 -0.77 1.02 -7 -0.66 0 0.82 -7 -0.78 0 0.98 -7 -0.94 0 0.82 -6.88c2.73,3.52 4.46,10.66 5,16.14 2.31,-4.23 1.52,-13.82 -0.89,-17.79 4.25,2.32 8.88,8.68 11.53,15.18 1.46,-6.12 -3.24,-14.84 -8.24,-18.58 4.89,0.89 11.26,4.69 17.39,11.93 -2.02,-9.7 -11.57,-15.55 -17.26,-16.76 6.26,-0.63 12.36,1.38 17.9,4.07 -6.01,-6.94 -15.08,-9.45 -21.08,-8.77 1.02,-1.07 2,-1.63 3.52,-2.09 -2.52,-1.18 -6.46,-0.56 -8,1.16 0,0 -0.28,-3.21 -2.12,-4.48l0 48.66z"/>
  <path class="fil3" d="M86.18 99.18c4.56,-3.08 11.16,-7.65 14.03,-9.58 2.54,-1.71 24.02,-16.08 33.31,-5.91 -13,-5.17 -35.51,12.3 -45.28,17.62 -0.31,-0.32 -1.49,-1.54 -2.06,-2.13z"/>
  <path class="fil8" d="M86.18 99.18c4.56,-3.08 11.16,-7.65 14.03,-9.58 2.54,-1.71 24.02,-16.08 33.31,-5.91 -13,-5.17 -35.51,12.3 -45.28,17.62 -0.31,-0.32 -1.49,-1.54 -2.06,-2.13z"/>
  <path class="fil3" d="M86.54 101.16c-0.5,-0.51 -0.93,-0.96 -1.33,-1.36 -3.94,2.5 -7.06,3.98 -8.98,3.19 -0.33,-0.14 -0.67,-0.33 -0.85,-0.35 -0.12,-0.02 -0.22,0.01 -0.3,0.1 -0.07,0.08 -0.1,0.25 -0.02,0.41 0.05,0.11 0.17,0.3 0.51,0.59 1.4,1.22 4.23,2.32 11.68,-1.85 -0.23,-0.23 -0.46,-0.47 -0.71,-0.72z"/>
  <path class="fil9" d="M86.54 101.16c-0.5,-0.51 -0.93,-0.96 -1.33,-1.36 -3.94,2.5 -7.06,3.98 -8.98,3.19 -0.33,-0.14 -0.67,-0.33 -0.85,-0.35 -0.12,-0.02 -0.22,0.01 -0.3,0.1 -0.07,0.08 -0.1,0.25 -0.02,0.41 0.05,0.11 0.17,0.3 0.51,0.59 1.4,1.22 4.23,2.32 11.68,-1.85 -0.23,-0.23 -0.46,-0.47 -0.71,-0.72z"/>
  <path class="fil3" d="M94.31 103.83c0.03,-0.6 -0.42,-1.12 -1.02,-1.13 -0.58,-0.01 -1.07,0.46 -1.07,1.07 0,0.03 0,0.07 0,0.1 -0.88,-0.63 -1.81,-1.88 -4.14,-4.31 -4.78,-5 -6.49,-4.28 -6.88,-4.12 -0.39,0.16 -0.67,0.52 -0.68,0.97 -0.01,0.59 0.44,1.08 1.02,1.09 0.58,0.02 1.06,-0.45 1.07,-1.04 0,-0.08 -0.01,-0.16 -0.02,-0.24 1.11,0.71 2.15,1.64 4.74,4.32 2.64,2.74 3.67,3.49 4.45,3.95 0.54,0.32 1.08,0.39 1.42,0.37 0.55,-0.03 1.09,-0.43 1.12,-1.04z"/>
  <path class="fil10" d="M94.31 103.83c0.03,-0.6 -0.42,-1.12 -1.02,-1.13 -0.58,-0.01 -1.07,0.46 -1.07,1.07 0,0.03 0,0.07 0,0.1 -0.88,-0.63 -1.81,-1.88 -4.14,-4.31 -4.78,-5 -6.49,-4.28 -6.88,-4.12 -0.39,0.16 -0.67,0.52 -0.68,0.97 -0.01,0.59 0.44,1.08 1.02,1.09 0.58,0.02 1.06,-0.45 1.07,-1.04 0,-0.08 -0.01,-0.16 -0.02,-0.24 1.11,0.71 2.15,1.64 4.74,4.32 2.64,2.74 3.67,3.49 4.45,3.95 0.54,0.32 1.08,0.39 1.42,0.37 0.55,-0.03 1.09,-0.43 1.12,-1.04z"/>
  <path class="fil3" d="M110.82 99.18c-4.56,-3.08 -11.16,-7.65 -14.03,-9.58 -2.54,-1.71 -24.02,-16.08 -33.31,-5.91 13,-5.17 35.51,12.3 45.28,17.62 0.31,-0.32 1.49,-1.54 2.06,-2.13z"/>
  <path class="fil11" d="M110.82 99.18c-4.56,-3.08 -11.16,-7.65 -14.03,-9.58 -2.54,-1.71 -24.02,-16.08 -33.31,-5.91 13,-5.17 35.51,12.3 45.28,17.62 0.31,-0.32 1.49,-1.54 2.06,-2.13z"/>
  <path class="fil3" d="M110.46 101.16c0.5,-0.51 0.93,-0.96 1.33,-1.36 3.94,2.5 7.06,3.98 8.98,3.19 0.33,-0.14 0.67,-0.33 0.85,-0.35 0.12,-0.02 0.22,0.01 0.3,0.1 0.07,0.08 0.1,0.25 0.02,0.41 -0.05,0.11 -0.17,0.3 -0.51,0.59 -1.4,1.22 -4.23,2.32 -11.68,-1.85 0.23,-0.23 0.46,-0.47 0.71,-0.72z"/>
  <path class="fil12" d="M110.46 101.16c0.5,-0.51 0.93,-0.96 1.33,-1.36 3.94,2.5 7.06,3.98 8.98,3.19 0.33,-0.14 0.67,-0.33 0.85,-0.35 0.12,-0.02 0.22,0.01 0.3,0.1 0.07,0.08 0.1,0.25 0.02,0.41 -0.05,0.11 -0.17,0.3 -0.51,0.59 -1.4,1.22 -4.23,2.32 -11.68,-1.85 0.23,-0.23 0.46,-0.47 0.71,-0.72z"/>
  <path class="fil3" d="M102.7 103.83c-0.03,-0.6 0.42,-1.12 1.02,-1.13 0.58,-0.01 1.07,0.46 1.07,1.07 0,0.03 0,0.07 -0,0.1 0.88,-0.63 1.81,-1.88 4.14,-4.31 4.78,-5 6.49,-4.28 6.88,-4.12 0.39,0.16 0.67,0.52 0.68,0.97 0.01,0.59 -0.44,1.08 -1.02,1.09 -0.58,0.02 -1.06,-0.45 -1.07,-1.04 -0,-0.08 0.01,-0.16 0.02,-0.24 -1.11,0.71 -2.15,1.64 -4.74,4.32 -2.64,2.74 -3.67,3.49 -4.45,3.95 -0.54,0.32 -1.08,0.39 -1.42,0.37 -0.55,-0.03 -1.09,-0.43 -1.12,-1.04z"/>
  <path class="fil13" d="M102.7 103.83c-0.03,-0.6 0.42,-1.12 1.02,-1.13 0.58,-0.01 1.07,0.46 1.07,1.07 0,0.03 0,0.07 -0,0.1 0.88,-0.63 1.81,-1.88 4.14,-4.31 4.78,-5 6.49,-4.28 6.88,-4.12 0.39,0.16 0.67,0.52 0.68,0.97 0.01,0.59 -0.44,1.08 -1.02,1.09 -0.58,0.02 -1.06,-0.45 -1.07,-1.04 -0,-0.08 0.01,-0.16 0.02,-0.24 -1.11,0.71 -2.15,1.64 -4.74,4.32 -2.64,2.74 -3.67,3.49 -4.45,3.95 -0.54,0.32 -1.08,0.39 -1.42,0.37 -0.55,-0.03 -1.09,-0.43 -1.12,-1.04z"/>
  <path class="fil14" d="M88.4 158.15l-1.16 0c-0.41,-0.9 -1.48,-2.2 -3.25,-2.07l-0.93 2.07 -0.72 0 2.85 -6.02 0.36 0 2.84 6.02zm-4.18 -2.57c0.52,0 1.49,0.08 2.19,0.68l-1.24 -2.76 -0.94 2.09z"/>
  <path class="fil14" d="M76.12 158.15l-1.21 0c-1.16,-2.26 -3.01,-2.51 -3.93,-2.42l-1.05 2.42 -0.79 0 3.28 -7.25 0.41 0 3.29 7.25zm-4.87 -3.02c0.33,-0.02 1.5,-0.12 2.69,0.8l-1.54 -3.46 -1.15 2.66z"/>
  <path class="fil14" d="M121.02 158.15l-1.21 0c-1.16,-2.26 -3.01,-2.51 -3.93,-2.42l-1.05 2.42 -0.79 0 3.28 -7.25 0.41 0 3.29 7.25zm-4.87 -3.02c0.33,-0.02 1.5,-0.12 2.69,0.8l-1.54 -3.46 -1.16 2.66z"/>
  <path class="fil14" d="M92.29 154.89c0.33,-0.08 1.32,-0.37 1.32,-1.31 -0,-0.53 -0.2,-1.47 -2.38,-1.47 -1.1,0 -2.22,0.35 -2.49,0.43l0.09 0.41c0.16,-0.05 0.47,-0.11 0.73,-0.16l0 5.37c1.2,0.02 1.93,0 2.63,-0.05 1.16,-0.09 1.77,-0.72 1.77,-1.69 0,-0.79 -0.6,-1.4 -1.66,-1.52zm0.32 -1.26c-0.01,0.68 -0.6,1.15 -1.7,1.15 -0.08,0 -0.22,0 -0.33,0l0 -2.16c0.96,-0.16 2.05,-0.04 2.03,1.01zm-1.11 4.03c-0.19,0 -0.59,0.01 -0.76,-0.17 -0.16,-0.16 -0.16,-0.37 -0.16,-0.56l0 -1.7c0.16,0 0.37,0 0.49,0 0.79,0 1.87,0.14 1.87,1.34 0,0.47 -0.21,1.09 -1.44,1.09z"/>
  <path class="fil14" d="M132.23 152.23l-1.02 0 0 5.92 3.89 0 0 -0.94c-0.74,0.33 -1.76,0.38 -2.37,0.38 -0.31,0 -0.5,0 -0.5,0l0 -5.35z"/>
  <polygon class="fil14" points="144.25,152.23 143.55,152.23 143.55,156.41 140.14,152.23 139.22,152.23 139.22,158.15 139.92,158.15 139.92,153.64 143.59,158.15 144.25,158.15 "/>
  <polygon class="fil14" points="109.85,152.23 109.14,152.23 109.14,156.41 105.74,152.23 104.82,152.23 104.82,158.15 105.52,158.15 105.52,153.64 109.19,158.15 109.85,158.15 "/>
  <path class="fil14" d="M150.32 152.23l-3.91 0 0 5.92 4.07 0 0 -0.95c-0.18,0.08 -0.95,0.39 -2.36,0.39 -0.22,0 -0.71,0 -0.71,0l0 -2.31 2.58 0 0 -0.55 -2.58 0 0 -1.95c0,0 0.24,0 0.49,0 0.67,0 1.82,0.03 2.42,0.4l0 -0.94z"/>
  <path class="fil14" d="M155.8 152.5c-0.29,-0.17 -1.02,-0.41 -1.76,-0.4 -1.32,0.03 -2.2,0.62 -2.21,1.68 -0,0.21 0.03,0.48 0.15,0.7 0.64,1.2 3.29,1 3.29,2.26 0,0.37 -0.32,0.96 -1.23,0.96 -0.99,0 -1.75,-0.5 -2.1,-0.81l-0.26 0.87c0.3,0.17 1.13,0.5 2.32,0.5 0.53,0 1.13,-0.16 1.58,-0.54 0.42,-0.36 0.62,-0.82 0.62,-1.37 0,-2.1 -3.39,-1.57 -3.39,-2.89 0,-0.22 0.12,-0.38 0.15,-0.43 0.19,-0.26 0.58,-0.42 1.1,-0.42 0.47,0 0.97,0.17 1.46,0.6l0.29 -0.72z"/>
  <polygon class="fil14" points="122.09,158.15 123.11,158.15 123.11,152.23 122.09,152.23 "/>
  <polygon class="fil14" points="95.51,158.15 96.53,158.15 96.53,152.23 95.51,152.23 "/>
  <polygon class="fil14" points="136.12,158.15 137.14,158.15 137.14,152.23 136.12,152.23 "/>
  <path class="fil14" d="M80.09 155.23c0.73,-0.23 1.22,-0.79 1.22,-1.54 0,-0.99 -0.86,-1.58 -2.35,-1.58 -1.09,-0 -2.23,0.31 -2.56,0.41l0.08 0.44c0.21,-0.06 0.49,-0.13 0.73,-0.18l0 5.37 1.02 0 0 -5.54c1.19,-0.15 2,0.14 2,1.26 0,0.33 -0.18,1.16 -1.37,1.26 0,0 1.46,2.49 1.63,2.77 0.15,0.24 0.44,0.25 0.76,0.25l0.68 0c-0.55,-0.84 -1.84,-2.92 -1.84,-2.92z"/>
  <path class="fil14" d="M128.16 155.23c0.74,-0.23 1.22,-0.79 1.22,-1.54 0,-0.99 -0.86,-1.58 -2.35,-1.58 -1.09,-0 -2.23,0.31 -2.56,0.41l0.08 0.44c0.21,-0.06 0.49,-0.13 0.73,-0.18l0 5.37 1.02 0 0 -5.54c1.19,-0.15 2,0.14 2,1.26 0,0.33 -0.18,1.16 -1.37,1.26 0,0 1.46,2.49 1.63,2.77 0.15,0.24 0.44,0.25 0.76,0.25l0.68 0c-0.55,-0.84 -1.84,-2.92 -1.84,-2.92z"/>
  <path class="fil14" d="M103.78 158.15l-1.16 0c-0.41,-0.9 -1.48,-2.2 -3.25,-2.07l-0.93 2.07 -0.72 0 2.85 -6.02 0.36 0 2.84 6.02zm-4.18 -2.57c0.52,0 1.5,0.08 2.19,0.68l-1.24 -2.76 -0.94 2.09z"/>
  <path class="fil14" d="M52.56 158.27c-0.93,0 -1.64,-0.21 -2.07,-0.66 -0.38,-0.39 -0.56,-0.84 -0.56,-1.7l0 -3.68 1.02 0 0 3.83c0,0.56 0.08,0.88 0.33,1.17 0.27,0.31 0.73,0.48 1.29,0.48 0.56,0 1.02,-0.17 1.29,-0.48 0.25,-0.29 0.33,-0.61 0.33,-1.17l0 -3.83 1.02 0 0 3.68c0,0.87 -0.18,1.31 -0.56,1.7 -0.43,0.45 -1.14,0.66 -2.08,0.66z"/>
  <path class="fil14" d="M42.34 151.4c-0.3,-0.2 -1.12,-0.47 -2.04,-0.47 -1.44,0 -2.51,0.72 -2.51,1.9 0,2.41 3.91,1.7 3.99,3.5 0.03,0.61 -0.32,1.33 -1.48,1.33 -1.4,0 -2.4,-0.95 -2.4,-0.95l-0.31 1c0.89,0.4 1.71,0.58 2.37,0.59 1.03,0.01 1.74,-0.29 2.1,-0.6 0.39,-0.32 0.74,-0.85 0.74,-1.56 0,-2.11 -2.49,-2.12 -3.55,-2.8 -0.28,-0.18 -0.47,-0.39 -0.46,-0.84 0.03,-0.76 0.65,-1.01 1.45,-1.01 1,0 1.8,0.66 1.8,0.66l0.28 -0.75z"/>
  <path class="fil14" d="M59.02 152.11c-0.5,0.01 -1.74,0.07 -2.64,0.35l0.09 0.44c0.24,-0.07 0.47,-0.13 0.73,-0.17l0 5.42c1.45,0.03 2.06,0.03 2.82,-0.07 1.32,-0.17 2.58,-1.25 2.58,-2.9 0,-2.34 -1.93,-3.1 -3.57,-3.07zm0.19 5.53c-0.2,0 -0.65,-0.02 -0.83,-0.19 -0.16,-0.15 -0.16,-0.38 -0.16,-0.73 0,-1.03 0,-3.43 0,-4.1 1.56,-0.16 3.3,0.34 3.3,2.58 0,1.78 -1.07,2.44 -2.3,2.44z"/>
  <polygon class="fil14" points="63.99,158.15 65.01,158.15 65.01,152.23 63.99,152.23 "/>
  <path class="fil14" d="M49.26 158.15l-1.16 0c-0.41,-0.9 -1.48,-2.2 -3.25,-2.07l-0.93 2.07 -0.72 0 2.85 -6.02 0.36 0 2.84 6.02zm-4.18 -2.57c0.52,0 1.49,0.08 2.19,0.68l-1.24 -2.76 -0.94 2.09z"/>
  <path class="fil14" d="M132.86 137.09c1.22,0 2.16,0.5 2.16,2.1 0,1.69 -0.94,2.14 -2.16,2.14l-3.47 0 0 -0.86 1.02 0 0 -5.89 1 0 0 2.52 1.46 0zm0.11 3.37c0.76,0 1.5,-0.28 1.5,-1.25 0,-0.95 -0.7,-1.26 -1.5,-1.26l-1.56 0 0 2.52 1.56 0z"/>
  <polygon class="fil14" points="71.86,141.33 72.86,141.33 72.86,134.57 71.86,134.57 "/>
  <path class="fil14" d="M46.27 137.07l0 0.86 1.2 0c0.93,0 1.88,0.05 1.88,1.24 0,1.04 -0.7,1.28 -1.96,1.28l-2.41 0 0 0.86 2.59 0c1.56,0 2.32,-0.53 2.32,-2.14 0,-1.62 -0.9,-2.1 -2.2,-2.1l-1.43 0z"/>
  <polygon class="fil14 str0" points="98.69,141.33 99.69,141.33 99.69,134.57 98.69,134.57 "/>
  <path class="fil14" d="M94.74 140.46l-2.31 0c-1.32,0 -1.62,-0.7 -1.62,-1.34 0,-0.86 0.69,-1.18 1.44,-1.18l1.64 0 0 -0.86 -1.46 0c-1.18,0 -2.16,0.53 -2.16,1.88 0,0.9 0.37,1.28 0.68,1.5l-2.53 0 0 -2.87 -1 0 0 4.77c0,0.31 0.06,1.19 -0.49,1.28l0 0.46c0.45,-0.06 1.03,-0.39 1.24,-0.83 0.19,-0.4 0.24,-0.68 0.24,-1.57 0,-0.12 0,-0.38 0,-0.38l5.47 0c0.2,0.74 1.01,0.99 1.61,0.99 0.6,0 1.16,-0.24 1.47,-0.67 0.24,-0.35 0.29,-0.79 0.29,-1.18l0 -5.89 -1 0 0 5.9c0,0.2 0,0.39 -0.06,0.55 -0.07,0.17 -0.24,0.46 -0.7,0.46 -0.46,0 -0.63,-0.27 -0.69,-0.45 -0.05,-0.15 -0.08,-0.44 -0.07,-0.56z"/>
  <polygon class="fil14" points="155.15,141.33 156.14,141.33 156.14,134.57 155.15,134.57 "/>
  <polygon class="fil14" points="124.77,141.33 125.77,141.33 125.77,134.57 124.77,134.57 "/>
  <path class="fil14" d="M122.3 134.57l0 5.91c0,0.27 -0.03,0.5 -0.11,0.66 -0.11,0.2 -0.3,0.35 -0.65,0.35 -0.35,0 -0.54,-0.15 -0.65,-0.35 -0.09,-0.16 -0.11,-0.39 -0.11,-0.66 0,-0.24 0,-1.28 0,-1.28 0,-1.74 -0.93,-2.11 -2.38,-2.11l-1.25 0 0 0.86 1.23 0c1.11,0 1.85,0.23 1.85,1.23 0,1.11 -0.83,1.29 -1.92,1.29l-3.19 0 0 -4.18c-1.82,0.13 -3.88,1.85 -3.88,5.04l2.93 0 0 1.04c0,0.24 0.08,1.16 -0.49,1.28l0 0.46c0.37,-0.05 0.94,-0.28 1.19,-0.8 0.22,-0.45 0.24,-0.79 0.24,-1.98l4.78 0c0.04,0.11 0.09,0.21 0.16,0.32 0.3,0.47 0.84,0.67 1.47,0.67 0.63,0 1.17,-0.21 1.47,-0.67 0.26,-0.4 0.29,-0.79 0.29,-1.27l0 -5.81 -1 0zm-8.12 5.89l-2.05 0c0,0 -0,-0.11 0,-0.17 0,-1.94 1.35,-3.09 2.05,-3.29l0 3.46z"/>
  <path class="fil14" d="M42.83 136.72l0 3.75c0,0.28 -0.03,0.5 -0.11,0.66 -0.11,0.2 -0.29,0.35 -0.64,0.35 -0.35,0 -0.54,-0.15 -0.65,-0.35 -0.09,-0.16 -0.11,-0.38 -0.11,-0.66l-0 -4.19c-2.38,0.25 -3.93,2.32 -3.93,5.05l3.06 0c0.04,0.11 0.09,0.21 0.16,0.31 0.3,0.47 0.84,0.68 1.47,0.68 0.63,0 1.17,-0.21 1.47,-0.68 0.26,-0.4 0.29,-0.79 0.29,-1.26l0 -3.66 -1 0zm-2.52 3.75l-2.05 0c0,0 0,-0.1 0,-0.14 0,-1.9 1.35,-3.12 2.05,-3.32l0 3.46z"/>
  <path class="fil14" d="M84.96 136.71l0 3.75c0,0.27 -0.03,0.5 -0.11,0.66 -0.11,0.2 -0.3,0.35 -0.65,0.35 -0.35,0 -0.54,-0.15 -0.65,-0.35 -0.09,-0.16 -0.11,-0.36 -0.11,-0.66 0,-0.23 0,-3.74 0,-3.74l-1 0 0 3.75c0,0.28 -0.03,0.5 -0.11,0.66 -0.11,0.2 -0.3,0.35 -0.65,0.35 -0.35,0 -0.54,-0.15 -0.65,-0.35 -0.09,-0.16 -0.11,-0.38 -0.11,-0.66l0 -4.19c-2.38,0.25 -3.93,2.32 -3.93,5.05l3.06 0c0.04,0.11 0.09,0.21 0.16,0.31 0.3,0.47 0.84,0.68 1.47,0.68 0.5,0 0.95,-0.13 1.26,-0.43 0.31,0.29 0.76,0.42 1.26,0.42 0.63,0 1.17,-0.21 1.47,-0.68 0.26,-0.4 0.29,-0.79 0.29,-1.26l0 -3.66 -1 0zm-5.04 3.75l-2.05 0c0,0 0,-0.1 0,-0.14 0,-1.9 1.35,-3.12 2.05,-3.32l0 3.46z"/>
  <path class="fil14" d="M152.67 134.57l0 5.91c0,0.27 -0.03,0.5 -0.11,0.66 -0.11,0.2 -0.29,0.35 -0.65,0.35 -0.35,0 -0.54,-0.15 -0.65,-0.35 -0.09,-0.16 -0.11,-0.39 -0.11,-0.66 0,-0.24 0,-1.28 0,-1.28 0,-1.74 -0.93,-2.11 -2.38,-2.11l-1.25 0 0 0.86 1.23 0c1.11,0 1.85,0.23 1.85,1.23 0,1.11 -0.83,1.29 -1.92,1.29l-3.48 0c0.42,-0.22 0.67,-0.7 0.67,-1.51 0,-0.81 -0.44,-1.87 -2.28,-1.87l-1.14 0 0 -2.52 -1.01 0 0 5.89 -1.67 0 0 -4.19c-1.89,0.15 -3.88,1.9 -3.88,5.05l2.93 0 0 1.04c0,0.58 -0.04,1.18 -0.49,1.28l0 0.46c0.37,-0.05 0.94,-0.28 1.19,-0.8 0.22,-0.45 0.24,-0.78 0.24,-1.98l10.5 0c0.04,0.11 0.09,0.22 0.16,0.32 0.3,0.47 0.84,0.67 1.47,0.67 0.63,0 1.17,-0.21 1.47,-0.67 0.26,-0.4 0.29,-0.79 0.29,-1.27l0 -5.82 -1 0zm-13.84 5.89l-2.05 0c0,0 -0,-0.11 0,-0.17 0,-1.89 1.35,-3.09 2.05,-3.29l0 3.46zm4.95 0l-1.33 0 0 -2.52 1.35 0c1.12,0 1.52,0.57 1.52,1.17 0,0.73 -0.4,1.35 -1.54,1.35z"/>
  <path class="fil14" d="M109.03 136.71l0 3.75c0,0.27 -0.03,0.5 -0.11,0.66 -0.11,0.2 -0.29,0.35 -0.64,0.35 -0.35,0 -0.54,-0.15 -0.65,-0.35 -0.09,-0.16 -0.11,-0.38 -0.11,-0.66l0 -4.19c-2.38,0.25 -3.93,2.32 -3.93,5.05l3.06 0c0.04,0.1 0.09,0.21 0.16,0.31 0.3,0.47 0.84,0.68 1.47,0.68 0.63,0 1.17,-0.21 1.47,-0.68 0.26,-0.4 0.29,-0.79 0.29,-1.27l0 -3.66 -1 0zm-2.51 3.75l-2.05 0c0,0 0,-0.1 0,-0.14 0,-1.9 1.35,-3.12 2.05,-3.32l0 3.46z"/>
  <polygon class="fil14" points="43.41,143.53 42.83,142.86 42.25,143.53 42.83,144.2 "/>
  <polygon class="fil14" points="41.89,143.53 41.31,142.86 40.72,143.53 41.31,144.2 "/>
  <polygon class="fil14" points="41.32,135.13 40.74,134.47 40.15,135.13 40.74,135.8 "/>
  <polygon class="fil14" points="39.79,135.13 39.21,134.47 38.63,135.13 39.21,135.8 "/>
  <polygon class="fil14" points="80.92,135.12 80.34,134.45 79.75,135.12 80.34,135.78 "/>
  <polygon class="fil14" points="79.4,135.12 78.81,134.45 78.23,135.12 78.81,135.78 "/>
  <polygon class="fil14" points="83.02,143.54 82.43,142.88 81.85,143.54 82.43,144.21 "/>
  <polygon class="fil14" points="81.5,143.54 80.91,142.88 80.33,143.54 80.91,144.21 "/>
  <polygon class="fil14" points="85.54,143.54 84.96,142.88 84.37,143.54 84.96,144.21 "/>
  <polygon class="fil14" points="107.52,135.12 106.94,134.45 106.35,135.12 106.94,135.78 "/>
  <polygon class="fil14" points="149.71,135.23 149.12,134.56 148.54,135.23 149.12,135.9 "/>
  <polygon class="fil14" points="105.99,135.12 105.4,134.45 104.82,135.12 105.4,135.78 "/>
  <polygon class="fil14" points="119.41,143.54 118.83,142.88 118.25,143.54 118.83,144.21 "/>
  <polygon class="fil14" points="109.61,143.53 109.03,142.87 108.44,143.53 109.03,144.2 "/>
  <polygon class="fil14" points="108.09,143.53 107.5,142.87 106.92,143.53 107.5,144.2 "/>
  <path class="fil14" d="M69.47 134.57l0 5.91c0,0.27 -0.03,0.5 -0.11,0.66 -0.11,0.2 -0.29,0.35 -0.65,0.35 -0.35,0 -0.54,-0.15 -0.65,-0.35 -0.09,-0.16 -0.11,-0.38 -0.11,-0.66l0 -3.39 -1 0c0,0 0,3.35 0,3.38l-1.26 0 0 -3.37 -1 0 0 3.37 -1.26 0 0 -3.38 -1 0 0 3.38 -3.85 0c-1.11,-0.09 -1.37,-0.74 -1.37,-1.33 0,-0.86 0.69,-1.19 1.44,-1.19l1.64 0 0 -0.86 -1.46 0c-1.18,0 -2.16,0.54 -2.16,1.89 0,0.88 0.36,1.27 0.66,1.49l-2.52 0 0 -4.19c-2.19,0.3 -3.93,2.1 -3.93,5.05l2.93 0 0 1.04c0,0.41 0.04,1.17 -0.49,1.28l0 0.46c0.37,-0.05 0.96,-0.32 1.23,-0.81 0.21,-0.38 0.25,-0.73 0.25,-1.54 0,-0.15 0,-0.43 0,-0.43l12.27 0c0.04,0.11 0.09,0.22 0.16,0.32 0.3,0.47 0.84,0.68 1.47,0.68 0.63,0 1.17,-0.21 1.47,-0.68 0.26,-0.4 0.29,-0.79 0.29,-1.27l0 -5.82 -1 0zm-15.66 5.89l-2.05 0c0,0 0,-0.1 0,-0.16 0,-1.91 1.35,-3.1 2.05,-3.3l0 3.46z"/>
 </g>
</svg>
