<?xml version="1.0" encoding="UTF-8"?>
<!DOCTYPE svg PUBLIC "-//W3C//DTD SVG 1.1//EN" "http://www.w3.org/Graphics/SVG/1.1/DTD/svg11.dtd">
<!-- Creator: CorelDRAW 2018 (64-Bit) -->
<svg xmlns="http://www.w3.org/2000/svg" xml:space="preserve" width="113.851mm" height="113.851mm" version="1.1" style="shape-rendering:geometricPrecision; text-rendering:geometricPrecision; image-rendering:optimizeQuality; fill-rule:evenodd; clip-rule:evenodd"
viewBox="0 0 214.32 214.32"
 xmlns:xlink="http://www.w3.org/1999/xlink"
 xmlns:dc="http://purl.org/dc/elements/1.1/"
 xmlns:cc="http://creativecommons.org/ns#"
 xmlns:rdf="http://www.w3.org/1999/02/22-rdf-syntax-ns#"
 xmlns:svg="http://www.w3.org/2000/svg"
 xmlns:sodipodi="http://sodipodi.sourceforge.net/DTD/sodipodi-0.dtd"
 xmlns:inkscape="http://www.inkscape.org/namespaces/inkscape"
 enable-background="new 1149 238 100 100"
 inkscape:version="0.91 r13725"
 sodipodi:docname="Scoot_logo.svg">
 <defs>
  <style type="text/css">
   <![CDATA[
    .fil0 {fill:#FEFEFE}
    .fil2 {fill:#1D1D1B}
    .fil1 {fill:#FFE900}
   ]]>
  </style>
 </defs>
 <g id="Layer_x0020_1">
  <metadata id="CorelCorpID_0Corel-Layer"/>
  <rect class="fil0" x="-0" y="-0" width="214.32" height="214.32"/>
  <g id="_2501808275456">
   <sodipodi:namedview pagecolor="#ffffff" bordercolor="#666666" borderopacity="1" objecttolerance="10" gridtolerance="10" guidetolerance="10" inkscape:pageopacity="0" inkscape:pageshadow="2" inkscape:window-width="1366" inkscape:window-height="705" id="namedview3347" showgrid="false" inkscape:snap-page="true" inkscape:snap-to-guides="true" inkscape:zoom="4.0400329" inkscape:cx="35.800049" inkscape:cy="31.599993" inkscape:window-x="-8" inkscape:window-y="-8" inkscape:window-maximized="1" inkscape:current-layer="Layer_1" fit-margin-top="0" fit-margin-left="0" fit-margin-right="0" fit-margin-bottom="0"/>
   <g id="g3337">
    <path id="path3341" class="fil1" d="M99.32 166.18c32.5,0 59.02,-26.34 59.02,-59.02 0,-32.5 -26.34,-59.02 -59.02,-59.02 -32.5,0 -59.02,26.34 -59.02,59.02 0,32.69 26.34,59.02 59.02,59.02z" inkscape:connector-curvature="0"/>
    <g>
     <polygon id="polyline3343" class="fil2" points="155.35,104.17 160.95,102.68 165.44,120.98 174.03,118.93 173.84,113.89 171.42,114.45 168.05,101 174.03,99.5 172.54,92.78 166.56,94.27 164.69,86.8 158.15,91.28 159.27,95.95 153.67,97.45 155.16,104.17 "/>
    </g>
    <g>
     <path id="path3345" class="fil2" d="M154.42 98.01c-2.24,-2.24 -5.42,-3.74 -9.53,-3.74 -8.97,0 -13.26,7.1 -13.26,13.07l0 0c0,5.98 4.3,13.07 13.26,13.07 8.97,0 13.26,-7.1 13.26,-13.07 0,-2.62 -0.75,-5.23 -2.24,-7.47l-1.49 -1.87zm-3.74 9.34c0,3.55 -2.62,6.16 -5.98,6.16 -3.18,0 -5.98,-2.62 -5.98,-6.16l0 0c0,-3.55 2.62,-6.16 5.98,-6.16 3.36,0 5.98,2.62 5.98,6.16l0 0zm-19.24 0c0,-5.98 -4.3,-13.07 -13.26,-13.07 -8.97,0 -13.26,7.1 -13.26,13.07l0 0c0,5.98 4.3,13.07 13.26,13.07 8.97,0 13.26,-7.1 13.26,-13.07l0 0zm-7.28 0c0,3.55 -2.62,6.16 -5.98,6.16 -3.18,0 -5.98,-2.62 -5.98,-6.16l0 0c0,-3.55 2.62,-6.16 5.98,-6.16 3.18,0 5.98,2.62 5.98,6.16l0 0zm-26.52 -2.8l7.47 0c-1.31,-5.98 -6.54,-10.27 -13.07,-10.27 -7.28,0 -12.89,5.79 -12.89,13.07 0,7.28 5.79,13.07 13.07,13.07 6.72,0 11.58,-4.48 12.89,-10.09l-7.47 0c-0.75,1.49 -2.24,3.36 -5.23,3.36 -3.55,0 -5.79,-2.62 -5.79,-6.16 0,-1.68 0.56,-3.36 1.68,-4.48 1.12,-1.12 2.62,-1.87 4.3,-1.68 2.62,-0.37 4.11,1.49 5.04,3.18l0 0zm-26.34 -2.61l7.28 0c-0.56,-6.54 -6.16,-7.66 -9.53,-7.66 -5.04,0 -9.53,3.18 -9.53,8.4 0,3.36 2.62,5.42 5.79,6.35 4.67,1.87 6.54,2.05 6.54,3.74 0,1.12 -1.31,1.87 -2.62,1.87 -0.37,0 -2.43,0 -2.8,-2.24l-7.28 0c0.75,6.54 6.35,8.22 10.09,8.22 5.42,0 10.09,-3.18 10.09,-8.59 0,-5.23 -4.48,-6.54 -8.59,-7.66 -1.87,-0.56 -3.74,-1.31 -3.74,-2.43 0,-0.75 0.56,-1.68 2.05,-1.68 2.05,-0.19 2.24,1.12 2.24,1.68l-0 0zm0 0l0 0 0 0z" inkscape:connector-curvature="0"/>
    </g>
   </g>
  </g>
 </g>
</svg>
