<svg xmlns="http://www.w3.org/2000/svg" xmlns:xlink="http://www.w3.org/1999/xlink" width="149.535" height="149.535" viewBox="0 0 149.535 149.535"><defs><clipPath id="a"><rect width="149.536" height="149.536" fill="none"/></clipPath></defs><g clip-path="url(#a)"><rect width="149.536" height="149.536" rx="5" fill="none" opacity="0.8"/><g transform="translate(20.116 20.561)"><path d="M109.086,11.153,83.612.15a1.805,1.805,0,0,0-1.441,0l-25.474,11a1.82,1.82,0,0,0-1.092,1.67V28.189a28.542,28.542,0,0,0-7.289,7.389A26.34,26.34,0,0,0,26.4,23.655c-15.667,0-25.4,10.5-25.4,27.4A34.208,34.208,0,0,0,4.789,67.325H2.822a1.82,1.82,0,0,0,0,3.639H7.034a61.347,61.347,0,0,0,8.39,9.229c1.024.97,2.022,1.914,2.951,2.857,6.709,6.8,27.854,24.928,28.75,25.689a1.82,1.82,0,0,0,2.365,0c.9-.77,22.044-18.889,28.75-25.689.93-.943,1.927-1.887,2.951-2.857a57.607,57.607,0,0,0,8.991-10.048,31.619,31.619,0,0,0,4.469-10.463l7.722-5.5a18.531,18.531,0,0,0,7.8-15.048V12.823A1.82,1.82,0,0,0,109.086,11.153ZM4.642,51.058c0-14.881,8.135-23.764,21.762-23.764s19.635,11.343,20.27,12.637a1.827,1.827,0,0,0,3.266,0A24.716,24.716,0,0,1,55.59,32.8v6.338a18.531,18.531,0,0,0,7.8,15.052L65.1,55.4,61.517,67.325H55.59a1.819,1.819,0,0,0-1.629,1.006l-2.769,5.544L48.3,50.723a1.82,1.82,0,0,0-3.548-.3l-5.069,16.9H33.755a1.82,1.82,0,0,0-1.456.728l-2.862,3.821L26.455,52.5a1.82,1.82,0,0,0-3.523-.3L17.886,67.325H8.97A30.158,30.158,0,0,1,4.642,51.058ZM87.151,68.144A54.059,54.059,0,0,1,78.7,77.551c-1.057,1-2.083,1.972-3.041,2.944-5.708,5.783-22.7,20.465-27.347,24.463-4.645-4-21.639-18.68-27.345-24.463-.957-.972-1.983-1.945-3.041-2.944a71.352,71.352,0,0,1-6.361-6.587H19.2a1.82,1.82,0,0,0,1.725-1.245L24,60.484,26.5,76.7a1.82,1.82,0,0,0,3.253.815l4.913-6.551h6.369a1.82,1.82,0,0,0,1.743-1.3l2.988-9.933L48.334,80.3a1.819,1.819,0,0,0,1.5,1.569,1.973,1.973,0,0,0,.3.018,1.819,1.819,0,0,0,1.629-1.006l4.955-9.911h6.154a1.82,1.82,0,0,0,1.743-1.3l3.035-10.1,2.516,18.911a1.82,1.82,0,0,0,3.363.7l5.459-9.1a1.82,1.82,0,1,0-3.119-1.874l-2.782,4.636L71.357,59.865,81,66.73a3.246,3.246,0,0,0,3.767,0l5-3.561A28.436,28.436,0,0,1,87.151,68.144Zm19.388-29.006a14.884,14.884,0,0,1-6.276,12.088L82.884,63.6,65.505,51.224a14.884,14.884,0,0,1-6.276-12.086V14.02L82.884,3.8,106.539,14.02Z" transform="translate(-0.997 0)" fill="#FFFFFF"/><path d="M54.288,4.507l-18.2,7.861A1.82,1.82,0,0,0,35,14.038V35.568a11.245,11.245,0,0,0,4.746,9.122L53.96,54.808a1.819,1.819,0,0,0,2.111,0L70.285,44.691a11.247,11.247,0,0,0,4.746-9.123V14.038a1.82,1.82,0,0,0-1.092-1.67l-18.2-7.861A1.82,1.82,0,0,0,54.288,4.507Zm17.1,10.736V35.568a7.6,7.6,0,0,1-3.219,6.159L55.016,51.094,41.858,41.727a7.6,7.6,0,0,1-3.219-6.159V15.234L55.016,8.159Z" transform="translate(26.872 3.571)" fill="#FFFFFF"/><path d="M41.911,25.1a1.82,1.82,0,0,0-2.184,2.911l7.278,5.459a1.82,1.82,0,0,0,2.513-.318l14.557-18.2a1.82,1.82,0,0,0-2.842-2.273L47.769,29.5Z" transform="translate(30.15 9.84)" fill="#FFFFFF"/></g></g></svg>