<svg xmlns="http://www.w3.org/2000/svg" xmlns:xlink="http://www.w3.org/1999/xlink" width="149.536" height="149.535" viewBox="0 0 149.536 149.535"><defs><clipPath id="a"><rect width="149.536" height="149.536" fill="none"/></clipPath><clipPath id="b"><rect width="128.699" height="109.177" fill="none"/></clipPath></defs><g clip-path="url(#a)"><rect width="149.536" height="149.536" rx="5" fill="none" opacity="0.8"/><g transform="translate(9.711 20.561)" clip-path="url(#b)"><path d="M128.7,112.823V82.654a8.04,8.04,0,0,0-11.071-7.45,10.53,10.53,0,0,0-3.387-7.337,10.558,10.558,0,1,0-14.018-.972,13.829,13.829,0,0,0-4.939,4.777l-2.875,4.7H84.96V72.935A17.037,17.037,0,0,0,72.849,56.648,10.5,10.5,0,0,0,74.906,50.4V49.39a10.557,10.557,0,1,0-21.115,0V50.4a10.5,10.5,0,0,0,2.057,6.252A17.037,17.037,0,0,0,43.737,72.935V76.37H36.288l-2.875-4.7a13.827,13.827,0,0,0-4.939-4.776,10.556,10.556,0,1,0-14.017.972A10.53,10.53,0,0,0,11.07,75.2,8.04,8.04,0,0,0,0,82.655v5.027a2.514,2.514,0,1,0,5.027,0V82.655a3.016,3.016,0,0,1,6.033,0v21.288a13.007,13.007,0,0,0,12.993,12.993h1.08v5.059H14.2a9.181,9.181,0,0,1-9.17-9.171v-5.032a2.514,2.514,0,0,0-5.027,0v5.032a14.218,14.218,0,0,0,11.684,13.97v16.189H3.6a2.514,2.514,0,1,0,0,5.027H33.678a8.556,8.556,0,0,0,8.546-8.546V110.552a12.5,12.5,0,0,0-2.518-7.537H50.775v36.951A8.037,8.037,0,0,0,64.349,145.8a8.037,8.037,0,0,0,13.574-5.833v-9.552a2.514,2.514,0,1,0-5.027,0v9.552a3.016,3.016,0,1,1-6.033,0V103.015h6.033V110.3a2.514,2.514,0,0,0,5.027,0v-7.287H88.991a12.5,12.5,0,0,0-2.518,7.537v28.911a8.556,8.556,0,0,0,8.546,8.546H125.1a2.514,2.514,0,1,0,0-5.027h-8.081V126.793A14.218,14.218,0,0,0,128.7,112.823Zm-8.044-33.185a3.02,3.02,0,0,1,3.016,3.016v30.169a9.18,9.18,0,0,1-9.17,9.17H103.566v-5.059h1.08a13.007,13.007,0,0,0,12.993-12.993V82.654A3.019,3.019,0,0,1,120.654,79.638ZM107.776,54a5.53,5.53,0,1,1-5.53,5.53A5.536,5.536,0,0,1,107.776,54ZM93.818,81.4a2.513,2.513,0,0,0,2.144-1.2l3.61-5.9a8.856,8.856,0,0,1,7.508-4.209,5.536,5.536,0,0,1,5.53,5.53V95.977H101.55V90.17l3.8-6a2.514,2.514,0,1,0-4.248-2.688l-3.449,5.45H82.237a2.765,2.765,0,0,1,0-5.53H93.818ZM66.562,60.953,64.381,66.9,62.2,60.953ZM58.819,49.39a5.53,5.53,0,0,1,11.06,0V50.4a5.53,5.53,0,1,1-11.06,0ZM57.058,61.536l4.963,13.525a2.514,2.514,0,0,0,4.72,0L71.7,61.556a12,12,0,0,1,8.237,11.379v3.783a7.789,7.789,0,0,0-4.98,10.209H53.744a7.789,7.789,0,0,0-4.98-10.209V72.935A12,12,0,0,1,57.058,61.536ZM32.734,80.2a2.513,2.513,0,0,0,2.144,1.2H46.459a2.765,2.765,0,0,1,0,5.53H31.044l-3.449-5.45a2.514,2.514,0,0,0-4.248,2.688l3.8,6v5.807H16.087V75.616a5.536,5.536,0,0,1,5.53-5.53,8.856,8.856,0,0,1,7.508,4.209ZM20.921,54a5.53,5.53,0,1,1-5.53,5.53A5.536,5.536,0,0,1,20.921,54ZM16.71,127.02h8.421v12.443a8.494,8.494,0,0,0,.761,3.519H16.71ZM37.2,110.552v28.911a3.519,3.519,0,0,1-7.038,0V114.421a2.514,2.514,0,0,0-2.514-2.514H24.052a7.974,7.974,0,0,1-7.965-7.965V101H27.2a2.515,2.515,0,0,0,2.463,2.011A7.546,7.546,0,0,1,37.2,110.552Zm24.638,29.414a3.016,3.016,0,1,1-6.033,0V103.015h6.033ZM32.174,97.988V91.955H96.523v6.033ZM91.5,110.552a7.546,7.546,0,0,1,7.537-7.537A2.515,2.515,0,0,0,101.5,101h11.111v2.938a7.974,7.974,0,0,1-7.965,7.965h-3.594a2.514,2.514,0,0,0-2.514,2.514v25.042a3.519,3.519,0,0,1-7.038,0V110.552Zm11.3,32.43a8.494,8.494,0,0,0,.761-3.519V127.02h8.421v15.962Z" transform="translate(0.001 -38.833)" fill="#FFFFFF"/><path d="M292.514,353.17a2.515,2.515,0,1,0,1.777.737A2.522,2.522,0,0,0,292.514,353.17Z" transform="translate(-217.104 -274.157)" fill="#FFFFFF"/><path d="M2.514,268.2A2.513,2.513,0,1,0,0,265.684,2.515,2.515,0,0,0,2.514,268.2Z" transform="translate(0 -206.78)" fill="#FFFFFF"/></g></g></svg>