<svg xmlns="http://www.w3.org/2000/svg" width="70" height="43.159" viewBox="0 0 70 43.159">
  <path id="Path_4099" data-name="Path 4099" d="M54.9,10.144q-3.431,4-3.24,6.767a4.012,4.012,0,0,0,2.287,3.717A14.969,14.969,0,0,1,69,35.685a14.622,14.622,0,0,1-4.384,10.579,14.958,14.958,0,0,1-21.348,0,14.622,14.622,0,0,1-4.384-10.579A23.359,23.359,0,0,1,40.409,27.3a39.877,39.877,0,0,1,3.812-7.529,35.8,35.8,0,0,1,5.146-6.29A36.412,36.412,0,0,1,54.9,9Zm-38.884,0q-3.431,4-3.24,6.767a4.012,4.012,0,0,0,2.287,3.717,14.527,14.527,0,0,1,10.674,4.384,14.527,14.527,0,0,1,4.384,10.674,14.622,14.622,0,0,1-4.384,10.579,14.372,14.372,0,0,1-10.674,4.479A14.372,14.372,0,0,1,4.384,46.264,14.622,14.622,0,0,1,0,35.685,23.359,23.359,0,0,1,1.525,27.3a39.877,39.877,0,0,1,3.812-7.529,35.8,35.8,0,0,1,5.146-6.29A36.412,36.412,0,0,1,16.011,9Z" transform="translate(0.5 -8.084)" fill="#0FACF3" stroke="rgba(0,0,0,0)" stroke-width="1"/>
</svg>
