<?xml version="1.0" encoding="UTF-8"?>
<!DOCTYPE svg PUBLIC "-//W3C//DTD SVG 1.1//EN" "http://www.w3.org/Graphics/SVG/1.1/DTD/svg11.dtd">
<!-- Creator: CorelDRAW 2018 (64-Bit) -->
<svg xmlns="http://www.w3.org/2000/svg" xml:space="preserve" width="65.0401mm" height="65.0401mm" version="1.1" style="shape-rendering:geometricPrecision; text-rendering:geometricPrecision; image-rendering:optimizeQuality; fill-rule:evenodd; clip-rule:evenodd"
viewBox="0 0 2039.02 2039.02"
 xmlns:xlink="http://www.w3.org/1999/xlink">
 <defs>
  <style type="text/css">
   <![CDATA[
    .fil3 {fill:none}
    .fil0 {fill:#2B2B2B;fill-rule:nonzero}
    .fil1 {fill:#DF7060;fill-rule:nonzero}
    .fil2 {fill:#E6AA2F;fill-rule:nonzero}
   ]]>
  </style>
 </defs>
 <g id="Layer_x0020_1">
  <metadata id="CorelCorpID_0Corel-Layer"/>
  <g id="_875550336">
   <path class="fil0" d="M867.98 976.01c-19.06,0 -34.51,20.6 -34.51,46.02 0,25.41 15.45,46.02 34.51,46.02 19.06,0 34.51,-20.6 34.51,-46.02 0,-25.42 -15.45,-46.02 -34.51,-46.02z"/>
   <path class="fil0" d="M1224.6 979.85c-19.06,0 -34.51,20.6 -34.51,46.02 0,25.41 15.45,46.02 34.51,46.02 19.06,0 34.51,-20.6 34.51,-46.02 0,-25.42 -15.45,-46.02 -34.51,-46.02z"/>
   <path class="fil0" d="M1064.13 1067.32c3.9,-4.89 4.69,-11.47 0,-16.27 -3.97,-4.06 -12.41,-4.85 -16.27,0 -7.29,9.15 -17.9,9.96 -25.77,0.99 -9.78,-11.15 -26,5.17 -16.27,16.27 15.41,17.57 43.6,17.47 58.31,-0.99z"/>
   <path class="fil0" d="M796.31 923.63c-7.82,12.62 12.08,24.19 19.87,11.61 14.07,-22.71 54.83,-23.21 68.38,-0.86 7.67,12.64 27.57,1.09 19.87,-11.61 -22.73,-37.49 -84.98,-36.48 -108.12,0.86z"/>
   <path class="fil0" d="M1207.31 935.24c14.07,-22.71 54.83,-23.21 68.38,-0.86 7.67,12.64 27.57,1.09 19.87,-11.61 -22.73,-37.49 -84.98,-36.48 -108.11,0.86 -7.82,12.62 12.08,24.19 19.87,11.61z"/>
   <path class="fil0" d="M1100.33 1143.5c-44.2,10.48 -88.3,14.22 -131.15,-3.39 -13.68,-5.62 -19.65,16.63 -6.12,22.19 46.38,19.06 95.62,14.71 143.38,3.39 14.4,-3.41 8.3,-25.6 -6.12,-22.19z"/>
   <path class="fil0" d="M1483.11 1126.68c0.11,-31.08 10.95,-59.61 17.26,-89.47 8.51,-41.7 4.31,-83.5 -18.03,-120.44 -13.05,-21.46 -36.49,-35.5 -48.77,-56.85 -13.94,-24.22 -3.43,-51.65 -7.19,-77.31 -1.33,-9.18 -4.31,-16.92 -8.08,-24.33 35.28,-15.15 59.28,-45.79 65.25,-84.49 7.74,-50.43 -19.47,-97.1 -50.76,-134.04 -75.21,-88.48 -184.7,-149.41 -296.73,-176.4 -38.27,-9.18 -77.86,-13.94 -117.57,-14.49 0.11,-0.22 0.11,-0.33 0.22,-0.55 0.11,-1.55 0.33,-3.09 0.44,-4.64 1.44,-17.47 0.55,-36.94 -12.72,-49.99 -13.94,-13.38 -40.04,-17.58 -58.73,-17.14 -40.59,1 -54.3,33.51 -51.2,67.13 0.44,5.42 1.44,10.84 2.77,16.15 -138.69,28.2 -265.32,109.38 -330.79,240.1 -26.1,52.2 -45.34,115.9 -26.1,173.52 14.82,44.68 52.31,75.87 97.33,84.39 0,12.28 -2.21,24.66 -10.18,38.38 -23.45,40.81 -51.98,73.44 -61.38,121.22 -9.51,48.44 8.07,82.84 20.46,128.18 16.26,59.83 -13.05,114.14 -28.76,170.43 -10.18,37.27 -16.26,78.52 -1.44,115.46 8.08,20.13 22.56,35.72 34.17,53.75 18.8,29.75 9.29,50.32 3.98,81.62 -13.49,78.96 81.62,111.26 144.88,92.9 -4.09,29.97 -4.98,60.6 -3.98,91.9 0.55,14.49 22.9,14.49 22.45,0 -3.1,-90.24 11.61,-185.14 76.64,-253.93 13.49,-14.27 28.53,-24.11 44.13,-32.07 0.55,60.38 31.19,120.88 60.61,172.42 5.86,10.17 13.38,28.64 27.65,27.98 11.28,-0.66 25.21,-19.13 32.07,-26.54 16.15,-17.03 30.3,-35.72 45.79,-53.3 15.48,17.58 29.75,36.28 45.79,53.3 6.97,7.52 19.69,24.78 30.53,26.32 15.26,2.1 23,-17.03 29.2,-27.76 29.31,-51.1 59.61,-111.15 60.5,-171.2 13.61,8.62 26.1,18.8 37.49,30.85 64.92,68.79 79.63,163.68 76.64,253.93 -0.55,14.49 21.79,14.49 22.23,0 1.22,-34.28 0,-67.58 -5.09,-100.31 75.54,-9.84 141.34,-40.81 131.94,-130.39 -2.65,-25 -10.51,-48.77 -15.26,-73.44 -8.4,-44.13 1.55,-71 22.56,-108.27 22.12,-39.15 23,-77.53 14.82,-121.21 -5.64,-30.08 -15.04,-60.5 -15.04,-91.35zm-564.7 -787.33l0 0c-0.11,-1.77 -0.22,-3.54 -0.22,-5.31 0,-19.8 9.07,-36.28 35.5,-34.95 11.72,0.45 32.73,3.32 39.81,13.94 1.55,2.21 2.55,4.87 3.21,7.63 0.11,0.33 0.11,0.66 0.22,0.88 0.22,1.22 0.44,2.55 0.55,3.98 0.33,3.43 0.22,6.97 0,10.4 0,1.33 -0.11,2.66 -0.33,3.98 -0.11,1.22 -0.22,2.55 -0.33,3.76 -0.22,1.66 -0.44,3.21 -0.55,4.64l0 0.55c-25.11,0.66 -50.21,2.99 -74.98,6.97 -0.55,-2.21 -1.11,-4.42 -1.55,-6.75 -0.33,-1.77 -0.66,-3.65 -0.88,-5.42 -0.22,-1.44 -0.33,-2.88 -0.44,-4.31zm-286.56 386.53l0 0c14.38,23.78 1.77,55.41 2.77,80.85 0.33,9.95 1.88,19.35 3.1,28.31 -72.33,-16.04 -90.14,-96.88 -73.44,-162.47 13.94,-54.86 45.13,-106.06 82.95,-147.87 76.09,-84.27 184.92,-138.24 297.28,-151.52 119.44,-14.04 242.87,15.48 345.62,77.08 52.53,31.52 104.4,72.44 140.45,122.54 37.71,52.2 50.98,137.91 -23.34,166 -2.1,-3.43 -4.2,-6.86 -6.19,-10.4 -19.47,-34.84 -18.25,-70.12 -15.26,-108.61 0.11,-1.33 0,-2.54 -0.33,-3.54 -0.22,-4.53 -2.77,-8.95 -8.19,-10.72 -137.03,-46.89 -284.01,-34.28 -425.35,-17.36 -116.02,13.83 -237.56,36.16 -326.48,117.78 -8.19,7.41 -1.99,18.03 6.41,19.91zm219.42 729.05l0 0c-29.64,21.57 -53.19,50.76 -70.67,82.84 -17.36,31.52 -28.31,64.04 -35.06,97.21 -0.33,0.11 -0.77,0.11 -1.11,0.33 -31.19,12.05 -64.04,12.72 -93.45,-5.09 -34.28,-20.9 -34.07,-48.44 -25.99,-83.83 7.85,-33.73 -2.32,-57.73 -22.23,-85.16 -35.39,-48.88 -35.06,-94.67 -17.69,-151.08 13.05,-42.58 31.85,-84.72 31.3,-130.06 -0.66,-45.57 -29.75,-84.17 -29.42,-129.95 0.33,-54.63 31.52,-93.56 58.73,-137.47 9.29,-14.93 17.8,-31.19 19.24,-48.99 1.55,-19.58 -6.97,-37.6 -7.96,-56.96 -1.66,-33.29 10.06,-62.6 -5.75,-91.13 51.31,-43.69 113.47,-68.02 178.61,-83.28 -2.87,79.41 -34.95,157.49 -115.02,186.91 -9.29,3.43 -9.62,14.38 -4.76,19.8 0.11,37.93 1,75.98 2.87,114.02 -32.74,-10.17 -62.48,25.22 -66.25,57.51 -2.43,20.79 -2.32,45.34 12.72,61.49 16.59,17.81 42.36,24.89 65.92,24 2.21,17.36 4.76,34.84 7.41,52.2 14.27,87.92 52.98,159.04 139.46,191.22 29.2,10.84 60.72,18.36 93.01,22.89 15.48,52.09 -81.84,69.01 -113.91,92.57zm0.22 -801.94l0 0c52.2,63.37 115.57,119.11 188.46,157.71 27.76,14.6 64.26,27.87 92.79,7.19 10.29,-7.41 17.03,-16.81 20.13,-27.21 47.12,44.24 129.29,93.35 186.8,66.47 3.54,108.16 2.98,226.94 -27.87,329.91 -18.03,59.94 -53.2,109.71 -113.03,132.39 -54.52,20.57 -114.47,25.66 -172.42,23.33 -51.54,-1.99 -105.07,-8.18 -153.29,-27.43 -59.94,-24 -94.12,-71.55 -109.93,-132.82 -28.32,-109.71 -30.19,-233.03 -30.08,-346.17 74.65,-33.18 110.71,-105.18 118.45,-183.37zm-128.96 420.16l0 0c-12.83,0.11 -24.55,-2.32 -35.83,-9.07 -15.7,-9.07 -18.25,-25 -17.81,-41.7 0.55,-22.34 17.47,-62.04 45.57,-42.8 1.99,31.3 4.53,62.49 8.07,93.56zm246.08 566.91l0 0c-2.21,-3.32 -4.2,-6.74 -6.19,-10.28 -4.53,-7.3 -8.4,-15.04 -12.39,-22.56 -23.11,-44.02 -46.56,-92.57 -46.89,-143 26.65,23.45 51.31,48.88 76.53,73.99 11.39,11.5 27.54,30.53 45.02,40.26 -15.71,21.35 -36.61,54.75 -56.07,61.6zm67.46 -82.28l0 0c-22.34,-7.52 -44.13,-38.93 -59.94,-54.86 -18.69,-18.8 -37.6,-37.27 -57.51,-54.74 12.72,-5.75 25.44,-12.05 37.71,-20.02 22.12,-14.49 36.38,-37.6 32.52,-63.04 36.38,3.43 73.43,3.21 109.16,-0.44 -3.76,23.67 8.07,45.57 27.76,60.5 14.82,11.17 32.85,16.37 49.77,23 -18.91,20.24 -38.6,39.7 -59.28,58.17 -17.81,15.82 -56.07,59.39 -80.18,51.43zm107.5 49.44l0 0c-3.98,7.52 -7.96,15.26 -12.28,22.56 -1.99,3.54 -4.09,6.97 -6.3,10.28 -20.13,-7.08 -41.7,-42.47 -57.51,-63.59 12.06,-7.96 23.56,-20.02 32.74,-27.43 32.07,-25.88 61.93,-54.19 90.24,-84.16 -0.55,50.21 -23.89,98.54 -46.89,142.34zm317.52 -474.35l0 0c1.88,46.45 21.68,90.91 20.24,137.36 -1.44,48.11 -40.59,79.41 -46.34,125.97 -5.97,49.11 20.35,94.56 19.69,143.22 -0.89,67.35 -59.17,83.61 -114.58,90.13 -6.75,-31.3 -17.58,-61.93 -33.95,-91.79 -17.47,-32.07 -41.03,-61.27 -70.56,-82.84 -32.19,-23.56 -130.06,-41.25 -113.81,-93.12 11.72,-1.77 23.34,-3.76 34.62,-6.19 90.91,-19.68 150.74,-72.88 177.51,-162.35 9.84,-32.85 16.59,-67.13 21.23,-102.19 35.28,-3.98 70.89,-25.44 75.87,-63.48 5.86,-44.79 -23,-88.59 -66.91,-94.78 -0.11,-31.19 -0.88,-61.93 -1.99,-91.9 6.97,-10.18 -7.96,-23.89 -18.03,-14.27 -0.22,0.33 -0.66,0.44 -0.88,0.77 -0.44,0.33 -0.88,0.55 -1.22,0.99 -30.08,25.11 -83.61,3.87 -113.58,-11.06 -31.52,-15.59 -57.73,-37.93 -80.07,-64.7 -9.07,-10.84 -22.89,2.98 -18.03,13.94 14.49,32.74 -30.75,42.02 -53.09,35.61 -14.49,-4.2 -28.98,-13.05 -42.03,-20.68 -24.44,-14.38 -47.89,-30.41 -70.01,-48.11 -39.59,-31.3 -74.87,-67.58 -106.06,-107.28 38.93,-7.41 78.41,-12.28 116.79,-16.59 129.07,-14.26 261.78,-23.89 387.09,16.81 -2.77,39.81 -2.32,77.86 18.69,113.36 7.3,12.39 17.03,23.11 21.01,37.38 4.09,14.6 1,29.31 0.77,44.13 -0.22,13.72 0,27.21 5.53,40.04 8.07,18.91 24.55,30.75 38.05,45.56 17.14,19.02 29.31,42.69 33.73,68.13 9.4,53.86 -22.01,104.07 -19.68,157.93zm-103.08 -65.25l0 0c3.76,-36.83 5.53,-74.32 5.97,-111.37 32.18,6.86 53.97,46.78 41.36,78.41 -7.85,19.58 -27.43,29.75 -47.34,32.96z"/>
   <path class="fil0" d="M1407.21 738.8c-2.07,-3.37 -4.14,-6.82 -6.14,-10.35 -19.48,-34.82 -18.25,-70.1 -15.26,-108.68 0.08,-1.3 -0.08,-2.45 -0.31,-3.53 -0.31,-4.52 -2.84,-8.89 -8.28,-10.73 -136.98,-46.86 -283.99,-34.28 -425.26,-17.33 -116.04,13.88 -237.6,36.2 -326.56,117.8 -8.13,7.44 -1.92,18.02 6.44,19.94 14.34,23.78 1.76,55.37 2.76,80.76 0.39,10.05 1.84,19.41 3.07,28.38 -72.32,-16.03 -90.04,-96.87 -73.4,-162.44 13.96,-54.91 45.17,-106.14 82.91,-147.94 76.16,-84.21 184.91,-138.2 297.34,-151.47 119.41,-14.11 242.89,15.41 345.58,77.08 52.54,31.52 104.38,72.4 140.5,122.48 37.66,52.23 50.93,137.97 -23.39,166.04z"/>
   <path class="fil0" d="M996.29 348.36l0 0.54c-25.16,0.61 -50.24,2.99 -75.01,6.98 -7.44,-27.76 -3.45,-58.59 32.44,-56.83 11.73,0.54 32.67,3.37 39.8,13.96 6.37,9.43 3.83,24.93 2.76,35.36z"/>
   <path class="fil1" d="M882.27 1181.69c0,25.65 -20.79,46.44 -46.44,46.44 -25.64,0 -46.44,-20.79 -46.44,-46.44 0,-25.64 20.79,-46.44 46.44,-46.44 25.65,0 46.44,20.79 46.44,46.44z"/>
   <path class="fil1" d="M1295.04 1171.37c0,25.64 -20.79,46.44 -46.43,46.44 -25.65,0 -46.44,-20.79 -46.44,-46.44 0,-25.65 20.79,-46.44 46.44,-46.44 25.64,0 46.43,20.79 46.43,46.44z"/>
   <path class="fil2" d="M851.27 1454.93c-29.64,21.57 -53.19,50.76 -70.67,82.84 -17.36,31.52 -28.31,64.04 -35.06,97.21 -0.33,0.11 -0.77,0.11 -1.11,0.33 -31.19,12.05 -64.04,12.72 -93.45,-5.09 -34.28,-20.9 -34.07,-48.44 -25.99,-83.83 7.85,-33.73 -2.32,-57.73 -22.23,-85.16 -35.39,-48.88 -35.06,-94.67 -17.69,-151.08 13.05,-42.58 31.85,-84.72 31.3,-130.06 -0.66,-45.57 -29.75,-84.17 -29.42,-129.95 0.33,-54.63 31.52,-93.56 58.73,-137.47 9.29,-14.93 17.8,-31.19 19.24,-48.99 1.55,-19.58 -6.97,-37.6 -7.96,-56.96 -1.66,-33.29 10.06,-62.6 -5.75,-91.13 51.31,-43.69 113.47,-68.02 178.61,-83.28 -2.87,79.41 -34.95,157.49 -115.02,186.91 -9.29,3.43 -9.62,14.38 -4.76,19.8 0.11,37.93 1,75.98 2.87,114.02 -32.74,-10.17 -62.48,25.22 -66.25,57.51 -2.43,20.79 -2.32,45.34 12.72,61.49 16.59,17.81 42.36,24.89 65.92,24 2.21,17.36 4.76,34.84 7.41,52.2 14.27,87.92 52.98,159.04 139.46,191.22 29.2,10.84 60.72,18.36 93.01,22.89 15.48,52.09 -81.84,69.01 -113.91,92.57z"/>
   <path class="fil2" d="M1435 1396.2c-5.97,49.11 20.35,94.56 19.69,143.22 -0.89,67.35 -59.17,83.61 -114.58,90.13 -6.75,-31.3 -17.58,-61.93 -33.95,-91.79 -17.47,-32.07 -41.03,-61.27 -70.56,-82.84 -32.19,-23.56 -130.06,-41.25 -113.81,-93.12 11.72,-1.77 23.34,-3.76 34.62,-6.19 90.91,-19.68 150.74,-72.88 177.51,-162.35 9.84,-32.85 16.59,-67.13 21.23,-102.19 35.28,-3.98 70.89,-25.44 75.87,-63.48 5.86,-44.79 -23,-88.59 -66.91,-94.78 -0.11,-31.19 -0.88,-61.93 -1.99,-91.9 6.97,-10.18 -7.96,-23.89 -18.03,-14.27 -0.22,0.33 -0.66,0.44 -0.88,0.77 -0.44,0.33 -0.88,0.55 -1.22,0.99 -30.08,25.11 -83.61,3.87 -113.58,-11.06 -31.52,-15.59 -57.73,-37.93 -80.07,-64.7 -9.07,-10.84 -22.89,2.98 -18.03,13.94 14.49,32.74 -30.75,42.02 -53.09,35.61 -14.49,-4.2 -28.98,-13.05 -42.03,-20.68 -24.44,-14.38 -47.89,-30.41 -70.01,-48.11 -39.59,-31.3 -74.87,-67.58 -106.06,-107.28 38.93,-7.41 78.41,-12.28 116.79,-16.59 129.07,-14.26 261.78,-23.89 387.09,16.81 -2.77,39.81 -2.32,77.86 18.69,113.36 7.3,12.39 17.03,23.11 21.01,37.38 4.09,14.6 1,29.31 0.77,44.13 -0.22,13.72 0,27.21 5.53,40.04 8.07,18.91 24.55,30.75 38.05,45.56 17.14,19.02 29.31,42.69 33.73,68.13 9.4,53.86 -22.01,104.07 -19.68,157.93 1.88,46.45 21.68,90.91 20.24,137.36 -1.44,48.11 -40.59,79.41 -46.34,125.97z"/>
  </g>
  <rect class="fil3" x="-0" y="-0" width="2039.02" height="2039.02"/>
 </g>
</svg>
