<?xml version="1.0" encoding="UTF-8"?>
<!DOCTYPE svg PUBLIC "-//W3C//DTD SVG 1.1//EN" "http://www.w3.org/Graphics/SVG/1.1/DTD/svg11.dtd">
<!-- Creator: CorelDRAW 2018 (64-Bit) -->
<svg xmlns="http://www.w3.org/2000/svg" xml:space="preserve" width="65.0401mm" height="65.0401mm" version="1.1" style="shape-rendering:geometricPrecision; text-rendering:geometricPrecision; image-rendering:optimizeQuality; fill-rule:evenodd; clip-rule:evenodd"
viewBox="0 0 8650.96 8650.96"
 xmlns:xlink="http://www.w3.org/1999/xlink">
 <defs>
  <style type="text/css">
   <![CDATA[
    .fil2 {fill:none}
    .fil0 {fill:#2B2B2B;fill-rule:nonzero}
    .fil1 {fill:#DF7060;fill-rule:nonzero}
   ]]>
  </style>
 </defs>
 <g id="Layer_x0020_1">
  <metadata id="CorelCorpID_0Corel-Layer"/>
  <g id="_886651232">
   <path class="fil0" d="M5935.05 2547.64c-97.12,-195.66 -258.54,-339.71 -438.73,-457.95 -159.07,-105.1 -335.49,-230.39 -531.16,-209.74 -130.44,-199.9 -343.95,-455.62 -587.46,-494.57 -134.69,-22.05 -271.22,52.09 -300.31,171.74 -75.08,-57.73 -166.58,-108.4 -249.17,-86.82 -87.75,22.53 -112.62,98.55 -114.02,176.9 -94.8,-48.34 -203.65,-79.77 -298.43,-17.36 -83.05,53.96 -108.39,148.27 -116.37,241.65 -104.16,-46.46 -228.51,-37.54 -315.31,52.55 -49.75,51.61 -73.67,122 -80.72,192.37 -5.63,51.62 7.05,97.14 9.39,148.29 4.22,101.35 -10.32,106.97 -61,173.13 -322.36,425.13 -297.49,985.38 -142.17,1470.09 -42.23,54.91 -68.98,128.1 -74.14,190.51 -6.57,88.21 -2.82,184.4 64.75,248.22 70.85,66.62 165.65,95.25 261.36,93.85 18.77,134.19 43.17,266.99 75.55,392.74 71.79,275.9 225.23,495.5 490.81,613.28 141.71,62.41 299.38,100.89 460.32,121.53 68.5,222.88 -346.77,295.15 -483.3,394.63 -125.28,91.96 -225.7,215.37 -299.84,351.45 -59.59,109.32 -101.82,221.01 -130.91,335.02 -10.8,42.23 -19.71,85.41 -26.75,128.57 -24.41,144.51 -30.03,292.32 -24.87,443.88 0.94,25.8 21.11,47.86 47.39,47.86l2500.51 0c26.28,0 46.46,-22.05 47.39,-47.86 5.64,-169.87 -1.4,-334.56 -34.25,-495.49 -8.45,-43.17 -19.23,-86.82 -31.9,-129.51 -27.23,-95.73 -65.71,-190.04 -116.37,-282.47 -74.15,-135.62 -174.56,-259.49 -299.84,-351.45 -137.01,-99.48 -552.28,-174.56 -482.84,-396.04 294.67,-38.48 582.78,-139.35 755.45,-396.02 148.74,-220.06 199.9,-486.12 226.17,-750.29 152.51,-14.55 309.69,-105.58 330.81,-270.28 15.02,-114.03 -23,-226.65 -96.19,-304.06 177.83,-410.11 272.62,-879.81 66.16,-1298.36zm-3203.42 1608.99l0 0c-1.41,-78.83 43.16,-297.5 165.64,-207.4 6.57,4.7 12.68,7.97 19.25,8.91 6.56,126.23 16.41,255.26 31.9,384.77 -114.02,-2.82 -213.49,-57.25 -216.78,-186.28zm2032.23 1732.38l0 0 0 -0.47c10.79,4.7 21.59,8.91 32.84,13.61 10.8,4.22 22.05,8.45 32.85,12.2 22.05,7.98 44.57,16.43 66.16,24.87 14.55,6.09 28.62,12.2 42.7,18.77 98.08,45.52 183.94,106.51 259.95,186.75 31.91,33.78 60.53,68.51 86.34,105.12 6.57,9.38 13.14,18.3 19.25,27.68 1.41,1.41 2.82,3.29 3.75,5.16 14.54,21.59 28.14,43.17 40.36,65.23 3.29,5.63 6.57,11.25 9.38,16.89 7.52,13.61 14.55,26.75 21.12,40.36 36.13,72.73 63.8,148.27 85.39,226.64 11.73,42.7 21.59,86.34 29.57,129.96 0.47,0.94 0.47,1.89 0.47,2.35 2.82,16.43 5.63,32.84 7.98,49.27 2.82,16.43 5.16,32.85 7.04,49.25 0,0.94 0.47,2.35 0.47,3.29 2.82,20.18 4.7,40.83 6.57,60.53 0.94,11.73 1.89,23.46 2.82,35.19 0.93,10.79 1.41,22.05 1.88,33.32 2.82,46.93 3.75,94.32 3.75,141.23l0 38.48 -2407.61 0c-0.93,-43.16 -0.47,-86.8 0.93,-129.98 0.48,-16.41 1.41,-32.84 2.35,-49.73 0.47,-11.27 1.41,-22.53 1.88,-33.32 1.41,-13.14 2.35,-26.27 3.75,-38.95 0.47,-8.91 1.41,-18.3 2.34,-27.21 3.29,-32.37 7.52,-64.27 12.68,-95.71 3.76,-23.93 7.98,-47.86 13.14,-71.32 3.75,-19.23 7.97,-38.48 12.66,-57.25 0,-1.41 0.48,-2.82 0.94,-3.75 3.3,-13.66 7.13,-27.19 10.87,-40.74 5.96,-20.99 12.32,-41.96 19.17,-62.49 1.88,-5.64 3.75,-11.73 5.63,-17.84 2.35,-5.63 4.22,-11.73 6.57,-17.82 4.7,-13.61 9.86,-26.75 15.02,-39.89 4.23,-9.86 7.98,-19.23 12.2,-28.62 5.16,-11.27 10.32,-22.98 15.48,-34.25 3.29,-7.52 6.57,-14.55 10.33,-21.59 7.02,-15.02 15,-30.03 23.45,-44.57 2.82,-5.64 6.11,-11.27 9.39,-16.89 1.88,-3.3 3.75,-6.57 6.09,-9.86 3.29,-6.11 7.05,-11.73 10.33,-17.36 7.5,-13.14 15.95,-26.28 24.86,-38.95 12.2,-18.3 25.34,-36.14 38.95,-53.96 14.07,-17.84 28.16,-35.19 43.64,-52.57 7.52,-8.45 15.02,-16.89 23,-25.34 7.5,-7.97 14.54,-15.48 22.52,-22.52 15.02,-14.54 30.5,-27.68 45.98,-39.88 31.91,-24.41 64.75,-45.05 99.01,-63.35 41.77,-23 85.39,-42.23 129.03,-61.94 17.37,-7.97 35.19,-15.48 52.57,-23.46 17.82,-7.97 35.18,-16.43 53.02,-24.86l0 0.47c47.39,71.32 99.48,140.3 153.91,207.39 32.84,40.37 66.62,79.78 100.41,118.72 7.04,7.98 14.09,16.89 21.12,25.8 7.04,8.92 14.54,17.84 22.05,27.21 22.52,28.16 45.98,58.19 71.32,84.94 25.34,27.21 52.09,51.14 80.23,67.09l0.48 0c8.91,5.17 20.64,7.52 31.43,6.11 6.58,-0.47 12.68,-2.34 17.84,-6.11 4.7,-2.81 8.91,-6.09 13.61,-9.84 8.92,-7.05 17.36,-14.09 25.82,-22.05 29.55,-27.69 56.3,-61.48 81.64,-95.26 21.57,-28.62 41.77,-57.71 62.41,-83.52 21.57,-27.21 42.7,-54.44 63.82,-81.65 0,0 0,0 0.47,-0.47 20.64,-27.68 41.29,-55.37 61.46,-83.52 40.36,-56.32 77.89,-114.49 111.21,-175.03zm-94.32 -52.55l0 0c2.82,1.88 5.63,4.22 8.45,5.16 -62.87,113.08 -139.83,217.72 -219.6,319.08 -32.84,41.29 -66.16,82.59 -100.41,122.46 -7.05,8.92 -26.28,26.28 -40.36,42.23 -10.32,-8.45 -23.46,-18.77 -32.84,-28.62 -40.37,-42.23 -78.83,-86.34 -117.31,-130.44 -84,-97.12 -165.64,-197.07 -237.44,-304.53 7.05,-3.75 14.09,-7.98 20.64,-12.68 94.8,-61.46 155.79,-160.48 137.96,-269.8 144.99,12.2 291.4,11.73 428.88,1.41 11.27,-1.41 23,-1.89 34.73,-2.82 -16.89,100.41 32.84,194.73 117.3,258.54zm893.88 -1770.86l0 0c-22.52,311.1 -30.96,646.12 -168.92,932.36 -139.83,289.04 -394.61,413.38 -700.08,464.06 -533.51,88.69 -1331.2,37.55 -1535.32,-560.25 -86.34,-253.38 -100.42,-538.21 -129.98,-803.32 -30.96,-281.54 -47.39,-587 81.65,-848.83 133.25,-271.22 417.6,-551.82 716.97,-624.08 196.14,-46.93 278.72,56.78 434.5,131.85 57.71,29.09 79.77,19.25 140.3,-7.04 375.86,-160.94 731.99,1.88 979.28,305 247.74,302.17 209.28,646.12 181.58,1010.25zm-45.05 -991.48l0 0c-41.75,-60.07 -89.62,-117.78 -141.7,-171.28 -26.28,-26.75 -53.5,-53.02 -82.12,-77.42 -142.17,-123.41 -312.51,-214.42 -497.85,-241.17 -124.34,-17.84 -225.69,7.97 -335.02,43.16 -14.07,4.7 -28.62,9.39 -43.17,14.09 -14.07,4.68 -28.61,9.84 -43.63,14.54 -35.19,11.27 -60.07,9.86 -82.12,0.94 -5.63,-2.35 -11.27,-5.16 -16.89,-8.45 -7.98,-4.23 -15.95,-9.86 -23.93,-15.96 0,0 0,-0.47 -0.48,-0.47 -7.97,-5.63 -16.41,-12.2 -24.86,-18.77 -6.11,-4.7 -12.2,-9.39 -19.25,-14.07 -6.56,-4.7 -13.61,-8.92 -21.11,-13.62 -56.78,-33.77 -113.08,-58.18 -176.9,-67.56 -9.38,-1.41 -18.77,-2.35 -28.14,-3.29 -320.02,-24.87 -614.23,228.51 -802.39,459.38 -65.21,79.77 -116.84,163.28 -156.25,250.56 -10.79,22.52 -20.64,45.52 -29.09,68.98 -32.84,85.87 -54.91,174.55 -68.03,266.99 -2.35,17.82 -4.7,35.66 -6.57,53.48 -7.98,73.67 -9.86,149.22 -7.52,226.64 0,0.94 0.48,2.35 0.48,3.3 -5.64,-2.82 -11.27,-5.17 -16.91,-7.05 -27.21,-9.84 -53.02,-10.79 -76.95,-5.16 -8.91,1.88 -17.84,4.7 -26.75,8.91 -7.5,-23.93 -14.55,-48.32 -21.11,-72.72 -7.05,-23.94 -13.14,-48.8 -18.78,-73.21 -40.81,-169.85 -63.34,-345.35 -55.36,-518.5l0 -3.29c1.88,-34.72 4.7,-69.44 8.91,-104.16 4.7,-35.66 10.32,-70.85 17.37,-105.58 9.38,-46.45 21.57,-92.44 36.59,-138.42 7.5,-22.98 15.95,-45.52 24.87,-68.03 4.68,-11.27 9.38,-22.52 14.07,-33.78 4.7,-11.27 9.86,-22.05 15.02,-33.32 18.77,-38.95 39.89,-76.95 62.41,-113.08 11.27,-18.3 23.46,-36.13 35.66,-53.48 12.2,-17.37 25.34,-34.26 38.48,-51.16 3.29,-4.22 6.57,-7.97 10.32,-12.2 7.04,-8.45 14.54,-16.89 22.52,-25.8 7.52,-8.91 14.55,-17.84 21.12,-27.69 6.57,-9.38 12.2,-19.23 16.41,-29.55 1.89,-5.16 3.76,-10.31 4.7,-15.47 12.68,-59.12 -25.34,-142.17 -25.34,-200.37 -0.47,-136.07 114.03,-247.28 235.08,-212.56 9.86,2.82 20.18,6.57 30.03,11.73 15.5,7.04 30.5,16.89 45.52,29.57 7.5,6.57 16.89,10.79 25.82,12.2 28.14,5.16 57.23,-12.68 57.71,-46.46 0.93,-72.25 -2.82,-175.48 55.82,-228.98 3.3,-3.29 7.05,-6.11 10.33,-8.92 10.79,-7.97 22.05,-14.07 33.31,-18.29 3.76,-1.41 7.52,-2.82 11.73,-3.75 24.41,-6.57 50.21,-5.16 76.03,0.47 8.91,1.88 18.29,4.7 27.2,7.98 0,0 0,-0.48 0.48,0 8.91,2.81 17.84,6.56 26.73,10.79 40.37,17.84 78.83,42.7 110.74,62.41 4.23,2.82 8.45,4.7 12.21,5.63 18.29,5.16 35.18,-1.88 46.45,-15.02 8.91,-9.84 14.07,-23.46 14.07,-37.54 0,-2.82 0,-5.63 -0.47,-8.45 -0.93,-5.63 -1.41,-10.79 -2.34,-15.96 -1.41,-20.16 0,-38.93 5.15,-55.36 1.89,-7.04 4.71,-13.61 7.99,-19.71 2.81,-4.22 5.63,-8.45 8.45,-11.73 1.4,-2.34 3.74,-4.22 5.63,-6.09 3.27,-3.29 6.57,-6.11 10.79,-8.92 25.34,-16.89 63.34,-19.7 112.62,0 49.27,18.78 95.25,65.23 132.32,100.42 4.7,4.7 10.32,7.98 15.95,9.86 14.55,5.16 31.44,3.27 44.58,-4.23 2.81,-1.41 5.63,-3.29 7.98,-5.16 7.04,-6.09 12.2,-13.61 14.54,-22.53 1.89,-7.5 1.41,-15.95 -1.88,-25.33 -4.23,-11.27 -7.04,-22.53 -8.91,-32.37 0,0 0,0 0,-0.48 -1.88,-9.84 -2.82,-19.23 -2.82,-28.14 0,-29.57 10.32,-52.09 27.68,-68.98 2.82,-2.82 5.64,-5.63 8.92,-7.98 7.5,-5.63 15.95,-10.79 24.86,-14.54 6.58,-2.82 13.61,-5.64 21.12,-7.52 68.51,-20.18 162.83,-5.63 218.19,23.93 53.02,28.62 99.94,68.51 145.47,107.46 83.52,71.32 158.12,150.62 222.87,238.37 21.59,29.55 41.77,59.59 61.48,90.57 2.34,4.22 5.63,7.5 8.91,10.32 12.2,11.25 28.62,15.48 46.46,11.73 182.52,-36.14 395.08,124.34 538.2,224.76 137.96,96.66 256.67,211.14 337.38,355.65 12.66,22.05 24.39,45.05 34.72,68.51 5.17,11.73 10.32,23.93 15.02,36.13 6.57,16.89 12.68,33.78 18.77,50.68 16.91,50.21 30.03,101.35 39.42,152.97 55.36,308.76 -23.93,627.82 -147.33,916.4 -8.46,-4.7 -16.43,-8.91 -25.35,-12.66 -25.8,-11.73 -53.48,-19.71 -83.05,-23.93 7.04,-236.49 -17.82,-465.01 -163.3,-673.81zm338.32 1105.96l0 0c-35.19,86.35 -125.28,129.98 -213.49,141.24 6.57,-86.34 11.73,-172.21 17.82,-255.72 5.16,-73.67 11.73,-146.87 15.95,-219.6 138.9,26.73 233.68,198.01 179.72,334.08z"/>
   <path class="fil0" d="M3543.55 3996.05c-80.87,0 -146.43,87.4 -146.43,195.23 0,107.82 65.56,195.23 146.43,195.23 80.87,0 146.42,-87.41 146.42,-195.23 0,-107.83 -65.55,-195.23 -146.42,-195.23z"/>
   <path class="fil0" d="M5056.6 4012.31c-80.87,0 -146.43,87.4 -146.43,195.23 0,107.82 65.56,195.23 146.43,195.23 80.87,0 146.42,-87.41 146.42,-195.23 0,-107.83 -65.55,-195.23 -146.42,-195.23z"/>
   <path class="fil0" d="M4375.76 4383.42c16.55,-20.76 19.9,-48.68 0,-69.03 -16.85,-17.21 -52.63,-20.56 -69.02,0 -30.94,38.83 -75.98,42.27 -109.36,4.19 -41.5,-47.32 -110.3,21.95 -69.02,69.03 65.39,74.58 184.98,74.13 247.4,-4.19z"/>
   <path class="fil0" d="M3239.49 3773.8c-33.19,53.55 51.22,102.62 84.29,49.27 59.68,-96.34 232.61,-98.49 290.12,-3.66 32.52,53.64 116.97,4.64 84.29,-49.27 -96.45,-159.05 -360.54,-154.78 -458.7,3.66z"/>
   <path class="fil0" d="M4898.96 3773.8c-33.19,53.55 51.24,102.62 84.29,49.27 59.69,-96.34 232.62,-98.49 290.12,-3.66 32.53,53.64 116.98,4.64 84.29,-49.27 -96.43,-159.05 -360.54,-154.78 -458.7,3.66z"/>
   <path class="fil0" d="M4529.35 4706.65c-187.53,44.47 -374.63,60.35 -556.43,-14.37 -58.06,-23.86 -83.36,70.55 -25.95,94.13 196.79,80.88 405.68,62.42 608.33,14.37 61.1,-14.48 35.23,-108.63 -25.95,-94.13z"/>
   <path class="fil0" d="M3166.6 6671.22c0,-1.41 0.48,-2.82 0.94,-3.75 2.82,-12.68 6.57,-26.28 10.32,-38.95 0.17,-0.6 0.37,-1.2 0.55,-1.8 7.42,-26.96 15.42,-53.78 24.79,-80.32 2.35,-5.63 4.22,-11.73 6.57,-17.82 4.7,-13.61 9.86,-26.75 15.02,-39.89 4.23,-9.86 7.98,-19.23 12.2,-28.62 5.16,-11.27 10.32,-22.98 15.48,-34.25 3.29,-7.52 6.57,-14.55 10.33,-21.59 2.34,-4.7 4.68,-8.91 7.02,-13.61 5.17,-10.32 10.8,-20.64 16.43,-30.96 2.82,-5.64 6.11,-11.27 9.39,-16.89 5.16,-9.39 10.32,-18.3 16.43,-27.21 7.5,-13.14 15.95,-26.28 24.86,-38.95 7.52,-11.27 15.48,-22.53 23.93,-33.32 4.7,-7.04 9.86,-13.61 15.02,-20.64 7.05,-8.92 14.07,-17.84 21.59,-26.75 7.04,-8.92 14.55,-17.37 22.05,-25.82 7.52,-8.45 15.02,-16.89 23,-25.34 7.5,-7.97 14.54,-15.48 22.52,-22.52 15.02,-14.54 30.5,-27.68 45.98,-39.88 31.91,-24.87 64.75,-45.05 99.01,-63.35 41.77,-23 85.39,-42.7 129.03,-61.94 17.37,-7.97 35.19,-15.48 52.57,-23.46 17.82,-7.97 35.18,-15.95 53.02,-24.39 47.39,71.32 99.48,140.3 153.91,207.39 32.84,40.37 66.16,79.78 99.94,118.72 7.04,7.98 14.09,16.89 21.59,25.8 7.04,8.92 14.54,17.84 22.05,27.21 22.52,28.16 46.46,58.19 71.32,84.94 25.34,27.21 52.09,51.14 80.23,67.09l0.48 0c8.91,5.64 20.64,7.98 31.43,6.11 6.58,-0.47 12.68,-2.34 17.84,-6.11 4.7,-2.81 8.91,-6.09 13.61,-9.84 8.92,-6.57 17.36,-14.09 25.82,-22.05 29.55,-27.69 56.3,-61.48 81.64,-95.26 22.05,-28.62 42.7,-57.71 62.87,-83.52 21.11,-26.75 42.23,-53.96 63.35,-81.65 0,0 0,0 0.47,-0.47 20.64,-27.21 41.29,-55.37 61.46,-83.52 40.36,-56.32 77.89,-114.49 111.21,-175.03 10.79,4.7 21.59,8.91 32.84,13.14 10.8,4.22 22.05,8.45 32.85,12.2 22.05,8.45 44.57,16.43 66.16,25.34 14.55,6.11 28.62,12.2 42.7,18.3 98.08,45.52 183.94,106.51 259.95,186.75 31.91,33.78 60.53,68.51 86.34,105.12 8.45,10.79 15.96,22.05 23,32.84 14.54,21.59 28.14,43.17 40.36,65.23 3.29,5.63 6.57,11.25 9.38,16.89 4.7,8.91 9.86,17.82 14.09,26.75 2.34,4.22 4.7,8.91 7.04,13.61 36.13,72.73 63.8,148.27 85.39,226.64 -708.06,268.39 -1565.8,209.74 -2297.34,39.41z"/>
   <path class="fil0" d="M5524.47 7136.2c0,12.68 0,25.82 -0.47,38.48l-2407.14 0c-0.93,-43.16 -0.47,-86.8 0.93,-129.98 0.48,-16.41 1.41,-32.84 2.35,-49.73 0.47,-11.27 1.41,-22.53 1.88,-33.32 1.88,-22.05 3.75,-44.11 6.09,-66.16 3.29,-32.37 7.52,-64.27 12.68,-95.71 750.76,174.55 1624.94,232.26 2352.71,-38.01 0.47,0.94 0.47,1.89 0.47,2.35 2.82,16.43 5.63,32.84 7.98,49.27 2.82,16.43 5.16,32.85 7.04,49.25 0,0.94 0.47,2.35 0.47,3.29 2.35,20.18 4.7,40.36 6.57,60.53 0.94,11.73 1.89,23.46 2.82,35.19 0.47,11.25 1.41,22.05 1.88,33.32 2.82,46.93 3.75,94.32 3.75,141.23z"/>
   <path class="fil0" d="M5790.01 3784.54c-32.85,-18.22 -68.98,-31.23 -108.35,-36.76 7.16,-236.23 -17.9,-464.97 -163.35,-673.55 -167.25,-239.48 -424.95,-447.09 -721.38,-490.03 -156.51,-22.45 -277.23,24.41 -421.71,71.59 -88.82,28.96 -114.22,-25.38 -189.05,-69.96 -64.75,-38.4 -128.86,-65.07 -204.99,-70.93 -320.18,-24.73 -614.33,228.43 -802.41,459.46 -206.62,253.8 -277.87,543.06 -267.14,866.5 0,0.97 0.32,2.27 0.32,3.25 -43.6,-20.83 -84.59,-19.51 -121.04,-3.25 -114.22,-375.18 -150.66,-786.79 22.12,-1150.91 37.1,-78.41 82.97,-150.33 136.67,-218 25.06,-31.9 65.73,-68.34 74.84,-110.61 12.36,-58.91 -25.39,-142.2 -25.39,-200.13 -0.32,-164.64 166.28,-292.85 310.75,-171.14 31.56,26.68 82.65,10.08 83.3,-34.5 0.97,-72.22 -2.93,-175.37 55.96,-229.07 91.11,-83.29 214.11,0 296.44,50.77 39.36,24.07 78.41,-15.63 71.9,-55.32 -15.62,-91.11 35.47,-162.38 148.7,-118.13 49.13,19.21 95.34,65.41 132.42,100.87 33.19,31.56 98.6,0.33 81.35,-47.5 -69.63,-194.26 181.89,-193.29 288.62,-136.02 53.04,28.3 100.22,68.33 145.78,107.38 111.28,95.33 206.3,204.66 284.39,328.64 12.36,19.53 33.19,27 55.31,22.45 182.56,-36.44 394.71,124.3 537.88,224.52 170.17,118.76 310.09,265.17 387.54,460.4 146.42,369 61.17,766.95 -89.49,1119.98z"/>
   <path class="fil1" d="M3666.69 4782.31c0,108.8 -88.2,197 -197,197 -108.82,0 -197.03,-88.2 -197.03,-197 0,-108.82 88.21,-197.01 197.03,-197.01 108.8,0 197,88.2 197,197.01z"/>
   <path class="fil1" d="M5374.15 4826.08c0,108.82 -88.2,197.01 -197.01,197.01 -108.8,0 -197.01,-88.2 -197.01,-197.01 0,-108.82 88.21,-197.01 197.01,-197.01 108.82,0 197.01,88.2 197.01,197.01z"/>
  </g>
  <rect class="fil2" x="-0.01" y="-0.01" width="8650.96" height="8650.96"/>
 </g>
</svg>
