<?xml version="1.0" encoding="UTF-8"?>
<!DOCTYPE svg PUBLIC "-//W3C//DTD SVG 1.1//EN" "http://www.w3.org/Graphics/SVG/1.1/DTD/svg11.dtd">
<!-- Creator: CorelDRAW 2018 (64-Bit) -->
<svg xmlns="http://www.w3.org/2000/svg" xml:space="preserve" width="65.0401mm" height="65.0401mm" version="1.1" style="shape-rendering:geometricPrecision; text-rendering:geometricPrecision; image-rendering:optimizeQuality; fill-rule:evenodd; clip-rule:evenodd"
viewBox="0 0 3578.52 3578.52"
 xmlns:xlink="http://www.w3.org/1999/xlink">
 <defs>
  <style type="text/css">
   <![CDATA[
    .fil3 {fill:none}
    .fil0 {fill:#2B2B2B;fill-rule:nonzero}
    .fil2 {fill:#DF7060;fill-rule:nonzero}
    .fil1 {fill:#E6AA2F;fill-rule:nonzero}
   ]]>
  </style>
 </defs>
 <g id="Layer_x0020_1">
  <metadata id="CorelCorpID_0Corel-Layer"/>
  <g id="_883894736">
   <path class="fil0" d="M1659.21 2311.53l239.39 -0.81 38.82 53.38 -50.95 109.99c0,0 -54.99,367.17 -48.52,493.33l0 12.13 -118.89 -0.81c0,0 44.48,-427.83 -101.9,-617.88l42.06 -49.34z"/>
   <path class="fil0" d="M1470.32 1541.52c-14.35,0 -27.52,6.68 -37.9,17.81 -6.36,-3.04 -11.5,-8.31 -12.29,-15.67 -1.16,-10.84 -8.45,-20.19 -20.19,-20.19 -10.01,0 -21.36,9.28 -20.19,20.19 2.32,21.62 15.27,41.17 33.58,51.49 -2.28,8.49 -3.58,17.59 -3.58,27.12 0,44.6 27.12,80.76 60.57,80.76 33.45,0 60.57,-36.16 60.57,-80.76 0,-44.6 -27.12,-80.76 -60.57,-80.76z"/>
   <path class="fil0" d="M2166.58 1530.21c-11.88,0 -19.02,9.3 -20.19,20.19 -0.79,7.35 -5.93,12.63 -12.29,15.67 -10.38,-11.13 -23.55,-17.81 -37.9,-17.81 -33.45,0 -60.57,36.15 -60.57,80.76 0,44.6 27.12,80.76 60.57,80.76 33.45,0 60.57,-36.16 60.57,-80.76 0,-9.54 -1.3,-18.64 -3.58,-27.12 18.31,-10.32 31.26,-29.87 33.57,-51.49 1.16,-10.86 -10.11,-20.19 -20.19,-20.19z"/>
   <path class="fil0" d="M1814.58 1701.77c6.84,-8.59 8.23,-20.14 0,-28.56 -6.97,-7.13 -21.78,-8.51 -28.56,0 -12.8,16.06 -31.42,17.49 -45.23,1.73 -17.17,-19.58 -45.63,9.08 -28.56,28.55 27.05,30.86 76.52,30.67 102.34,-1.73z"/>
   <path class="fil0" d="M1904.53 1864.66c13.49,-22.29 -21.41,-42.61 -34.87,-20.39 -48.14,79.54 -161.48,83.87 -200.05,-5.85 -10.23,-23.8 -45.03,-3.26 -34.87,20.38 51.02,118.68 207.49,108.76 269.78,5.85z"/>
   <path class="fil0" d="M1379.41 1469.97c24.69,-39.86 96.22,-40.74 120.01,-1.51 13.46,22.19 48.39,1.92 34.87,-20.38 -39.89,-65.79 -149.14,-64.03 -189.74,1.51 -13.72,22.15 21.19,42.45 34.87,20.38z"/>
   <path class="fil0" d="M2065.87 1469.97c24.69,-39.86 96.22,-40.74 120.01,-1.51 13.45,22.19 48.38,1.92 34.87,-20.38 -39.9,-65.79 -149.14,-64.03 -189.74,1.51 -13.73,22.15 21.19,42.45 34.87,20.38z"/>
   <path class="fil0" d="M2688.71 1637.35c22.75,-92.33 -19.65,-172.96 -63.12,-251.43 -31.09,-56.13 -60.03,-111.05 -63.8,-176.46 -3.23,-56.67 0.54,-107.95 -21.67,-161.65 -42.94,-104.31 -126.39,-133.39 -216.03,-187.62 -103.51,-62.46 -107.28,-199.48 -227.34,-247.39 -111.99,-44.56 -228.28,-3.91 -325.59,55.86 -60.57,-44.96 -137.96,-48.46 -199.48,-0.54 -51.28,39.84 -86.82,77.26 -153.58,93.14 -48.86,11.58 -99.06,16.96 -144.96,38.63 -97.85,46.17 -101.35,156.27 -172.15,229.08 -68.11,69.99 -126.93,124.91 -132.58,228.28 -3.64,64.47 0.67,124.5 -20.59,186.82 -18.84,55.32 -46.98,107.81 -59.36,165.29 -24.5,113.6 48.19,183.05 69.99,287.5 22.75,109.97 -68.65,210.11 -44.29,320.48 10.91,49.8 52.36,87.76 59.63,137.56 9.96,67.97 -46.3,126.39 -61.38,190.59 -27.59,116.97 51.96,192.08 92.74,291 41.32,100.41 142.13,105.52 235.82,91.12 0.13,5.25 0.26,10.37 0.4,15.61 0.81,25.3 40.11,25.3 39.3,0 -5.38,-158.42 20.46,-324.92 134.46,-445.65 40.11,-42.53 87.49,-61.91 135.27,-83.18l-28.27 73.49c-7.8,20.32 -31.36,57.07 -25.57,78.47 8.61,31.9 66.89,42.81 107.67,48.32 -20.86,24.77 -46.44,49.13 -61.64,76.05 -11.44,20.19 -10.37,23.96 -2.83,44.02 29.75,79.95 79.15,149.94 96.1,235.27 5.12,25.44 44.02,14.67 39.03,-10.64 -14.53,-72.68 -49.26,-141.73 -81.83,-207.82 -21.67,-44.01 -23.69,-34.72 11.04,-70.93 27.86,-28.94 51.82,-63.8 73.89,-98.66 4.18,28.67 7.27,56.93 10.1,83.72 10.63,98.26 11.58,197.18 12.92,295.84 0.27,25.98 40.65,25.98 40.38,0 -1.62,-115.09 -3.23,-230.43 -18.71,-344.57 -11.85,-86.82 -26.11,-183.72 -76.85,-257.48 8.47,-8.08 15.88,-16.96 21.8,-26.52 24.36,9.02 62.18,5.93 78.74,7.68 49.13,5.25 92.87,-1.75 140.38,-10.5 6.73,11.84 15.88,22.75 26.65,32.3 -49.13,73.49 -63.13,168.79 -74.71,254.52 -15.48,114.14 -17.23,229.48 -18.84,344.57 -0.27,25.98 40.11,25.98 40.38,0 1.34,-98.66 2.55,-197.59 12.92,-295.84 2.83,-26.78 5.93,-55.19 10.1,-83.99 22.34,34.72 46.3,69.04 73.89,98.93 8.08,8.75 29.88,25.31 29.61,33.79 -0.4,10.23 -14.13,28.13 -18.57,37.14 -32.57,66.08 -67.3,135 -81.7,207.82 -5.11,25.3 33.79,36.21 38.9,10.64 17.09,-85.47 66.36,-155.32 96.24,-235.27 6.86,-18.44 9.15,-23.01 -1.35,-42 -15.08,-27.32 -43.61,-51.42 -62.72,-76.59 -0.41,-0.53 -0.67,-0.94 -0.94,-1.48 40.78,-5.51 99.47,-16.42 108.08,-48.32 5.38,-20.19 -18.57,-60.3 -25.57,-78.47 -9.96,-25.84 -19.92,-51.82 -29.88,-77.67 2.29,0.81 4.57,1.62 6.86,2.56 48.05,19.52 89.37,46.98 125.18,84.8 113.87,120.74 139.85,287.23 134.46,445.65 -0.94,25.3 38.36,25.3 39.17,0 0.41,-9.83 0.54,-19.65 0.67,-29.48 72.15,9.16 146.31,-13.6 199.61,-65.01 66.49,-64.2 64.07,-146.57 46.71,-231.1 -11.58,-56.8 -32.04,-118.71 -15.48,-176.59 15.48,-53.57 62.46,-88.29 90.72,-134.46 59.49,-97.72 -7.54,-205.94 -33.25,-304.05 -20.46,-78.21 -15.21,-145.77 19.52,-218.46 23.02,-48.18 52.49,-94.35 65.28,-146.71zm-1021.33 885.26l0 0c-11.17,18.04 -22.88,35.8 -34.86,53.43 -28.27,-3.63 -67.3,-8.07 -91.53,-21.8 6.46,-24.09 19.38,-48.32 28,-70.93 12.25,-31.63 24.36,-63.26 36.47,-94.89 0.14,-0.4 0.14,-0.81 0.27,-1.21 2.56,-1.34 4.98,-2.69 7.41,-4.17 27.05,40.78 43.48,89.37 54.24,139.58zm206.2 -230.84l0 0c-29.48,6.05 -59.49,12.78 -89.37,11.98 -29.88,-0.81 -71.61,-0.41 -101.89,-9.16 1.48,-9.56 1.75,-19.38 0.27,-29.47 63.26,7.54 128.14,7.13 191.4,-1.08 -1.48,9.42 -1.48,18.71 -0.4,27.73zm-54.11 -64.2l0 0c-206.2,11.57 -408.1,-52.76 -511.47,-242.82 -106.06,-194.89 -99.06,-434.89 -92.74,-650.78 18.71,-7.14 36.75,-17.77 53.3,-30.15 41.6,-31.5 72.82,-68.64 125.85,-81.44 42.8,-10.23 87.89,-6.32 131.1,-13.46 89.78,-14.94 126.52,-85.34 195.98,-134.87 20.05,-14.27 40.38,-27.46 59.09,-41.73 16.96,48.73 50.48,89.37 98.26,111.99 35.67,16.96 70.39,16.56 108.62,19.65 60.84,4.84 95.56,19.79 135.27,64.2 42.54,47.92 75.78,80.49 142.94,83.45 25.71,1.08 53.3,-4.31 78.48,3.77 2.96,0.81 5.65,1.88 8.35,3.1 4.57,193.42 9.82,395.85 -53.97,581.06 -72.96,212.26 -262.07,315.77 -479.04,328.02zm200.82 326.67l0 0c-24.09,13.73 -63.13,18.17 -91.26,21.8 -12.12,-17.63 -23.82,-35.39 -35.13,-53.57 10.77,-49.27 26.78,-97.31 52.9,-137.56 3.23,1.62 6.33,3.23 9.42,4.58 12.12,31.36 24.09,62.59 36.07,93.82 8.48,22.34 21.4,46.84 28,70.93zm583.75 -418.47l0 0c21.94,69.99 20.05,124.91 -26.52,183.59 -23.01,29.08 -48.59,56.26 -62.86,90.99 -34.05,82.65 2.42,170.13 14.81,253.04 19.25,129.89 -85.47,231.37 -214.14,209.84 -2.97,-106.46 -22.61,-208.09 -75.92,-305.53 -30.69,-56.13 -72.14,-107.41 -123.97,-145.37 -56.93,-41.46 -230.43,-72.68 -199.34,-165.15 34.32,-6.32 67.97,-14.94 100.41,-25.98 154.25,-52.49 262.6,-157.75 317.52,-311.06 13.87,-39.04 24.76,-78.88 33.25,-119.26 78.33,-11.84 149.4,-53.16 149.4,-142.94 0.13,-61.51 -52.9,-151.15 -121.81,-141.19 0.94,-58.01 -0.14,-116.02 -1.35,-173.23 4.17,2.82 8.48,5.52 12.92,7.94 28.67,15.88 50.61,22.21 82.51,16.69 25.58,-4.44 14.81,-43.34 -10.63,-39.03 -39.44,6.87 -68.38,-27.86 -101.22,-43.34 -23.01,-10.91 -43.88,-14.67 -68.91,-15.61 -41.73,-1.61 -78.07,3.64 -113.06,-24.09 -23.42,-18.44 -39.98,-44.15 -60.84,-65.14 -35.39,-35.94 -73.76,-52.23 -124.1,-56.26 -90.99,-7.4 -170.8,-21.4 -196.11,-121.68 18.04,-18.71 32.57,-40.51 40.78,-68.78 7.27,-24.9 -31.63,-35.66 -38.9,-10.63 -19.65,67.56 -90.18,93.81 -140.79,134.72 -23.55,18.98 -42.4,42.27 -64.2,63.13 -39.84,38.23 -77.66,47.52 -130.96,51.96 -54.24,4.44 -107.94,5.12 -155.99,34.05 -38.9,23.42 -81.57,76.72 -128.27,92.07 -3.77,0.13 -7.54,0.94 -10.77,2.83 -18.71,3.64 -38.23,0.54 -58.28,-13.6 -21.27,-15.08 -41.46,19.92 -20.32,34.86 21.94,15.48 45.09,20.86 68.24,19.38 -1.88,70.12 -2.83,145.63 0.54,222.36 -78.34,-2.56 -130.16,81.43 -121.68,153.84 9.29,79.69 83.05,126.79 158.29,121.55 44.96,176.86 139.04,328.82 330.84,393.43 31.63,10.64 64.61,18.84 98.12,24.76 28.8,92.33 -143.21,122.08 -199.75,163.4 -51.96,37.96 -93.41,89.11 -124.1,145.37 -55.59,101.62 -74.57,207.82 -76.05,319.26 -58.68,10.23 -134.87,20.32 -179.01,-30.55 -27.19,-31.5 -32.17,-81.29 -57.07,-116.29 -33.51,-47.38 -59.76,-89.51 -57.74,-150.08 1.75,-55.45 33.92,-100.14 53.57,-149.94 32.84,-83.32 -1.89,-125.58 -35,-199.34 -41.59,-92.07 23.42,-185.75 34.59,-277.81 10.77,-89.64 -40.78,-151.96 -66.89,-233.12 -32.97,-102.56 26.78,-190.46 56.8,-284.94 30.82,-96.91 -5.66,-210.11 53.84,-296.52 44.02,-63.8 114.68,-104.58 150.08,-175.25 31.36,-62.45 39.57,-115.75 112.93,-143.75 46.03,-17.63 95.97,-21 143.21,-34.45 42.26,-12.12 77.53,-30.96 109.83,-60.84 55.59,-51.28 119.12,-87.36 188.03,-32.7 3.64,11.31 15.75,19.79 28.53,11.58 96.37,-62.32 222.23,-113.34 331.65,-49.8 81.57,47.38 90.59,150.89 161.39,208.63 83.86,68.51 187.36,80.36 232.99,191.8 36.21,88.3 10.5,184.26 51.69,273.37 37.56,81.7 105.39,160.04 100.95,254.66 -4.44,99.74 -87.49,177.67 -102.29,275.79 -14,93.55 23.69,181.17 51.15,268.39zm-228.96 -376.47l0 0c11.17,-66.09 16.56,-133.25 18.84,-200.55 57.74,-15.08 89.64,79.28 80.09,121 -11.44,50.07 -53.03,70.94 -98.93,79.55zm-1172.35 42.4l0 0c-49.8,2.29 -98.52,-30.28 -108.49,-80.76 -10.36,-51.96 26.11,-117.24 83.05,-115.22 4.18,66.09 11.98,132.18 25.44,195.98z"/>
   <path class="fil1" d="M2552.9 1867.38c-14,93.55 23.69,181.17 51.15,268.39 21.94,69.99 20.05,124.91 -26.52,183.59 -23.01,29.08 -48.59,56.26 -62.86,90.99 -34.05,82.65 2.42,170.13 14.81,253.04 19.25,129.89 -85.47,231.37 -214.14,209.84 -2.97,-106.46 -22.61,-208.09 -75.92,-305.53 -30.69,-56.13 -72.14,-107.41 -123.97,-145.37 -56.93,-41.46 -230.43,-72.68 -199.34,-165.15 34.32,-6.32 67.97,-14.94 100.41,-25.98 154.25,-52.49 262.6,-157.75 317.52,-311.06 13.87,-39.04 24.76,-78.88 33.25,-119.26 78.33,-11.84 149.4,-53.16 149.4,-142.94 0.13,-61.51 -52.9,-151.15 -121.81,-141.19 0.94,-58.01 -0.14,-116.02 -1.35,-173.23 4.17,2.82 8.48,5.52 12.92,7.94 28.67,15.88 50.61,22.21 82.51,16.69 25.58,-4.44 14.81,-43.34 -10.63,-39.03 -39.44,6.87 -68.38,-27.86 -101.22,-43.34 -23.01,-10.91 -43.88,-14.67 -68.91,-15.61 -41.73,-1.61 -78.07,3.64 -113.06,-24.09 -23.42,-18.44 -39.98,-44.15 -60.84,-65.14 -35.39,-35.94 -73.76,-52.23 -124.1,-56.26 -90.99,-7.4 -170.8,-21.4 -196.11,-121.68 18.04,-18.71 32.57,-40.51 40.78,-68.78 7.27,-24.9 -31.63,-35.66 -38.9,-10.63 -19.65,67.56 -90.18,93.81 -140.79,134.72 -23.55,18.98 -42.4,42.27 -64.2,63.13 -39.84,38.23 -77.66,47.52 -130.96,51.96 -54.24,4.44 -107.94,5.12 -155.99,34.05 -38.9,23.42 -81.57,76.72 -128.27,92.07 -3.77,0.13 -7.54,0.94 -10.77,2.83 -18.71,3.64 -38.23,0.54 -58.28,-13.6 -21.27,-15.08 -41.46,19.92 -20.32,34.86 21.94,15.48 45.09,20.86 68.24,19.38 -1.88,70.12 -2.83,145.63 0.54,222.36 -78.34,-2.56 -130.16,81.43 -121.68,153.84 9.29,79.69 83.05,126.79 158.29,121.55 44.96,176.86 139.04,328.82 330.84,393.43 31.63,10.64 64.61,18.84 98.12,24.76 28.8,92.33 -143.21,122.08 -199.75,163.4 -51.96,37.96 -93.41,89.11 -124.1,145.37 -55.59,101.62 -74.57,207.82 -76.05,319.26 -58.68,10.23 -134.87,20.32 -179.01,-30.55 -27.19,-31.5 -32.17,-81.29 -57.07,-116.29 -33.51,-47.38 -59.76,-89.51 -57.74,-150.08 1.75,-55.45 33.92,-100.14 53.57,-149.94 32.84,-83.32 -1.89,-125.58 -35,-199.34 -41.59,-92.07 23.42,-185.75 34.59,-277.81 10.77,-89.64 -40.78,-151.96 -66.89,-233.12 -32.97,-102.56 26.78,-190.46 56.8,-284.94 30.82,-96.91 -5.66,-210.11 53.84,-296.52 44.02,-63.8 114.68,-104.58 150.08,-175.25 31.36,-62.45 39.57,-115.75 112.93,-143.75 46.03,-17.63 95.97,-21 143.21,-34.45 42.26,-12.12 77.53,-30.96 109.83,-60.84 55.59,-51.28 119.12,-87.36 188.03,-32.7 3.64,11.31 15.75,19.79 28.53,11.58 96.37,-62.32 222.23,-113.34 331.65,-49.8 81.57,47.38 90.59,150.89 161.39,208.63 83.86,68.51 187.36,80.36 232.99,191.8 36.21,88.3 10.5,184.26 51.69,273.37 37.56,81.7 105.39,160.04 100.95,254.66 -4.44,99.74 -87.49,177.67 -102.29,275.79z"/>
   <path class="fil2" d="M1495.98 1874.59c0,45.01 -36.49,81.5 -81.5,81.5 -45.01,0 -81.5,-36.49 -81.5,-81.5 0,-45.01 36.48,-81.5 81.5,-81.5 45.01,0 81.5,36.48 81.5,81.5z"/>
   <path class="fil2" d="M2238.5 1874.59c0,45.01 -36.49,81.5 -81.5,81.5 -45.01,0 -81.5,-36.49 -81.5,-81.5 0,-45.01 36.48,-81.5 81.5,-81.5 45.01,0 81.5,36.48 81.5,81.5z"/>
  </g>
  <rect class="fil3" x="-0" y="-0" width="3578.52" height="3578.52"/>
 </g>
</svg>
