<?xml version="1.0" encoding="UTF-8"?>
<!DOCTYPE svg PUBLIC "-//W3C//DTD SVG 1.1//EN" "http://www.w3.org/Graphics/SVG/1.1/DTD/svg11.dtd">
<!-- Creator: CorelDRAW 2018 (64-Bit) -->
<svg xmlns="http://www.w3.org/2000/svg" xml:space="preserve" width="65.0401mm" height="65.0401mm" version="1.1" style="shape-rendering:geometricPrecision; text-rendering:geometricPrecision; image-rendering:optimizeQuality; fill-rule:evenodd; clip-rule:evenodd"
viewBox="0 0 1482.61 1482.61"
 xmlns:xlink="http://www.w3.org/1999/xlink">
 <defs>
  <style type="text/css">
   <![CDATA[
    .fil2 {fill:none}
    .fil0 {fill:#2B2B2B;fill-rule:nonzero}
    .fil1 {fill:#DF7060;fill-rule:nonzero}
   ]]>
  </style>
 </defs>
 <g id="Layer_x0020_1">
  <metadata id="CorelCorpID_0Corel-Layer"/>
  <g id="_886661312">
   <path class="fil0" d="M617.9 653.92c-5.95,0 -11.4,2.77 -15.7,7.38 -2.64,-1.26 -4.77,-3.44 -5.09,-6.49 -0.48,-4.49 -3.5,-8.36 -8.36,-8.36 -4.15,0 -8.85,3.84 -8.37,8.36 0.96,8.96 6.33,17.06 13.91,21.33 -0.94,3.52 -1.48,7.29 -1.48,11.24 0,18.48 11.24,33.46 25.1,33.46 13.86,0 25.1,-14.98 25.1,-33.46 0,-18.48 -11.24,-33.46 -25.1,-33.46z"/>
   <path class="fil0" d="M906.36 649.24c-4.92,0 -7.88,3.85 -8.36,8.36 -0.33,3.04 -2.46,5.23 -5.09,6.49 -4.3,-4.61 -9.76,-7.38 -15.7,-7.38 -13.86,0 -25.1,14.98 -25.1,33.46 0,18.48 11.24,33.46 25.1,33.46 13.86,0 25.1,-14.98 25.1,-33.46 0,-3.95 -0.54,-7.72 -1.48,-11.24 7.59,-4.28 12.95,-12.38 13.91,-21.33 0.48,-4.5 -4.19,-8.36 -8.37,-8.36z"/>
   <path class="fil0" d="M760.53 720.31c2.84,-3.56 3.41,-8.34 0,-11.83 -2.89,-2.95 -9.02,-3.53 -11.83,0 -5.3,6.65 -13.02,7.24 -18.74,0.72 -7.11,-8.11 -18.91,3.76 -11.83,11.83 11.21,12.78 31.7,12.71 42.4,-0.72z"/>
   <path class="fil0" d="M797.79 787.81c5.59,-9.24 -8.87,-17.66 -14.45,-8.45 -19.94,32.95 -66.9,34.75 -82.88,-2.42 -4.24,-9.86 -18.66,-1.35 -14.45,8.44 21.14,49.17 85.97,45.06 111.77,2.43z"/>
   <path class="fil0" d="M565.79 615.84c-5.69,9.18 8.78,17.59 14.45,8.45 10.23,-16.51 39.87,-16.88 49.72,-0.63 5.58,9.19 20.05,0.8 14.45,-8.44 -16.53,-27.26 -61.79,-26.53 -78.61,0.62z"/>
   <path class="fil0" d="M864.63 624.28c10.23,-16.51 39.87,-16.88 49.72,-0.63 5.57,9.19 20.05,0.8 14.45,-8.44 -16.53,-27.26 -61.79,-26.53 -78.61,0.62 -5.69,9.18 8.78,17.59 14.45,8.45z"/>
   <path class="fil0" d="M1133.67 699.1c-23.37,-42.16 -48.91,-83.09 -71.99,-125.47 -42.6,-78.07 -74.39,-166.96 -128.71,-237.89 -44.78,-58.39 -116.61,-101.49 -191.66,-80.36 -75.06,-21.14 -146.94,21.97 -191.67,80.36 -54.31,70.93 -86.1,159.82 -128.71,237.89 -23.09,42.33 -48.63,83.31 -71.99,125.47 -18.07,32.45 -33.29,67.75 -32.73,105.56 0.78,56.16 46.34,109.3 102.66,96.25 -8.42,83.93 97.7,122.79 172.87,124.58 -17.62,14.83 -32.01,33.4 -43,53.59 -25.04,45.78 -33.07,93.35 -31.28,144.43 0.39,10.48 16.62,10.48 16.28,0 -2.17,-61.84 11.6,-126.7 55.71,-173.48 6.86,-7.25 14.27,-12.88 21.97,-17.62 6.02,17.85 10.04,36.19 11.76,55.1 -5.86,1.67 -11.76,3.74 -17.79,6.36 -0.39,0.17 -0.72,0.39 -1.06,0.61 -3.23,0.11 -6.41,1.84 -7.75,5.74 -6.75,19.69 -10.21,39.93 -8.64,60.73 1.62,21.64 9.15,41.82 9.7,63.68 0.28,10.71 17.01,10.76 16.73,0 -0.45,-17.18 -4.46,-32.4 -7.64,-49.07 -4.29,-22.64 -2.23,-44.78 4.63,-66.58 0.78,-0.11 1.62,-0.28 2.45,-0.67 46.79,-20.58 88.5,-3.4 117.05,36.3 2.79,3.9 9.42,6.25 13.11,1.67 27.55,-34.13 72.16,-51.36 114.32,-37.19 6.8,21.75 8.98,43.83 4.57,66.47 -3.23,16.62 -7.19,32.01 -7.64,49.07 -0.28,10.76 16.45,10.76 16.73,0 0.56,-21.86 8.09,-42.05 9.7,-63.68 1.56,-20.8 -1.9,-41.04 -8.64,-60.73 -0.84,-2.51 -2.45,-4.07 -4.35,-4.96 -0.5,-0.34 -1.06,-0.61 -1.73,-0.89 -2.73,-1.06 -5.47,-1.95 -8.25,-2.79 1.17,-20.74 3.96,-41.21 8.2,-61.51 8.42,5.74 16.17,12.33 23.42,19.96 44.05,46.73 57.83,111.64 55.71,173.48 -0.39,10.48 15.89,10.48 16.23,0 1.78,-51.08 -6.25,-98.65 -31.28,-144.43 -10.48,-19.24 -24.04,-36.97 -40.54,-51.42 75.62,-2.84 181.46,-43.5 173.26,-126.75 56.43,13.11 101.72,-40.15 102.72,-96.25 0.67,-37.81 -14.72,-73.16 -32.73,-105.56zm-291.43 389.07l0 0c-38.14,-4.96 -77.23,10.76 -103.78,39.09 -26.49,-32.12 -60.56,-48.24 -98.93,-43.16 -2.12,-20.52 -6.41,-40.43 -13.22,-59.84 16.56,-7.98 33.85,-14.11 50.25,-24.82 16.28,-10.65 26.65,-27.72 23.53,-46.45 26.15,3.62 53.03,3.85 79.41,0.89 -2.45,16.95 6.08,32.62 20.24,43.33 11.43,8.64 25.65,12.38 38.7,17.68 4.57,1.9 8.98,3.9 13.33,6.13 -4.96,22.14 -8.09,44.5 -9.54,67.14zm-291.59 -250.61l0 0c-28.1,-51.69 -37.08,-111.03 -39.15,-170.53 25.76,-57.72 53.25,-114.65 83.15,-170.31 14.55,-27.1 28.83,-56.99 52.48,-77.51 27.71,-24.15 71.88,-32.9 96.98,-0.45 2.01,2.56 4.46,3.23 6.69,2.62 2.29,0.61 4.74,-0.06 6.75,-2.62 23.36,-30.17 63.68,-24.82 91.34,-3.85 25.93,19.63 40.71,49.91 56.04,77.79 28.22,51.42 55.1,103.44 79.24,156.87 -1.06,51.92 -6.25,103.72 -23.14,152.69 -30.22,87.94 -108.57,130.83 -198.47,135.9 -85.43,4.8 -169.08,-21.86 -211.91,-100.6zm506.91 44.17l0 0c-6.53,-2.79 -14.17,1.78 -12.27,9.43 21.92,90.84 -114.32,125.14 -180.07,119.23 -1.23,-0.73 -2.56,-1.17 -3.9,-1.28 -29.72,-13.22 -73.55,-27.44 -64.58,-57.55 16.23,-2.73 32.18,-6.69 47.46,-11.88 63.91,-21.75 108.8,-65.36 131.55,-128.87 5.74,-16.17 10.26,-32.68 13.78,-49.41 32.45,-4.91 61.9,-22.03 61.9,-59.22 0.05,-25.49 -21.92,-62.63 -50.47,-58.5 0.45,-28.33 -0.22,-56.71 -0.89,-84.54 -0.22,-10.76 -16.95,-10.76 -16.73,0 0.45,17.29 0.84,34.8 1,52.37 -11.99,-25.32 -24.48,-50.41 -37.59,-75.23 -19.02,-36.08 -36.81,-75.28 -61.79,-107.63 -30.56,-39.65 -94.58,-69.26 -134.11,-26.77 -40.93,-44.11 -106.68,-10.82 -136.85,30.39 -24.65,33.68 -42.77,73.39 -61.45,110.53 -14.44,28.55 -28.22,57.38 -41.6,86.44 0.11,-22.86 0.78,-45.5 1.45,-67.48 0.28,-10.76 -16.45,-10.76 -16.73,0 -0.95,31.56 -1.56,66.25 -0.11,101.44 -0.05,0.22 -0.17,0.39 -0.28,0.61 -32.23,-0.84 -53.59,33.85 -50.08,63.74 3.85,33.01 34.41,52.53 65.58,50.36 18.63,73.28 57.61,136.24 137.07,163 11.27,3.79 22.92,6.86 34.74,9.2 0,0 0,0 0,0.05 10.87,31.17 -33.07,45.34 -63.29,58.61 -1.17,-0.56 -2.51,-0.89 -4.18,-0.72 -65.3,6.13 -199.81,-25.65 -177.78,-116.88 1.89,-7.64 -5.74,-12.21 -12.27,-9.43 -38.93,16.62 -77.74,-12.88 -88.28,-50.08 -10.43,-36.69 1.45,-74.84 17.84,-107.79 32.12,-64.52 72.66,-125.19 106.07,-189.21 53.42,-102.44 122.96,-307.1 276.88,-262.99 1.39,0.39 2.62,0.44 3.74,0.28 1.11,0.17 2.34,0.11 3.74,-0.28 153.85,-44.11 223.5,160.55 276.87,262.99 32.73,62.79 71.43,122.35 103.95,185.14 16.84,32.51 30.17,70.88 21.08,107.85 -9.48,38.7 -48.52,71.55 -89.39,54.09zm-64.8 -137.57l0 0c4.63,-27.38 6.86,-55.21 7.81,-83.09 23.92,-6.25 37.14,32.84 33.18,50.13 -4.74,20.74 -21.97,29.39 -40.99,32.96zm-485.71 17.57l0 0c-20.63,0.95 -40.82,-12.55 -44.95,-33.46 -4.29,-21.53 10.82,-48.57 34.41,-47.74 1.73,27.38 4.96,54.76 10.54,81.19z"/>
   <path class="fil0" d="M1146.94 827.63c-9.48,38.7 -48.52,71.55 -89.39,54.09 -6.53,-2.79 -14.17,1.78 -12.27,9.43 21.92,90.84 -114.32,125.14 -180.07,119.23 -1.23,-0.73 -2.56,-1.17 -3.9,-1.28 -29.72,-13.22 -73.55,-27.44 -64.58,-57.55 16.23,-2.73 32.18,-6.69 47.46,-11.88 63.91,-21.75 108.8,-65.36 131.55,-128.87 5.74,-16.17 10.26,-32.68 13.78,-49.41 32.45,-4.91 61.9,-22.03 61.9,-59.22 0.05,-25.49 -21.92,-62.63 -50.47,-58.5 0.45,-28.33 -0.22,-56.71 -0.89,-84.54 -0.22,-10.76 -16.95,-10.76 -16.73,0 0.45,17.29 0.84,34.8 1,52.37 -11.99,-25.32 -24.48,-50.41 -37.59,-75.23 -19.02,-36.08 -36.81,-75.28 -61.79,-107.63 -30.56,-39.65 -94.58,-69.26 -134.11,-26.77 -40.93,-44.11 -106.68,-10.82 -136.85,30.39 -24.65,33.68 -42.77,73.39 -61.45,110.53 -14.44,28.55 -28.22,57.38 -41.6,86.44 0.11,-22.86 0.78,-45.5 1.45,-67.48 0.28,-10.76 -16.45,-10.76 -16.73,0 -0.95,31.56 -1.56,66.25 -0.11,101.44 -0.05,0.22 -0.17,0.39 -0.28,0.61 -32.23,-0.84 -53.59,33.85 -50.08,63.74 3.85,33.01 34.41,52.53 65.58,50.36 18.63,73.28 57.61,136.24 137.07,163 11.27,3.79 22.92,6.86 34.74,9.2 0,0 0,0 0,0.05 10.87,31.17 -33.07,45.34 -63.29,58.61 -1.17,-0.56 -2.51,-0.89 -4.18,-0.72 -65.3,6.13 -199.81,-25.65 -177.78,-116.88 1.89,-7.64 -5.74,-12.21 -12.27,-9.43 -38.93,16.62 -77.74,-12.88 -88.28,-50.08 -10.43,-36.69 1.45,-74.84 17.84,-107.79 32.12,-64.52 72.66,-125.19 106.07,-189.21 53.42,-102.44 122.96,-307.1 276.88,-262.99 1.39,0.39 2.62,0.44 3.74,0.28 1.11,0.17 2.34,0.11 3.74,-0.28 153.85,-44.11 223.5,160.55 276.87,262.99 32.73,62.79 71.43,122.35 103.95,185.14 16.84,32.51 30.17,70.88 21.08,107.85z"/>
   <path class="fil1" d="M621.43 793.1c0,18.65 -15.12,33.76 -33.76,33.76 -18.65,0 -33.76,-15.12 -33.76,-33.76 0,-18.65 15.12,-33.76 33.76,-33.76 18.65,0 33.76,15.12 33.76,33.76z"/>
   <path class="fil1" d="M951.57 785.59c0,18.65 -15.12,33.76 -33.76,33.76 -18.65,0 -33.76,-15.12 -33.76,-33.76 0,-18.65 15.12,-33.76 33.76,-33.76 18.65,0 33.76,15.12 33.76,33.76z"/>
  </g>
  <rect class="fil2" x="-0" y="-0" width="1482.62" height="1482.62"/>
 </g>
</svg>
