<?xml version="1.0" encoding="UTF-8"?>
<!DOCTYPE svg PUBLIC "-//W3C//DTD SVG 1.1//EN" "http://www.w3.org/Graphics/SVG/1.1/DTD/svg11.dtd">
<!-- Creator: CorelDRAW 2018 (64-Bit) -->
<svg xmlns="http://www.w3.org/2000/svg" xml:space="preserve" width="65.0401mm" height="65.0401mm" version="1.1" style="shape-rendering:geometricPrecision; text-rendering:geometricPrecision; image-rendering:optimizeQuality; fill-rule:evenodd; clip-rule:evenodd"
viewBox="0 0 2039.02 2039.02"
 xmlns:xlink="http://www.w3.org/1999/xlink">
 <defs>
  <style type="text/css">
   <![CDATA[
    .fil3 {fill:none}
    .fil0 {fill:#2B2B2B;fill-rule:nonzero}
    .fil2 {fill:#DF7060;fill-rule:nonzero}
    .fil1 {fill:#E6AA2F;fill-rule:nonzero}
   ]]>
  </style>
 </defs>
 <g id="Layer_x0020_1">
  <metadata id="CorelCorpID_0Corel-Layer"/>
  <g id="_883907280">
   <path class="fil0" d="M836.88 924.88c-19.06,0 -34.51,20.6 -34.51,46.02 0,25.41 15.45,46.02 34.51,46.02 19.06,0 34.51,-20.6 34.51,-46.02 0,-25.41 -15.45,-46.02 -34.51,-46.02z"/>
   <path class="fil0" d="M1193.51 1020.75c19.06,0 34.51,-20.6 34.51,-46.02 0,-25.41 -15.45,-46.02 -34.51,-46.02 -19.06,0 -34.51,20.6 -34.51,46.02 0,25.42 15.45,46.02 34.51,46.02z"/>
   <path class="fil0" d="M1033.04 1016.18c3.9,-4.89 4.69,-11.47 0,-16.27 -3.97,-4.06 -12.41,-4.85 -16.27,0 -7.29,9.15 -17.9,9.96 -25.77,0.99 -9.78,-11.15 -26,5.17 -16.27,16.27 15.41,17.58 43.6,17.47 58.31,-0.99z"/>
   <path class="fil0" d="M765.22 872.5c-7.82,12.62 12.08,24.19 19.87,11.61 14.07,-22.71 54.83,-23.21 68.38,-0.86 7.67,12.64 27.57,1.09 19.87,-11.61 -22.73,-37.49 -84.98,-36.49 -108.12,0.86z"/>
   <path class="fil0" d="M1176.22 884.11c14.07,-22.71 54.83,-23.21 68.38,-0.86 7.67,12.64 27.57,1.09 19.87,-11.61 -22.73,-37.49 -84.98,-36.49 -108.11,0.86 -7.82,12.62 12.07,24.19 19.87,11.61z"/>
   <path class="fil0" d="M1069.24 1092.37c-44.2,10.48 -88.3,14.22 -131.15,-3.39 -13.69,-5.62 -19.65,16.62 -6.12,22.19 46.38,19.06 95.62,14.71 143.38,3.38 14.4,-3.41 8.3,-25.6 -6.12,-22.18z"/>
   <path class="fil0" d="M1504.65 874.34c20.25,-23.01 25.69,-54.84 17.41,-85.28 -5.37,-19.86 -16.8,-37.65 -29.76,-53.46 -7.36,-8.97 -16.11,-16.41 -23.62,-25.16 -11.89,-13.57 -9.2,-10.51 -9.59,-28.07 -1.92,-83.06 -49.08,-150.17 -134.98,-155.46 -3.3,-60.28 -57.21,-106.14 -116.73,-105.15 -12.2,-33.06 -43.87,-55.68 -74.62,-70.79 -39.65,-19.48 -74.85,-11.73 -109.67,11.73 -64.58,-37.89 -160.06,-6.52 -183.99,66.65 -62.2,-1.38 -121.02,40.95 -124.17,105.22 -85.89,5.29 -133.14,72.4 -135.06,155.46 -0.54,26.07 -16.79,33.28 -33.13,53.23 -11.96,14.57 -22.39,30.52 -28.22,48.55 -10.2,31.67 -5.68,65.8 15.8,90.19 -74.24,61.58 -63.12,173.79 20.1,220.26 -67.11,74.01 6.13,193.34 104.22,163.28 46.17,92.57 163.66,116.19 242.2,44.33 1.38,-1.23 2.3,-2.53 2.84,-3.83 12.66,2.61 25.46,4.68 38.42,6.29 13.81,51.23 -82.44,68.18 -114.27,91.42 -29.6,21.63 -53.23,50.77 -70.71,82.83 -11.35,20.79 -20.17,41.87 -26.84,63.35 -13.42,43.41 -17.79,88.28 -16.18,135.29 0.54,14.42 22.85,14.42 22.4,0 -1.61,-45.4 3.07,-91.95 17.03,-135.29 10.28,-32.13 25.69,-62.43 47.32,-89.19 -0.08,29.76 0,59.52 0.3,89.19 0.39,46.02 1.23,92.03 2.53,138.05 0.38,14.8 23.39,14.8 23.01,0 -1.3,-46.02 -2.15,-92.03 -2.53,-138.05 -0.46,-37.66 -0.54,-75.39 -0.31,-113.12l0 -0.31c22.32,-19.1 47.71,-28.76 73.09,-40.34 0,23.7 -0.08,47.32 -0.08,70.94 0,4.6 3.53,10.2 8.44,11.04 64.42,10.89 128,6.75 192.58,-0.76 13.5,-1.54 28.91,-0.31 37.65,-11.66 11.04,-14.26 5.83,-49.93 2.84,-73.85 5.75,2.07 11.51,4.14 17.18,6.44 23.39,9.51 43.87,22.32 62.12,39.27 0.23,37.43 0.15,74.85 -0.23,112.36 -0.46,46.02 -1.3,92.03 -2.61,138.05 -0.38,14.8 22.63,14.8 23.01,0 1.3,-46.02 2.15,-92.03 2.53,-138.05 0.3,-28.99 0.38,-58.06 0.3,-87.13 20.79,26.23 35.66,55.83 45.71,87.13 13.96,43.33 18.63,89.88 17.1,135.29 -0.54,14.42 21.86,14.42 22.32,0 1.61,-47.01 -2.76,-91.88 -16.18,-135.29 -6.67,-21.47 -15.49,-42.56 -26.84,-63.35 -17.49,-31.98 -41.11,-61.2 -70.64,-82.83 -32.52,-23.7 -131.76,-41.42 -113.51,-94.41 9.05,-1.46 17.95,-3.07 26.69,-4.91 4.14,-0.92 8.13,-1.92 12.12,-2.99 0.23,0.3 0.38,0.54 0.69,0.76 78.53,71.86 196.03,48.16 242.2,-44.33 98.17,30.14 171.41,-89.27 104.3,-163.28 83.14,-46.48 94.34,-158.6 20.02,-220.26zm-402.33 499.66l0 0c3.76,2.92 7.75,5.29 11.89,7.51 1.69,20.17 7.82,49.31 -3.83,64.42 -11.27,14.49 -43.71,12.04 -61.74,13.57 -43.1,3.6 -85.97,4.06 -128.77,-2.3 0,-24.16 0.08,-48.32 0.08,-72.4 4.37,-2.45 8.67,-4.98 12.96,-7.75 21.93,-14.34 36.12,-37.12 32.67,-62.35 36.5,2.92 73.55,2.15 109.13,-1.99 -4.14,23.93 7.67,46.24 27.61,61.28zm-107.06 -82.29l0 0c-51.54,-1.99 -105.07,-8.21 -153.31,-27.53 -59.97,-23.93 -94.1,-71.48 -109.9,-132.76 -15.11,-58.36 -18.33,-120.48 -22.85,-180.38 -4.91,-65.19 -7.13,-130.45 -7.21,-195.88 48.55,-6.14 92.49,1.92 136.59,-28.22 26.54,-18.1 43.95,-43.95 50.7,-74.09 54.37,29.14 117.88,3.3 139.97,-49.62 11.43,30.29 30.22,55.99 62.35,70.86 33.36,15.42 70.71,15.11 103.23,0.15 8.36,56.75 54.3,98.71 113.43,95.64 1.76,59.82 1.38,119.57 -2.61,179.31 -4.06,62.51 -6.9,126.47 -24.93,186.75 -18.02,59.98 -53.15,109.67 -113.05,132.37 -54.53,20.55 -114.5,25.62 -172.41,23.39zm466.99 -211.06l0 0c-7.05,2.92 -12.27,12.88 -4.98,18.94 71.17,59.9 6.98,167.57 -79.76,133.37 -6.21,-2.45 -11.81,2.76 -13.96,7.9 -33.98,82.06 -132.6,105.38 -200.48,52.77 69.87,-25.23 116.96,-75.08 139.81,-151.54 9.89,-33.13 15.19,-67.42 18.71,-101.93 36.05,-3.22 73.24,-24.77 78.3,-63.66 5.98,-45.4 -23.77,-89.58 -68.49,-94.95 1.08,-42.26 1,-84.59 -0.54,-127 -0.46,-11.51 -14.57,-14.04 -20.47,-7.52 -53.84,3.38 -94.18,-35.66 -94.41,-91.11 0,-8.28 -9.74,-14.5 -17.1,-9.74 -30.06,19.33 -65.8,22.09 -98.4,6.82 -39.8,-18.71 -53.38,-58.06 -60.89,-98.63 -1.38,-7.21 -7.59,-9.28 -13.11,-7.67 -6.14,-0.54 -12.58,3.07 -12.27,11.04 2.76,71.25 -71.4,108.21 -127.62,66.03 -7.59,-5.68 -16.8,2.22 -17.33,9.97 -3.37,47.4 -39.27,79.38 -83.06,92.03 -32.37,9.28 -64.5,3.07 -96.94,8.13 -4.29,0.61 -6.75,3.07 -7.74,6.14 -1.61,1.77 -2.61,4.14 -2.61,7.29 -0.08,51.31 0.84,103.08 3.37,154.77 -32.9,-10.66 -62.89,24.93 -66.72,57.37 -2.38,20.78 -2.3,45.33 12.73,61.43 16.64,17.87 42.34,24.93 66.03,24 2.23,17.41 4.6,34.9 7.36,52.23 14.19,87.89 52.92,158.99 139.43,191.2 11.89,4.45 24.08,8.28 36.58,11.58 -67.95,54.45 -167.96,31.29 -202.24,-51.38 -2.15,-5.14 -7.67,-10.35 -13.96,-7.9 -86.74,34.21 -150.93,-73.47 -79.69,-133.37 7.21,-6.06 1.99,-16.03 -5.06,-18.94 -84.05,-34.59 -94.03,-144.64 -19.4,-195.49 5.52,-3.76 8.36,-12.81 2.3,-17.79 -60.13,-50.16 3.45,-119.49 43.56,-156.53 3.07,-2.84 3.83,-7.21 2.91,-11.04 -18.79,-79.99 38.12,-150.78 120.02,-150.7 5.91,0 11.66,-5.21 11.35,-11.35 -2.92,-61.97 53.84,-97.86 110.05,-93.03 4.76,0.46 9.89,-3.76 10.97,-8.28 16.03,-67.34 102.77,-94.33 157.53,-58.9 2.23,2.3 5.22,3.6 8.51,2.99 2.53,-0.23 4.83,-1.61 6.6,-3.53 32.29,-22.7 61.36,-29.6 99.09,-9.44 24.77,13.19 50.85,32.6 57.9,61.2 1.15,4.45 6.14,8.74 10.97,8.28 53.84,-4.75 105.07,36.12 102.39,93.03 -0.23,6.14 5.45,11.35 11.35,11.35 81.91,-0.08 138.82,70.71 120.03,150.7 -0.92,3.83 -0.08,8.2 2.92,11.04 40.11,37.04 103.99,106.14 43.56,156.53 -5.98,4.99 -3.22,14.04 2.3,17.79 74.7,50.85 64.65,160.9 -19.41,195.49zm-138.51 -63.81l0 0c1.54,-17.95 2.76,-35.89 3.99,-53.76 1.3,-19.48 2.3,-38.96 3.07,-58.44 33.36,5.52 56.45,46.55 43.49,78.91 -8.28,20.55 -29.53,30.75 -50.54,33.29zm-632.1 5.14l0 0c-12.88,0.15 -24.62,-2.3 -36.05,-8.97 -15.65,-9.13 -18.25,-25.08 -17.79,-41.8 0.61,-22.32 17.64,-62.35 45.94,-42.49 1.84,31.22 4.52,62.28 7.9,93.26z"/>
   <path class="fil0" d="M1074.04 1045.92c-0.59,20.04 33.03,20.91 32.93,0.06 -0,-0.71 -0.04,-1.39 -0.11,-2.04 -2.08,-19.32 -32.23,-18.13 -32.82,1.99z"/>
   <path class="fil1" d="M1457.26 1099.59c71.17,59.9 6.98,167.57 -79.76,133.37 -6.21,-2.45 -11.81,2.76 -13.96,7.9 -33.98,82.06 -132.6,105.38 -200.48,52.77 69.87,-25.23 116.96,-75.08 139.81,-151.54 9.89,-33.13 15.19,-67.42 18.71,-101.93 36.05,-3.22 73.24,-24.77 78.3,-63.66 5.98,-45.4 -23.77,-89.58 -68.49,-94.95 1.08,-42.26 1,-84.59 -0.54,-127 -0.46,-11.51 -14.57,-14.04 -20.47,-7.52 -53.84,3.38 -94.18,-35.66 -94.41,-91.11 0,-8.28 -9.74,-14.5 -17.1,-9.74 -30.06,19.33 -65.8,22.09 -98.4,6.82 -39.8,-18.71 -53.38,-58.06 -60.89,-98.63 -1.38,-7.21 -7.59,-9.28 -13.11,-7.67 -6.14,-0.54 -12.58,3.07 -12.27,11.04 2.76,71.25 -71.4,108.21 -127.62,66.03 -7.59,-5.68 -16.8,2.22 -17.33,9.97 -3.37,47.4 -39.27,79.38 -83.06,92.03 -32.37,9.28 -64.5,3.07 -96.94,8.13 -4.29,0.61 -6.75,3.07 -7.74,6.14 -1.61,1.77 -2.61,4.14 -2.61,7.29 -0.08,51.31 0.84,103.08 3.37,154.77 -32.9,-10.66 -62.89,24.93 -66.72,57.37 -2.38,20.78 -2.3,45.33 12.73,61.43 16.64,17.87 42.34,24.93 66.03,24 2.23,17.41 4.6,34.9 7.36,52.23 14.19,87.89 52.92,158.99 139.43,191.2 11.89,4.45 24.08,8.28 36.58,11.58 -67.95,54.45 -167.96,31.29 -202.24,-51.38 -2.15,-5.14 -7.67,-10.35 -13.96,-7.9 -86.74,34.21 -150.93,-73.47 -79.69,-133.37 7.21,-6.06 1.99,-16.03 -5.06,-18.94 -84.05,-34.59 -94.03,-144.64 -19.4,-195.49 5.52,-3.76 8.36,-12.81 2.3,-17.79 -60.13,-50.16 3.45,-119.49 43.56,-156.53 3.07,-2.84 3.83,-7.21 2.91,-11.04 -18.79,-79.99 38.12,-150.78 120.02,-150.7 5.91,0 11.66,-5.21 11.35,-11.35 -2.92,-61.97 53.84,-97.86 110.05,-93.03 4.76,0.46 9.89,-3.76 10.97,-8.28 16.03,-67.34 102.77,-94.33 157.53,-58.9 2.23,2.3 5.22,3.6 8.51,2.99 2.53,-0.23 4.83,-1.61 6.6,-3.53 32.29,-22.7 61.36,-29.6 99.09,-9.44 24.77,13.19 50.85,32.6 57.9,61.2 1.15,4.45 6.14,8.74 10.97,8.28 53.84,-4.75 105.07,36.12 102.39,93.03 -0.23,6.14 5.45,11.35 11.35,11.35 81.91,-0.08 138.82,70.71 120.03,150.7 -0.92,3.83 -0.08,8.2 2.92,11.04 40.11,37.04 103.99,106.14 43.56,156.53 -5.98,4.99 -3.22,14.04 2.3,17.79 74.7,50.85 64.65,160.9 -19.41,195.49 -7.05,2.92 -12.27,12.88 -4.98,18.94z"/>
   <path class="fil2" d="M840.86 1106.24c0,25.64 -20.79,46.44 -46.44,46.44 -25.64,0 -46.44,-20.79 -46.44,-46.44 0,-25.65 20.79,-46.44 46.44,-46.44 25.65,0 46.44,20.79 46.44,46.44z"/>
   <path class="fil2" d="M1253.63 1116.56c0,25.65 -20.79,46.44 -46.44,46.44 -25.65,0 -46.44,-20.79 -46.44,-46.44 0,-25.64 20.79,-46.44 46.44,-46.44 25.64,0 46.44,20.79 46.44,46.44z"/>
  </g>
  <rect class="fil3" x="-0" y="-0" width="2039.02" height="2039.02"/>
 </g>
</svg>
