<?xml version="1.0" encoding="UTF-8"?>
<!DOCTYPE svg PUBLIC "-//W3C//DTD SVG 1.1//EN" "http://www.w3.org/Graphics/SVG/1.1/DTD/svg11.dtd">
<!-- Creator: CorelDRAW 2018 (64-Bit) -->
<svg xmlns="http://www.w3.org/2000/svg" xml:space="preserve" width="65.0401mm" height="65.0401mm" version="1.1" style="shape-rendering:geometricPrecision; text-rendering:geometricPrecision; image-rendering:optimizeQuality; fill-rule:evenodd; clip-rule:evenodd"
viewBox="0 0 8650.96 8650.96"
 xmlns:xlink="http://www.w3.org/1999/xlink">
 <defs>
  <style type="text/css">
   <![CDATA[
    .fil3 {fill:none}
    .fil1 {fill:#2B2B2B;fill-rule:nonzero}
    .fil2 {fill:#DF7060;fill-rule:nonzero}
    .fil0 {fill:#E6AA2F;fill-rule:nonzero}
   ]]>
  </style>
 </defs>
 <g id="Layer_x0020_1">
  <metadata id="CorelCorpID_0Corel-Layer"/>
  <g id="_991321248">
   <path class="fil0" d="M5500.35 6519.51c-27.97,12.69 -56.29,24.73 -84.59,36.43 -329.29,138.62 -676.49,229.73 -1066.95,217.03 -367.68,-11.7 -715.84,-106.39 -1027.25,-261.28 -27.65,-13.66 -54.99,-27.97 -82,-42.3 0.65,-1.62 1.32,-2.93 2.29,-4.55 39.69,-72.89 87.2,-142.53 142.19,-205.33 28.64,15.62 57.59,30.59 86.88,44.9 286.01,140.9 609.78,221.91 944.28,223.87 314,1.96 594.15,-75.48 860,-187.42 29.93,-12.37 59.87,-25.7 89.48,-39.04 40.67,51.08 76.15,106.06 107.38,163.02 9.76,18.22 19.53,36.43 28.3,54.67z"/>
   <path class="fil0" d="M5637.67 6967.56c-29.94,14.31 -59.87,28.62 -90.13,42.3 -372.89,170.51 -765.64,290.24 -1215.97,282.43 -418.45,-7.16 -815.1,-115.51 -1163.59,-294.15 -30.26,-15.3 -59.87,-31.23 -89.48,-47.83 13.67,-89.16 34.82,-176.69 64.75,-262.59 26.68,17.25 54.02,33.84 81.68,49.79 341.65,197.84 749.36,312.69 1171.72,309.45 409,-3.26 760.75,-131.45 1096.54,-295.79 28.32,-13.66 56.3,-27.65 84.61,-41.96 27.99,84.59 47.83,170.82 59.87,258.36z"/>
   <path class="fil1" d="M5869.78 3964.62c188.16,-377.73 370.68,-784.08 306.87,-1216.24 -40.34,-271.22 -227.57,-619.85 -532.57,-546.66 -27.21,-406.82 -339.72,-829.59 -751.7,-893.88 -226.17,-35.19 -433.56,23.46 -640.03,110.73 -158.14,67.1 -290.92,1.89 -449.52,20.64 -108.87,13.14 -211.15,57.73 -300.77,119.19 -204.58,139.37 -325.18,356.61 -440.61,569.17 -30.5,56.78 -57.25,122.94 -96.19,174.08 -54.43,71.8 -126.69,93.85 -201.76,134.21 -78.83,42.23 -138.42,92.43 -184.88,169.85 -263.23,438.73 -27.68,1043.1 163.3,1458.84 -39.88,53.96 -65.21,124.34 -69.92,184.87 -6.56,87.75 -2.81,183.94 64.76,247.76 73.67,69.44 173.15,97.59 272.62,93.85 3.75,28.61 7.52,56.77 11.27,84.93 37.54,304.53 108.39,629.71 369.75,822.56 179.24,132.32 406.82,191.91 633.92,218.65 18.3,57.71 4.7,105.58 -28.62,145.94 -96.19,117.3 -351.92,175.96 -453.75,250.1 -58.18,42.7 -110.73,91.96 -158.12,146.39 -54.91,62.89 -102.3,132.33 -142.17,205.06 -0.94,1.88 -1.41,3.29 -1.88,4.68 -39.42,71.8 -71.32,144.53 -96.67,218.2 -29.55,85.86 -51.14,173.6 -64.75,262.76 -17.84,116.37 -23.46,235.08 -19.23,357.09 2.34,61.46 97.12,61.46 95.25,0 -3.75,-102.3 0.47,-206.47 13.61,-309.22 11.27,-88.69 30.03,-175.97 56.78,-260.9 24.86,-77.89 56.77,-153.91 96.66,-225.7 41.29,-73.2 90.57,-143.11 149.69,-207.39 2.82,-2.82 5.16,-6.11 8.45,-8.92 111.21,-117.77 245.4,-161.87 378.19,-224.28 0,0 0,-0.48 0.48,-0.48 312.03,196.61 704.31,195.67 1014.94,-2.81 20.18,7.5 39.88,15.02 59.12,22.52 115.89,47.39 215.83,113.55 302.65,205.05 14.07,15.02 27.68,30.5 40.36,45.52 56.3,66.64 102.28,138.9 140.3,215.38 31.44,62.41 57.25,128.1 77.42,195.19 25.8,84 43.63,170.81 54.43,258.54 12.2,99.01 15.95,198.96 12.66,297.5 -2.34,61.46 92.44,61.46 94.32,0 4.23,-115.9 -0.47,-228.99 -16.89,-339.73 -11.73,-87.73 -31.91,-174.08 -59.59,-258.54 -21.12,-63.8 -46.46,-127.16 -77.42,-189.57 -8.91,-18.3 -18.77,-36.59 -28.62,-54.89 -30.96,-56.78 -66.62,-111.67 -106.98,-162.83 -55.37,-70.85 -120.12,-135.14 -192.39,-188.62 -101.82,-73.67 -356.61,-134.21 -452.8,-250.1 -33.32,-39.89 -47.86,-86.82 -30.98,-142.65 138.42,-17.36 276.38,-49.73 400.73,-105.1 124.34,-55.84 235.08,-135.14 320.49,-245.88 175.01,-227.57 232.26,-513.8 260.42,-798.62 152.96,-14.09 310.15,-105.58 331.74,-269.81 16.89,-131.85 -36.6,-260.42 -132.32,-336.43zm-3101.13 342.53l0 0c-1.88,-78.36 42.7,-297.49 165.17,-206.92 2.81,1.88 5.63,3.29 8.43,4.7 13.14,131.85 33.78,262.76 52.57,388.99 -117.78,0 -223.35,-53.96 -226.17,-186.76zm1937.91 1679.84l0 0c17.82,13.61 36.6,24.87 56.3,35.19 -254.31,134.19 -551.8,133.26 -805.19,-3.29 9.86,-6.11 19.71,-12.2 30.02,-18.77 53.96,-35.19 97.14,-82.59 120.6,-137.01 17.82,-41.77 24.87,-88.23 16.43,-136.08 72.25,5.63 144.05,8.91 213.03,9.86 81.18,1.41 165.64,0 251.04,-6.57 -1.89,12.66 -2.82,25.34 -2.82,37.54 0,33.32 7.04,65.23 19.71,95.26 20.16,47.86 55.36,90.09 100.87,123.87zm893.41 -1770.4l0 0c-23.46,332.68 -32.37,697.74 -202.24,995.23 -184.4,322.83 -550.39,407.75 -898.09,425.13 -284.36,14.07 -598.74,-8.45 -865.27,-115.44 -346.76,-139.82 -463.13,-456.56 -510.52,-802.85 -55.36,-406.34 -196.6,-936.57 -8.91,-1326.5 274.96,-570.58 1093.76,-678.51 1639.96,-543.84 310.62,76.48 655.05,259.95 798.15,562.6 116.85,246.35 66.16,543.84 46.93,805.67zm56.3 -811.77l0 0c-108.39,-261.83 -364.58,-456.56 -618.44,-564.94 -601.55,-257.13 -1478.53,-194.26 -1910.7,351.92 -179.71,226.64 -211.62,509.12 -194.26,796.29 -41.77,-15.03 -80.71,-9.86 -115.43,8.43 -173.15,-380.06 -408.7,-973.18 -143.58,-1359.81 76.95,-112.15 183.94,-103.24 282.01,-173.15 56.3,-39.89 88.68,-103.23 122,-161.89 111.67,-196.6 205.05,-411.98 369.27,-572.46 79.78,-78.36 179.26,-146.87 288.11,-176.89 119.66,-33.32 220.08,5.63 337.84,10.79 183.94,7.98 356.15,-129.51 538.21,-157.19 225.23,-33.78 456.56,12.2 624.55,172.67 182.99,174.08 315.31,435.45 312.49,688.83 -0.47,40.36 41.3,56.3 73.67,42.23 238.37,-103.23 381.48,155.32 434.5,339.72 45.52,157.19 44.58,328.93 18.77,489.41 -44.57,274.97 -166.57,529.75 -289.97,777.04 -20.18,-7.52 -41.77,-13.61 -63.82,-16.89 7.52,-168.92 -0.48,-338.31 -65.23,-494.1zm236.97 925.79l0 0c-35.19,86.82 -125.3,129.98 -213.97,141.24 7.04,-86.34 12.2,-172.21 18.3,-255.26 5.16,-71.8 12.2,-145.46 17.82,-219.6 137.49,28.16 231.8,198.48 177.85,333.61z"/>
   <path class="fil1" d="M3580.25 4146.77c-80.87,0 -146.43,87.41 -146.43,195.23 0,107.83 65.56,195.23 146.43,195.23 80.87,0 146.42,-87.4 146.42,-195.23 0,-107.82 -65.55,-195.23 -146.42,-195.23z"/>
   <path class="fil1" d="M5093.3 4163.04c-80.87,0 -146.43,87.41 -146.43,195.23 0,107.83 65.56,195.23 146.43,195.23 80.87,0 146.42,-87.4 146.42,-195.23 0,-107.82 -65.55,-195.23 -146.42,-195.23z"/>
   <path class="fil1" d="M4412.46 4534.16c16.55,-20.78 19.9,-48.69 0,-69.03 -16.85,-17.22 -52.63,-20.56 -69.03,0 -30.92,38.81 -75.95,42.27 -109.35,4.19 -41.5,-47.32 -110.3,21.93 -69.02,69.02 65.39,74.58 184.98,74.14 247.4,-4.18z"/>
   <path class="fil1" d="M3276.19 3924.53c-33.19,53.56 51.22,102.63 84.27,49.27 59.71,-96.34 232.63,-98.48 290.13,-3.64 32.52,53.64 116.97,4.64 84.29,-49.28 -96.45,-159.04 -360.54,-154.77 -458.7,3.66z"/>
   <path class="fil1" d="M4935.65 3924.53c-33.17,53.56 51.24,102.63 84.29,49.27 59.69,-96.34 232.62,-98.48 290.12,-3.64 32.53,53.64 116.98,4.64 84.29,-49.28 -96.43,-159.04 -360.54,-154.77 -458.7,3.66z"/>
   <path class="fil1" d="M4566.05 4857.39c-187.53,44.47 -374.63,60.35 -556.43,-14.37 -58.06,-23.86 -83.36,70.53 -25.95,94.13 196.79,80.87 405.68,62.41 608.33,14.37 61.1,-14.5 35.23,-108.64 -25.95,-94.13z"/>
   <path class="fil2" d="M3659.61 4894.94c0,108.8 -88.21,197.01 -197.01,197.01 -108.82,0 -197.01,-88.21 -197.01,-197.01 0,-108.82 88.2,-197.01 197.01,-197.01 108.8,0 197.01,88.2 197.01,197.01z"/>
   <path class="fil2" d="M5454.63 4851.15c0,108.82 -88.21,197.01 -197.01,197.01 -108.82,0 -197.01,-88.2 -197.01,-197.01 0,-108.8 88.2,-197.01 197.01,-197.01 108.8,0 197.01,88.21 197.01,197.01z"/>
   <path class="fil1" d="M6075.29 3138.77c-44.57,274.97 -166.57,529.75 -289.97,777.04 -20.18,-7.52 -41.77,-13.61 -63.82,-16.89 7.52,-168.92 -0.48,-338.31 -65.23,-494.1 -108.39,-261.83 -364.58,-456.56 -618.44,-564.94 -601.55,-257.13 -1478.53,-194.26 -1910.7,351.92 -179.71,226.64 -211.62,509.12 -194.26,796.29 -41.77,-15.03 -80.71,-9.86 -115.43,8.43 -173.15,-380.06 -408.7,-973.18 -143.58,-1359.81 76.95,-112.15 183.94,-103.24 282.01,-173.15 56.3,-39.89 88.68,-103.23 122,-161.89 111.67,-196.6 205.05,-411.98 369.27,-572.46 79.78,-78.36 179.26,-146.87 288.11,-176.89 119.66,-33.32 220.08,5.63 337.84,10.79 183.94,7.98 356.15,-129.51 538.21,-157.19 225.23,-33.78 456.56,12.2 624.55,172.67 182.99,174.08 315.31,435.45 312.49,688.83 -0.47,40.36 41.3,56.3 73.67,42.23 238.37,-103.23 381.48,155.32 434.5,339.72 45.52,157.19 44.58,328.93 18.77,489.41z"/>
  </g>
  <rect class="fil3" x="-0.01" y="-0.01" width="8650.96" height="8650.96"/>
 </g>
</svg>
