<?xml version="1.0" encoding="UTF-8"?>
<!DOCTYPE svg PUBLIC "-//W3C//DTD SVG 1.1//EN" "http://www.w3.org/Graphics/SVG/1.1/DTD/svg11.dtd">
<!-- Creator: CorelDRAW 2018 (64-Bit) -->
<svg xmlns="http://www.w3.org/2000/svg" xml:space="preserve" width="65.0401mm" height="65.0401mm" version="1.1" style="shape-rendering:geometricPrecision; text-rendering:geometricPrecision; image-rendering:optimizeQuality; fill-rule:evenodd; clip-rule:evenodd"
viewBox="0 0 3578.52 3578.52"
 xmlns:xlink="http://www.w3.org/1999/xlink">
 <defs>
  <style type="text/css">
   <![CDATA[
    .fil3 {fill:none}
    .fil0 {fill:#2B2B2B;fill-rule:nonzero}
    .fil2 {fill:#DF7060;fill-rule:nonzero}
    .fil1 {fill:#E6AA2F;fill-rule:nonzero}
   ]]>
  </style>
 </defs>
 <g id="Layer_x0020_1">
  <metadata id="CorelCorpID_0Corel-Layer"/>
  <g id="_883898544">
   <path class="fil0" d="M1473.47 1743.99c-14.35,0 -27.52,6.69 -37.9,17.82 -6.35,-3.04 -11.5,-8.31 -12.29,-15.67 -1.16,-10.84 -8.45,-20.19 -20.19,-20.19 -10.01,0 -21.35,9.28 -20.19,20.19 2.31,21.62 15.26,41.18 33.57,51.49 -2.27,8.49 -3.58,17.59 -3.58,27.12 0,44.6 27.12,80.76 60.57,80.76 33.46,0 60.57,-36.16 60.57,-80.76 0,-44.6 -27.11,-80.76 -60.57,-80.76z"/>
   <path class="fil0" d="M2169.73 1732.68c-11.88,0 -19.03,9.3 -20.19,20.19 -0.79,7.35 -5.93,12.63 -12.29,15.66 -10.38,-11.12 -23.54,-17.8 -37.9,-17.8 -33.45,0 -60.57,36.15 -60.57,80.76 0,44.6 27.12,80.76 60.57,80.76 33.46,0 60.57,-36.16 60.57,-80.76 0,-9.53 -1.3,-18.64 -3.58,-27.12 18.31,-10.32 31.26,-29.87 33.57,-51.49 1.16,-10.86 -10.11,-20.19 -20.19,-20.19z"/>
   <path class="fil0" d="M1817.73 1904.23c6.84,-8.59 8.23,-20.14 0,-28.56 -6.97,-7.12 -21.77,-8.51 -28.56,0 -12.79,16.06 -31.42,17.49 -45.23,1.73 -17.17,-19.58 -45.63,9.08 -28.55,28.56 27.05,30.84 76.52,30.66 102.34,-1.73z"/>
   <path class="fil0" d="M1872.81 2046.75c-48.13,79.53 -161.47,83.86 -200.05,-5.85 -10.23,-23.8 -45.03,-3.26 -34.87,20.39 51.03,118.68 207.5,108.76 269.79,5.84 13.49,-22.28 -21.41,-42.6 -34.87,-20.37z"/>
   <path class="fil0" d="M1347.69 1652.06c-13.72,22.15 21.19,42.45 34.87,20.38 24.69,-39.85 96.22,-40.74 120.02,-1.51 13.45,22.19 48.38,1.92 34.87,-20.38 -39.9,-65.79 -149.14,-64.03 -189.75,1.51z"/>
   <path class="fil0" d="M2034.15 1652.06c-13.72,22.15 21.19,42.45 34.87,20.38 24.69,-39.85 96.22,-40.74 120.01,-1.51 13.46,22.19 48.39,1.92 34.87,-20.38 -39.89,-65.79 -149.14,-64.03 -189.74,1.51z"/>
   <path class="fil0" d="M2164.23 872.06c-2.42,-0.94 -4.85,-1.88 -7.27,-2.96 58.55,-91.26 38.36,-210.51 -28.94,-295.85 -86.82,-110.23 -232.72,-147.78 -367.72,-137.02 -116.29,9.15 -252.23,55.19 -313.62,162.19 -44.01,76.45 -63.26,192.75 -15.35,272.16 -127.19,53.57 -238.24,137.56 -312.4,253.99 -130.29,204.86 -115.49,464.5 -25.57,681.61 -27.19,30.68 -41.46,74.83 -36.74,115.48 9.28,79.68 83.04,126.79 158.28,121.55 44.96,176.86 139.04,328.82 330.85,393.43 27.19,9.16 55.32,16.56 83.85,22.21 0,0 0,0 0,0.13 22.21,63.53 -50.21,97.85 -117.1,126.25 -32.3,13.6 -63.26,25.98 -81.84,39.57 -51.95,37.96 -93.41,89.11 -124.1,145.37 -60.43,110.5 -79.82,225.31 -75.51,348.61 0.94,25.3 40.11,25.3 39.3,0 -5.11,-145.23 26.38,-297.19 126.12,-409.31 107,67.7 231.37,97.04 357.9,92.87 124.64,-4.04 272.02,-30.55 378.49,-100 104.85,112.66 137.69,268.12 132.58,416.45 -0.94,25.3 38.37,25.3 39.17,0 4.31,-123.29 -15.08,-238.11 -75.51,-348.61 -30.68,-56.13 -72.14,-107.41 -123.97,-145.37 -18.44,-13.46 -49.26,-25.84 -81.29,-39.57 -65.69,-28.13 -136.75,-62.05 -118.72,-122.89 39.17,-6.6 77.66,-16.15 114.54,-28.67 154.25,-52.49 262.61,-157.75 317.52,-311.06 13.87,-39.03 24.77,-78.88 33.25,-119.26 78.33,-11.84 149.4,-53.17 149.4,-142.94 0.14,-33.38 -15.61,-75.24 -40.91,-104.71 183.32,-322.63 18.57,-737.6 -314.69,-883.64zm-686.72 -246.31l0 0c48.45,-90.05 156.8,-132.18 253.04,-145.63 111.18,-15.75 235.82,0.54 324.25,75.1 83.59,70.53 134.06,203.78 64.2,298.95 -197.99,-72.55 -441.88,-74.17 -649.3,1.48 -42.66,-65.68 -27.59,-164.21 7.81,-229.9zm-380.11 1297.66l0 0c-10.37,-51.96 26.11,-117.23 83.05,-115.22 4.17,66.09 11.98,132.18 25.44,195.98 -49.8,2.29 -98.52,-30.28 -108.48,-80.76zm814.99 649.17l0 0c6.33,4.85 12.92,8.89 19.79,12.65 23.28,12.52 49.27,20.19 73.62,30.01 36.08,14.67 68.24,33.65 97.18,58.28 -99.06,60.3 -236.09,84.8 -348.61,88.43 -116.56,3.91 -229.09,-21.53 -328.56,-81.56 54.11,-45.09 117.91,-59.63 177.67,-95.16 3.91,-2.43 7.68,-4.72 11.58,-7.27 39.3,-25.71 64.34,-66.9 56.8,-112.12 63.12,8.75 128,9.29 191.66,2.15 -5.92,40.92 14.67,78.74 48.86,104.58zm389.26 -470.56l0 0c-72.95,212.26 -262.06,315.77 -479.03,328.01 -206.2,11.58 -408.1,-52.76 -511.47,-242.81 -106.2,-195.31 -99.06,-435.97 -92.74,-652.27 231.11,-46.98 439.46,-173.63 587.93,-358.03 157.21,152.1 344.03,267.99 549.29,341.34 4.44,194.23 10.1,397.6 -53.97,583.75zm-494.65 -981.09l0 0c-17.9,-18.17 -45.63,9.02 -29.34,27.59 -156.41,194.23 -378.09,321.15 -625.48,357.22 -25.57,3.77 -14.67,42.67 10.77,39.04 4.98,-0.81 9.96,-1.75 14.94,-2.56 -1.88,71.06 -2.96,147.65 0.4,225.58 -19.25,-0.53 -36.74,3.91 -52.22,12.25 -76.46,-188.44 -92.74,-411.47 4.84,-595.6 77.67,-146.58 218.45,-246.45 374.05,-297.06 339.19,-110.37 773.81,-29.47 946.77,309.58 86.01,168.92 86.95,366.37 -4.45,532.07 -14.94,-8.35 -31.49,-12.39 -49.26,-9.83 0.94,-62.72 -0.27,-125.45 -1.75,-187.09 20.05,6.46 40.11,12.65 60.43,18.44 25.03,7 35.8,-31.9 10.77,-38.89 -251.43,-70.67 -477.42,-204.46 -660.47,-390.74zm670.16 761.29l0 0c-11.44,50.07 -53.03,70.94 -98.93,79.55 11.17,-66.08 16.56,-133.25 18.84,-200.55 57.74,-15.08 89.64,79.28 80.08,121z"/>
   <path class="fil0" d="M2119.01 854.16c-197.99,-72.55 -441.88,-74.17 -649.3,1.48 -42.66,-65.68 -27.59,-164.21 7.81,-229.9 48.45,-90.05 156.8,-132.18 253.04,-145.63 111.18,-15.75 235.82,0.54 324.25,75.1 83.59,70.53 134.06,203.78 64.2,298.95z"/>
   <path class="fil0" d="M2447.29 1729.05c-14.94,-8.35 -31.49,-12.39 -49.26,-9.83 0.94,-62.72 -0.27,-125.45 -1.75,-187.09 20.05,6.46 40.11,12.65 60.43,18.44 25.03,7 35.8,-31.9 10.77,-38.89 -251.43,-70.67 -477.42,-204.46 -660.47,-390.74 -17.9,-18.17 -45.63,9.02 -29.34,27.59 -156.41,194.23 -378.09,321.15 -625.48,357.22 -25.57,3.77 -14.67,42.67 10.77,39.04 4.98,-0.81 9.96,-1.75 14.94,-2.56 -1.88,71.06 -2.96,147.65 0.4,225.58 -19.25,-0.53 -36.74,3.91 -52.22,12.25 -76.46,-188.44 -92.74,-411.47 4.84,-595.6 77.67,-146.58 218.45,-246.45 374.05,-297.06 339.19,-110.37 773.81,-29.47 946.77,309.58 86.01,168.92 86.95,366.37 -4.45,532.07z"/>
   <path class="fil1" d="M1429.58 2882.1c9.38,-5.49 12.84,-18.22 7.24,-27.62 -6.05,-10.17 -12.1,-20.33 -18.15,-30.5 -5.57,-9.36 -18.16,-12.78 -27.63,-7.24 -9.38,5.49 -12.84,18.22 -7.24,27.62 6.05,10.17 12.1,20.33 18.15,30.5 5.57,9.36 18.16,12.78 27.63,7.24z"/>
   <path class="fil1" d="M1544.36 2910.14c8.32,-7.82 16.87,-15.02 25.34,-21.14 8.83,-6.38 13.13,-17.56 7.24,-27.62 -5.09,-8.72 -18.74,-13.67 -27.62,-7.25 -11.72,8.47 -22.97,17.55 -33.51,27.46 -7.94,7.47 -7.54,21.01 0,28.55 7.93,7.93 20.58,7.49 28.56,0z"/>
   <path class="fil1" d="M1731.22 2996.68c8.83,-6.38 13.13,-17.56 7.24,-27.63 -5.09,-8.72 -18.74,-13.66 -27.62,-7.24 -11.72,8.47 -22.97,17.55 -33.51,27.45 -7.94,7.47 -7.54,21.01 0,28.56 7.93,7.93 20.59,7.49 28.56,0 8.32,-7.83 16.87,-15.02 25.34,-21.14z"/>
   <path class="fil1" d="M1452 2951.52c-6.82,-8.52 -21.44,-7.11 -28.55,0 -8.42,8.42 -6.84,20.02 0,28.56 7.99,9.98 15.98,19.97 23.98,29.95 6.82,8.52 21.44,7.11 28.55,0 8.42,-8.42 6.84,-20.01 0,-28.55 -7.99,-9.99 -15.98,-19.97 -23.98,-29.95z"/>
   <path class="fil1" d="M1350.46 3037.02c-9.52,5.07 -19.05,10.13 -28.57,15.2 -9.62,5.12 -12.59,18.48 -7.24,27.62 5.69,9.74 17.96,12.39 27.62,7.24 9.52,-5.07 19.05,-10.13 28.57,-15.2 9.62,-5.12 12.59,-18.48 7.25,-27.63 -5.7,-9.74 -17.96,-12.38 -27.63,-7.24z"/>
   <path class="fil1" d="M1542.69 3081.27c-7.3,-8.12 -21.13,-7.43 -28.56,0 -8.06,8.06 -7.31,20.42 0,28.55 9.06,10.06 18.65,19.57 28.81,28.51 8.18,7.2 20.5,8.05 28.55,0 7.35,-7.35 8.22,-21.31 0,-28.55 -10.16,-8.95 -19.76,-18.45 -28.81,-28.51z"/>
   <path class="fil1" d="M1579.79 2954.08c-10,0 -21.38,9.28 -20.19,20.19 1.43,13.16 2.86,26.32 4.3,39.47 1.18,10.84 8.43,20.19 20.19,20.19 10,0 21.38,-9.28 20.19,-20.19 -1.44,-13.16 -2.87,-26.32 -4.3,-39.47 -1.18,-10.84 -8.43,-20.19 -20.19,-20.19z"/>
   <path class="fil1" d="M1729.04 2912.38c9.51,5.34 22.05,2.28 27.62,-7.25 5.45,-9.31 2.3,-22.27 -7.24,-27.62 -10.07,-5.65 -20.14,-11.31 -30.21,-16.96 -9.51,-5.34 -22.05,-2.28 -27.62,7.24 -5.45,9.31 -2.29,22.27 7.24,27.63 10.07,5.65 20.14,11.31 30.21,16.96z"/>
   <path class="fil1" d="M1830.25 2965.59c-10.33,0 -17.95,8.43 -18.39,18.4 -0.54,12.33 -1.09,24.67 -1.64,37 -0.44,9.94 8.77,18.4 18.4,18.4 10.33,0 17.95,-8.43 18.4,-18.4 0.54,-12.33 1.09,-24.67 1.63,-37 0.44,-9.94 -8.77,-18.4 -18.4,-18.4z"/>
   <path class="fil1" d="M1733.84 3076.86c-8.24,-7.13 -20.45,-8.1 -28.56,0 -7.28,7.29 -8.28,21.39 0,28.56 9.94,8.59 19.87,17.19 29.81,25.78 8.24,7.14 20.45,8.1 28.56,0 7.29,-7.29 8.28,-21.39 0,-28.55 -9.94,-8.59 -19.87,-17.19 -29.81,-25.79z"/>
   <path class="fil1" d="M1916.7 2874.8c6.33,-9.42 12.67,-18.84 19,-28.27 6.09,-9.05 1.75,-22.36 -7.25,-27.62 -9.93,-5.81 -21.52,-1.83 -27.62,7.24 -6.33,9.42 -12.67,18.84 -19,28.27 -6.09,9.05 -1.75,22.37 7.24,27.62 9.93,5.81 21.52,1.83 27.63,-7.24z"/>
   <path class="fil1" d="M1971.42 2971.84c-11.15,-7.39 -22.29,-14.79 -33.45,-22.19 -9.09,-6.02 -22.34,-1.79 -27.62,7.25 -5.78,9.88 -1.87,21.58 7.24,27.63 11.15,7.39 22.3,14.79 33.45,22.18 9.09,6.02 22.34,1.79 27.62,-7.25 5.78,-9.88 1.87,-21.58 -7.24,-27.62z"/>
   <path class="fil1" d="M2108.71 2776.29c-9.69,9.75 -18.21,20.72 -25.3,32.49 -5.63,9.34 -2.08,22.17 7.24,27.63 9.55,5.58 21.98,2.12 27.63,-7.25 5.73,-9.52 11.04,-16.32 18.99,-24.32 7.68,-7.73 7.72,-20.82 0,-28.55 -7.72,-7.71 -20.85,-7.76 -28.56,0z"/>
   <path class="fil1" d="M2071.24 2917.01c5.31,-9.08 2.46,-22.56 -7.24,-27.62 -10,-5.23 -20.01,-10.45 -30.01,-15.68 -9.66,-5.05 -21.94,-2.48 -27.63,7.25 -5.31,9.08 -2.45,22.55 7.25,27.62 10,5.23 20.01,10.45 30.01,15.68 9.66,5.05 21.94,2.48 27.62,-7.25z"/>
   <path class="fil1" d="M2217.13 2978.93c0,-17.38 0,-34.77 0,-52.15 0,-25.98 -40.38,-26.03 -40.38,0 0,17.39 0,34.77 0,52.15 0,25.99 40.38,26.02 40.38,0z"/>
   <path class="fil1" d="M2111.64 2959.86c-6.96,-8.41 -21.35,-7.2 -28.56,0 -8.32,8.32 -6.97,20.13 0,28.56 5.86,7.08 11.72,14.16 17.58,21.24 6.96,8.4 21.35,7.2 28.56,0 8.31,-8.32 6.97,-20.13 0,-28.55 -5.87,-7.09 -11.72,-14.17 -17.58,-21.25z"/>
   <path class="fil1" d="M2222.59 3060.98c-10.02,-5.87 -21.41,-1.76 -27.63,7.25 -5.04,7.3 -10.07,14.59 -15.11,21.89 -6.2,8.98 -1.67,22.42 7.25,27.63 10.02,5.86 21.41,1.76 27.62,-7.25 5.04,-7.3 10.07,-14.59 15.11,-21.89 6.2,-8.97 1.67,-22.41 -7.24,-27.62z"/>
   <path class="fil1" d="M1949.84 3100.97c-6.68,-4.98 -13.85,-11.61 -20.13,-18.04 -7.62,-7.8 -20.9,-7.65 -28.55,0 -7.81,7.81 -7.64,20.73 0,28.56 8.75,8.96 18.26,16.86 28.29,24.35 8.75,6.53 22.56,1.43 27.63,-7.24 6.02,-10.31 1.52,-21.08 -7.24,-27.63z"/>
   <path class="fil1" d="M2075.77 3049.6c-9.95,0 -21.44,9.29 -20.19,20.19 1.61,14.03 3.21,28.06 4.82,42.09 1.24,10.83 8.39,20.19 20.19,20.19 9.95,0 21.44,-9.29 20.19,-20.19 -1.61,-14.03 -3.21,-28.06 -4.82,-42.09 -1.24,-10.83 -8.39,-20.19 -20.19,-20.19z"/>
   <path class="fil1" d="M1357.45 2974.88c0.09,-14.93 0.19,-29.85 0.28,-44.78 0.17,-25.99 -40.21,-26.01 -40.37,0 -0.1,14.93 -0.19,29.85 -0.29,44.78 -0.17,25.99 40.21,26.01 40.38,0z"/>
   <path class="fil2" d="M1461.86 2037.22c0,45.01 -36.49,81.5 -81.5,81.5 -45.01,0 -81.5,-36.49 -81.5,-81.5 0,-45.01 36.48,-81.5 81.5,-81.5 45.01,0 81.5,36.49 81.5,81.5z"/>
   <path class="fil2" d="M2258.7 2037.22c0,45.01 -36.48,81.5 -81.5,81.5 -45.01,0 -81.5,-36.49 -81.5,-81.5 0,-45.01 36.49,-81.5 81.5,-81.5 45.01,0 81.5,36.49 81.5,81.5z"/>
  </g>
  <rect class="fil3" x="-0" y="-0" width="3578.52" height="3578.52"/>
 </g>
</svg>
