<?xml version="1.0" encoding="UTF-8"?>
<!DOCTYPE svg PUBLIC "-//W3C//DTD SVG 1.1//EN" "http://www.w3.org/Graphics/SVG/1.1/DTD/svg11.dtd">
<!-- Creator: CorelDRAW 2018 (64-Bit) -->
<svg xmlns="http://www.w3.org/2000/svg" xml:space="preserve" width="65.0401mm" height="65.0401mm" version="1.1" style="shape-rendering:geometricPrecision; text-rendering:geometricPrecision; image-rendering:optimizeQuality; fill-rule:evenodd; clip-rule:evenodd"
viewBox="0 0 1482.61 1482.61"
 xmlns:xlink="http://www.w3.org/1999/xlink">
 <defs>
  <style type="text/css">
   <![CDATA[
    .fil3 {fill:none}
    .fil0 {fill:#2B2B2B;fill-rule:nonzero}
    .fil2 {fill:#DF7060;fill-rule:nonzero}
    .fil1 {fill:#E6AA2F;fill-rule:nonzero}
   ]]>
  </style>
 </defs>
 <g id="Layer_x0020_1">
  <metadata id="CorelCorpID_0Corel-Layer"/>
  <g id="_987963856">
   <path class="fil0" d="M1014.96 633.05c31.99,-59.05 55.06,-166.09 -0.3,-217.29 15.28,-23.01 24.86,-50.13 27.53,-78.67 1.78,-19.03 -1.9,-38.77 -20.63,-47.81 -18.73,-9.04 -37.05,-1.01 -52.45,10.35 -7.37,-36.81 -53.34,-47.22 -84.08,-23.91 -8.98,-20.04 -29.08,-31.34 -53.34,-30.98 -21.11,0.3 -40.38,9.33 -59.82,16.47 -24.32,8.8 -48.58,11.53 -74.21,13.91 -51.85,4.76 -113.4,27.17 -131.54,74.81 -60.66,6.54 -107.46,50.19 -124.22,108.41 -19.98,69.28 3.27,139.8 38.12,200.05 -13.74,12.25 -21.11,33.3 -18.79,51.08 1.72,13.26 8.32,24.56 17.66,32.88 11.66,10.35 27.53,16.06 43.65,15.04 11.24,39.78 28.37,77.66 54.71,109.71 31.46,38.36 73.98,59.82 120.06,68.98l0 0.24c14.51,41.62 -62.68,54.83 -87.89,73.26 -22.95,16.77 -41.27,39.37 -54.83,64.22 -26.7,48.82 -35.26,99.55 -33.36,154.02 0.41,11.18 17.72,11.18 17.36,0 -2.32,-65.95 12.37,-135.11 59.41,-185 14.81,-15.7 31.87,-24.26 49.42,-32.17 -2.32,46.03 15.7,98.83 41.75,135.11 3.93,5.53 11,5.59 14.99,0 12.31,-17.42 26.7,-31.87 43.59,-43.94 0.3,38.65 -1.9,77.9 0.89,116.14 1.9,26.16 24.56,20.1 46.56,17.13 11.06,-1.49 6.36,-18.2 -4.58,-16.71 -27.59,3.69 -24.5,-4.34 -24.38,-26.88 0.06,-10.58 0.06,-21.17 0,-31.69 -0.12,-20.04 -0.53,-40.08 -1.13,-60.06 18.25,12.49 33.66,27.53 46.68,46.03 3.92,5.59 11,5.53 14.99,0 26.64,-37.11 44.95,-91.58 41.57,-138.32 19.21,8.5 35.92,19.92 50.49,35.38 46.98,49.83 61.67,119.05 59.41,185 -0.42,11.18 16.95,11.18 17.3,0 1.9,-54.47 -6.66,-105.19 -33.36,-154.02 -13.56,-24.8 -31.87,-47.45 -54.77,-64.22 -25.21,-18.38 -102.28,-32.17 -87.95,-73.26 0.18,-0.48 0.24,-0.89 0.3,-1.37 55.36,-11.71 107.69,-40.26 134.75,-91.99 16.29,-30.98 24.98,-65.41 30.03,-100.62 0.3,-1.66 0.54,-3.39 0.77,-5.11 61.91,7.91 71.66,-83.31 29.68,-104.19zm-306.72 -340.98l0 0c21.88,-1.9 42.81,-4.52 63.69,-11.95 26.4,-9.46 93.12,-41.27 99.9,12.13 0.83,6.66 9.69,13.02 15.23,6.3 8.74,-10.65 18.91,-18.73 33.42,-17.96 18.14,0.95 35.14,12.96 31.64,35.08 -1.37,8.68 7.91,15.04 14.86,8.68 13.08,-11.77 43.71,-37.35 56.73,-7.49 4.34,9.99 -0.06,24.8 -2.2,34.61 -4.76,21.82 -13.02,43.71 -26.11,61.96 -0.06,0.06 -0.06,0.12 -0.12,0.18 -2.32,3.21 -4.76,6.36 -7.37,9.34 -8.32,9.45 -18.02,17.07 -28.54,23.25 -1.31,0.3 -2.56,1.01 -3.57,2.02 -28.31,15.58 -62.32,21.29 -94.13,23.61 -47.87,3.45 -96.16,-0.36 -142.9,-11.36 -46.62,-10.94 -109.18,-27.41 -139.03,-67.79 -12.96,-74.27 72.96,-95.74 128.51,-100.62zm-253.8 192.91l0 0c8.68,-57.44 48.17,-107.75 107.1,-116.55 -0.83,6.42 -0.89,13.2 -0.24,20.34 -0.65,1.25 -1.01,2.85 -0.77,4.82 6.54,49.65 -11.71,94.61 -27.65,140.64 -12.9,37.29 -23.43,74.75 -27.59,113.88 -3.39,0.06 -6.66,0.53 -9.75,1.49 -28.96,-49.95 -49.89,-106.03 -41.09,-164.6zm51.5 180.96l0 0c2.44,24.56 6.24,49.36 12.01,73.74 -16.06,-0.59 -31.58,-9.16 -37.17,-25.27 -6.07,-17.48 3.09,-47.63 25.15,-48.46zm191.18 460.5l0 0c-21.47,-34.91 -37.22,-85.04 -31.81,-123.75 0.48,-0.24 1.01,-0.47 1.55,-0.71 18.32,19.62 36.69,39.31 55.07,58.99 5.35,5.71 12.67,15.94 20.93,23.19 -17.42,11.77 -32.53,25.75 -45.73,42.28zm153.42 -125.95l0 0c-0.06,0.65 -0.06,1.31 0.06,2.02 5.47,38.89 -10.29,88.96 -31.87,123.93 -12.49,-15.7 -26.7,-29.08 -43.05,-40.5 10.88,-8.21 21.47,-22.12 27.77,-28.78 16.77,-17.78 31.28,-37.17 44.42,-57.68 0.89,0.36 1.78,0.65 2.68,1.01zm-28.31 -13.97l0 0c3.03,2.32 6.18,4.22 9.51,6.01 -10.23,15.76 -21.29,30.92 -33.84,45.01 -8.92,9.99 -27.83,37.29 -43.59,32.11 -11.3,-3.63 -26.88,-28.13 -34.91,-36.75 -12.19,-13.08 -24.38,-26.11 -36.57,-39.19 2.73,-1.55 5.41,-3.09 8.03,-4.82 17.42,-11.36 28.49,-29.67 25.1,-49.71 23.37,2.97 47.39,3.09 71.18,0.83 4.58,-0.42 9.22,-1.01 13.8,-1.67 -3.51,18.79 5.65,36.34 21.29,48.17zm126.84 -175.42l0 0c-25.45,69.63 -90.92,104.12 -161.92,111.08 -71.36,6.96 -146.34,-7.43 -194.45,-64.28 -28.01,-33.06 -45.25,-73.44 -55.9,-115.54 -7.02,-27.53 -11.18,-55.78 -13.74,-83.25 -0.12,-1.07 -0.36,-1.96 -0.71,-2.8 4.04,-47.75 18.97,-92.29 34.79,-137.25 11.6,-33 21.94,-65.71 22.6,-100.02 42.1,39.43 111.98,55.9 165.02,64.88 64.46,10.94 139.62,13.5 201.41,-11.48 1.37,-0.59 2.68,-1.25 3.98,-1.84 -9.04,56.61 -0.48,112.99 25.1,164.84 0,0.12 -0.06,0.18 -0.06,0.3 -1.78,35.26 -3.51,71.36 -9.04,106.62 -3.57,23.43 -8.92,46.5 -17.07,68.74zm21.17 -351.27l0 0c12.73,-8.21 23.96,-18.2 33.6,-29.56 47.51,48.11 22.24,147.83 -6.84,198.44 -0.06,0.06 -0.06,0.06 -0.06,0.06 -1.6,0 -3.33,0.12 -5.05,0.24 -26.7,-52.93 -34.13,-111.2 -21.65,-169.18zm17.19 259.75l0 0c2.56,-24.38 3.87,-48.94 5.06,-72.73 42.99,-2.08 41.45,79.51 -5.06,72.73z"/>
   <path class="fil0" d="M628.31 647.2c-13.14,0 -23.79,10.65 -23.79,23.79 0,13.14 10.65,23.79 23.79,23.79 13.14,0 23.79,-10.65 23.79,-23.79 0,-13.14 -10.65,-23.79 -23.79,-23.79z"/>
   <path class="fil0" d="M872.12 594.4c-36.59,0 -67.22,25.8 -74.77,60.15 -14.45,-8.86 -30.62,-14.32 -48.05,-13.8 -17.04,0.51 -32.03,8.56 -45.37,18.64 -5.61,-36.74 -37.33,-65 -75.62,-65 -42.24,0 -76.59,34.36 -76.59,76.59 0,42.23 34.36,76.59 76.59,76.59 38.35,0 70.1,-28.35 75.64,-65.17 28.09,-24.66 60.26,-32.17 91.76,-7.68 1.97,40.49 35.43,72.85 76.4,72.85 42.24,0 76.59,-34.36 76.59,-76.59 0,-42.23 -34.36,-76.59 -76.59,-76.59zm-243.81 136.77l0 0c-33.18,0 -60.18,-27 -60.18,-60.18 0,-33.18 27,-60.18 60.18,-60.18 33.18,0 60.18,27 60.18,60.18 0,1.05 -0.1,2.08 -0.16,3.12 -0.31,1.07 -0.36,2.14 -0.18,3.19 -3.16,30.23 -28.79,53.87 -59.84,53.87zm243.81 0l0 0c-33.18,0 -60.18,-27 -60.18,-60.18 0,-33.18 27,-60.18 60.18,-60.18 33.18,0 60.18,27 60.18,60.18 0,33.18 -27,60.18 -60.18,60.18z"/>
   <path class="fil0" d="M872.12 647.2c-13.14,0 -23.79,10.65 -23.79,23.79 0,13.14 10.65,23.79 23.79,23.79 13.14,0 23.79,-10.65 23.79,-23.79 0,-13.14 -10.65,-23.79 -23.79,-23.79z"/>
   <path class="fil0" d="M776.76 734.51c9.31,-6.57 0.41,-22.04 -9,-15.41 -8.61,6.08 -20.17,6.66 -28.48,-0.47 -8.67,-7.44 -21.35,5.12 -12.61,12.61 14.05,12.05 34.65,14.16 50.1,3.26z"/>
   <path class="fil0" d="M809.2 781.59c-25.25,47.1 -87.6,50.48 -116.52,4.72 -6.12,-9.68 -21.56,-0.74 -15.4,9 35.7,56.49 115.51,54.62 147.33,-4.72 5.42,-10.12 -9.97,-19.14 -15.41,-9z"/>
   <path class="fil0" d="M582.78 592.13c22.75,-22.39 55.88,-24.66 80.48,-3.76 8.7,7.39 21.38,-5.17 12.61,-12.61 -31.99,-27.19 -75.66,-25.81 -105.71,3.76 -8.19,8.07 4.42,20.68 12.61,12.61z"/>
   <path class="fil0" d="M832.53 592.13c22.75,-22.39 55.89,-24.66 80.48,-3.76 8.7,7.39 21.38,-5.17 12.61,-12.61 -31.99,-27.19 -75.66,-25.81 -105.71,3.76 -8.19,8.07 4.42,20.68 12.61,12.61z"/>
   <path class="fil0" d="M782.92 1134.83c-6.57,0 -11.89,5.33 -11.89,11.89 0,6.57 5.32,11.89 11.89,11.89 6.57,0 11.89,-5.33 11.89,-11.89 0,-6.57 -5.33,-11.89 -11.89,-11.89z"/>
   <path class="fil0" d="M782.92 1176.45c-6.57,0 -11.89,5.33 -11.89,11.89 0,6.57 5.32,11.89 11.89,11.89 6.57,0 11.89,-5.33 11.89,-11.89 0,-6.57 -5.33,-11.89 -11.89,-11.89z"/>
   <path class="fil1" d="M1021.5 351.48c-4.76,21.82 -13.02,43.71 -26.11,61.96 -0.06,0.06 -0.06,0.12 -0.12,0.18 -2.32,3.21 -4.76,6.36 -7.37,9.34 -8.32,9.45 -18.02,17.07 -28.54,23.25 -1.31,0.3 -2.56,1.01 -3.57,2.02 -28.31,15.58 -62.32,21.29 -94.13,23.61 -47.87,3.45 -96.16,-0.36 -142.9,-11.36 -46.62,-10.94 -109.18,-27.41 -139.03,-67.79 -12.96,-74.27 72.96,-95.74 128.51,-100.62 21.88,-1.9 42.81,-4.52 63.69,-11.95 26.4,-9.46 93.12,-41.27 99.9,12.13 0.83,6.66 9.69,13.02 15.23,6.3 8.74,-10.65 18.91,-18.73 33.42,-17.96 18.14,0.95 35.14,12.96 31.64,35.08 -1.37,8.68 7.91,15.04 14.86,8.68 13.08,-11.77 43.71,-37.35 56.73,-7.49 4.34,9.99 -0.06,24.8 -2.2,34.61z"/>
   <path class="fil1" d="M532.87 534.22c-12.9,37.29 -23.43,74.75 -27.59,113.88 -3.39,0.06 -6.66,0.53 -9.75,1.49 -28.96,-49.95 -49.89,-106.03 -41.09,-164.6 8.68,-57.44 48.17,-107.75 107.1,-116.55 -0.83,6.42 -0.89,13.2 -0.24,20.34 -0.65,1.25 -1.01,2.85 -0.77,4.82 6.54,49.65 -11.71,94.61 -27.65,140.64z"/>
   <path class="fil1" d="M997 628.71c-0.06,0.06 -0.06,0.06 -0.06,0.06 -1.6,0 -3.33,0.12 -5.05,0.24 -26.7,-52.93 -34.13,-111.2 -21.65,-169.18 12.73,-8.21 23.96,-18.2 33.6,-29.56 47.51,48.11 22.24,147.83 -6.84,198.44z"/>
   <path class="fil2" d="M632.76 786.11c0,19.88 -16.12,36.01 -36.01,36.01 -19.89,0 -36.01,-16.12 -36.01,-36.01 0,-19.89 16.12,-36.01 36.01,-36.01 19.88,0 36.01,16.12 36.01,36.01z"/>
   <path class="fil2" d="M944.8 786.11c0,19.88 -16.12,36.01 -36,36.01 -19.89,0 -36.01,-16.12 -36.01,-36.01 0,-19.89 16.12,-36.01 36.01,-36.01 19.88,0 36,16.12 36,36.01z"/>
  </g>
  <rect class="fil3" x="-0" y="-0" width="1482.62" height="1482.62"/>
 </g>
</svg>
