<?xml version="1.0" encoding="UTF-8"?>
<!DOCTYPE svg PUBLIC "-//W3C//DTD SVG 1.1//EN" "http://www.w3.org/Graphics/SVG/1.1/DTD/svg11.dtd">
<!-- Creator: CorelDRAW 2018 (64-Bit) -->
<svg xmlns="http://www.w3.org/2000/svg" xml:space="preserve" width="99.822mm" height="27.0086mm" version="1.1" style="shape-rendering:geometricPrecision; text-rendering:geometricPrecision; image-rendering:optimizeQuality; fill-rule:evenodd; clip-rule:evenodd"
viewBox="0 0 7911.27 2140.53"
 xmlns:xlink="http://www.w3.org/1999/xlink">
 <defs>
  <style type="text/css">
   <![CDATA[
    .fil0 {fill:#20AEED}
   ]]>
  </style>
 </defs>
 <g id="Layer_x0020_1">
  <metadata id="CorelCorpID_0Corel-Layer"/>
  <g id="_2073195634032">
   <path class="fil0" d="M4817.89 516.68l0 -93.94 -241.57 0 0 845.48c0,15.45 4.67,20.13 20.13,20.13 272.91,0 235.47,20.83 234.88,-80.5l-0.02 -315.41c-0.01,-84.86 -2.62,-121.12 28.79,-179.22 56.54,-104.59 241.18,-115.88 292.3,-7.67 34.78,73.6 21.12,298.6 21.12,394.91 0,60.84 -13.53,187.89 20.13,187.89l234.85 0 0 -442.87c0,-115.4 59.38,-214.73 174.47,-214.73 176.09,0 174.46,122.61 174.46,268.41l-0.01 301.96c-0.36,109.22 -39.9,87.23 234.86,87.23 15.46,0 20.13,-4.68 20.13,-20.13l0 -469.71c0,-427.31 -394.98,-458.41 -604.02,-308.78 -23.82,17.05 -36.63,37.96 -60.28,53.8 -37.74,-27.66 -82.52,-134.2 -288.53,-134.2 -162.42,0 -205.04,69.42 -261.7,107.36z"/>
   <path class="fil0" d="M6347.81 509.97l0 -87.23 -228.15 0c-15.46,0 -20.13,4.67 -20.13,20.13l0 825.35c0,15.45 4.67,20.13 20.13,20.13l234.85 0 0 -429.45c0,-123.07 52.64,-228.15 174.47,-228.15 66.07,0 126.4,11.8 153.71,81.14 33.61,85.36 21.11,373.25 20.74,489.23 -0.36,109.22 -39.9,87.23 234.86,87.23 30.59,0 20.35,-47.62 20.15,-80.5l-0.02 -322.11c-0.03,-139.11 20.35,-254.99 194.6,-254.99 120.33,0 154.33,100.46 154.33,221.43l0 436.17 248.28 0 0 -543.52c0,-333.86 -392,-424.13 -605.58,-249.93 -37.64,30.69 -38.14,41.55 -58.73,55.33 -6.31,-23.6 -3.8,-11.62 -17.73,-29.24 -93.98,-118.89 -283.69,-137.89 -420.51,-80.2 -47.05,19.83 -68.24,44.38 -105.28,69.19z"/>
   <path class="fil0" d="M-0 1268.22l228.15 0c15.46,0 20.13,-4.68 20.13,-20.13l0 -483.13 570.36 0c35.46,0 20.13,75.98 20.13,174.46 0,53.83 3.76,113.38 -3.88,163.87 -7.72,51.01 -5.91,122.91 3.88,164.93l201.89 0.58c25,0.19 46.39,5.18 46.39,-20.71l0 -1194.41c0,-32.01 -54.39,-20.14 -114.07,-20.13 -44.74,0.01 -89.47,0 -134.21,0 -7.84,33.65 -10.8,89.15 -4.87,132.37 7.86,57.36 4.87,273.67 4.87,344.06 0,15.45 -4.67,20.13 -20.13,20.13l-570.36 0 0 -496.56 -248.28 0 0 1234.67z"/>
   <path class="fil0" d="M1456.11 838.77c0,-109.89 85.23,-228.15 187.88,-228.15l46.97 0c204.01,0 256.31,274.53 142.75,397.74 -73.71,79.97 -217.69,95.28 -315.72,-3.34 -33.08,-33.28 -61.89,-102.72 -61.89,-166.26zm-234.86 -46.97c0,135.86 10.63,263.3 112.29,364.13 37.91,37.58 57.47,60.01 106.89,87.7 115.77,64.89 285.71,65.76 400.14,-20.39 17.16,-12.93 30.05,-25.54 44.98,-35.54 0,100.81 -38.79,80.52 228.15,80.52l0 -838.77c0,-15.46 -4.67,-20.13 -20.13,-20.13 -244.93,0 -208.02,-20.49 -208.02,87.23 -59.54,-39.87 -83.46,-107.36 -268.4,-107.36 -115.26,0 -214.96,62.62 -273.59,122.31 -53.92,54.91 -122.31,174.61 -122.31,280.29z"/>
   <path class="fil0" d="M3623.48 939.42c0,196.38 133.78,355.64 328.8,355.64 176.31,0 167.54,-10.64 301.96,-100.65 0,115.97 -40.9,93.95 221.43,93.95 15.46,0 20.13,-4.68 20.13,-20.13l0 -845.48 -254.99 0 0 449.57c0,242.48 -273.95,250.09 -333.52,138.92 -35.81,-66.83 -28.83,-90.4 -28.83,-185.89l0.02 -315.39c0.36,-110.18 42.68,-87.22 -255,-87.22l0 516.68z"/>
   <path class="fil0" d="M3314.81 825.35c0,305.44 -353.34,311.13 -428.7,113.32 -73.34,-192.5 77.64,-386.29 288.79,-315.64 73.8,24.7 139.91,106.29 139.91,202.31zm-684.44 -20.13c0,157.98 22.29,247.1 125.81,350.61 123.09,123.1 216.12,132.52 377.45,132.52 322.71,0 547.29,-397.73 347.83,-703.46 -146.99,-225.3 -517.09,-263.86 -711.99,-76.73 -63.42,60.88 -139.1,176.34 -139.1,297.07z"/>
   <path class="fil0" d="M2341.85 2140.53c211.16,0 348.51,-42.32 506,-151.59 101.48,-70.39 221.02,-194.97 279.08,-304.7 -331.4,0 -186.22,-36.15 -383.42,113.13 -287.41,217.58 -537.72,152.03 -794.76,-48.83 -107.3,-83.85 6.7,-64.3 -318.18,-64.3 13.05,48.88 86.77,125.58 122.4,166.13 137.63,156.69 362.93,290.16 588.88,290.16z"/>
   <path class="fil0" d="M2281.45 1268.22l214.72 0c15.46,0 20.13,-4.68 20.13,-20.13l0 -1248.09 -234.85 0 0 1268.22z"/>
   <path class="fil0" d="M7629.44 1268.22c0,15.45 4.67,20.13 20.13,20.13l214.72 0c15.46,0 20.13,-4.68 20.13,-20.13l0 -845.48 -254.98 0 0 845.48z"/>
   <path class="fil0" d="M7602.6 140.91c0,49.63 -3.84,89.83 48.66,132.51 85.41,69.47 260.01,28.91 260.01,-98.96l0 -1.89c-0.05,-39.68 -1.88,-77.87 -41.87,-110.57 -91.66,-74.93 -266.8,-24.02 -266.8,78.91z"/>
  </g>
 </g>
</svg>
